<svg width="724" height="496" viewBox="0 0 724 496" fill="none" xmlns="http://www.w3.org/2000/svg">
<path d="M687.477 304.052C677.547 270.935 709.142 269.611 709.855 226.891C710.14 209.427 699.83 191.567 675.053 183.486C662.89 179.468 650.751 176.709 639.918 170.24C615.212 155.713 615.664 128.072 609.036 104.493C594.236 52.7213 537.294 11.5909 479.686 12.9156C438.138 13.887 400.58 15.1233 362.714 47.8422C336.701 70.3392 319.787 97.9361 295.794 121.051C270.328 145.535 239.279 157.28 204.406 165.206C171.457 172.558 135.586 181.389 110.357 203.731C86.6016 224.683 90.0937 246.606 100.261 272.348C111.474 300.718 87.148 320.036 61.8007 331.097C40.4207 340.391 12.0564 339.574 2.12654 361.851C-8.61101 385.981 23.3166 386.379 52.9874 386.379C82.6582 386.379 466.93 384.171 574.329 387.218C603.239 388.012 695.483 395.32 708.501 361.851C717.385 339.045 694.437 327.101 687.477 304.052Z" fill="#F9FDFF"/>
<path d="M711.161 277.183C689.781 323.546 648.351 361.475 598.797 382.029" stroke="#5FA3E1" stroke-miterlimit="10"/>
<path d="M704.866 289.569C712.458 283.702 717.519 275.487 719.12 266.432C719.436 265.363 719.5 264.244 719.308 263.15C719.115 262.056 718.67 261.014 718.003 260.095C717.58 259.611 716.979 259.289 716.316 259.19C715.786 259.212 715.268 259.347 714.803 259.584C714.337 259.822 713.937 260.155 713.632 260.559C709.926 264.445 708.62 269.832 707.978 274.998C707.337 280.164 706.125 283.983 704.961 289.569" fill="#8CC0F1"/>
<path d="M694.675 305.332C699.107 297.137 700.22 287.734 697.811 278.839C697.64 277.74 697.216 276.688 696.569 275.754C695.921 274.821 695.064 274.028 694.057 273.43C693.476 273.137 692.794 273.065 692.157 273.232C691.675 273.434 691.252 273.74 690.921 274.123C690.591 274.507 690.363 274.958 690.256 275.439C688.498 280.385 689.615 285.794 691.23 290.894C692.846 295.993 693.368 299.725 694.675 305.376" fill="#8CC0F1"/>
<path d="M679.685 324.893C685.146 317.28 687.481 308.097 686.265 299.018C686.266 297.886 685.995 296.767 685.474 295.744C684.952 294.721 684.192 293.818 683.248 293.101C682.711 292.747 682.048 292.597 681.396 292.682C680.894 292.834 680.437 293.093 680.062 293.438C679.687 293.783 679.403 294.204 679.234 294.669C676.858 299.393 677.214 304.891 678.165 310.123C679.115 315.355 679.091 319.219 679.685 324.871" fill="#8CC0F1"/>
<path d="M662.439 341.848C667.861 334.254 670.186 325.109 668.995 316.062C668.973 314.949 668.693 313.854 668.172 312.851C667.651 311.849 666.903 310.963 665.978 310.255C665.43 309.904 664.761 309.755 664.102 309.836C663.6 309.988 663.143 310.247 662.768 310.592C662.393 310.937 662.109 311.358 661.94 311.823C659.564 316.548 659.921 322.045 660.895 327.277C661.868 332.51 661.821 336.373 662.391 342.047" fill="#8CC0F1"/>
<path d="M636.64 361.519C642.935 354.468 646.306 345.556 646.142 336.395C646.238 335.284 646.075 334.167 645.665 333.119C645.255 332.072 644.608 331.118 643.767 330.324C643.263 329.927 642.621 329.715 641.961 329.728C641.444 329.836 640.96 330.053 640.548 330.363C640.136 330.674 639.807 331.068 639.586 331.516C636.664 335.931 636.45 341.473 636.806 346.683C637.162 351.893 636.806 355.823 636.687 361.519" fill="#323232"/>
<path d="M616.4 374.082C622.753 367.449 626.599 359.068 627.351 350.216C627.799 348.047 627.331 345.802 626.045 343.946C625.868 343.723 625.644 343.535 625.386 343.395C625.129 343.255 624.844 343.164 624.548 343.129C623.646 343.129 622.885 343.857 622.315 344.63C619.553 349.117 618.134 354.209 618.205 359.378C617.944 364.588 617.089 368.43 616.4 374.082Z" fill="#323232"/>
<path d="M689.568 312.309C699.745 313.764 710.15 311.908 719.025 307.054C720.173 306.573 721.202 305.876 722.044 305.005C722.887 304.135 723.525 303.111 723.918 301.999C724.087 301.394 723.993 300.751 723.657 300.21C723.298 299.837 722.846 299.549 722.342 299.372C721.837 299.196 721.294 299.135 720.759 299.195C714.939 299.195 709.356 301.756 704.367 304.758C699.379 307.761 695.245 309.417 689.568 312.309Z" fill="#8CC0F1"/>
<path d="M677.452 327.1C686.955 330.796 697.546 331.303 707.408 328.536C708.646 328.327 709.823 327.882 710.866 327.229C711.909 326.575 712.794 325.727 713.466 324.738C713.624 324.463 713.723 324.161 713.756 323.851C713.788 323.54 713.754 323.226 713.656 322.928C713.323 322.001 712.159 321.559 711.114 321.294C705.484 319.925 699.379 321.294 693.772 323.06C688.166 324.827 683.7 325.555 677.452 327.1Z" fill="#8CC0F1"/>
<path d="M659.35 344.189C667.87 349.559 678.127 352.024 688.38 351.165C689.64 351.184 690.891 350.963 692.055 350.515C693.22 350.067 694.273 349.401 695.15 348.56C695.579 348.071 695.784 347.444 695.72 346.816C695.578 345.844 694.556 345.204 693.582 344.741C688.356 342.356 682.084 342.533 676.193 343.261C670.302 343.99 665.812 343.835 659.35 344.189Z" fill="#8CC0F1"/>
<path d="M634.027 364.014C643.619 367.495 654.212 367.784 664.006 364.831C665.24 364.591 666.407 364.116 667.433 363.436C668.46 362.755 669.323 361.885 669.969 360.879C670.271 360.325 670.33 359.685 670.135 359.091C669.868 358.656 669.494 358.286 669.044 358.01C668.595 357.734 668.081 357.559 667.546 357.501C661.869 356.243 655.811 357.722 650.228 359.709C644.646 361.696 640.251 362.402 634.027 364.125" fill="#8CC0F1"/>
<path d="M613.549 375.384C620.438 382.486 629.751 387.165 639.918 388.63C641.138 388.931 642.411 388.994 643.658 388.816C644.905 388.637 646.098 388.221 647.164 387.593C647.708 387.221 648.075 386.667 648.185 386.047C648.153 385.546 647.994 385.06 647.721 384.626C647.449 384.193 647.071 383.825 646.617 383.553C642.175 380.064 636.046 378.85 630.155 378.232C624.263 377.614 619.916 376.444 613.526 375.362" fill="#323232"/>
<path d="M213.694 214.903C220.301 246.831 234.985 276.84 256.534 302.453C278.083 328.065 305.88 348.546 337.628 362.204" stroke="#5FA3E1" stroke-miterlimit="10"/>
<path d="M216.854 228.238C210.904 220.94 207.978 211.897 208.611 202.76C208.57 201.656 208.784 200.557 209.239 199.536C209.693 198.515 210.378 197.597 211.248 196.843C211.767 196.466 212.418 196.277 213.077 196.314C213.604 196.431 214.093 196.662 214.506 196.988C214.919 197.314 215.243 197.726 215.452 198.19C218.16 202.76 218.137 208.28 217.519 213.468C216.901 218.656 217.163 222.608 216.949 228.282" fill="#8CC0F1"/>
<path d="M223.007 245.767C220.646 236.854 221.818 227.449 226.309 219.274C226.739 218.249 227.404 217.324 228.257 216.561C229.11 215.799 230.131 215.218 231.25 214.859C231.895 214.7 232.581 214.771 233.174 215.057C233.587 215.362 233.918 215.752 234.141 216.197C234.363 216.641 234.472 217.128 234.457 217.618C235.003 222.806 232.604 227.862 229.848 232.388C227.093 236.914 225.62 240.645 223.007 245.789" fill="#8CC0F1"/>
<path d="M232.96 267.845C229.5 259.318 229.425 249.925 232.746 241.352C233.031 240.271 233.565 239.261 234.311 238.392C235.058 237.523 235.999 236.815 237.07 236.318C237.689 236.097 238.375 236.097 238.994 236.318C239.447 236.571 239.83 236.918 240.115 237.331C240.399 237.745 240.577 238.214 240.633 238.702C241.845 243.802 240.134 249.079 237.973 253.892C235.811 258.705 234.884 262.568 232.96 267.977" fill="#8CC0F1"/>
<path d="M245.669 288.023C242.18 279.464 242.105 270.027 245.456 261.42C245.744 260.341 246.28 259.333 247.026 258.465C247.772 257.596 248.711 256.887 249.779 256.386C250.398 256.165 251.084 256.165 251.703 256.386C252.157 256.644 252.54 256.995 252.824 257.412C253.109 257.83 253.286 258.302 253.342 258.793C254.554 263.871 252.844 269.169 250.682 273.982C248.52 278.795 247.594 282.659 245.669 288.046" fill="#8CC0F1"/>
<path d="M266.123 312.551C261.677 304.361 260.547 294.958 262.94 286.059C263.11 284.959 263.534 283.907 264.182 282.974C264.829 282.04 265.686 281.247 266.693 280.65C267.275 280.359 267.953 280.281 268.594 280.429C269.071 280.637 269.491 280.944 269.82 281.327C270.15 281.71 270.38 282.158 270.494 282.636C272.252 287.582 271.159 293.013 269.544 298.091C267.929 303.169 267.43 307.032 266.123 312.574" fill="#8CC0F1"/>
<path d="M282.823 328.999C278.226 321.22 276.482 312.26 277.858 303.478C277.944 301.264 278.948 299.167 280.662 297.627C280.884 297.446 281.145 297.31 281.427 297.226C281.709 297.143 282.006 297.114 282.301 297.142C283.203 297.296 283.75 298.201 284.13 299.062C285.734 304.013 285.89 309.271 284.581 314.296C283.584 319.418 283.489 323.348 282.823 328.999Z" fill="#8CC0F1"/>
<path d="M226.309 253.627C216.034 252.936 206.332 248.966 198.847 242.389C197.848 241.678 197.017 240.784 196.404 239.762C195.791 238.741 195.41 237.614 195.284 236.45C195.272 235.829 195.519 235.228 195.973 234.772C196.417 234.484 196.928 234.297 197.465 234.228C198.002 234.159 198.549 234.209 199.061 234.375C204.738 235.501 209.561 239.254 213.694 243.206C217.828 247.158 221.462 249.631 226.309 253.627Z" fill="#8CC0F1"/>
<path d="M234.599 270.472C224.446 272.105 213.998 270.403 205.047 265.659C203.889 265.2 202.847 264.521 201.988 263.666C201.128 262.81 200.471 261.797 200.059 260.692C199.88 260.09 199.966 259.447 200.296 258.903C200.65 258.525 201.094 258.23 201.594 258.042C202.093 257.854 202.634 257.779 203.171 257.821C208.991 257.667 214.621 260.25 219.657 263.164C224.693 266.078 228.874 267.58 234.599 270.472Z" fill="#8CC0F1"/>
<path d="M248.116 290.96C238.522 294.434 227.929 294.715 218.137 291.755C216.904 291.511 215.739 291.034 214.714 290.354C213.688 289.674 212.823 288.806 212.174 287.803C211.879 287.238 211.828 286.59 212.031 285.992C212.298 285.556 212.671 285.185 213.121 284.909C213.571 284.633 214.085 284.459 214.621 284.403C220.275 283.166 226.356 284.646 231.915 286.611C237.474 288.575 241.916 289.326 248.116 291.026" fill="#8CC0F1"/>
<path d="M268.047 315.532C257.866 316.936 247.476 315.025 238.638 310.123C237.516 309.622 236.515 308.913 235.698 308.04C234.882 307.166 234.265 306.147 233.887 305.045C233.728 304.44 233.822 303.801 234.148 303.257C234.517 302.889 234.973 302.605 235.48 302.429C235.987 302.253 236.531 302.189 237.07 302.241C242.89 302.241 248.449 304.891 253.414 307.915C258.379 310.94 262.512 312.618 268.166 315.532" fill="#8CC0F1"/>
<path d="M285.294 330.854C276.876 336.374 266.659 339.011 256.383 338.316C255.126 338.364 253.872 338.167 252.702 337.738C251.531 337.308 250.471 336.655 249.589 335.821C249.371 335.59 249.204 335.32 249.098 335.028C248.992 334.737 248.949 334.428 248.971 334.121C248.971 333.128 250.112 332.465 251.086 331.913C256.241 329.441 262.512 329.507 268.427 330.125C274.342 330.743 278.809 330.523 285.294 330.765" fill="#8CC0F1"/>
<path d="M89.9749 303.941C124.938 302.75 159.705 309.306 191.403 323.068C223.102 336.831 250.823 357.404 272.276 383.089" stroke="#5FA3E1" stroke-miterlimit="10"/>
<path d="M104.68 303.809C95.706 300.084 85.5945 299.465 76.1728 302.065C74.9672 302.243 73.8194 302.668 72.8127 303.309C71.8059 303.951 70.9656 304.793 70.3527 305.774C70.0591 306.331 70.008 306.971 70.2102 307.562C70.4468 307.986 70.7833 308.355 71.1946 308.642C71.6058 308.929 72.0813 309.126 72.5857 309.218C78.002 310.631 83.7747 309.372 89.0722 307.65C94.3697 305.928 98.5744 305.288 104.49 303.809" fill="#8CC0F1"/>
<path d="M124.421 305.443C114.586 305.293 105.019 308.426 97.458 314.274C96.464 314.892 95.6263 315.705 95.0029 316.654C94.3794 317.603 93.9851 318.666 93.8472 319.771C93.8223 320.386 94.0518 320.986 94.4886 321.449C94.8959 321.762 95.3773 321.982 95.8934 322.089C96.4095 322.197 96.9457 322.189 97.458 322.067C103.017 321.383 107.792 318.071 111.901 314.539C116.011 311.006 119.622 308.887 124.421 305.354" fill="#8CC0F1"/>
<path d="M149.815 309.439C140.048 308.198 130.126 310.259 121.855 315.245C120.789 315.744 119.852 316.453 119.11 317.322C118.367 318.192 117.837 319.2 117.555 320.279C117.457 320.893 117.6 321.52 117.959 322.045C118.337 322.39 118.794 322.652 119.295 322.813C119.797 322.973 120.33 323.028 120.857 322.972C126.464 322.972 131.619 320.19 136.18 317.166C140.741 314.141 144.565 312.397 149.815 309.439Z" fill="#8CC0F1"/>
<path d="M173.832 316.459C164.065 315.219 154.143 317.28 145.872 322.266C144.815 322.77 143.887 323.481 143.153 324.35C142.419 325.219 141.896 326.225 141.62 327.299C141.521 327.914 141.665 328.541 142.024 329.066C142.402 329.411 142.859 329.673 143.36 329.834C143.861 329.994 144.395 330.048 144.922 329.993C150.528 329.993 155.683 327.211 160.244 324.186C164.805 321.162 168.654 319.418 173.88 316.459" fill="#8CC0F1"/>
<path d="M204.145 329.485C194.554 327.289 184.434 328.379 175.638 332.554C174.537 332.956 173.543 333.575 172.723 334.368C171.903 335.16 171.276 336.108 170.887 337.146C170.709 337.743 170.777 338.381 171.077 338.934C171.412 339.318 171.836 339.626 172.317 339.836C172.799 340.046 173.324 340.153 173.856 340.148C179.439 340.634 184.879 338.404 189.749 335.733C194.619 333.062 198.633 331.825 204.168 329.397" fill="#8CC0F1"/>
<path d="M225.121 340.899C215.932 338.497 206.151 338.938 197.255 342.158C194.956 342.734 192.984 344.109 191.744 345.999C191.628 346.25 191.568 346.521 191.568 346.794C191.568 347.067 191.628 347.338 191.744 347.589C192.101 348.383 193.17 348.67 194.12 348.803C199.666 349.164 205.214 348.126 210.179 345.8C215.334 343.769 219.443 342.798 225.192 340.899" fill="#8CC0F1"/>
<path d="M133.4 306.679C130.385 297.532 124.056 289.638 115.489 284.336C114.509 283.575 113.369 283.013 112.141 282.686C110.914 282.359 109.627 282.274 108.362 282.438C107.708 282.569 107.131 282.923 106.746 283.431C106.542 283.896 106.46 284.399 106.51 284.899C106.56 285.399 106.739 285.88 107.032 286.301C109.407 291.203 114.491 294.713 119.575 297.583C124.658 300.453 128.055 303.191 133.329 306.679" fill="#8CC0F1"/>
<path d="M152.927 310.388C152.353 300.833 148.231 291.758 141.263 284.712C140.517 283.768 139.568 282.978 138.476 282.393C137.384 281.807 136.174 281.439 134.921 281.312C134.587 281.297 134.253 281.344 133.939 281.45C133.625 281.556 133.337 281.719 133.091 281.93C132.776 282.336 132.569 282.806 132.487 283.301C132.404 283.796 132.448 284.302 132.616 284.778C133.756 290.077 137.724 294.602 141.905 298.51C146.086 302.418 148.699 305.818 152.927 310.388Z" fill="#8CC0F1"/>
<path d="M177.443 318.027C178.928 308.557 176.847 298.902 171.552 290.695C171.006 289.652 170.239 288.723 169.295 287.964C168.352 287.205 167.253 286.632 166.064 286.279C165.41 286.141 164.723 286.235 164.14 286.544C163.744 286.886 163.44 287.31 163.254 287.782C163.068 288.254 163.006 288.761 163.071 289.26C163.071 294.669 165.946 299.835 169.2 304.427C172.455 309.019 174.284 312.861 177.443 318.115" fill="#8CC0F1"/>
<path d="M207.708 330.567C206.887 321.023 202.539 312.038 195.402 305.133C194.638 304.203 193.672 303.432 192.568 302.869C191.463 302.306 190.244 301.965 188.988 301.866C188.317 301.863 187.671 302.1 187.183 302.528C186.875 302.938 186.677 303.411 186.606 303.906C186.536 304.402 186.595 304.906 186.779 305.376C188.038 310.653 192.1 315.09 196.281 318.91C200.462 322.729 203.266 326.085 207.613 330.567" fill="#8CC0F1"/>
<path d="M227.639 342.731C231.533 333.874 232.003 324.035 228.969 314.892C228.734 313.743 228.245 312.651 227.534 311.686C226.822 310.721 225.904 309.903 224.836 309.284C224.54 309.136 224.215 309.045 223.881 309.014C223.546 308.984 223.209 309.016 222.888 309.107C222.414 309.346 222.008 309.687 221.706 310.102C221.404 310.517 221.215 310.994 221.154 311.492C219.705 316.724 221.154 322.398 223.173 327.608C225.192 332.819 225.928 336.925 227.639 342.731Z" fill="#8CC0F1"/>
<path d="M393.43 395.21C313.159 393.002 240.206 394.017 159.888 395.21C157.726 395.21 154.78 395.784 153.616 394.084C149.412 387.858 190.96 381.566 228.684 378.232C230.393 378.221 232.055 377.712 233.435 376.775C236.405 374.258 234.053 369.511 235.407 366.001C236.951 362.071 242.534 361.034 246.952 362.071C251.371 363.109 255.219 365.515 259.661 366.156C264.104 366.796 269.663 364.632 269.948 360.46C270.185 357.391 267.572 354.874 266.479 351.96C264.104 345.557 272.014 338.25 278.88 340.391C283.013 341.694 286.909 345.535 290.948 343.99C294.986 342.444 294.725 337.035 295.699 332.951C297.742 324.473 307.909 319.837 317.221 318.976C324.104 318.377 331.045 319.132 337.593 321.189C344.142 323.247 350.151 326.562 355.23 330.92C367.869 342.285 377.245 356.41 382.502 372.006C385.194 380.098 388.86 387.882 393.43 395.21Z" fill="#C4E2FE"/>
<path d="M472.465 376.333C472.322 370.358 472.322 364.375 472.465 358.384C472.75 350.414 473.557 341.959 478.712 335.6C482.014 331.538 488.666 324.186 493.631 322.023C507.647 315.929 517.387 314.914 532.471 318.38C539.052 319.903 549.1 326.041 551.238 334.143C555.538 325.886 575.659 314.583 602.17 328.315C623.313 339.243 616.424 364.08 611.982 369.688C612.614 369.182 613.354 368.803 614.152 368.577C614.951 368.351 615.792 368.282 616.621 368.375C617.45 368.468 618.249 368.72 618.967 369.116C619.686 369.511 620.308 370.042 620.793 370.673C621.279 371.305 621.617 372.023 621.787 372.783C621.957 373.542 621.955 374.327 621.781 375.086C621.607 375.845 621.265 376.562 620.776 377.191C620.287 377.82 619.662 378.347 618.942 378.74C625.549 376.266 632.546 374.812 639.657 374.435C643.158 374.063 646.705 374.487 649.991 375.671C651.611 376.288 653.017 377.31 654.053 378.623C655.088 379.936 655.713 381.489 655.858 383.111C655.858 386.357 649.135 388.873 649.135 388.873C649.135 388.873 678.117 383.928 687.287 389.425C698.12 395.894 691.824 397.704 689.829 397.682L511.661 395.475C508.312 395.475 503.561 394.569 500.187 394.569H471.206C472.149 388.532 472.57 382.434 472.465 376.333Z" fill="#C9E9F8"/>
<path d="M384.616 257.424C382.573 264.4 378.606 273.386 377.68 281.356C376.753 289.326 392.693 293.874 394.76 289.878C393.776 288.248 393.23 286.422 393.168 284.554C393.106 282.686 393.53 280.831 394.404 279.148C398.038 270.317 399.867 266.454 398.181 260.272C396.898 255.592 385.899 253.119 384.616 257.424Z" fill="#AD7C63"/>
<path d="M511.994 135.026C511.994 135.026 486.813 147.103 470.564 145.579C454.315 144.056 414.525 139.442 399.891 153.196C385.258 166.95 326.914 233.823 329.646 238.791C332.377 243.758 397.468 291.578 411.27 287.361C425.072 283.144 486.077 225.544 501.541 216.713C517.006 207.882 539.931 197.484 539.931 197.484L511.994 135.026Z" fill="#AD7C63"/>
<path d="M260.398 120.433C260.398 120.433 304.108 142.091 322.78 143.239C341.452 144.387 374.259 141.716 397.872 147.655C421.485 153.594 401.245 164.257 409.536 171.807C417.827 179.358 476.265 210.929 485.221 216.338C494.177 221.747 496.6 228.856 490.519 233.735C484.437 238.614 477.121 237.113 465.742 231.064C454.363 225.014 432.84 210.686 431.629 213.711C430.417 216.735 468.165 238.658 473.462 242.787C478.76 246.915 479.544 253.825 471.087 257.866C462.63 261.906 455.242 262.281 447.949 257.866C440.656 253.45 415.855 236.34 413.004 238.989C410.154 241.639 425.999 249.564 436.166 256.651C445.668 263.275 452.795 265.482 453.626 270.715C454.458 275.947 445.573 285.396 430.892 280.915C422.221 278.265 399.202 262.414 395.686 264.688C392.17 266.962 429.253 280.782 428.707 286.324C428.16 291.865 420.321 301.093 397.824 291.092C384.165 284.999 301.068 230.71 292.397 224.661C283.726 218.612 210.511 182.868 210.511 182.868L260.398 120.433Z" fill="#FFE1BF"/>
<path d="M437.259 194.636C437.259 194.636 434.408 206.204 424.668 211.37C425.69 218.214 420.202 231.615 408.419 235.302C407.422 242.963 400.342 255.415 391.98 258.042" stroke="#EFBA92" stroke-width="0.97" stroke-linecap="round" stroke-linejoin="round"/>
<path d="M343.852 156.817C343.614 153.549 360.48 152.048 371.741 148.516C383.001 144.983 402.932 139.442 419.109 140.038C435.287 140.634 455.123 144.63 468.664 145.314C482.204 145.999 472.18 160.084 459.161 163.617C446.143 167.149 417.684 176.201 409.465 171.918C401.245 167.635 393.905 165.869 381.195 166.884C368.486 167.9 344.398 164.61 343.852 156.817Z" fill="#AD7C63"/>
<path d="M679.975 197.515C702.83 189.259 704.266 141.697 683.182 91.2832C662.097 40.8689 626.477 6.69268 603.622 14.9485C580.766 23.2044 579.331 70.7659 600.415 121.18C621.499 171.594 657.119 205.771 679.975 197.515Z" fill="#5386D2"/>
<path d="M656.381 164.279L691.515 149.664" stroke="#8C82D1" stroke-width="0.97" stroke-miterlimit="10"/>
<path d="M528.979 119.572C528.979 119.572 516.745 123.988 511.899 125.423C508.573 126.394 504.653 127.785 502.397 128.558C502.188 128.632 501.998 128.746 501.838 128.891C501.679 129.036 501.553 129.211 501.468 129.403C501.384 129.595 501.342 129.802 501.347 130.009C501.351 130.217 501.401 130.422 501.494 130.611C504.653 137.234 517.577 164.102 520.712 170.968C524.276 178.784 533.968 203.224 535.251 204.637C536.534 206.05 565.373 195.386 565.373 195.386L528.979 119.572Z" fill="#8BF7DD"/>
<path d="M522.827 116.503L637.899 55.6576C637.899 55.6576 649.254 70.008 648.446 85.2856C647.639 100.563 662.7 108.886 662.249 135.313C662.082 147.39 672.416 158.34 672.416 158.34L562.76 202.495L522.827 116.503Z" fill="#62D8DF"/>
<path d="M650.632 48.1293L522.827 116.503" stroke="white" stroke-width="0.97" stroke-miterlimit="10"/>
<path d="M554.968 136.483C554.94 136.619 554.861 136.741 554.746 136.829C554.631 136.917 554.487 136.965 554.339 136.965C554.19 136.965 554.046 136.917 553.931 136.829C553.816 136.741 553.738 136.619 553.709 136.483C553.738 136.348 553.816 136.225 553.931 136.137C554.046 136.05 554.19 136.001 554.339 136.001C554.487 136.001 554.631 136.05 554.746 136.137C554.861 136.225 554.94 136.348 554.968 136.483Z" fill="#2C356B"/>
<path d="M539.859 153.196L601.624 126.88" stroke="#42C5BC" stroke-width="0.97" stroke-miterlimit="10"/>
<path d="M558.698 135.026C558.698 136.183 558.328 137.314 557.637 138.277C556.945 139.239 555.962 139.989 554.811 140.431C553.661 140.874 552.395 140.99 551.174 140.764C549.953 140.539 548.831 139.981 547.951 139.163C547.071 138.345 546.471 137.302 546.228 136.168C545.985 135.033 546.11 133.856 546.586 132.787C547.063 131.718 547.87 130.805 548.905 130.162C549.94 129.519 551.157 129.176 552.402 129.176C554.072 129.176 555.673 129.792 556.854 130.889C558.034 131.986 558.698 133.475 558.698 135.026Z" fill="white"/>
<path d="M551.191 133.37C551.196 133.49 551.161 133.608 551.093 133.709C551.024 133.811 550.924 133.89 550.806 133.938C550.688 133.986 550.557 134 550.431 133.977C550.304 133.955 550.188 133.898 550.096 133.813C550.005 133.729 549.944 133.62 549.92 133.503C549.896 133.385 549.91 133.264 549.962 133.154C550.013 133.044 550.099 132.951 550.208 132.888C550.317 132.824 550.444 132.792 550.573 132.796C550.737 132.796 550.894 132.857 551.01 132.964C551.126 133.072 551.191 133.218 551.191 133.37Z" fill="#2C356B"/>
<path d="M554.968 133.37C554.973 133.489 554.939 133.606 554.872 133.707C554.804 133.808 554.706 133.888 554.589 133.936C554.472 133.985 554.343 134 554.217 133.979C554.091 133.959 553.974 133.904 553.882 133.822C553.79 133.739 553.727 133.633 553.7 133.517C553.673 133.401 553.684 133.28 553.732 133.17C553.78 133.06 553.862 132.965 553.968 132.899C554.074 132.832 554.199 132.797 554.327 132.796C554.41 132.793 554.493 132.806 554.57 132.834C554.648 132.861 554.719 132.903 554.779 132.957C554.839 133.01 554.886 133.074 554.919 133.145C554.951 133.217 554.968 133.293 554.968 133.37Z" fill="#2C356B"/>
<path d="M551.191 136.483C551.162 136.619 551.084 136.741 550.969 136.829C550.854 136.917 550.71 136.965 550.561 136.965C550.413 136.965 550.268 136.917 550.154 136.829C550.039 136.741 549.96 136.619 549.932 136.483C549.96 136.348 550.039 136.225 550.154 136.137C550.268 136.05 550.413 136.001 550.561 136.001C550.71 136.001 550.854 136.05 550.969 136.137C551.084 136.225 551.162 136.348 551.191 136.483Z" fill="#2C356B"/>
<path d="M583.332 125.356C583.346 126.516 582.989 127.654 582.306 128.625C581.623 129.595 580.645 130.356 579.496 130.809C578.347 131.262 577.079 131.387 575.853 131.169C574.627 130.95 573.499 130.399 572.611 129.583C571.724 128.767 571.117 127.725 570.868 126.589C570.62 125.452 570.74 124.272 571.214 123.199C571.689 122.126 572.496 121.209 573.532 120.563C574.569 119.917 575.789 119.572 577.037 119.572C578.694 119.572 580.285 120.179 581.463 121.262C582.642 122.345 583.314 123.816 583.332 125.356Z" fill="white"/>
<path d="M575.825 123.811C575.797 123.946 575.719 124.069 575.604 124.156C575.489 124.244 575.345 124.292 575.196 124.292C575.047 124.292 574.903 124.244 574.788 124.156C574.673 124.069 574.595 123.946 574.566 123.811C574.595 123.675 574.673 123.553 574.788 123.465C574.903 123.377 575.047 123.329 575.196 123.329C575.345 123.329 575.489 123.377 575.604 123.465C575.719 123.553 575.797 123.675 575.825 123.811Z" fill="#2C356B"/>
<path d="M579.484 123.811C579.484 123.963 579.419 124.109 579.303 124.216C579.187 124.324 579.03 124.385 578.866 124.385C578.702 124.385 578.545 124.324 578.429 124.216C578.313 124.109 578.248 123.963 578.248 123.811C578.248 123.659 578.313 123.513 578.429 123.405C578.545 123.297 578.702 123.237 578.866 123.237C579.03 123.237 579.187 123.297 579.303 123.405C579.419 123.513 579.484 123.659 579.484 123.811Z" fill="#2C356B"/>
<path d="M575.825 126.924C575.83 127.042 575.797 127.16 575.729 127.26C575.662 127.361 575.563 127.441 575.446 127.49C575.33 127.538 575.2 127.553 575.074 127.533C574.948 127.512 574.832 127.457 574.74 127.375C574.648 127.292 574.584 127.186 574.557 127.07C574.531 126.954 574.542 126.833 574.59 126.723C574.637 126.613 574.719 126.518 574.825 126.452C574.931 126.385 575.056 126.35 575.184 126.35C575.267 126.347 575.35 126.359 575.428 126.387C575.505 126.414 575.576 126.456 575.636 126.51C575.696 126.563 575.744 126.628 575.776 126.699C575.809 126.77 575.826 126.846 575.825 126.924Z" fill="#2C356B"/>
<path d="M579.484 126.924C579.484 127.037 579.447 127.148 579.38 127.242C579.312 127.337 579.215 127.41 579.102 127.454C578.99 127.497 578.865 127.509 578.746 127.486C578.626 127.464 578.516 127.41 578.429 127.329C578.343 127.249 578.284 127.147 578.26 127.036C578.236 126.924 578.249 126.809 578.295 126.704C578.342 126.599 578.421 126.51 578.523 126.447C578.625 126.383 578.744 126.35 578.866 126.35C578.948 126.347 579.03 126.359 579.106 126.387C579.183 126.415 579.252 126.457 579.31 126.511C579.368 126.565 579.414 126.629 579.444 126.7C579.473 126.771 579.487 126.847 579.484 126.924Z" fill="#2C356B"/>
<path d="M110.737 91.2466C89.5473 141.65 90.9727 189.227 113.849 197.484C136.726 205.741 172.312 171.565 193.407 121.14C214.502 70.7145 213.053 23.1595 190.2 14.9026C167.347 6.64556 131.714 40.8215 110.737 91.2466Z" fill="#5386D2"/>
<path d="M137.462 164.279L102.328 149.664" stroke="#73FFD5" stroke-width="0.97" stroke-linecap="round" stroke-linejoin="round"/>
<path d="M265.458 118.225C265.458 118.225 276.742 124.098 281.374 126.063C284.154 127.233 288.358 129.021 290.496 129.794C290.705 129.869 290.895 129.982 291.055 130.127C291.214 130.273 291.34 130.447 291.425 130.639C291.509 130.832 291.551 131.038 291.546 131.246C291.542 131.453 291.492 131.658 291.399 131.847C288.216 138.47 276.124 164.036 273.012 170.902C269.425 178.718 255.243 206.602 254.008 208.037C252.772 209.472 228.375 195.32 228.375 195.32L265.458 118.225Z" fill="#ECF39B"/>
<path d="M270.993 116.503L155.873 55.6576C155.873 55.6576 154.804 75.2845 138.579 83.8506C124.326 91.4011 109.787 107.076 121.356 131.207C128.768 146.661 121.356 158.34 121.356 158.34L231.012 202.495L270.993 116.503Z" fill="#68B5FB"/>
<path d="M143.211 48.1293L271.017 116.503" stroke="white" stroke-width="0.97" stroke-linecap="round" stroke-linejoin="round"/>
<path d="M253.96 153.196L192.219 126.88" stroke="#5CA3E6" stroke-width="0.97" stroke-miterlimit="10"/>
<path d="M241.417 140.788C244.894 140.788 247.712 138.169 247.712 134.938C247.712 131.707 244.894 129.087 241.417 129.087C237.94 129.087 235.122 131.707 235.122 134.938C235.122 138.169 237.94 140.788 241.417 140.788Z" fill="white"/>
<path d="M242.629 133.37C242.624 133.49 242.658 133.608 242.727 133.709C242.796 133.811 242.895 133.89 243.014 133.938C243.132 133.986 243.263 134 243.389 133.977C243.516 133.955 243.632 133.898 243.723 133.813C243.814 133.729 243.876 133.62 243.9 133.503C243.924 133.385 243.909 133.264 243.858 133.154C243.806 133.044 243.72 132.951 243.611 132.888C243.502 132.824 243.375 132.792 243.246 132.796C243.083 132.796 242.925 132.857 242.81 132.964C242.694 133.072 242.629 133.218 242.629 133.37Z" fill="#2C356B"/>
<path d="M239.018 133.37C239.014 133.446 239.028 133.522 239.058 133.593C239.088 133.665 239.133 133.729 239.191 133.783C239.249 133.837 239.319 133.879 239.395 133.907C239.472 133.934 239.553 133.947 239.635 133.944C239.717 133.944 239.797 133.929 239.872 133.9C239.947 133.872 240.015 133.829 240.072 133.776C240.13 133.723 240.175 133.659 240.206 133.59C240.237 133.52 240.253 133.446 240.253 133.37C240.253 133.295 240.237 133.22 240.206 133.151C240.175 133.081 240.13 133.018 240.072 132.965C240.015 132.911 239.947 132.869 239.872 132.84C239.797 132.811 239.717 132.796 239.635 132.796C239.553 132.793 239.472 132.806 239.395 132.834C239.319 132.862 239.249 132.904 239.191 132.958C239.133 133.012 239.088 133.076 239.058 133.147C239.028 133.218 239.014 133.294 239.018 133.37Z" fill="#2C356B"/>
<path d="M242.629 136.483C242.657 136.619 242.736 136.741 242.85 136.829C242.965 136.917 243.109 136.965 243.258 136.965C243.407 136.965 243.551 136.917 243.666 136.829C243.781 136.741 243.859 136.619 243.888 136.483C243.859 136.348 243.781 136.225 243.666 136.137C243.551 136.05 243.407 136.001 243.258 136.001C243.109 136.001 242.965 136.05 242.85 136.137C242.736 136.225 242.657 136.348 242.629 136.483Z" fill="#2C356B"/>
<path d="M239.018 136.483C239.014 136.56 239.028 136.636 239.058 136.707C239.088 136.778 239.133 136.842 239.191 136.896C239.249 136.95 239.319 136.992 239.395 137.02C239.472 137.048 239.553 137.06 239.635 137.057C239.799 137.057 239.956 136.997 240.072 136.889C240.188 136.781 240.253 136.636 240.253 136.483C240.253 136.331 240.188 136.185 240.072 136.078C239.956 135.97 239.799 135.91 239.635 135.91C239.472 135.91 239.315 135.97 239.199 136.078C239.083 136.185 239.018 136.331 239.018 136.483Z" fill="#2C356B"/>
<path d="M210.511 125.356C210.497 126.517 210.855 127.656 211.539 128.627C212.223 129.598 213.203 130.358 214.353 130.811C215.503 131.263 216.773 131.387 217.999 131.167C219.226 130.947 220.354 130.393 221.24 129.575C222.127 128.757 222.732 127.713 222.978 126.575C223.224 125.437 223.1 124.256 222.622 123.184C222.144 122.111 221.334 121.195 220.294 120.552C219.254 119.909 218.032 119.568 216.783 119.572C215.129 119.578 213.545 120.188 212.372 121.27C211.198 122.352 210.53 123.82 210.511 125.356Z" fill="white"/>
<path d="M217.994 123.811C218.023 123.946 218.101 124.069 218.216 124.156C218.331 124.244 218.475 124.292 218.624 124.292C218.772 124.292 218.917 124.244 219.031 124.156C219.146 124.069 219.225 123.946 219.253 123.811C219.225 123.675 219.146 123.553 219.031 123.465C218.917 123.377 218.772 123.329 218.624 123.329C218.475 123.329 218.331 123.377 218.216 123.465C218.101 123.553 218.023 123.675 217.994 123.811Z" fill="#2C356B"/>
<path d="M214.336 123.811C214.336 123.963 214.401 124.109 214.517 124.216C214.632 124.324 214.79 124.384 214.953 124.384C215.117 124.384 215.274 124.324 215.39 124.216C215.506 124.109 215.571 123.963 215.571 123.811C215.574 123.734 215.561 123.658 215.531 123.587C215.501 123.516 215.456 123.452 215.398 123.398C215.34 123.344 215.27 123.302 215.194 123.274C215.117 123.246 215.035 123.234 214.953 123.237C214.79 123.237 214.632 123.297 214.517 123.405C214.401 123.512 214.336 123.658 214.336 123.811Z" fill="#2C356B"/>
<path d="M217.994 126.924C217.989 127.042 218.023 127.16 218.091 127.26C218.158 127.361 218.256 127.441 218.373 127.49C218.49 127.538 218.62 127.553 218.745 127.533C218.871 127.512 218.988 127.457 219.08 127.375C219.172 127.292 219.236 127.186 219.262 127.07C219.289 126.954 219.278 126.833 219.23 126.723C219.182 126.613 219.1 126.518 218.994 126.452C218.888 126.385 218.763 126.35 218.636 126.35C218.552 126.347 218.47 126.359 218.392 126.387C218.314 126.414 218.243 126.456 218.183 126.51C218.123 126.563 218.076 126.628 218.043 126.699C218.011 126.77 217.994 126.846 217.994 126.924Z" fill="#2C356B"/>
<path d="M214.336 126.924C214.336 127.076 214.401 127.222 214.517 127.33C214.632 127.437 214.79 127.498 214.953 127.498C215.117 127.498 215.274 127.437 215.39 127.33C215.506 127.222 215.571 127.076 215.571 126.924C215.571 126.772 215.506 126.626 215.39 126.518C215.274 126.41 215.117 126.35 214.953 126.35C214.872 126.35 214.792 126.365 214.717 126.394C214.642 126.422 214.574 126.465 214.517 126.518C214.459 126.571 214.414 126.635 214.383 126.704C214.352 126.774 214.336 126.848 214.336 126.924Z" fill="#2C356B"/>
<path d="M298.407 230.578C298.407 222.52 305.985 196.865 313.302 197.616C320.619 198.367 325.18 203.4 324.396 211.702C323.612 220.003 315.178 237.378 316.818 240.137C318.457 242.897 323.042 243.67 320.595 245.171C318.148 246.672 298.407 242.654 298.407 230.578Z" fill="#AD7C63"/>
<path d="M328.41 254.444C325.702 250.028 325.441 242.124 328.41 233.823C331.38 225.522 339.29 206.69 341.951 206.138C347.914 204.88 355.23 210.156 357.107 217.177C358.984 224.197 342.117 254.951 344.564 257.225C347.011 259.499 348.579 260.206 347.961 261.288C345.728 265.284 332.473 261.001 328.41 254.444Z" fill="#AD7C63"/>
<path d="M353.615 268.728C352.926 264.312 360.623 236.517 366.111 235.369C371.598 234.221 377.775 240.424 378.582 246.407C379.39 252.39 370.648 272.9 371.812 274.733C372.976 276.565 375.328 277.47 375.138 278.199C373.76 283.63 355.088 278.243 353.615 268.728Z" fill="#AD7C63"/>
<path d="M274.285 409.516C274.285 409.516 256.659 393.576 254.188 374.898C251.717 356.221 251.812 336.638 234.59 334.806C217.367 332.973 222.83 363.948 216.464 364.412C210.097 364.875 207.152 280.517 181.662 279.236C156.172 277.956 161.327 314.296 165.033 333.9C167.409 346.131 167.955 352.159 160.591 352.159C148.19 352.159 148.855 318.402 144.461 291.07C140.066 263.738 131.704 242.786 99.8475 242.786C67.9912 242.786 86.6156 283.784 96.9018 301.093C107.188 318.402 119.945 338.912 108.78 341.628C97.6145 344.343 88.9912 316.062 70.2717 317.96C51.5523 319.859 43.8554 352.114 61.9335 369.423C80.0115 386.732 33.4267 376.267 35.9686 409.516H274.285Z" fill="#9CCCFA"/>
<path d="M105.121 242.102C105.121 242.102 138.878 344.145 151.659 409.516" stroke="#7FB9F0" stroke-width="0.88" stroke-miterlimit="10"/>
<path d="M62.1473 321.052C79.3555 353.962 102.513 383.885 130.611 409.516" stroke="#7FB9F0" stroke-width="0.88" stroke-miterlimit="10"/>
<path d="M176.483 279.524C176.483 279.524 192.162 341.341 188.836 409.516" stroke="#7FB9F0" stroke-width="0.88" stroke-miterlimit="10"/>
<path d="M237.844 336.506C237.844 336.506 235.279 370.637 229.696 409.516" stroke="#7FB9F0" stroke-width="0.88" stroke-miterlimit="10"/>
<path d="M21.9625 409.626H292.278" stroke="#4D82C0" stroke-width="0.88" stroke-miterlimit="10"/>
<path d="M97.0541 292.881C97.0541 292.881 80.0926 310.035 80.9478 315.223L88.2645 320.61C88.2645 320.61 115.108 297.053 115.964 292.461C116.819 287.869 97.0541 292.881 97.0541 292.881Z" fill="#AC7E70"/>
<path opacity="0.1" d="M126.891 462.745C146.558 462.745 162.501 461.035 162.501 458.926C162.501 456.816 146.558 455.106 126.891 455.106C107.225 455.106 91.2815 456.816 91.2815 458.926C91.2815 461.035 107.225 462.745 126.891 462.745Z" fill="#0D3B48"/>
<path d="M130.122 240.689C130.122 240.689 123.874 239.298 125.822 246.098C127.509 252.081 134.754 249.542 136.702 257.137C138.65 264.732 137.296 272.591 134.018 274.247L133.709 281.753C139.267 282.687 144.873 283.357 150.504 283.762C151.854 283.245 152.952 282.284 153.587 281.062C154.222 279.84 154.351 278.444 153.949 277.139C153.949 277.139 158.961 277.338 159.555 274.556C160.149 271.774 159.151 269.368 154.567 269.081C154.567 269.081 157.251 266.984 155.897 264.776C155.464 264.15 154.81 263.682 154.048 263.453C153.286 263.223 152.462 263.246 151.716 263.517C152.462 262.897 152.935 262.042 153.045 261.117C153.155 260.192 152.893 259.262 152.31 258.506C151.909 257.756 151.224 257.17 150.386 256.86C149.549 256.551 148.618 256.539 147.772 256.828C148.678 254.306 148.678 251.579 147.772 249.057C145.468 244.133 139.601 237.245 130.122 240.689Z" fill="#2C356B"/>
<path d="M141.382 269.522C141.377 270.095 141.556 270.657 141.895 271.135C142.234 271.614 142.718 271.988 143.287 272.21C143.855 272.432 144.481 272.493 145.087 272.384C145.692 272.275 146.249 272.001 146.686 271.597C147.124 271.194 147.422 270.679 147.544 270.117C147.667 269.555 147.606 268.973 147.371 268.443C147.137 267.913 146.738 267.46 146.226 267.141C145.713 266.823 145.111 266.652 144.494 266.652C143.673 266.652 142.885 266.954 142.302 267.492C141.719 268.029 141.388 268.759 141.382 269.522Z" fill="#F8B780"/>
<path d="M116.154 268.595C118.738 268.595 120.833 266.46 120.833 263.827C120.833 261.193 118.738 259.058 116.154 259.058C113.569 259.058 111.474 261.193 111.474 263.827C111.474 266.46 113.569 268.595 116.154 268.595Z" fill="#AC7E70"/>
<path d="M117.365 281.091L125.632 281.952L124.801 267.889L116.819 268.021L117.365 281.091Z" fill="#001118"/>
<path d="M122.615 266.829L123.209 281.157L109.431 283.807C109.431 283.807 123.28 290.827 134.279 290.231C145.278 289.635 146.157 283.807 146.157 283.807L134.636 281.312L134.612 274.115L122.615 266.829Z" fill="#AC7E70"/>
<path opacity="0.4" d="M134.754 280.186L134.612 272.945L122.33 263.782L123.233 278.663C127.1 278.973 130.947 279.482 134.754 280.186Z" fill="#7F594F"/>
<path d="M129.908 244.553C129.908 244.553 141.287 245.061 143.544 252.655C145.801 260.25 147.155 270.096 140.361 274.733C133.567 279.369 123.399 276.278 118.719 269.898C114.039 263.517 111.83 247.622 129.908 244.553Z" fill="#AC7E70"/>
<path d="M135.61 261.288C136.369 262.568 137.33 263.737 138.46 264.754L136.37 266.586" fill="#7F594F"/>
<path d="M135.253 269.125C134.79 269.781 134.135 270.301 133.365 270.621C132.594 270.942 131.741 271.051 130.906 270.936C130.035 270.843 129.211 270.521 128.53 270.008C128.181 269.767 127.892 269.459 127.683 269.105C127.474 268.75 127.35 268.358 127.319 267.955C127.994 268.175 128.684 268.352 129.386 268.485C130.003 268.485 130.573 268.684 131.167 268.75C132.379 268.882 133.567 268.949 135.253 269.125Z" fill="#7F594F"/>
<path d="M136.227 253.715C136.293 253.381 136.441 253.066 136.66 252.794C136.878 252.523 137.161 252.301 137.486 252.147C138.138 251.815 138.887 251.684 139.624 251.772C140.328 251.864 140.982 252.166 141.487 252.631C141.992 253.097 142.322 253.701 142.427 254.355C141.812 254.418 141.19 254.418 140.574 254.355L139.244 254.2C138.436 254.002 137.724 253.825 136.227 253.715Z" fill="#001118"/>
<path d="M135.586 408.478C132.796 412.53 131.8 417.426 132.806 422.144C134.754 429.32 136.987 446.143 136.987 446.143L142.95 455.15L147.701 455.658L142.95 446.253C142.95 446.253 144.162 414.307 145.064 408.721C145.967 403.136 136.987 400.751 135.586 408.478Z" fill="#2C356B"/>
<path d="M137.13 445.635C136.434 446.161 135.891 446.841 135.551 447.612C135.211 448.383 135.084 449.222 135.182 450.05C135.562 452.854 136.227 457.159 136.227 457.159H137.154L137.605 452.059C137.605 452.059 139.315 456.718 140.361 457.181C141.406 457.645 149.863 459.897 150.789 458.263C151.716 456.629 147.321 454.488 147.321 454.488C146.574 454.763 145.758 454.832 144.971 454.687C144.183 454.542 143.457 454.189 142.879 453.671C140.676 451.179 138.75 448.486 137.13 445.635Z" fill="#2C356B"/>
<path d="M109.716 410.068C106.927 414.119 105.924 419.013 106.913 423.734C108.885 430.931 111.118 447.732 111.118 447.732L117.08 456.828L121.831 457.314L117.08 447.909C117.08 447.909 118.292 415.985 119.194 410.377C120.097 404.769 111.118 402.363 109.716 410.068Z" fill="#2C356B"/>
<path d="M111.236 447.225C110.546 447.754 110.009 448.435 109.673 449.206C109.338 449.977 109.213 450.814 109.312 451.64C109.692 454.444 110.357 458.771 110.357 458.771H111.284L111.735 453.693C111.735 453.693 113.445 458.33 114.491 458.815C115.536 459.301 123.993 461.531 124.919 459.875C125.846 458.219 121.451 456.1 121.451 456.1C120.705 456.38 119.888 456.452 119.099 456.307C118.31 456.162 117.583 455.806 117.009 455.283C114.795 452.786 112.86 450.086 111.236 447.225Z" fill="#2C356B"/>
<path d="M144.779 319.418C144.779 319.418 158.249 326.924 162.145 349.752C166.041 372.58 154.068 449.344 154.068 449.344C154.068 449.344 140.883 454.355 129.219 448.527L128.317 351.143L129.528 319.97L129.813 314.693L144.494 313.148L144.779 319.418Z" fill="#7E90EF"/>
<path d="M111.735 319.418C111.735 319.418 98.2656 326.924 94.3697 349.752C90.4738 372.58 102.447 449.344 102.447 449.344C102.447 449.344 115.631 454.355 127.366 448.527L129.291 350.304L131.666 319.97L131.357 314.693L112.21 312.883L111.735 319.418Z" fill="#7E90EF"/>
<path d="M144.637 315.665C144.637 315.665 121.689 316.349 111.498 315.797L111.236 319.418C111.236 319.418 122.9 322.199 144.779 319.418L144.637 315.665Z" fill="#F8B780"/>
<path d="M141.049 315.245H138.365V320.521H141.049V315.245Z" fill="#2D2F3B"/>
<path d="M118.434 315.245H115.75V320.521H118.434V315.245Z" fill="#2D2F3B"/>
<path d="M125.323 315.929V320.809C125.323 320.955 125.386 321.095 125.497 321.199C125.609 321.302 125.76 321.36 125.917 321.36H132.355C132.512 321.36 132.664 321.302 132.775 321.199C132.886 321.095 132.949 320.955 132.949 320.809V315.929C132.949 315.783 132.886 315.643 132.775 315.539C132.664 315.436 132.512 315.377 132.355 315.377H125.917C125.76 315.377 125.609 315.436 125.497 315.539C125.386 315.643 125.323 315.783 125.323 315.929ZM127.129 317.077C127.129 317.001 127.161 316.928 127.219 316.874C127.277 316.821 127.356 316.79 127.438 316.79H130.858C130.94 316.79 131.019 316.821 131.077 316.874C131.135 316.928 131.167 317.001 131.167 317.077V319.661C131.167 319.737 131.135 319.81 131.077 319.863C131.019 319.917 130.94 319.947 130.858 319.947H127.366C127.284 319.947 127.206 319.917 127.148 319.863C127.09 319.81 127.057 319.737 127.057 319.661L127.129 317.077Z" fill="#0D3B48"/>
<path d="M193.692 296.192C192.276 296.283 190.875 296.513 189.511 296.877C176.873 300.74 168.416 303.699 166.848 304.206L157.869 292.947L143.615 301.535C143.615 301.535 159.769 322.177 167.941 318.844C175.068 315.974 192.291 303.61 195.925 298.974C194.966 298.214 194.203 297.263 193.692 296.192Z" fill="#AC7E70"/>
<path d="M192.623 301.513C192.623 301.513 199.156 298.665 199.061 297.649C199.061 296.965 194.927 298.753 194.927 298.753C194.927 298.753 199.679 296.104 198.966 295.684C198.253 295.265 195.45 296.744 195.45 296.744C195.45 296.744 198.871 294.647 198.396 294.404C196.891 294.692 195.431 295.151 194.048 295.773C194.048 295.773 200.272 291.799 191.934 295.773C191.934 295.773 194.452 289.149 190.081 296.347C185.71 303.544 192.623 301.513 192.623 301.513Z" fill="#AC7E70"/>
<path d="M87.433 307.761L89.5235 305.84C90.4262 307.121 97.6005 320.279 101.758 328.359C102.47 329.75 100.712 328.757 101.116 329.75C100.119 330.501 100.38 330.854 99.8335 331.958C94.1559 329.75 87.433 323.833 82.2306 318.601C77.0281 313.369 87.6943 305.796 87.148 304.427C90.7826 303.654 84.4161 309.88 87.433 307.761Z" fill="#AC7E70"/>
<path d="M94.1084 294.867C94.1084 294.867 99.3347 284.91 110.405 282.968C112.563 282.591 114.745 282.34 116.938 282.217C118.292 285.131 123.257 287.273 129.196 287.273C135.134 287.273 140.076 285.065 141.453 282.217C143.59 282.35 145.716 282.601 147.82 282.968C156.372 284.491 163.689 297.671 163.689 297.671L149.744 304.537C152.12 313.368 144.993 313.854 144.993 313.854C144.993 313.854 122.924 316.261 112.353 313.854C112.044 313.854 110.262 308.224 109.265 305.531L94.1084 294.867Z" fill="#47ACCC"/>
<path d="M124.991 254.928C125.084 254.23 125.45 253.588 126.019 253.124C126.589 252.66 127.322 252.407 128.079 252.412C128.809 252.376 129.533 252.554 130.148 252.923C130.762 253.292 131.235 253.831 131.5 254.465C130.875 254.597 130.239 254.679 129.599 254.707H128.174C127.366 254.818 126.511 254.774 124.991 254.928Z" fill="#001118"/>
<path d="M126.084 238.459C126.084 238.459 135.586 238.724 133.567 245.546C131.856 251.529 122.188 249.035 120.24 256.585C118.292 264.136 119.479 265.416 119.479 265.416C119.479 265.416 117.698 266.255 117.104 262.215C117.104 262.215 114.443 258.771 112.899 262.215C111.355 265.659 113.802 268.198 118.149 267.646C118.98 270.108 120.647 272.253 122.9 273.761L123.209 281.268C118.51 282.213 113.748 282.862 108.956 283.211C107.603 282.697 106.502 281.736 105.866 280.513C105.23 279.29 105.103 277.892 105.511 276.587C105.511 276.587 101.473 276.742 100.879 273.96C100.285 271.178 100.285 269.545 104.917 268.529C104.917 268.529 102.209 266.432 103.563 264.114C104.007 263.493 104.666 263.031 105.431 262.806C106.196 262.582 107.02 262.607 107.768 262.877C107.018 262.26 106.54 261.406 106.426 260.481C106.312 259.556 106.57 258.625 107.15 257.866C107.793 257.071 108.706 256.502 109.741 256.249C110.776 255.997 111.872 256.076 112.852 256.475C111.959 255.27 111.384 253.886 111.173 252.437C110.963 250.987 111.123 249.511 111.64 248.129C113.113 243.052 117.983 239.144 126.084 238.459Z" fill="#2C356B"/>
<path d="M112.828 269.191C112.823 269.764 113.002 270.326 113.341 270.804C113.68 271.283 114.164 271.657 114.732 271.879C115.301 272.101 115.927 272.162 116.532 272.053C117.137 271.944 117.694 271.67 118.132 271.266C118.569 270.863 118.868 270.347 118.99 269.786C119.112 269.224 119.052 268.642 118.817 268.112C118.582 267.582 118.183 267.129 117.671 266.81C117.159 266.492 116.556 266.321 115.94 266.321C115.119 266.321 114.331 266.623 113.748 267.161C113.165 267.698 112.834 268.428 112.828 269.191Z" fill="#F8B780"/>
<path d="M137.082 259.102C137.082 260.073 137.629 260.824 138.199 260.802C138.769 260.78 139.22 259.985 139.173 259.014C139.125 258.042 138.603 257.292 138.033 257.314C137.462 257.336 137.011 258.153 137.082 259.102Z" fill="#001118"/>
<path d="M126.487 259.632C126.487 260.603 127.034 261.376 127.604 261.332C128.174 261.288 128.625 260.515 128.578 259.543C128.53 258.572 128.008 257.821 127.438 257.843C126.867 257.866 126.416 258.66 126.487 259.632Z" fill="#001118"/>
<path d="M99.8573 328.403C99.8573 328.403 103.516 322.818 106.723 325.798C109.93 328.779 111.022 330.39 106.509 326.99C106.509 326.99 113.16 334.585 105.654 328.403C105.654 328.403 110.405 335.38 104.371 329.794C104.371 329.794 109.526 337.168 102.637 330.788C102.637 330.788 100.712 334.386 97.0541 330.589C93.3957 326.792 99.6435 327.101 99.6435 327.101L99.8573 328.403Z" fill="#AC7E70"/>
<path d="M386.255 485.131H196.4L172.93 377.327H362.785L386.255 485.131Z" fill="#3D4884"/>
<path d="M376.23 475.616H208.349L189.012 386.82H356.893L376.23 475.616Z" fill="#7389FF"/>
<path d="M202.007 485.131H196.4L172.93 377.327H178.536L202.007 485.131Z" fill="#8490D3"/>
<path d="M294.683 417.589C300.058 425.81 301.307 443.2 286.102 445.66C278.169 446.943 270.946 443.281 264.535 435.684C257.667 427.545 259.259 412.161 269.174 408.077C279.088 403.994 289.307 409.368 294.683 417.589Z" stroke="white"/>
<path d="M284.177 419.182C286.185 422.029 286.498 428.07 281.181 428.868C278.409 429.284 275.848 428.05 273.65 425.426C271.145 422.436 271.714 417.094 275.27 415.9C278.825 414.707 282.169 416.336 284.177 419.182Z" stroke="white"/>
<path d="M267.782 439.164C273.58 430.348 286.798 430.116 297.002 438.7" stroke="white"/>
<path d="M263.715 454.621H264.688L266.634 465.33H265.661L263.715 454.621Z" fill="white"/>
<path d="M267.608 459.489H268.581L269.067 461.921H268.094L267.608 459.489Z" fill="white"/>
<path d="M270.527 459.489H271.5L271.987 461.921H271.013L270.527 459.489Z" fill="white"/>
<path d="M273.446 459.489H274.419L274.906 461.921H273.933L273.446 459.489Z" fill="white"/>
<path d="M276.366 459.489H277.339L277.825 461.921H276.852L276.366 459.489Z" fill="white"/>
<path d="M279.285 459.489H280.258L280.745 461.921H279.771L279.285 459.489Z" fill="white"/>
<path d="M282.204 459.489H283.177L283.664 461.921H282.691L282.204 459.489Z" fill="white"/>
<path d="M285.124 459.489H286.097L286.583 461.921H285.61L285.124 459.489Z" fill="white"/>
<path d="M288.043 459.489H289.016L289.503 461.921H288.53L288.043 459.489Z" fill="white"/>
<path d="M290.962 459.489H291.936L292.422 461.921H291.449L290.962 459.489Z" fill="white"/>
<path d="M293.882 459.489H294.855L295.341 461.921H294.368L293.882 459.489Z" fill="white"/>
<path d="M296.801 459.489H297.774L298.261 461.921H297.288L296.801 459.489Z" fill="white"/>
<path d="M299.72 459.489H300.694L301.18 461.921H300.207L299.72 459.489Z" fill="white"/>
<path d="M302.64 459.489H303.613L304.099 461.921H303.126L302.64 459.489Z" fill="white"/>
<path d="M496.862 485.131H196.4V495H496.862V485.131Z" fill="#8490D3"/>
<path d="M496.862 485.131H307.41V495H496.862V485.131Z" fill="#3D4884"/>
<path d="M196.4 485.131H496.862" stroke="#6470B5" stroke-width="0.9" stroke-linecap="round" stroke-linejoin="round"/>
<path d="M180.84 494.603H522.898" stroke="#4D82C0" stroke-miterlimit="10"/>
<path d="M500.914 418.656H632.996C632.996 418.656 656.751 361.078 656.062 342.312C655.373 323.546 644.541 328.889 651.026 303.765C657.511 278.64 668.32 236.384 648.864 233.713C629.408 231.041 591.851 316.835 573.844 322.199C555.837 327.564 538.519 338.294 523.363 363.749C513.5 381.133 505.961 399.572 500.914 418.656Z" fill="#9CCCFA"/>
<path d="M648.921 234.221C648.921 234.221 612.528 348.273 572.903 418.656" stroke="#7FB9F0" stroke-miterlimit="10"/>
<path d="M595.566 295.265C595.566 295.265 578.462 359.555 559.577 418.656" stroke="#43C9C5" stroke-miterlimit="10"/>
<path d="M647.615 310.255C647.615 310.255 612.67 384.016 588.226 418.656" stroke="#7FB9F0" stroke-miterlimit="10"/>
<path d="M465.718 418.656H652.129" stroke="#4D82C0" stroke-miterlimit="10"/>
<path d="M460.397 332.686C462.681 333.181 464.879 333.968 466.929 335.026C468.752 335.962 470.436 337.112 471.942 338.448C473.244 339.621 474.349 340.968 475.22 342.444C475.979 343.672 476.419 345.049 476.503 346.463C476.508 346.677 476.464 346.891 476.374 347.089C476.284 347.286 476.15 347.464 475.98 347.611C475.834 347.763 475.654 347.885 475.454 347.969C475.253 348.052 475.036 348.096 474.816 348.096H464.316C463.699 348.122 463.084 348.024 462.511 347.809C462 347.571 461.528 347.266 461.109 346.904L460.349 346.154C459.909 345.737 459.414 345.374 458.876 345.072C458.128 344.668 457.33 344.35 456.501 344.122C455.35 343.818 454.157 343.676 452.961 343.703C451.984 343.704 451.008 343.763 450.039 343.88C449.227 343.999 448.43 344.199 447.664 344.476C446.986 344.73 446.383 345.131 445.906 345.646C445.437 346.164 445.192 346.824 445.217 347.5C445.206 347.841 445.267 348.18 445.398 348.498C445.528 348.816 445.725 349.107 445.977 349.355C446.718 349.981 447.592 350.455 448.543 350.746C450.094 351.259 451.681 351.672 453.294 351.982L460.682 353.395C463.311 353.863 465.888 354.558 468.379 355.47C470.395 356.222 472.252 357.298 473.866 358.649C475.313 359.864 476.436 361.376 477.144 363.065C477.908 365.009 478.278 367.067 478.237 369.136C478.263 371.113 477.825 373.072 476.954 374.876C476.09 376.621 474.863 378.189 473.344 379.491C471.692 380.896 469.797 382.031 467.737 382.846C465.454 383.758 463.061 384.41 460.61 384.789V390.066C460.614 390.329 460.558 390.591 460.448 390.834C460.338 391.077 460.175 391.297 459.969 391.479C459.772 391.668 459.535 391.818 459.274 391.92C459.013 392.023 458.732 392.075 458.449 392.075H447.949C447.665 392.078 447.383 392.026 447.122 391.924C446.86 391.821 446.624 391.67 446.428 391.479C446.218 391.3 446.052 391.081 445.941 390.837C445.83 390.594 445.778 390.33 445.787 390.066V384.568C443.28 384.118 440.85 383.353 438.565 382.294C436.636 381.371 434.854 380.204 433.268 378.828C431.868 377.636 430.716 376.214 429.871 374.633C429.09 373.207 428.652 371.64 428.588 370.041C428.585 369.829 428.628 369.618 428.714 369.421C428.8 369.224 428.926 369.045 429.087 368.893C429.234 368.742 429.414 368.621 429.614 368.537C429.814 368.454 430.031 368.41 430.251 368.408H440.941C441.548 368.383 442.154 368.473 442.722 368.673C443.186 368.874 443.618 369.134 444.005 369.445L444.956 370.417C445.477 370.938 446.059 371.404 446.69 371.808C447.529 372.325 448.44 372.733 449.398 373.022C450.712 373.404 452.084 373.583 453.46 373.552C455.869 373.609 458.273 373.318 460.587 372.691C461.37 372.558 462.079 372.178 462.594 371.614C463.11 371.051 463.399 370.339 463.414 369.6C463.421 369.236 463.331 368.877 463.153 368.554C462.975 368.23 462.714 367.952 462.392 367.745C461.435 367.126 460.376 366.656 459.256 366.354C457.501 365.855 455.717 365.449 453.911 365.14L446.262 363.639C441.729 363.012 437.514 361.1 434.194 358.164C431.553 355.332 430.191 351.662 430.393 347.92C430.393 346.195 430.748 344.487 431.439 342.886C432.145 341.26 433.159 339.765 434.432 338.471C435.814 337.088 437.416 335.912 439.183 334.982C441.219 333.977 443.393 333.235 445.644 332.775V327.101C445.638 326.836 445.692 326.574 445.803 326.33C445.913 326.087 446.078 325.868 446.286 325.688C446.482 325.497 446.718 325.345 446.979 325.242C447.241 325.14 447.522 325.089 447.806 325.092H458.306C458.878 325.097 459.424 325.311 459.828 325.686C460.232 326.062 460.462 326.57 460.468 327.101L460.397 332.686Z" fill="#5488ED"/>
<path d="M580.933 264.533L582.002 280.959L583.522 289.26L576.942 291.313L569.34 293.852L569.554 281.643L569.269 269.214L580.933 264.533Z" fill="#D7A095"/>
<path d="M576.087 236.958C585.09 238.548 585.09 244.244 585.09 244.244C585.587 247.075 585.825 249.941 585.803 252.81C586.179 252.265 586.749 251.86 587.413 251.667C588.078 251.473 588.794 251.502 589.437 251.75C592.526 252.854 590.625 261.839 585.969 261.221C585.82 263.345 585.356 265.44 584.591 267.447C583.239 269.351 581.492 270.986 579.453 272.256C577.414 273.525 575.123 274.405 572.713 274.843C567.677 275.616 561.121 273.253 560.432 267.734C559.458 260.095 559.885 243.449 559.885 243.449C559.885 243.449 561.192 234.375 576.087 236.958Z" fill="#EFBA92"/>
<path d="M579.555 241.484C581.931 241.484 585.708 240.49 588.131 240.336C588.131 240.115 588.131 241.992 588.131 242.014C587.949 245.257 587.949 248.507 588.131 251.75C585.755 251.927 585.755 253.737 585.755 253.737L585.85 257.777L583.475 257.623L583 249.101C581.945 248.658 581.1 247.873 580.624 246.893C580.624 246.893 579.983 242.985 579.555 241.484Z" fill="#6559D9"/>
<path d="M579.484 247.158C577.465 247.401 576.229 247.379 575.041 247.445H573.212C572.523 247.445 571.787 247.445 570.718 247.445C570.908 246.532 571.439 245.71 572.216 245.124C572.994 244.539 573.969 244.227 574.97 244.244C575.948 244.217 576.91 244.472 577.726 244.972C578.6 245.456 579.232 246.242 579.484 247.158Z" fill="#002938"/>
<path d="M567.107 249.277C565.944 249.223 564.778 249.223 563.615 249.277C563.188 249.248 562.759 249.248 562.332 249.277C561.786 249.277 561.168 249.498 560.218 249.609C560.171 249.212 560.214 248.81 560.345 248.43C560.476 248.049 560.692 247.699 560.978 247.401C561.59 246.768 562.441 246.381 563.354 246.319C564.271 246.277 565.172 246.561 565.872 247.114C566.243 247.362 566.548 247.686 566.762 248.061C566.976 248.436 567.094 248.853 567.107 249.277Z" fill="#002938"/>
<path d="M569.839 261.597C569.839 261.597 576.966 259.919 578.153 261.95C579.341 263.981 579.864 266.365 581.812 265.35C583.76 264.334 582.762 247.688 582.762 247.688L585.684 253.119C585.684 253.119 591.338 275.02 576.918 276.168C561.762 277.404 559.363 273.452 560.289 265.968C560.289 265.968 562 266.652 562.665 264.599C563.33 262.546 561.81 260.868 569.839 261.597Z" fill="#6559D9"/>
<path d="M576.348 264.224L564.803 264.952C564.803 264.952 568.627 270.648 576.348 264.224Z" fill="white"/>
<path d="M588.226 242.014C588.226 242.014 589.247 234.773 582.643 235.589C580.837 233.672 578.579 232.166 576.045 231.19C573.512 230.214 570.77 229.793 568.034 229.96L572.048 231.836C572.048 231.836 566.513 228.79 557.439 232.322C557.777 233.214 558.385 233.997 559.19 234.576C559.994 235.156 560.962 235.508 561.976 235.589C560.159 235.435 558.376 235.041 556.678 234.419C556.678 234.419 557.177 240.049 560.456 241.219C563.734 242.389 575.588 236.804 580.125 242.146C584.663 247.489 587.442 241.219 587.442 241.219" fill="#6559D9"/>
<path d="M579.816 248.858L569.982 250.138C569.982 250.138 569.982 257.821 576.514 256.916C583.047 256.011 579.816 248.858 579.816 248.858Z" fill="#C5F4FF" stroke="#F1AB65" stroke-width="0.61" stroke-miterlimit="10"/>
<path d="M574.78 252.655C574.78 253.803 575.445 254.708 576.111 254.664C576.776 254.62 577.275 253.693 577.227 252.457C577.18 251.22 576.586 250.403 575.897 250.448C575.208 250.492 574.733 251.529 574.78 252.655Z" fill="#0D3B48"/>
<path d="M569.602 249.851L580.98 248.262L581.337 249.454L569.887 250.822L569.602 249.851Z" fill="#F1AB65"/>
<path d="M558.175 251.044L567.677 250.315C567.677 250.315 569.221 258.66 562.641 258.66C556.061 258.66 558.175 251.044 558.175 251.044Z" fill="#C5F4FF" stroke="#F1AB65" stroke-width="0.61" stroke-miterlimit="10"/>
<path d="M567.915 249.962L556.94 250.624L556.75 251.838L567.796 250.999L567.915 249.962Z" fill="#F1AB65"/>
<path d="M563.829 253.428C563.829 254.576 564.47 255.481 565.135 255.437C565.801 255.393 566.323 254.466 566.252 253.229C566.181 251.993 565.611 251.176 564.922 251.22C564.233 251.264 563.758 252.302 563.829 253.428Z" fill="#0D3B48"/>
<path d="M569.839 261.597L568.129 252.17L564.922 260.714L569.839 261.597Z" fill="#D7A095"/>
<path d="M581.313 249.454L589.271 251.86L589.152 250.779L580.98 248.262L581.313 249.454Z" fill="#F1AB65"/>
<path d="M570.267 251.75C569.885 251.517 569.431 251.407 568.975 251.439C568.52 251.471 568.088 251.643 567.748 251.926" stroke="#F1AB65" stroke-width="0.74" stroke-miterlimit="10"/>
<path opacity="0.1" d="M592.763 461.288C617.888 461.288 638.255 459.647 638.255 457.623C638.255 455.599 617.888 453.958 592.763 453.958C567.639 453.958 547.271 455.599 547.271 457.623C547.271 459.647 567.639 461.288 592.763 461.288Z" fill="#0D3B48"/>
<path d="M578.32 438.526L580.268 452.037L574.661 453.848L571.811 439.387L578.32 438.526Z" fill="#EFBA92"/>
<path d="M571.359 445.966C569.156 448.44 566.263 450.303 562.997 451.353C557.914 452.81 553.329 454.62 553.756 457.314C553.756 457.314 561.453 460.471 573.711 456.563V457.711L581.812 457.248L581.598 447.754L574.875 448.306L575.35 447.357L571.359 445.966Z" fill="#8C82D1"/>
<path d="M568.343 456.806C557.32 459.522 554.469 456.806 553.804 456.607C553.758 456.841 553.758 457.08 553.804 457.314C553.804 457.314 561.501 460.471 573.759 456.563V457.711L581.86 457.248V455.349C577.299 455.163 572.736 455.655 568.343 456.806Z" fill="#5F4645"/>
<path d="M605.52 438.879L605.211 452.523L611.008 453.737L612.1 439.078L605.52 438.879Z" fill="#EFBA92"/>
<path d="M613.336 445.547C615.827 447.756 618.926 449.284 622.292 449.962C627.518 450.889 632.293 452.17 632.174 454.952C632.174 454.952 624.928 458.881 612.267 456.276L612.385 457.424L604.261 457.8L603.335 448.328L610.081 448.174L609.511 447.291L613.336 445.547Z" fill="#8C82D1"/>
<path d="M617.636 456.011C628.896 457.579 631.414 454.576 632.055 454.333C632.154 454.549 632.195 454.784 632.174 455.018C632.174 455.018 624.928 458.948 612.267 456.342L612.386 457.49L604.261 457.866L604.071 455.967C608.566 455.311 613.145 455.326 617.636 456.011Z" fill="#5F4645"/>
<path d="M557.747 331.119C557.747 331.119 549.148 387.769 569.245 443.714C569.245 443.714 575.421 447.622 580.814 443.427C580.814 443.427 573.687 389.69 576.063 357.899L580.386 358.517C580.386 358.517 591.172 386.047 592.264 393.576C593.357 401.104 600.555 441.859 602.289 445.215C602.289 445.215 611.126 447.423 613.644 443.007C613.644 443.007 611.411 411.569 610.58 398.278C609.986 388.388 597.324 339.795 597.324 339.795L557.747 331.119Z" fill="#2C356B"/>
<path d="M597.372 337.963C597.372 337.963 575.992 346.794 556.132 340.921C556.132 340.921 552.521 307.187 550.621 286.743C558.229 284.134 566.164 282.435 574.234 281.687L575.849 286.103L576.871 281.533C585.444 281.885 593.992 282.651 602.479 283.829C602.479 283.829 599.272 322.266 597.372 337.963Z" fill="#6C59E0"/>
<path d="M586.753 282.018L580.648 287.869L576.871 281.533L583.57 278.022L586.753 282.018Z" fill="#18A4BA"/>
<path d="M564.423 282.99L569.673 288.001L574.234 281.643L567.036 279.06L564.423 282.99Z" fill="#18A4BA"/>
<path d="M550.621 286.743C550.621 286.743 542.116 306.039 538.363 316.592C541.211 319.194 544.934 320.808 548.91 321.162L555.847 304.008L550.621 286.743Z" fill="#6C59E0"/>
<path d="M602.479 283.983C602.479 283.983 616.614 309.659 620.059 320.279C617.164 322.858 613.392 324.42 609.392 324.694L596.754 301.226L602.479 283.983Z" fill="#6C59E0"/>
<path d="M597.372 340.612C597.372 340.612 593.096 347.125 581.052 351.386L577.275 342.555L570.623 351.562C570.623 351.562 560.218 347.809 556.132 340.987L601.268 296.832L597.372 340.612Z" fill="#6C59E0"/>
<path d="M574.709 289.569C574.699 289.688 574.716 289.808 574.758 289.922C574.8 290.035 574.866 290.139 574.953 290.228C575.039 290.317 575.144 290.388 575.262 290.438C575.379 290.488 575.506 290.515 575.635 290.518C575.763 290.523 575.891 290.506 576.012 290.466C576.132 290.426 576.243 290.364 576.338 290.284C576.433 290.204 576.51 290.108 576.565 290C576.619 289.892 576.651 289.776 576.657 289.657C576.663 289.538 576.644 289.419 576.601 289.307C576.558 289.195 576.492 289.092 576.405 289.004C576.319 288.916 576.216 288.844 576.1 288.793C575.984 288.743 575.858 288.714 575.73 288.708C575.602 288.702 575.474 288.72 575.354 288.76C575.233 288.8 575.122 288.861 575.027 288.941C574.933 289.021 574.856 289.118 574.801 289.226C574.746 289.333 574.715 289.45 574.709 289.569Z" fill="#F2EFEF"/>
<path d="M574.899 297.98C574.936 298.199 575.055 298.398 575.236 298.541C575.417 298.685 575.647 298.764 575.885 298.764C576.123 298.764 576.353 298.685 576.534 298.541C576.715 298.398 576.834 298.199 576.871 297.98C576.877 297.861 576.858 297.742 576.815 297.63C576.772 297.518 576.705 297.415 576.619 297.327C576.533 297.239 576.429 297.167 576.313 297.117C576.198 297.066 576.072 297.037 575.944 297.031C575.806 297.022 575.668 297.039 575.538 297.083C575.408 297.127 575.29 297.196 575.191 297.286C575.092 297.376 575.015 297.484 574.965 297.604C574.914 297.724 574.892 297.852 574.899 297.98Z" fill="#F2EFEF"/>
<path d="M574.709 308.401C574.703 308.52 574.721 308.638 574.765 308.751C574.808 308.863 574.874 308.966 574.96 309.054C575.046 309.142 575.15 309.213 575.266 309.264C575.382 309.315 575.507 309.344 575.635 309.35C575.765 309.359 575.896 309.343 576.019 309.305C576.142 309.266 576.256 309.205 576.354 309.125C576.451 309.044 576.53 308.947 576.586 308.838C576.643 308.728 576.675 308.61 576.681 308.489C576.644 308.271 576.525 308.071 576.344 307.928C576.163 307.784 575.933 307.705 575.695 307.705C575.457 307.705 575.227 307.784 575.046 307.928C574.865 308.071 574.746 308.271 574.709 308.489V308.401Z" fill="#F2EFEF"/>
<path d="M574.828 318.269C574.815 318.512 574.904 318.749 575.077 318.931C575.251 319.112 575.494 319.223 575.754 319.24C575.882 319.246 576.01 319.229 576.131 319.189C576.251 319.149 576.362 319.087 576.457 319.007C576.552 318.927 576.629 318.83 576.684 318.723C576.738 318.615 576.769 318.499 576.776 318.38C576.776 318.14 576.673 317.91 576.49 317.74C576.308 317.57 576.06 317.475 575.802 317.475C575.543 317.475 575.296 317.57 575.113 317.74C574.93 317.91 574.828 318.14 574.828 318.38V318.269Z" fill="#F2EFEF"/>
<path d="M576.158 338.47C576.145 338.712 576.235 338.95 576.408 339.131C576.581 339.313 576.824 339.424 577.085 339.441C577.213 339.447 577.34 339.429 577.461 339.389C577.582 339.349 577.693 339.288 577.788 339.208C577.882 339.128 577.959 339.031 578.014 338.923C578.069 338.816 578.1 338.699 578.106 338.58C578.106 338.462 578.081 338.344 578.032 338.234C577.983 338.124 577.911 338.025 577.821 337.941C577.73 337.857 577.623 337.79 577.505 337.744C577.387 337.699 577.26 337.676 577.132 337.676C577.004 337.676 576.878 337.699 576.759 337.744C576.641 337.79 576.534 337.857 576.443 337.941C576.353 338.025 576.281 338.124 576.232 338.234C576.183 338.344 576.158 338.462 576.158 338.58V338.47Z" fill="#F2EFEF"/>
<path d="M581.681 302.224L581.647 303.834L594.093 304.062L594.127 302.452L581.681 302.224Z" fill="#18A4BA"/>
<path d="M570.932 328.028C570.925 328.141 570.943 328.254 570.984 328.361C571.025 328.467 571.088 328.565 571.169 328.649C571.251 328.734 571.35 328.802 571.46 328.85C571.57 328.899 571.689 328.927 571.811 328.932C572.055 328.939 572.292 328.857 572.474 328.705C572.655 328.553 572.767 328.342 572.785 328.116C572.785 327.888 572.687 327.669 572.513 327.507C572.34 327.346 572.104 327.255 571.858 327.255C571.613 327.255 571.377 327.346 571.203 327.507C571.029 327.669 570.932 327.888 570.932 328.116V328.028Z" fill="#F2EFEF"/>
<path d="M587.133 329.75C587.133 330.324 586.302 330.765 585.328 330.743L529.169 329.043C528.195 329.043 527.435 328.536 527.435 327.962C527.435 327.388 528.267 326.946 529.241 326.968L585.399 328.668C586.373 328.668 587.157 329.176 587.133 329.75Z" fill="#3B5F69"/>
<path d="M585.399 328.668L529.241 326.968L568.319 328.138C568.703 328.177 569.058 328.348 569.313 328.618C569.568 328.887 569.705 329.236 569.696 329.595C569.687 329.829 569.614 330.057 569.483 330.258L585.328 330.743C586.302 330.743 587.109 330.324 587.133 329.75C587.157 329.176 586.373 328.69 585.399 328.668Z" fill="#73FFD5"/>
<path d="M527.235 297.386L526.483 325.99C526.461 326.806 527.156 327.485 528.035 327.505L568.787 328.43C569.666 328.45 570.396 327.804 570.417 326.988L571.17 298.384C571.191 297.567 570.496 296.889 569.617 296.869L528.865 295.943C527.986 295.923 527.256 296.569 527.235 297.386Z" fill="#7389FF"/>
<path d="M569.601 296.832H569.221C569.461 296.963 569.659 297.151 569.797 297.375C569.935 297.6 570.006 297.854 570.005 298.113L569.221 326.968C569.21 327.336 569.049 327.686 568.772 327.948C568.494 328.21 568.12 328.365 567.725 328.381H568.865C569.074 328.387 569.282 328.354 569.478 328.286C569.673 328.217 569.852 328.113 570.005 327.979C570.157 327.846 570.279 327.686 570.365 327.509C570.451 327.332 570.498 327.14 570.504 326.946L571.264 298.245C571.24 297.855 571.052 297.489 570.742 297.225C570.431 296.961 570.022 296.82 569.601 296.832Z" fill="#3B5F69"/>
<path d="M592.241 325.643L587.489 326.814C586.649 326.226 585.658 325.853 584.615 325.732H584.473C583.363 325.654 582.255 325.91 581.313 326.46C581.313 326.46 577.037 326.681 576.894 328.403L580.933 328.602C580.601 329.233 580.331 329.891 580.125 330.567L575.065 330.434C577.892 335.203 587.893 331.538 587.893 331.538L593.167 330.567L592.241 325.643Z" fill="#EFBA92"/>
<path d="M606.375 317.276C606.375 317.276 597.134 323.899 589.532 326.107C589.632 328.381 590.414 330.583 591.789 332.465C591.789 332.465 611.886 329.728 618.871 324.628C618.871 324.628 622.505 322.95 618.253 315.311C616.733 312.331 606.375 317.276 606.375 317.276Z" fill="#6C59E0"/>
</svg>
