<svg width="17" height="20" viewBox="0 0 17 20" fill="none" xmlns="http://www.w3.org/2000/svg">
<path d="M11.9968 5.12082C12.0593 2.98029 11.2273 0.962584 8.4584 1.00053C5.68954 1.03847 4.88359 3.19151 5.01313 5.12082C5.14266 7.05013 5.95774 8.86745 8.4584 8.9939C10.9591 9.12036 11.9343 7.26135 11.9968 5.12082Z" stroke="#323232" stroke-width="1.4"/>
<path d="M5.59025 11C4.64903 11.5942 2.84353 12.4645 1.79957 12.8272C1.08886 13.0741 0.851925 15.642 1.08884 16.8272C1.32576 18.0123 5.11641 19 8.43327 19C11.7501 19 15.5408 18.0123 15.8725 16.8272C16.2042 15.642 15.8725 13.0741 15.067 12.8272C14.2614 12.5803 12.7048 11.9037 11.2763 11" stroke="#323232" stroke-width="1.4" stroke-linecap="round" stroke-linejoin="round"/>
</svg>
