<svg width="18" height="18" viewBox="0 0 18 18" fill="none" xmlns="http://www.w3.org/2000/svg">
<path d="M0 9C0 4.02944 4.02944 0 9 0C13.9706 0 18 4.02944 18 9C18 13.9706 13.9706 18 9 18C4.02944 18 0 13.9706 0 9Z" fill="#3878F4" fill-opacity="0.7"/>
<path d="M8.99396 6.045C9.53996 6.045 9.98196 5.603 9.98196 5.057C9.98196 4.511 9.53996 4.082 8.99396 4.082C8.46096 4.082 8.00596 4.511 8.00596 5.057C8.00596 5.603 8.46096 6.045 8.99396 6.045ZM9.82596 13V6.721H8.17496V13H9.82596Z" fill="white"/>
</svg>
