<svg width="56" height="56" viewBox="0 0 56 56" fill="none" xmlns="http://www.w3.org/2000/svg">
<path d="M42.875 23.625C40.74 23.625 38.7012 24.1666 36.9145 25.1606L35.4086 22.8576C38.3442 20.6176 40.25 17.094 40.25 13.125C40.25 6.37 34.755 0.875 28 0.875C21.245 0.875 15.75 6.37 15.75 13.125C15.75 17.0415 17.5761 20.5993 20.5809 22.8743L19.082 25.1667C17.2987 24.1762 15.2609 23.625 13.125 23.625C6.37 23.625 0.875 29.12 0.875 35.875C0.875 42.63 6.37 48.125 13.125 48.125C15.4192 48.125 17.6173 47.4985 19.544 46.3085C20.0147 47.1301 20.6448 47.8581 21.413 48.4339L22.75 49.4375V55.125H38.5V47.3148C39.8904 47.845 41.3787 48.125 42.875 48.125C49.63 48.125 55.125 42.63 55.125 35.875C55.125 29.12 49.63 23.625 42.875 23.625ZM53.375 35.875C53.375 37.9313 52.7721 39.8449 51.7466 41.4662C50.617 39.1169 48.594 37.3223 46.1738 36.4543C47.3629 35.4909 48.125 34.0209 48.125 32.375C48.125 29.4796 45.7704 27.125 42.875 27.125C40.3182 27.125 38.185 28.9634 37.7213 31.3871C37.247 30.9164 36.5942 30.625 35.875 30.625C35.5294 30.625 35.2012 30.6959 34.8985 30.8175C34.7935 30.429 34.6027 30.0799 34.3455 29.785C36.3177 27.0191 39.4441 25.375 42.875 25.375C48.6649 25.375 53.375 30.0851 53.375 35.875ZM38.5 35.2713C38.7957 35.7166 39.1571 36.1147 39.5719 36.4508C39.207 36.5811 38.8483 36.729 38.5 36.9022V35.2713ZM42.875 35.875C40.9448 35.875 39.375 34.3052 39.375 32.375H46.375C46.375 34.3052 44.8052 35.875 42.875 35.875ZM39.8615 30.625C40.4688 29.5837 41.5853 28.875 42.875 28.875C44.1647 28.875 45.2812 29.5837 45.8885 30.625H39.8615ZM42.875 37.625C43.4656 37.625 44.044 37.6959 44.6049 37.8201C44.5069 38.6925 43.7736 39.375 42.875 39.375C41.9816 39.375 41.251 38.6995 41.146 37.8332C41.7113 37.7099 42.2853 37.625 42.875 37.625ZM35.4533 26.1222C34.44 26.8958 33.5422 27.8337 32.795 28.9179C32.6576 28.8951 32.5185 28.875 32.375 28.875C32.0294 28.875 31.7012 28.9459 31.3985 29.0675C31.0966 27.9519 30.0851 27.125 28.875 27.125C28.567 27.125 28.2747 27.188 28 27.286V25.375C30.1595 25.375 32.1869 24.8089 33.95 23.8236L35.4533 26.1222ZM28 23.625C27.9449 23.625 27.8915 23.6198 27.8372 23.6189C27.4724 22.6056 26.5116 21.875 25.375 21.875C24.6601 21.875 24.0126 22.1637 23.5392 22.6284C22.3195 22.057 21.2459 21.2756 20.356 20.3341C21.0814 18.228 22.6371 16.5533 24.5901 15.6398C24.941 17.2025 26.334 18.375 28 18.375C29.666 18.375 31.059 17.2025 31.4099 15.6406C33.355 16.5506 34.9072 18.2149 35.6361 20.3096C33.7199 22.3449 31.0091 23.625 28 23.625ZM24.5 9.625H31.5C31.5 11.5553 29.9303 13.125 28 13.125C26.0697 13.125 24.5 11.5553 24.5 9.625ZM24.9865 7.875C25.5938 6.83375 26.7103 6.125 28 6.125C29.2897 6.125 30.4062 6.83375 31.0135 7.875H24.9865ZM28 14.875C28.5906 14.875 29.169 14.9459 29.7299 15.0701C29.6319 15.9425 28.8986 16.625 28 16.625C27.1014 16.625 26.3681 15.9425 26.2701 15.0701C26.831 14.9459 27.4094 14.875 28 14.875ZM28 2.625C33.7899 2.625 38.5 7.33512 38.5 13.125C38.5 15.1812 37.8971 17.0949 36.8716 18.7162C35.742 16.3669 33.719 14.5722 31.2987 13.7042C32.4879 12.7409 33.25 11.2709 33.25 9.625C33.25 6.72962 30.8954 4.375 28 4.375C25.1046 4.375 22.75 6.72962 22.75 9.625C22.75 11.2709 23.5121 12.7409 24.7013 13.7034C22.274 14.574 20.2458 16.3756 19.1179 18.7346C18.0845 17.0966 17.5 15.169 17.5 13.125C17.5 7.33512 22.2101 2.625 28 2.625ZM22.0465 23.828C22.2862 23.9601 22.5295 24.087 22.7798 24.2051C22.7684 24.3031 22.75 24.3994 22.75 24.5V28.3001C22.1051 27.4794 21.3658 26.7479 20.5459 26.124L22.0465 23.828ZM13.125 25.375C17.3206 25.375 21.0779 27.8469 22.75 31.6829V32.7092L19.978 34.0952C18.7968 34.6859 17.9673 35.7402 17.6488 36.9775C17.2541 36.7727 16.8455 36.5995 16.429 36.4508C17.6146 35.4865 18.375 34.0191 18.375 32.375C18.375 29.4796 16.0204 27.125 13.125 27.125C10.2296 27.125 7.875 29.4796 7.875 32.375C7.875 34.0209 8.63712 35.4909 9.82625 36.4534C7.406 37.3214 5.38212 39.116 4.25338 41.4654C3.22787 39.8449 2.625 37.9313 2.625 35.875C2.625 30.0851 7.33512 25.375 13.125 25.375ZM9.625 32.375H16.625C16.625 34.3052 15.0553 35.875 13.125 35.875C11.1947 35.875 9.625 34.3052 9.625 32.375ZM10.1115 30.625C10.7188 29.5837 11.8352 28.875 13.125 28.875C14.4148 28.875 15.5312 29.5837 16.1385 30.625H10.1115ZM13.125 37.625C13.7139 37.625 14.2923 37.6924 14.8558 37.8149C14.7595 38.6899 14.0254 39.375 13.125 39.375C12.2264 39.375 11.4931 38.6925 11.3951 37.8201C11.956 37.6959 12.5344 37.625 13.125 37.625ZM13.125 46.375C10.1159 46.375 7.40512 45.0949 5.48887 43.0596C6.21775 40.9649 7.77 39.3006 9.71513 38.3906C10.066 39.9525 11.459 41.125 13.125 41.125C14.7936 41.125 16.1884 39.9499 16.5366 38.3845C16.8997 38.5542 17.2515 38.752 17.5901 38.9769C17.5971 39.0101 17.5998 39.0434 17.6068 39.0766L18.7792 44.3537C18.8029 44.4579 18.8344 44.5594 18.8624 44.6626C17.1561 45.7809 15.1874 46.375 13.125 46.375ZM36.75 53.375H24.5V49.5416C28.2949 47.6884 32.9543 47.6884 36.75 49.5416V53.375ZM36.75 47.6193C32.6244 45.8754 27.7428 46.0154 23.7239 47.9806L22.463 47.0348C21.4603 46.2831 20.7594 45.1955 20.4881 43.974L19.3156 38.696C19.2719 38.5026 19.25 38.304 19.25 38.1045C19.25 37.0633 19.8284 36.1261 20.7603 35.6606L22.75 34.6657V36.5435C22.75 37.4168 22.2644 38.2025 21.4839 38.5928L22.267 40.1581C23.6443 39.4678 24.5 38.0826 24.5 36.5435V24.5C24.5 24.017 24.8929 23.625 25.375 23.625C25.8571 23.625 26.25 24.017 26.25 24.5V38.5H28V29.75C28 29.267 28.3929 28.875 28.875 28.875C29.3571 28.875 29.75 29.267 29.75 29.75V38.5H31.5V31.5C31.5 31.017 31.8929 30.625 32.375 30.625C32.8571 30.625 33.25 31.017 33.25 31.5V38.5H35V33.25C35 32.767 35.3929 32.375 35.875 32.375C36.3571 32.375 36.75 32.767 36.75 33.25V47.6193ZM42.875 46.375C41.3621 46.375 39.8659 46.0285 38.5 45.402V38.9358C38.8124 38.7336 39.1326 38.5499 39.466 38.3941C39.8186 39.9543 41.2099 41.125 42.875 41.125C44.541 41.125 45.934 39.9525 46.2849 38.3906C48.23 39.3006 49.7822 40.9649 50.5111 43.0596C48.5949 45.0949 45.8841 46.375 42.875 46.375Z" fill="#3878F4"/>
</svg>
