<svg width="22" height="22" viewBox="0 0 22 22" fill="none" xmlns="http://www.w3.org/2000/svg">
<mask id="mask0" mask-type="alpha" maskUnits="userSpaceOnUse" x="0" y="0" width="22" height="22">
<rect width="22" height="22" fill="#3878F4"/>
</mask>
<g mask="url(#mask0)">
<path d="M8.40193 3.5C9.55663 1.5 12.4434 1.5 13.5981 3.5L20.9593 16.25C22.114 18.25 20.6706 20.75 18.3612 20.75H3.63878C1.32938 20.75 -0.113993 18.25 1.04071 16.25L8.40193 3.5Z" fill="#3878F4" fill-opacity="0.8"/>
<path d="M11.7289 14.179L11.9889 8.329H9.99991L10.2729 14.179H11.7289ZM11.0009 17.13C11.5729 17.13 12.0539 16.649 12.0539 16.09C12.0539 15.518 11.5729 15.037 11.0009 15.037C10.4289 15.037 9.96091 15.518 9.96091 16.09C9.96091 16.649 10.4289 17.13 11.0009 17.13Z" fill="white"/>
</g>
</svg>
