<svg width="44" height="56" viewBox="0 0 44 56" fill="none" xmlns="http://www.w3.org/2000/svg">
<path d="M21.7017 0.727295C18.7057 0.727295 16.2684 3.16458 16.2684 6.16053C16.2684 9.15648 18.7057 11.5938 21.7017 11.5938C24.6976 11.5938 27.1349 9.15648 27.1349 6.16053C27.1349 3.16458 24.6976 0.727295 21.7017 0.727295ZM21.7017 9.46309C19.8807 9.46309 18.3991 7.98152 18.3991 6.16053C18.3991 4.33955 19.8807 2.85798 21.7017 2.85798C23.5227 2.85798 25.0042 4.33955 25.0042 6.16053C25.0042 7.98152 23.5228 9.46309 21.7017 9.46309Z" fill="#3878F4"/>
<path d="M38.321 18.948H23.6193C23.0309 18.948 22.554 19.425 22.554 20.0133V24.0616C22.554 24.65 23.0309 25.127 23.6193 25.127H38.321C38.9094 25.127 39.3863 24.65 39.3863 24.0616V20.0133C39.3863 19.425 38.9094 18.948 38.321 18.948ZM37.2557 22.9963H24.6846V21.0787H37.2557V22.9963Z" fill="#3878F4"/>
<path d="M38.3025 26.9346H26.8855C26.2971 26.9346 25.8202 27.4115 25.8202 27.9999C25.8202 28.5883 26.2971 29.0653 26.8855 29.0653H38.3024C38.8908 29.0653 39.3678 28.5883 39.3678 27.9999C39.3678 27.4115 38.8909 26.9346 38.3025 26.9346Z" fill="#3878F4"/>
<path d="M23.6331 26.9346H23.6193C23.0309 26.9346 22.554 27.4115 22.554 27.9999C22.554 28.5883 23.0309 29.0653 23.6193 29.0653H23.6333C24.2216 29.0653 24.6985 28.5883 24.6985 27.9999C24.6985 27.4115 24.2215 26.9346 23.6331 26.9346Z" fill="#3878F4"/>
<path d="M38.3025 31.6199H26.8855C26.2971 31.6199 25.8202 32.0968 25.8202 32.6852C25.8202 33.2736 26.2971 33.7506 26.8855 33.7506H38.3024C38.8908 33.7506 39.3678 33.2736 39.3678 32.6852C39.3678 32.0968 38.8909 31.6199 38.3025 31.6199Z" fill="#3878F4"/>
<path d="M23.6331 31.6199H23.6193C23.0309 31.6199 22.554 32.0968 22.554 32.6852C22.554 33.2736 23.0309 33.7506 23.6193 33.7506H23.6333C24.2216 33.7506 24.6985 33.2736 24.6985 32.6852C24.6985 32.0968 24.2215 31.6199 23.6331 31.6199Z" fill="#3878F4"/>
<path d="M14.2979 18.1101H14.2804C13.692 18.1101 13.2151 18.5871 13.2151 19.1754C13.2151 19.7638 13.692 20.2408 14.2804 20.2408H14.2979C14.8863 20.2408 15.3632 19.7638 15.3632 19.1754C15.3632 18.5871 14.8863 18.1101 14.2979 18.1101Z" fill="#3878F4"/>
<path d="M19.8945 18.1101H17.7106C17.1222 18.1101 16.6453 18.5871 16.6453 19.1754C16.6453 19.7638 17.1222 20.2408 17.7106 20.2408H18.8292V33.0248H17.4904L14.2329 26.8008C14.0606 26.4718 13.7294 26.2561 13.3588 26.2318C12.9881 26.2073 12.6316 26.3779 12.4178 26.6816L10.2578 29.7501L9.42331 28.8279C9.20022 28.5813 8.8754 28.453 8.54355 28.4811C8.21223 28.5091 7.91308 28.6902 7.73453 28.9707L6.04522 31.6259V20.2408H10.7422C11.3306 20.2408 11.8075 19.7638 11.8075 19.1754C11.8075 18.5871 11.3306 18.1101 10.7422 18.1101H4.97977C4.39138 18.1101 3.91443 18.5871 3.91443 19.1754V34.0901C3.91443 34.6785 4.39138 35.1555 4.97977 35.1555H19.8945C20.4829 35.1555 20.9599 34.6785 20.9599 34.0901V19.1754C20.9599 18.5872 20.4829 18.1101 19.8945 18.1101ZM7.6803 33.025L8.78144 31.2943L9.57182 32.1679C9.78904 32.4079 10.1031 32.5362 10.4268 32.5165C10.7499 32.4967 11.0465 32.3311 11.2329 32.0664L13.1548 29.3362L15.0854 33.025H7.6803Z" fill="#3878F4"/>
<path d="M15.8138 20.9832C14.404 20.9832 13.257 22.1302 13.257 23.54C13.257 24.9497 14.404 26.0968 15.8138 26.0968C17.2236 26.0968 18.3706 24.9497 18.3706 23.54C18.3706 22.1302 17.2235 20.9832 15.8138 20.9832ZM15.8138 23.9661C15.5788 23.9661 15.3876 23.775 15.3876 23.54C15.3876 23.305 15.5788 23.1138 15.8138 23.1138C16.0488 23.1138 16.2399 23.305 16.2399 23.54C16.2399 23.775 16.0488 23.9661 15.8138 23.9661Z" fill="#3878F4"/>
<path d="M1.24716 24.6213C0.658777 24.6213 0.181824 25.0983 0.181824 25.6867V25.6975C0.181824 26.2859 0.658777 26.7629 1.24716 26.7629C1.83555 26.7629 2.31251 26.2859 2.31251 25.6975V25.6867C2.31251 25.0983 1.83555 24.6213 1.24716 24.6213Z" fill="#3878F4"/>
<path d="M42.1562 13.2984H24.6846V10.1379C24.6846 9.54946 24.2077 9.07251 23.6193 9.07251C23.0309 9.07251 22.5539 9.54946 22.5539 10.1379V13.2984H20.8494V10.1379C20.8494 9.54946 20.3724 9.07251 19.784 9.07251C19.1957 9.07251 18.7187 9.54946 18.7187 10.1379V13.2984H1.24723C0.658838 13.2984 0.181885 13.7754 0.181885 14.3637V23.0915C0.181885 23.6799 0.658838 24.1569 1.24723 24.1569C1.83561 24.1569 2.31257 23.6799 2.31257 23.0915V15.4291H41.0909V38.6535H2.31257V28.375C2.31257 27.7866 1.83561 27.3097 1.24723 27.3097C0.658838 27.3097 0.181885 27.7866 0.181885 28.375V39.7189C0.181885 40.3072 0.658838 40.7842 1.24723 40.7842H18.7187V47.3892H12.5163C12.0527 47.3892 11.6422 47.6891 11.5013 48.1308L9.66619 53.8837C9.56285 54.2077 9.62038 54.5615 9.82098 54.8359C10.0216 55.1105 10.3412 55.2728 10.6811 55.2728H32.7223C33.0622 55.2728 33.3818 55.1106 33.5824 54.8359C33.7831 54.5614 33.8406 54.2076 33.7372 53.8837L31.9021 48.1308C31.7612 47.6891 31.3508 47.3892 30.8871 47.3892H24.6846V40.7842H42.1562C42.7446 40.7842 43.2215 40.3072 43.2215 39.7189V14.3637C43.2215 13.7754 42.7446 13.2984 42.1562 13.2984ZM20.8494 40.7842H22.5539V47.3892H20.8494V40.7842ZM30.1086 49.5199L31.2642 53.1421H12.1392L13.2946 49.5199H30.1086Z" fill="#3878F4"/>
</svg>
