<svg width="24" height="24" viewBox="0 0 24 24" fill="none" xmlns="http://www.w3.org/2000/svg">
<path d="M13.9348 23.8438C13.8348 23.8609 13.7344 23.8767 13.6337 23.8912C13.7344 23.8767 13.8348 23.8609 13.9348 23.8438Z" fill="#4267B2"/>
<path d="M14.175 23.8027C14.1273 23.812 14.0795 23.8205 14.0317 23.8291C14.0795 23.8205 14.1273 23.812 14.175 23.8027Z" fill="#4267B2"/>
<path d="M13.366 23.9224C13.249 23.9362 13.1313 23.9486 13.0132 23.959C13.1313 23.9486 13.249 23.9362 13.366 23.9224Z" fill="#4267B2"/>
<path d="M13.5966 23.8936C13.5403 23.8973 13.4838 23.9008 13.4274 23.9041C13.4838 23.9008 13.5403 23.8973 13.5966 23.8936Z" fill="#4267B2"/>
<path d="M14.5013 23.7378C14.4592 23.7472 14.4169 23.7567 14.3746 23.7657C14.4169 23.7567 14.4592 23.7472 14.5013 23.7378Z" fill="#4267B2"/>
<path d="M15.3126 23.5361C15.2786 23.5463 15.2445 23.556 15.2104 23.566C15.2445 23.556 15.2786 23.5463 15.3126 23.5361Z" fill="#4267B2"/>
<path d="M15.0668 23.604C15.0298 23.6142 14.9926 23.6246 14.9554 23.6345C14.9926 23.6246 15.0298 23.6144 15.0668 23.604Z" fill="#4267B2"/>
<path d="M14.7468 23.6836C14.7076 23.6932 14.6681 23.7023 14.6285 23.7115C14.6681 23.7023 14.7076 23.6932 14.7468 23.6836Z" fill="#4267B2"/>
<path d="M13.009 23.9575C12.9458 23.9602 12.8826 23.9626 12.8193 23.9647C12.8826 23.9626 12.9458 23.9602 13.009 23.9575Z" fill="#4267B2"/>
<path d="M24 12C24 5.3736 18.6264 0 12 0C5.3736 0 0 5.3736 0 12C0 18.6264 5.3736 24 12 24C12.0705 24 12.1406 23.9985 12.2109 23.9973V14.6558H9.63281V11.6512H12.2109V9.44019C12.2109 6.87598 13.7763 5.48035 16.0637 5.48035C17.159 5.48035 18.1005 5.56201 18.375 5.59845V8.27838H16.7977C15.5533 8.27838 15.3124 8.86981 15.3124 9.73755V11.6512H18.2878L17.9 14.6558H15.3124V23.5364C20.3282 22.0984 24 17.4774 24 12Z" fill="#4267B2"/>
<path d="M12.7926 23.9736C12.6677 23.9777 12.5423 23.9809 12.4165 23.983C12.5423 23.9809 12.6677 23.9777 12.7926 23.9736Z" fill="#4267B2"/>
<path d="M12.4104 23.9927C12.3441 23.9938 12.2776 23.9946 12.2112 23.9951C12.2776 23.9946 12.3441 23.9938 12.4104 23.9927Z" fill="#4267B2"/>
</svg>
