<svg width="22" height="24" viewBox="0 0 22 24" fill="none" xmlns="http://www.w3.org/2000/svg">
<path d="M0.68457 2.16797C0.310221 1 0.557292 0.416016 1.42578 0.416016H5.44629C6.15007 0.416016 6.59928 0.797852 6.79395 1.56152L10.2754 14.7236C10.4701 15.4574 10.6273 16.1836 10.7471 16.9023C10.8818 17.6211 10.9642 18.2051 10.9941 18.6543H11.1289C11.1589 18.2051 11.2337 17.6211 11.3535 16.9023C11.4883 16.1836 11.653 15.4574 11.8477 14.7236L15.3291 1.56152C15.5238 0.797852 15.973 0.416016 16.6768 0.416016H20.6973C21.5658 0.416016 21.8128 1 21.4385 2.16797L14.9248 22.4951C14.6104 23.4984 14.0638 24 13.2852 24H8.83789C8.05924 24 7.5127 23.4984 7.19824 22.4951L0.68457 2.16797Z" fill="#3878F4"/>
</svg>
