<svg width="54" height="36" viewBox="0 0 54 36" fill="none" xmlns="http://www.w3.org/2000/svg">
<path d="M53.556 25.0897C53.4225 22.0196 52.8886 18.6157 52.0877 15.4121C51.2868 12.3419 50.2856 9.47203 49.0843 7.26954C44.4123 -0.939746 39.3399 0.328355 33.2664 1.93017C31.3309 2.39736 29.2619 2.9313 27.1261 3.13152H26.4587C24.3229 2.9313 22.2539 2.39736 20.3184 1.93017C14.2449 0.395097 9.17248 -0.939746 4.50053 7.33628C3.29917 9.53877 2.23129 12.4087 1.49713 15.4788C0.696223 18.6824 0.162286 22.0863 0.0288014 25.1564C-0.104683 28.5603 0.229028 31.0297 0.963192 32.765C1.69736 34.3669 2.76523 35.368 4.16682 35.7684C5.43492 36.1021 6.90324 35.9687 8.43831 35.3012C11.0413 34.2334 14.0447 31.9641 16.9813 29.2277C19.0503 27.2254 22.9214 26.2243 26.7924 26.2243C30.6635 26.2243 34.5345 27.2254 36.6035 29.2277C39.5402 31.9641 42.5436 34.2334 45.1465 35.3012C46.6816 35.9019 48.1499 36.1021 49.418 35.7684C50.7528 35.368 51.8875 34.4336 52.6216 32.6983C53.3558 31.0297 53.6895 28.5603 53.556 25.0897ZM50.3524 31.7639C49.9519 32.6983 49.418 33.2322 48.7506 33.4325C48.0164 33.6327 47.082 33.4992 46.0141 33.0988C43.6782 32.1644 40.9417 30.0954 38.2721 27.5592C35.7359 25.023 31.2641 23.7549 26.7924 23.7549C22.3207 23.7549 17.849 25.023 15.246 27.4257C12.5096 29.9619 9.77316 32.0976 7.50392 32.9653C6.43605 33.3657 5.50166 33.5659 4.76749 33.299C4.10007 33.0988 3.56614 32.5648 3.16568 31.6304C2.63175 30.3623 2.36478 28.2933 2.49826 25.2232C2.63175 22.3533 3.09894 19.0829 3.89985 16.0128C4.63401 13.1428 5.5684 10.4732 6.70302 8.4709C10.3738 1.86342 14.6453 2.9313 19.7177 4.26614C21.7867 4.80008 23.9225 5.33402 26.2585 5.53424C26.3252 5.53424 26.3252 5.53424 26.392 5.53424H27.1261C27.1929 5.53424 27.1929 5.53424 27.2596 5.53424C29.6623 5.33402 31.7981 4.80008 33.8671 4.26614C38.9395 2.99804 43.211 1.86342 46.8818 8.4709C48.0164 10.4732 48.9508 13.0761 49.685 16.0128C50.4191 19.0829 50.9531 22.2865 51.0866 25.2232C51.22 28.2933 50.9531 30.3623 50.3524 31.7639Z" fill="#3878F4"/>
<path d="M20.6521 12.0748C19.9847 11.4741 19.1838 11.0069 18.2494 10.9402C18.1827 10.0725 17.7822 9.20487 17.1816 8.60419L17.1148 8.53745C16.3806 7.80328 15.4463 7.40283 14.3784 7.40283C13.3105 7.40283 12.3094 7.87003 11.642 8.53745C11.0413 9.13813 10.5741 10.0058 10.5073 10.9402C9.57295 11.0069 8.77204 11.4074 8.10462 12.008L8.03788 12.0748C7.30371 12.8089 6.90326 13.7433 6.90326 14.8112C6.90326 15.8791 7.37045 16.8802 8.03788 17.5476C8.7053 18.2151 9.5062 18.6155 10.5073 18.6823C10.5741 19.6166 10.9745 20.4843 11.642 21.085C12.3761 21.8191 13.3105 22.2196 14.3784 22.2196C15.4463 22.2196 16.4474 21.7524 17.1148 21.085C17.7155 20.4176 18.1827 19.6166 18.2494 18.6823C19.1838 18.6155 20.0515 18.2151 20.6521 17.5476C21.3863 16.8135 21.7868 15.8791 21.7868 14.8112C21.7868 13.7433 21.3196 12.7422 20.6521 12.0748ZM18.9836 15.8123C18.7166 16.0793 18.3829 16.2128 17.9825 16.2128H17.0481C16.3806 16.2128 15.78 16.7467 15.78 17.4809V18.3485C15.78 18.749 15.6465 19.0827 15.3795 19.3497C15.1125 19.6166 14.7788 19.7501 14.3784 19.7501C13.9779 19.7501 13.6442 19.6166 13.3772 19.3497C13.1103 19.0827 12.9768 18.749 12.9768 18.3485V17.4142C12.9768 16.7467 12.4429 16.1461 11.7087 16.1461H10.7743C10.3739 16.1461 10.0401 16.0126 9.77317 15.7456C9.57295 15.5454 9.37272 15.2117 9.37272 14.8112C9.37272 14.4108 9.5062 14.077 9.77317 13.8101C9.77317 13.8101 9.77317 13.8101 9.83991 13.7433C10.1069 13.5431 10.4406 13.4096 10.7743 13.4096H11.7087C12.3761 13.4096 12.9768 12.8757 12.9768 12.1415V11.2071C12.9768 10.8067 13.1103 10.473 13.3772 10.206C13.6442 9.93903 13.9779 9.80555 14.3784 9.80555C14.7788 9.80555 15.1125 9.93903 15.3795 10.206C15.3795 10.206 15.3795 10.206 15.4463 10.2727C15.6465 10.5397 15.78 10.8734 15.78 11.2071V12.1415C15.78 12.8089 16.3139 13.4096 17.0481 13.4096H17.9825C18.3829 13.4096 18.7166 13.5431 18.9836 13.8101C19.2506 14.077 19.384 14.4108 19.384 14.8112C19.384 15.2117 19.2506 15.5454 18.9836 15.8123Z" fill="#3878F4"/>
<path d="M38.4056 12.4085C39.6957 12.4085 40.7415 11.3627 40.7415 10.0725C40.7415 8.78242 39.6957 7.73657 38.4056 7.73657C37.1154 7.73657 36.0696 8.78242 36.0696 10.0725C36.0696 11.3627 37.1154 12.4085 38.4056 12.4085Z" fill="#3878F4"/>
<path d="M38.4056 21.8861C39.6957 21.8861 40.7415 20.8402 40.7415 19.5501C40.7415 18.26 39.6957 17.2141 38.4056 17.2141C37.1154 17.2141 36.0696 18.26 36.0696 19.5501C36.0696 20.8402 37.1154 21.8861 38.4056 21.8861Z" fill="#3878F4"/>
<path d="M33.6669 17.147C34.957 17.147 36.0029 16.1012 36.0029 14.8111C36.0029 13.5209 34.957 12.4751 33.6669 12.4751C32.3768 12.4751 31.3309 13.5209 31.3309 14.8111C31.3309 16.1012 32.3768 17.147 33.6669 17.147Z" fill="#3878F4"/>
<path d="M43.1442 17.147C44.4343 17.147 45.4802 16.1012 45.4802 14.8111C45.4802 13.5209 44.4343 12.4751 43.1442 12.4751C41.8541 12.4751 40.8082 13.5209 40.8082 14.8111C40.8082 16.1012 41.8541 17.147 43.1442 17.147Z" fill="#3878F4"/>
</svg>
