<svg width="38" height="22" viewBox="0 0 38 22" fill="none" xmlns="http://www.w3.org/2000/svg">
<path d="M38 11C38 17.0529 32.9333 22 26.6 22C20.327 22 15.2 17.0529 15.2 11C15.2 4.94709 20.2667 0 26.5397 0C32.9333 0 38 4.94709 38 11Z" fill="#FFB600"/>
<path d="M26.6 0C32.873 0 38 4.94709 38 11C38 17.0529 32.9333 22 26.6 22C20.327 22 15.2 17.0529 15.2 11" fill="#F7981D"/>
<path d="M26.6 0C32.873 0 38 4.94709 38 11C38 17.0529 32.9333 22 26.6 22" fill="#FF8500"/>
<path d="M11.2794 0C5.06666 0.0582011 0 4.94709 0 11C0 17.0529 5.06666 22 11.4 22C14.3555 22 17.0095 20.8942 19.0603 19.1481C19.4825 18.7989 19.8444 18.3915 20.2063 17.9841H17.854C17.5524 17.6349 17.2508 17.2275 17.0095 16.8783H21.0508C21.2921 16.5291 21.5333 16.1217 21.7143 15.7143H16.346C16.1651 15.3651 15.9841 14.9577 15.8635 14.5503H22.1365C22.4984 13.4444 22.7397 12.2804 22.7397 11.0582C22.7397 10.2434 22.619 9.48677 22.4984 8.73016H15.5016C15.5619 8.32275 15.6825 7.97354 15.8032 7.56614H22.0762C21.9555 7.15873 21.7746 6.75132 21.5936 6.40212H16.2857C16.4667 5.99471 16.7079 5.6455 16.9492 5.23809H20.9905C20.7492 4.83069 20.4476 4.42328 20.0857 4.07407H17.854C18.2159 3.66667 18.5778 3.31746 19 2.96825C17.0095 1.16402 14.2952 0.116402 11.3397 0.116402C11.3397 -1.12744e-07 11.3397 0 11.2794 0Z" fill="#FF5050"/>
<path d="M0 10.9998C0 17.0527 5.06666 21.9998 11.4 21.9998C14.3555 21.9998 17.0095 20.894 19.0603 19.148C19.4825 18.7987 19.8444 18.3913 20.2063 17.9839H17.854C17.5524 17.6347 17.2508 17.2273 17.0095 16.8781H21.0508C21.2921 16.5289 21.5333 16.1215 21.7143 15.7141H16.346C16.1651 15.3649 15.9841 14.9575 15.8635 14.5501H22.1365C22.4984 13.4443 22.7397 12.2802 22.7397 11.058C22.7397 10.2432 22.619 9.48658 22.4984 8.72997H15.5016C15.5619 8.32256 15.6825 7.97335 15.8032 7.56595H22.0762C21.9555 7.15854 21.7746 6.75113 21.5936 6.40193H16.2857C16.4667 5.99452 16.7079 5.64531 16.9492 5.2379H20.9905C20.7492 4.8305 20.4476 4.42309 20.0857 4.07388H17.854C18.2159 3.66648 18.5778 3.31727 19 2.96806C17.0095 1.16383 14.2952 0.116211 11.3397 0.116211H11.2794" fill="#E52836"/>
<path d="M11.4 21.9998C14.3555 21.9998 17.0095 20.894 19.0603 19.148C19.4825 18.7987 19.8444 18.3913 20.2063 17.9839H17.854C17.5524 17.6347 17.2508 17.2273 17.0095 16.8781H21.0508C21.2921 16.5289 21.5333 16.1215 21.7143 15.7141H16.346C16.1651 15.3649 15.9841 14.9575 15.8635 14.5501H22.1365C22.4984 13.4443 22.7397 12.2802 22.7397 11.058C22.7397 10.2432 22.619 9.48658 22.4984 8.72997H15.5016C15.5619 8.32256 15.6825 7.97335 15.8032 7.56595H22.0762C21.9555 7.15854 21.7746 6.75113 21.5936 6.40193H16.2857C16.4667 5.99452 16.7079 5.64531 16.9492 5.2379H20.9905C20.7492 4.8305 20.4476 4.42309 20.0857 4.07388H17.854C18.2159 3.66648 18.5778 3.31727 19 2.96806C17.0095 1.16383 14.2952 0.116211 11.3397 0.116211H11.2794" fill="#CB2026"/>
<path d="M15.4412 13.7936L15.6222 12.8041C15.5619 12.8041 15.4412 12.8624 15.3206 12.8624C14.8984 12.8624 14.838 12.6295 14.8984 12.5131L15.2603 10.4761H15.9238L16.1047 9.37029H15.5015L15.6222 8.67188H14.4158C14.4158 8.67188 13.692 12.5131 13.692 12.9788C13.692 13.6772 14.1142 13.9682 14.6571 13.9682C15.019 13.9682 15.3206 13.8518 15.4412 13.7936Z" fill="white"/>
<path d="M15.8635 11.9311C15.8635 13.5607 17.0096 13.9681 17.9746 13.9681C18.8794 13.9681 19.2413 13.7935 19.2413 13.7935L19.4826 12.6877C19.4826 12.6877 18.8191 12.9787 18.2159 12.9787C16.8889 12.9787 17.1302 12.0475 17.1302 12.0475H19.6032C19.6032 12.0475 19.7842 11.2909 19.7842 10.9999C19.7842 10.2433 19.3619 9.31205 18.035 9.31205C16.7683 9.19565 15.8635 10.4761 15.8635 11.9311ZM17.9746 10.2433C18.6381 10.2433 18.5175 10.9999 18.5175 11.0581H17.1905C17.1905 10.9999 17.3111 10.2433 17.9746 10.2433Z" fill="white"/>
<path d="M25.635 13.7934L25.8762 12.513C25.8762 12.513 25.2731 12.804 24.8508 12.804C24.0064 12.804 23.6445 12.1638 23.6445 11.4654C23.6445 10.0686 24.3683 9.31197 25.2127 9.31197C25.8159 9.31197 26.2985 9.66117 26.2985 9.66117L26.4794 8.43895C26.4794 8.43895 25.7556 8.14795 25.0921 8.14795C23.7048 8.14795 22.3175 9.31197 22.3175 11.5236C22.3175 12.9786 23.0413 13.968 24.4889 13.968C24.9715 13.968 25.635 13.7934 25.635 13.7934Z" fill="white"/>
<path d="M8.80634 9.1958C7.9619 9.1958 7.35873 9.42861 7.35873 9.42861L7.17777 10.418C7.17777 10.418 7.72063 10.1852 8.50476 10.1852C8.92698 10.1852 9.28888 10.2434 9.28888 10.5926C9.28888 10.8254 9.22856 10.8836 9.22856 10.8836C9.22856 10.8836 8.86666 10.8836 8.68571 10.8836C7.66031 10.8836 6.51428 11.291 6.51428 12.6297C6.51428 13.6773 7.23809 13.9101 7.66031 13.9101C8.50475 13.9101 8.86666 13.3863 8.92698 13.3863L8.86666 13.8519H9.95237L10.4349 10.6508C10.4349 9.254 9.22856 9.1958 8.80634 9.1958ZM9.04761 11.8149C9.04761 11.9895 8.92698 12.9207 8.20317 12.9207C7.84126 12.9207 7.72063 12.6297 7.72063 12.4551C7.72063 12.1641 7.90158 11.7567 8.80634 11.7567C8.98729 11.8149 9.04761 11.8149 9.04761 11.8149Z" fill="white"/>
<path d="M11.5809 13.9102C11.8825 13.9102 13.3904 13.9684 13.3904 12.397C13.3904 10.9419 11.9428 11.2329 11.9428 10.6509C11.9428 10.3599 12.1841 10.2435 12.6063 10.2435C12.7873 10.2435 13.4507 10.3017 13.4507 10.3017L13.6317 9.2541C13.6317 9.2541 13.2095 9.1377 12.4857 9.1377C11.5809 9.1377 10.6761 9.4869 10.6761 10.6509C10.6761 11.9895 12.1841 11.8731 12.1841 12.397C12.1841 12.7462 11.7619 12.8044 11.4603 12.8044C10.9174 12.8044 10.3746 12.6298 10.3746 12.6298L10.1936 13.6774C10.2539 13.7938 10.5555 13.9102 11.5809 13.9102Z" fill="white"/>
<path d="M35.6476 8.26562L35.4063 9.83705C35.4063 9.83705 34.9238 9.25504 34.2603 9.25504C33.1745 9.25504 32.2095 10.5355 32.2095 12.0487C32.2095 12.9799 32.692 13.9693 33.7174 13.9693C34.4412 13.9693 34.8634 13.5037 34.8634 13.5037L34.8031 13.9111H36.0095L36.9142 8.32383L35.6476 8.26562ZM35.1047 11.3503C35.1047 11.9905 34.8031 12.8053 34.1396 12.8053C33.7174 12.8053 33.4761 12.4561 33.4761 11.8741C33.4761 10.9429 33.8984 10.3609 34.4412 10.3609C34.8634 10.3609 35.1047 10.6519 35.1047 11.3503Z" fill="white"/>
<path d="M2.23172 13.8529L2.95553 9.66245L3.07617 13.8529H3.92061L5.48887 9.66245L4.82537 13.8529H6.09204L7.05712 8.26562H5.06664L3.8603 11.6995L3.79998 8.26562H2.05077L1.08569 13.8529H2.23172Z" fill="white"/>
<path d="M20.9301 13.8522C21.292 11.9316 21.3524 10.3601 22.1968 10.6511C22.3174 9.89451 22.4984 9.60351 22.619 9.3125C22.619 9.3125 22.5587 9.3125 22.3778 9.3125C21.8349 9.3125 21.4127 10.0109 21.4127 10.0109L21.5333 9.3707H20.3873L19.6031 13.9104H20.9301V13.8522Z" fill="white"/>
<path d="M28.4095 9.1958C27.565 9.1958 26.9619 9.42861 26.9619 9.42861L26.7809 10.418C26.7809 10.418 27.3238 10.1852 28.1079 10.1852C28.5301 10.1852 28.892 10.2434 28.892 10.5926C28.892 10.8254 28.8317 10.8836 28.8317 10.8836C28.8317 10.8836 28.4698 10.8836 28.2889 10.8836C27.2635 10.8836 26.1174 11.291 26.1174 12.6297C26.1174 13.6773 26.8412 13.9101 27.2635 13.9101C28.1079 13.9101 28.4698 13.3863 28.5301 13.3863L28.4698 13.8519H29.5555L30.0381 10.6508C30.0984 9.254 28.8317 9.1958 28.4095 9.1958ZM28.7111 11.8149C28.7111 11.9895 28.5904 12.9207 27.8666 12.9207C27.5047 12.9207 27.3841 12.6297 27.3841 12.4551C27.3841 12.1641 27.5651 11.7567 28.4698 11.7567C28.6508 11.8149 28.6508 11.8149 28.7111 11.8149Z" fill="white"/>
<path d="M31.0634 13.8522C31.4253 11.9316 31.4857 10.3601 32.3301 10.6511C32.4507 9.89451 32.6317 9.60351 32.7523 9.3125C32.7523 9.3125 32.692 9.3125 32.5111 9.3125C31.9682 9.3125 31.546 10.0109 31.546 10.0109L31.6666 9.3707H30.5206L29.7365 13.9104H31.0634V13.8522Z" fill="white"/>
<path d="M13.5714 12.9788C13.5714 13.6772 13.9936 13.9682 14.5365 13.9682C14.9587 13.9682 15.3206 13.8518 15.4413 13.7936L15.6222 12.8041C15.5619 12.8041 15.4413 12.8624 15.3206 12.8624C14.8984 12.8624 14.8381 12.6295 14.8984 12.5131L15.2603 10.4761H15.9238L16.1047 9.37029H15.5016L15.6222 8.67188" fill="#DCDFE5"/>
<path d="M16.4667 11.9311C16.4667 13.5607 17.0095 13.9681 17.9746 13.9681C18.8794 13.9681 19.2413 13.7935 19.2413 13.7935L19.4825 12.6877C19.4825 12.6877 18.8191 12.9787 18.2159 12.9787C16.8889 12.9787 17.1302 12.0475 17.1302 12.0475H19.6032C19.6032 12.0475 19.7841 11.2909 19.7841 10.9999C19.7841 10.2433 19.3619 9.31205 18.0349 9.31205C16.7683 9.19565 16.4667 10.4761 16.4667 11.9311ZM17.9746 10.2433C18.6381 10.2433 18.7587 10.9999 18.7587 11.0581H17.1905C17.1905 10.9999 17.3111 10.2433 17.9746 10.2433Z" fill="#DCDFE5"/>
<path d="M25.6349 13.7934L25.8762 12.513C25.8762 12.513 25.273 12.804 24.8508 12.804C24.0064 12.804 23.6445 12.1638 23.6445 11.4654C23.6445 10.0686 24.3683 9.31197 25.2127 9.31197C25.8159 9.31197 26.2984 9.66117 26.2984 9.66117L26.4794 8.43895C26.4794 8.43895 25.7556 8.14795 25.0921 8.14795C23.7048 8.14795 22.9207 9.31197 22.9207 11.5236C22.9207 12.9786 23.0413 13.968 24.4889 13.968C24.9714 13.968 25.6349 13.7934 25.6349 13.7934Z" fill="#DCDFE5"/>
<path d="M7.17777 10.4765C7.17777 10.4765 7.72063 10.2437 8.50476 10.2437C8.92698 10.2437 9.28888 10.3019 9.28888 10.6511C9.28888 10.8839 9.22856 10.9421 9.22856 10.9421C9.22856 10.9421 8.86666 10.9421 8.68571 10.9421C7.66031 10.9421 6.51428 11.3495 6.51428 12.6882C6.51428 13.7358 7.23809 13.9686 7.66031 13.9686C8.50475 13.9686 8.86666 13.4448 8.92698 13.4448L8.86666 13.9104H9.95237L10.4349 10.7093C10.4349 9.3707 9.22856 9.3125 8.74602 9.3125L7.17777 10.4765ZM9.65078 11.8151C9.65078 11.9897 8.92698 12.921 8.20317 12.921C7.84126 12.921 7.72063 12.63 7.72063 12.4554C7.72063 12.1643 7.90158 11.7569 8.80634 11.7569C8.98729 11.8151 9.65078 11.8151 9.65078 11.8151Z" fill="#DCDFE5"/>
<path d="M10.254 13.7938C10.254 13.7938 10.6159 13.9102 11.6413 13.9102C11.9429 13.9102 13.4509 13.9684 13.4509 12.397C13.4509 10.9419 12.0032 11.2329 12.0032 10.6509C12.0032 10.3599 12.2445 10.2435 12.6667 10.2435C12.8477 10.2435 13.5112 10.3017 13.5112 10.3017L13.6921 9.2541C13.6921 9.2541 13.2699 9.1377 12.5461 9.1377C11.6413 9.1377 11.3397 9.4869 11.3397 10.6509C11.3397 11.9895 12.2445 11.8731 12.2445 12.397C12.2445 12.7462 11.8223 12.8044 11.5207 12.8044" fill="#DCDFE5"/>
<path d="M35.4064 9.83598C35.4064 9.83598 34.9238 9.25397 34.2603 9.25397C33.1746 9.25397 32.8127 10.5344 32.8127 12.0476C32.8127 12.9788 32.6921 13.9682 33.7175 13.9682C34.4413 13.9682 34.8635 13.5026 34.8635 13.5026L34.8032 13.91H36.0096L36.9143 8.32275L35.4064 9.83598ZM35.3461 11.3492C35.3461 11.9894 34.8032 12.8042 34.1397 12.8042C33.7175 12.8042 33.4762 12.455 33.4762 11.873C33.4762 10.9418 33.8984 10.3598 34.4413 10.3598C34.8635 10.3598 35.3461 10.6508 35.3461 11.3492Z" fill="#DCDFE5"/>
<path d="M2.23172 13.8529L2.95553 9.66245L3.07617 13.8529H3.92061L5.48887 9.66245L4.82537 13.8529H6.09204L7.05712 8.26562H5.54918L3.8603 11.6995L3.79998 8.26562H3.13649L1.08569 13.8529H2.23172Z" fill="#DCDFE5"/>
<path d="M19.6635 13.8522H20.9301C21.292 11.9316 21.3523 10.3601 22.1968 10.6511C22.3174 9.89451 22.4984 9.60351 22.619 9.3125C22.619 9.3125 22.5587 9.3125 22.3777 9.3125C21.8349 9.3125 21.4127 10.0109 21.4127 10.0109L21.5333 9.3707" fill="#DCDFE5"/>
<path d="M26.7809 10.4765C26.7809 10.4765 27.3238 10.2437 28.1079 10.2437C28.5301 10.2437 28.892 10.3019 28.892 10.6511C28.892 10.8839 28.8317 10.9421 28.8317 10.9421C28.8317 10.9421 28.4698 10.9421 28.2889 10.9421C27.2635 10.9421 26.1174 11.3495 26.1174 12.6882C26.1174 13.7358 26.8412 13.9686 27.2635 13.9686C28.1079 13.9686 28.4698 13.4448 28.5301 13.4448L28.4698 13.9104H29.5555L30.0381 10.7093C30.0381 9.3707 28.8317 9.3125 28.3492 9.3125L26.7809 10.4765ZM29.2539 11.8151C29.2539 11.9897 28.5301 12.921 27.8063 12.921C27.4444 12.921 27.3238 12.63 27.3238 12.4554C27.3238 12.1643 27.5047 11.7569 28.4095 11.7569C28.6508 11.8151 29.2539 11.8151 29.2539 11.8151Z" fill="#DCDFE5"/>
<path d="M29.7968 13.8522H31.0634C31.4253 11.9316 31.4856 10.3601 32.3301 10.6511C32.4507 9.89451 32.6317 9.60351 32.7523 9.3125C32.7523 9.3125 32.692 9.3125 32.511 9.3125C31.9682 9.3125 31.546 10.0109 31.546 10.0109L31.6666 9.3707" fill="#DCDFE5"/>
</svg>
