<svg width="960" height="689" viewBox="0 0 960 689" fill="none" xmlns="http://www.w3.org/2000/svg">
<path d="M-369.131 460.831C-347.966 381.441 -415.309 378.265 -416.828 275.852C-417.436 233.988 -395.461 191.17 -342.65 171.799C-316.725 162.166 -290.852 155.55 -267.762 140.043C-215.103 105.217 -206.904 57.5547 -192.777 1.02913C-161.232 -123.084 -49.0243 -203.084 73.7628 -199.909C162.321 -197.58 242.373 -194.616 323.084 -116.179C378.528 -62.2469 377.932 3.91124 429.072 59.3253C483.352 118.021 494.56 146.178 568.891 165.178C639.12 182.803 715.577 203.974 769.35 257.535C819.984 307.762 812.541 360.319 790.869 422.031C766.97 490.041 818.819 536.352 872.846 562.868C918.416 585.15 978.873 583.192 1000.04 636.595C1022.92 694.444 954.872 695.396 891.631 695.396C828.389 695.396 100.953 690.104 -127.962 697.408C-189.584 699.313 -404.518 698.23 -432.266 617.994C-451.203 563.321 -383.967 516.086 -369.131 460.831Z" fill="#F7FAFF"/>
<path opacity="0.7" d="M409.208 440.576C398.449 486.45 374.533 529.567 339.437 566.367C304.34 603.167 259.07 632.593 207.363 652.217" stroke="#5FA3E1" stroke-miterlimit="10"/>
<path opacity="0.7" d="M404.062 459.735C413.753 449.251 418.518 436.257 417.488 423.13C417.555 421.543 417.206 419.964 416.465 418.497C415.724 417.031 414.608 415.711 413.193 414.628C412.346 414.085 411.287 413.815 410.214 413.867C409.356 414.035 408.558 414.367 407.886 414.836C407.214 415.304 406.686 415.896 406.345 416.563C401.934 423.13 401.973 431.06 402.979 438.514C403.985 445.969 403.559 451.647 403.907 459.799" fill="#8CC0F1"/>
<path opacity="0.7" d="M394.042 484.921C397.886 472.116 395.977 458.603 388.664 446.857C387.963 445.384 386.88 444.055 385.491 442.959C384.101 441.864 382.438 441.029 380.616 440.512C379.565 440.285 378.447 440.386 377.482 440.798C376.81 441.236 376.27 441.797 375.908 442.435C375.545 443.074 375.369 443.773 375.393 444.477C374.503 451.932 378.411 459.196 382.899 465.699C387.387 472.201 389.786 477.562 394.042 484.953" fill="#8CC0F1"/>
<path opacity="0.7" d="M377.831 516.642C383.465 504.392 383.589 490.896 378.179 478.577C377.716 477.025 376.846 475.574 375.63 474.325C374.414 473.076 372.881 472.059 371.137 471.345C370.128 471.028 369.012 471.028 368.003 471.345C367.266 471.708 366.641 472.207 366.178 472.801C365.715 473.395 365.426 474.07 365.334 474.771C363.361 482.098 366.146 489.68 369.667 496.595C373.188 503.51 374.697 509.061 377.831 516.833" fill="#8CC0F1"/>
<path opacity="0.7" d="M357.132 545.635C362.814 533.337 362.938 519.778 357.48 507.412C357.01 505.862 356.137 504.413 354.922 503.165C353.707 501.917 352.177 500.899 350.438 500.179C349.43 499.862 348.313 499.862 347.304 500.179C346.566 500.549 345.941 501.054 345.479 501.653C345.016 502.253 344.727 502.931 344.635 503.637C342.662 510.933 345.447 518.546 348.968 525.461C352.489 532.376 353.998 537.927 357.132 545.667" fill="#8CC0F1"/>
<path opacity="0.7" d="M323.82 580.877C331.061 569.109 332.901 555.599 329.004 542.812C328.726 541.232 328.036 539.721 326.981 538.379C325.926 537.038 324.531 535.899 322.891 535.04C321.943 534.623 320.84 534.51 319.796 534.723C319.018 535.022 318.335 535.464 317.798 536.014C317.261 536.564 316.886 537.207 316.701 537.895C313.838 545.001 315.617 552.804 318.248 560.1C320.879 567.395 321.692 572.947 323.82 580.908" fill="#8CC0F1"/>
<path opacity="0.7" d="M296.621 604.509C304.109 593.332 306.948 580.458 304.707 567.84C304.568 564.659 302.932 561.646 300.141 559.434C299.778 559.174 299.354 558.978 298.895 558.858C298.436 558.738 297.951 558.696 297.472 558.736C296.002 558.958 295.112 560.258 294.493 561.496C291.88 568.608 291.627 576.163 293.758 583.383C295.382 590.742 295.537 596.388 296.621 604.509Z" fill="#8CC0F1"/>
<path opacity="0.7" d="M388.664 496.214C405.397 495.222 421.198 489.518 433.389 480.068C435.016 479.046 436.37 477.762 437.368 476.294C438.366 474.827 438.987 473.207 439.193 471.535C439.212 470.643 438.81 469.779 438.071 469.125C437.347 468.709 436.514 468.441 435.64 468.342C434.765 468.243 433.875 468.315 433.041 468.554C423.794 470.171 415.94 475.564 409.208 481.242C402.476 486.92 396.556 490.473 388.664 496.214Z" fill="#8CC0F1"/>
<path opacity="0.7" d="M375.161 520.417C391.697 522.763 408.714 520.319 423.291 513.502C425.178 512.843 426.875 511.867 428.274 510.638C429.674 509.409 430.744 507.953 431.416 506.365C431.706 505.5 431.567 504.576 431.029 503.795C430.453 503.252 429.729 502.828 428.916 502.558C428.102 502.288 427.222 502.18 426.348 502.241C416.869 502.019 407.699 505.73 399.497 509.918C391.295 514.105 384.485 516.262 375.161 520.417Z" fill="#8CC0F1"/>
<path opacity="0.7" d="M353.146 549.854C368.773 554.845 386.025 555.249 401.973 550.996C403.98 550.645 405.877 549.961 407.548 548.984C409.218 548.007 410.626 546.759 411.684 545.318C412.165 544.507 412.248 543.576 411.916 542.717C411.483 542.09 410.875 541.557 410.142 541.16C409.409 540.763 408.572 540.514 407.699 540.433C398.491 538.657 388.586 540.782 379.533 543.605C370.479 546.428 363.244 547.507 353.146 549.949" fill="#8CC0F1"/>
<path opacity="0.7" d="M320.686 585.159C337.267 587.176 354.189 584.43 368.584 577.387C370.411 576.667 372.04 575.649 373.371 574.394C374.701 573.14 375.706 571.676 376.322 570.092C376.58 569.222 376.428 568.304 375.896 567.522C375.295 566.993 374.552 566.586 373.726 566.333C372.901 566.08 372.014 565.987 371.137 566.063C361.658 566.063 352.605 569.87 344.519 574.215C336.433 578.561 329.701 580.972 320.492 585.159" fill="#8CC0F1"/>
<path opacity="0.7" d="M292.597 607.173C306.307 615.104 322.947 618.893 339.682 617.895C341.73 617.964 343.773 617.681 345.678 617.064C347.584 616.447 349.311 615.509 350.748 614.31C351.103 613.977 351.375 613.59 351.548 613.171C351.72 612.752 351.79 612.309 351.754 611.868C351.754 610.44 349.897 609.489 348.31 608.696C339.915 605.143 329.7 605.238 320.067 606.126C310.433 607.015 303.159 606.697 292.597 607.046" fill="#8CC0F1"/>
<path opacity="0.7" d="M610.704 568.506C553.761 566.794 497.138 576.214 445.512 595.987C393.886 615.761 348.739 645.32 313.799 682.225" stroke="#5FA3E1" stroke-miterlimit="10"/>
<path opacity="0.7" d="M586.756 568.315C601.371 562.963 617.839 562.074 633.183 565.809C635.147 566.065 637.016 566.676 638.656 567.598C640.296 568.519 641.664 569.729 642.662 571.139C643.141 571.939 643.224 572.859 642.895 573.708C642.509 574.317 641.961 574.848 641.291 575.26C640.621 575.671 639.847 575.954 639.026 576.087C630.204 578.117 620.803 576.309 612.175 573.835C603.547 571.361 596.699 570.441 587.065 568.315" fill="#8CC0F1"/>
<path opacity="0.7" d="M554.604 570.663C570.622 570.447 586.203 574.949 598.517 583.351C600.136 584.24 601.5 585.407 602.516 586.771C603.531 588.134 604.173 589.662 604.398 591.249C604.439 592.133 604.065 592.996 603.353 593.66C602.69 594.111 601.906 594.426 601.065 594.581C600.225 594.735 599.351 594.724 598.517 594.548C589.464 593.565 581.687 588.807 574.994 583.732C568.3 578.656 562.42 575.611 554.604 570.536" fill="#8CC0F1"/>
<path opacity="0.7" d="M513.245 576.404C529.153 574.622 545.313 577.583 558.783 584.747C560.52 585.464 562.045 586.483 563.254 587.732C564.463 588.98 565.327 590.429 565.786 591.979C565.946 592.862 565.713 593.763 565.128 594.517C564.512 595.013 563.768 595.39 562.952 595.62C562.135 595.851 561.266 595.929 560.408 595.849C551.277 595.849 542.882 591.852 535.453 587.506C528.025 583.16 521.796 580.655 513.245 576.404Z" fill="#8CC0F1"/>
<path opacity="0.7" d="M474.129 586.491C490.037 584.71 506.197 587.67 519.667 594.834C521.389 595.559 522.9 596.58 524.095 597.829C525.29 599.077 526.142 600.523 526.593 602.066C526.753 602.949 526.519 603.85 525.935 604.604C525.319 605.1 524.575 605.477 523.758 605.707C522.942 605.938 522.073 606.016 521.215 605.936C512.084 605.936 503.688 601.939 496.26 597.594C488.831 593.248 482.564 590.742 474.052 586.491" fill="#8CC0F1"/>
<path opacity="0.7" d="M424.761 605.207C440.38 602.052 456.863 603.617 471.189 609.616C472.982 610.194 474.602 611.083 475.937 612.222C477.272 613.36 478.292 614.722 478.927 616.214C479.217 617.072 479.106 617.988 478.617 618.783C478.071 619.334 477.381 619.777 476.597 620.079C475.813 620.381 474.957 620.534 474.091 620.528C464.999 621.226 456.139 618.022 448.207 614.184C440.276 610.345 433.737 608.569 424.723 605.08" fill="#8CC0F1"/>
<path opacity="0.7" d="M390.598 621.606C405.564 618.154 421.494 618.789 435.981 623.414C439.726 624.243 442.939 626.219 444.957 628.934C445.147 629.295 445.245 629.683 445.245 630.076C445.245 630.469 445.147 630.857 444.957 631.218C444.377 632.36 442.636 632.772 441.088 632.962C432.056 633.481 423.02 631.99 414.934 628.648C406.538 625.73 399.845 624.334 390.482 621.606" fill="#8CC0F1"/>
<path opacity="0.7" d="M539.98 572.439C544.89 559.298 555.198 547.955 569.152 540.338C570.747 539.244 572.604 538.436 574.603 537.966C576.602 537.496 578.699 537.375 580.759 537.61C581.823 537.797 582.762 538.307 583.39 539.037C583.723 539.704 583.855 540.428 583.775 541.146C583.694 541.864 583.402 542.555 582.925 543.161C579.056 550.203 570.777 555.246 562.497 559.37C554.217 563.494 548.685 567.427 540.096 572.439" fill="#8CC0F1"/>
<path opacity="0.7" d="M508.177 577.768C509.111 564.039 515.825 551.001 527.173 540.877C528.389 539.52 529.934 538.386 531.713 537.545C533.491 536.704 535.463 536.175 537.504 535.992C538.047 535.97 538.591 536.038 539.102 536.19C539.614 536.343 540.083 536.577 540.483 536.88C540.996 537.464 541.333 538.139 541.468 538.85C541.602 539.561 541.53 540.288 541.257 540.972C539.399 548.585 532.938 555.088 526.129 560.702C519.319 566.317 515.064 571.202 508.177 577.768Z" fill="#8CC0F1"/>
<path opacity="0.7" d="M468.249 588.743C465.83 575.138 469.219 561.265 477.844 549.473C478.732 547.975 479.982 546.64 481.519 545.549C483.055 544.459 484.845 543.635 486.781 543.129C487.847 542.93 488.965 543.066 489.915 543.51C490.561 544.001 491.055 544.611 491.358 545.289C491.66 545.967 491.763 546.694 491.656 547.411C491.656 555.183 486.974 562.605 481.674 569.203C476.373 575.801 473.394 581.321 468.249 588.87" fill="#8CC0F1"/>
<path opacity="0.7" d="M418.958 606.761C420.295 593.049 427.376 580.138 438.999 570.219C440.244 568.882 441.817 567.773 443.616 566.965C445.415 566.156 447.401 565.665 449.445 565.524C450.538 565.52 451.591 565.86 452.386 566.475C452.888 567.064 453.21 567.743 453.325 568.456C453.439 569.168 453.343 569.892 453.044 570.567C450.993 578.149 444.377 584.525 437.568 590.012C430.758 595.5 426.193 600.322 419.113 606.761" fill="#8CC0F1"/>
<path opacity="0.7" d="M386.497 624.239C380.155 611.512 379.389 597.377 384.33 584.239C384.714 582.588 385.51 581.02 386.668 579.633C387.827 578.247 389.323 577.072 391.062 576.182C391.545 575.97 392.073 575.838 392.618 575.795C393.162 575.751 393.712 575.797 394.235 575.928C395.007 576.271 395.667 576.761 396.159 577.358C396.651 577.954 396.96 578.639 397.059 579.354C399.419 586.872 397.059 595.024 393.771 602.51C390.482 609.996 389.283 615.896 386.497 624.239Z" fill="#8CC0F1"/>
<path d="M84.7363 699.236C236.653 695.56 374.722 697.251 526.729 699.236C530.82 699.236 536.395 700.192 538.598 697.361C546.556 686.995 467.922 676.518 396.527 670.968C393.293 670.95 390.147 670.101 387.536 668.541C381.916 664.351 386.367 656.447 383.804 650.602C380.882 644.059 370.316 642.331 361.954 644.059C353.591 645.787 346.308 649.794 337.901 650.86C329.493 651.926 318.973 648.323 318.433 641.376C317.984 636.266 322.929 632.075 324.997 627.223C329.493 616.563 314.522 604.395 301.529 607.961C293.706 610.13 286.333 616.526 278.69 613.953C271.047 611.38 271.541 602.373 269.698 595.573C265.831 581.457 246.589 573.737 228.965 572.304C215.939 571.307 202.803 572.563 190.41 575.989C178.016 579.415 166.644 584.935 157.03 592.191C133.111 611.114 115.367 634.632 105.418 660.601C100.323 674.074 93.3853 687.035 84.7363 699.236Z" fill="#E9F0FB"/>
<path fill-rule="evenodd" clip-rule="evenodd" d="M-90.0175 128.95C-89.6355 128.604 -89.4037 128.117 -89.3731 127.597C-89.3425 127.076 -89.5157 126.565 -89.8544 126.175C-90.1932 125.785 -90.6698 125.548 -91.1795 125.517C-91.6892 125.486 -92.1901 125.663 -92.5721 126.009C-93.5505 126.896 -94.5107 127.858 -95.4528 128.709C-95.7562 128.994 -95.9609 129.371 -96.0361 129.785C-96.1112 130.198 -96.0528 130.626 -95.8696 131.003C-95.736 131.28 -95.5408 131.521 -95.2994 131.707C-95.0581 131.894 -94.7774 132.02 -94.4799 132.076C-94.1823 132.131 -93.8761 132.115 -93.5857 132.028C-93.2953 131.942 -93.0289 131.787 -92.8077 131.576C-91.9018 130.688 -90.9958 129.726 -90.0175 128.95ZM84.5301 579.675C84.0507 579.733 83.6096 579.971 83.2932 580.343C82.9767 580.715 82.8076 581.194 82.8189 581.687C82.8302 582.18 83.0212 582.65 83.3544 583.007C83.6877 583.363 84.1392 583.58 84.6207 583.615H86.2151H88.2262H88.5161C88.9491 583.623 89.3722 583.482 89.7168 583.214C90.0613 582.947 90.3071 582.568 90.4141 582.139C90.5211 581.711 90.4831 581.258 90.3063 580.854C90.1295 580.451 89.8242 580.12 89.44 579.916C89.1111 579.717 88.735 579.615 88.353 579.62H86.1426L84.5301 579.675ZM99.7672 578.824C99.2902 578.919 98.8654 579.193 98.577 579.593C98.2887 579.992 98.1577 580.487 98.2101 580.98C98.2625 581.474 98.4945 581.929 98.8601 582.256C99.2256 582.583 99.6982 582.757 100.184 582.746L101.996 582.561L104.116 582.302C104.501 582.254 104.863 582.087 105.154 581.825C105.445 581.562 105.651 581.216 105.746 580.831C105.84 580.446 105.818 580.042 105.682 579.67C105.546 579.299 105.303 578.978 104.985 578.75C104.585 578.461 104.094 578.336 103.608 578.399L101.579 578.639L99.7672 578.824ZM114.878 576.568C114.574 576.63 114.29 576.764 114.047 576.961C113.805 577.157 113.611 577.409 113.482 577.696C113.344 578.027 113.297 578.39 113.345 578.746C113.394 579.103 113.537 579.439 113.759 579.718C113.98 579.998 114.273 580.21 114.604 580.333C114.935 580.456 115.293 580.484 115.639 580.415L116.689 580.267L118.501 579.879L119.389 579.675C119.77 579.565 120.109 579.339 120.36 579.027C120.611 578.714 120.763 578.331 120.794 577.928C120.826 577.526 120.736 577.123 120.536 576.774C120.337 576.424 120.038 576.146 119.679 575.976C119.306 575.865 118.91 575.865 118.537 575.976L117.686 576.161L115.874 576.531L114.878 576.568ZM129.644 572.868C129.373 572.916 129.116 573.023 128.889 573.181C128.663 573.339 128.472 573.545 128.329 573.784C128.187 574.024 128.097 574.292 128.065 574.57C128.033 574.849 128.059 575.131 128.143 575.398C128.227 575.665 128.365 575.91 128.55 576.118C128.734 576.325 128.96 576.49 129.212 576.601C129.464 576.712 129.737 576.766 130.011 576.76C130.286 576.755 130.556 576.689 130.803 576.568L132.361 576.068L134.028 575.513L134.535 575.347C134.832 575.24 135.099 575.061 135.313 574.826C135.528 574.591 135.684 574.306 135.767 573.997C135.855 573.651 135.849 573.288 135.75 572.946C135.652 572.604 135.465 572.295 135.208 572.052C134.952 571.81 134.637 571.642 134.295 571.568C133.953 571.493 133.598 571.514 133.267 571.629L132.814 571.777L131.202 572.313L129.644 572.813V572.868ZM143.921 567.523C143.59 567.67 143.308 567.909 143.105 568.214C142.903 568.519 142.79 568.875 142.779 569.243C142.768 569.577 142.841 569.908 142.99 570.205C143.14 570.502 143.361 570.756 143.633 570.941C143.905 571.126 144.219 571.237 144.546 571.264C144.872 571.29 145.199 571.232 145.497 571.093L146.783 570.519L148.323 569.816L149.048 569.465C149.406 569.269 149.694 568.963 149.873 568.591C150.051 568.218 150.111 567.798 150.043 567.389C149.975 566.98 149.783 566.604 149.493 566.312C149.204 566.021 148.833 565.83 148.432 565.766C148.077 565.722 147.718 565.786 147.399 565.951L146.711 566.265L145.225 566.949L143.921 567.541V567.523ZM157.509 560.55C157.121 560.771 156.818 561.121 156.653 561.543C156.488 561.964 156.47 562.431 156.601 562.864C156.733 563.298 157.006 563.672 157.376 563.924C157.746 564.176 158.189 564.291 158.632 564.249C158.927 564.221 159.212 564.127 159.466 563.971L160.027 563.639L161.422 562.788L162.799 561.937C163.193 561.715 163.499 561.361 163.665 560.935C163.831 560.509 163.847 560.037 163.71 559.6C163.573 559.163 163.292 558.789 162.914 558.54C162.537 558.291 162.086 558.185 161.64 558.238C161.33 558.258 161.03 558.36 160.77 558.533L159.429 559.366L158.089 560.18L157.509 560.531V560.55ZM170.191 551.986C169.835 552.263 169.585 552.66 169.485 553.106C169.385 553.552 169.441 554.02 169.643 554.428C169.845 554.836 170.181 555.16 170.592 555.342C171.004 555.524 171.464 555.554 171.895 555.426C172.128 555.359 172.348 555.253 172.547 555.112L173.38 554.446L174.63 553.465L175.627 552.652C175.921 552.406 176.137 552.077 176.25 551.707C176.362 551.336 176.366 550.94 176.26 550.568C176.153 550.195 175.942 549.863 175.653 549.612C175.363 549.361 175.008 549.202 174.63 549.156C174.117 549.105 173.605 549.257 173.199 549.581L172.239 550.358L171.025 551.338L170.191 551.986ZM181.714 541.905C181.535 542.087 181.392 542.304 181.294 542.542C181.197 542.781 181.146 543.036 181.145 543.295C181.144 543.553 181.193 543.81 181.289 544.049C181.386 544.288 181.527 544.505 181.705 544.689C181.884 544.872 182.096 545.018 182.329 545.118C182.563 545.217 182.814 545.269 183.067 545.27C183.32 545.271 183.571 545.221 183.805 545.123C184.039 545.024 184.252 544.88 184.432 544.698L185.211 543.921L186.316 542.793L187.186 541.887C187.396 541.679 187.553 541.422 187.644 541.139C187.736 540.855 187.759 540.553 187.711 540.259C187.667 539.89 187.52 539.542 187.289 539.255C187.058 538.969 186.752 538.754 186.407 538.638C186.061 538.522 185.691 538.508 185.338 538.599C184.985 538.689 184.665 538.88 184.414 539.149L183.562 540.037L182.493 541.128L181.714 541.905ZM191.951 530.437C191.672 530.85 191.557 531.355 191.63 531.851C191.702 532.347 191.955 532.796 192.339 533.108C192.723 533.421 193.209 533.573 193.699 533.533C194.188 533.494 194.645 533.267 194.977 532.897L195.538 532.176L196.499 530.936L197.386 529.753C197.602 529.458 197.732 529.108 197.764 528.742C197.795 528.376 197.726 528.008 197.565 527.68C197.403 527.351 197.155 527.075 196.848 526.883C196.541 526.69 196.188 526.589 195.828 526.59C195.534 526.597 195.245 526.67 194.982 526.804C194.719 526.938 194.488 527.131 194.306 527.367L193.437 528.532L192.513 529.734L191.951 530.437ZM200.774 517.804C200.574 518.126 200.47 518.502 200.475 518.884C200.481 519.266 200.596 519.638 200.805 519.954C201.015 520.27 201.311 520.517 201.656 520.664C202.002 520.811 202.381 520.852 202.749 520.782C203.016 520.732 203.27 520.625 203.495 520.469C203.72 520.313 203.91 520.111 204.054 519.876L204.362 519.376L205.159 518.044L206.083 516.454C206.287 516.004 206.319 515.493 206.172 515.02C206.025 514.548 205.71 514.149 205.288 513.903C204.867 513.657 204.371 513.581 203.897 513.69C203.424 513.799 203.008 514.086 202.731 514.493L201.861 515.991L201.082 517.286L200.774 517.804ZM208.022 504.19C207.847 504.656 207.852 505.172 208.035 505.635C208.217 506.098 208.564 506.473 209.006 506.686C209.448 506.898 209.952 506.933 210.418 506.782C210.884 506.632 211.277 506.307 211.518 505.874L212.261 504.227L212.895 502.803L213.149 502.23C213.319 501.823 213.351 501.369 213.24 500.942C213.128 500.514 212.879 500.137 212.533 499.871C212.186 499.604 211.762 499.464 211.329 499.473C210.895 499.481 210.477 499.638 210.141 499.918C209.91 500.121 209.725 500.374 209.598 500.658L209.362 501.212L208.764 502.6L208.022 504.19ZM213.765 489.819C213.638 490.224 213.642 490.66 213.777 491.063C213.912 491.466 214.17 491.813 214.514 492.054C214.858 492.295 215.268 492.417 215.685 492.4C216.102 492.384 216.502 492.231 216.827 491.964C217.099 491.727 217.306 491.421 217.425 491.076L217.878 489.689L218.349 488.209L218.639 487.285C218.711 486.82 218.617 486.345 218.375 485.946C218.133 485.546 217.758 485.248 217.319 485.107C216.88 484.966 216.406 484.991 215.983 485.176C215.56 485.362 215.216 485.697 215.015 486.119L214.743 487.007L214.272 488.45L213.819 489.819H213.765ZM217.932 474.873C217.821 475.3 217.854 475.753 218.024 476.159C218.195 476.565 218.493 476.901 218.873 477.114C219.252 477.326 219.69 477.403 220.117 477.333C220.544 477.262 220.936 477.047 221.229 476.723C221.47 476.467 221.634 476.146 221.701 475.798L221.954 474.651L222.28 473.116L222.516 471.914C222.607 471.483 222.552 471.033 222.362 470.638C222.172 470.242 221.857 469.923 221.467 469.733C221.078 469.543 220.637 469.492 220.216 469.589C219.794 469.686 219.418 469.925 219.146 470.268C218.934 470.514 218.79 470.815 218.729 471.137L218.494 472.302L218.186 473.8L217.932 474.947V474.873ZM220.541 459.558C220.481 460.076 220.625 460.596 220.941 461.006C221.257 461.415 221.719 461.679 222.226 461.741C222.733 461.802 223.243 461.655 223.644 461.333C224.045 461.01 224.304 460.538 224.364 460.021L224.491 459.022L224.654 457.449L224.781 456.062C224.824 455.646 224.735 455.227 224.528 454.866C224.321 454.504 224.006 454.22 223.63 454.055C223.253 453.89 222.834 453.852 222.435 453.947C222.036 454.042 221.677 454.264 221.411 454.582C221.149 454.896 220.985 455.283 220.94 455.692L220.813 457.043L220.65 458.578L220.541 459.558ZM221.592 444.058C221.592 444.578 221.794 445.077 222.154 445.444C222.514 445.812 223.003 446.019 223.512 446.019C224.022 446.019 224.51 445.812 224.87 445.444C225.23 445.077 225.433 444.578 225.433 444.058V440.081C225.459 439.806 225.428 439.529 225.343 439.267C225.258 439.005 225.12 438.764 224.939 438.56C224.757 438.355 224.535 438.192 224.288 438.08C224.041 437.969 223.774 437.911 223.503 437.911C223.233 437.911 222.966 437.969 222.718 438.08C222.471 438.192 222.25 438.355 222.068 438.56C221.886 438.764 221.748 439.005 221.663 439.267C221.578 439.529 221.548 439.806 221.574 440.081V443.984L221.592 444.058ZM221.103 428.521C221.148 429.041 221.394 429.521 221.787 429.856C222.179 430.19 222.686 430.352 223.195 430.306C223.705 430.259 224.175 430.008 224.503 429.607C224.831 429.207 224.989 428.689 224.944 428.169V427.226L224.799 425.617L224.654 424.211C224.561 423.724 224.292 423.29 223.901 422.996C223.51 422.702 223.025 422.568 222.542 422.621C222.059 422.675 221.613 422.912 221.293 423.285C220.972 423.658 220.801 424.14 220.813 424.636L220.958 426.005L221.103 427.559V428.521ZM219.11 413.095C219.164 413.404 219.292 413.695 219.481 413.944C219.671 414.192 219.916 414.389 220.197 414.519C220.517 414.672 220.873 414.732 221.225 414.691C221.577 414.651 221.911 414.512 222.19 414.29C222.469 414.068 222.683 413.771 222.808 413.433C222.932 413.095 222.963 412.728 222.896 412.373L222.697 411.263L222.389 409.691L222.153 408.47C222.12 408.2 222.032 407.94 221.895 407.706C221.758 407.471 221.575 407.269 221.358 407.11C221.141 406.952 220.894 406.841 220.632 406.784C220.371 406.728 220.101 406.727 219.84 406.782C219.578 406.837 219.331 406.946 219.112 407.103C218.894 407.261 218.71 407.462 218.572 407.695C218.434 407.929 218.344 408.189 218.309 408.459C218.273 408.729 218.293 409.004 218.367 409.266L218.621 410.45L218.91 412.003L219.11 413.095ZM215.631 397.964C215.749 398.364 215.988 398.715 216.314 398.967C216.639 399.22 217.034 399.361 217.443 399.37C217.741 399.366 218.034 399.291 218.299 399.152C218.564 399.012 218.794 398.811 218.969 398.566C219.145 398.32 219.262 398.035 219.312 397.735C219.361 397.435 219.342 397.127 219.255 396.836L218.874 395.504L218.421 393.932L218.131 393.026C218.003 392.602 217.738 392.236 217.379 391.986C217.021 391.736 216.59 391.618 216.157 391.65C215.724 391.682 215.315 391.863 214.995 392.163C214.676 392.463 214.466 392.865 214.399 393.303C214.317 393.606 214.317 393.925 214.399 394.228L214.653 395.097L215.106 396.614L215.486 397.964H215.631ZM210.703 383.167C210.797 383.41 210.937 383.632 211.115 383.819C211.293 384.007 211.505 384.157 211.74 384.261C211.974 384.365 212.227 384.421 212.483 384.425C212.738 384.429 212.992 384.382 213.23 384.286C213.468 384.19 213.685 384.047 213.869 383.866C214.053 383.684 214.2 383.467 214.302 383.228C214.404 382.988 214.458 382.73 214.462 382.469C214.467 382.208 214.421 381.949 214.327 381.706L213.638 379.986L213.022 378.469L212.823 378.025C212.619 377.547 212.237 377.171 211.761 376.98C211.285 376.789 210.755 376.799 210.286 377.008C209.818 377.216 209.45 377.606 209.263 378.092C209.076 378.577 209.086 379.119 209.29 379.597L209.471 380.004L210.069 381.484L210.739 383.167H210.703ZM204.38 369.036C204.59 369.413 204.915 369.709 205.306 369.879C205.698 370.048 206.132 370.082 206.544 369.975C206.956 369.868 207.322 369.626 207.585 369.285C207.849 368.945 207.996 368.526 208.003 368.092C207.987 367.783 207.907 367.48 207.768 367.204L207.406 366.483L206.645 365.003L205.938 363.69C205.726 363.309 205.395 363.011 204.999 362.842C204.602 362.673 204.162 362.644 203.748 362.758C203.333 362.872 202.967 363.124 202.708 363.473C202.448 363.823 202.31 364.25 202.314 364.689C202.321 365.008 202.408 365.321 202.568 365.595L203.238 366.89L203.999 368.314L204.362 369.036H204.38ZM196.698 355.626C196.897 355.922 197.169 356.159 197.488 356.312C197.806 356.465 198.159 356.528 198.51 356.495C198.842 356.46 199.161 356.338 199.434 356.141C199.706 355.943 199.925 355.677 200.067 355.368C200.209 355.059 200.271 354.717 200.245 354.377C200.22 354.036 200.109 353.708 199.923 353.424L199.035 352.074L198.111 350.668L197.749 350.132C197.533 349.811 197.228 349.563 196.872 349.421C196.517 349.279 196.128 349.25 195.756 349.337C195.445 349.405 195.156 349.551 194.914 349.762C194.673 349.973 194.486 350.242 194.371 350.544C194.256 350.846 194.217 351.173 194.256 351.495C194.295 351.817 194.412 352.124 194.596 352.389L194.922 352.888L195.828 354.257L196.716 355.626H196.698ZM187.729 343.048C188.001 343.384 188.374 343.619 188.79 343.717C189.206 343.814 189.642 343.769 190.031 343.587C190.419 343.406 190.738 343.099 190.938 342.714C191.137 342.329 191.207 341.887 191.136 341.457C191.072 341.125 190.929 340.813 190.719 340.551L190.085 339.737L188.998 338.424L188.237 337.48C187.892 337.125 187.428 336.915 186.938 336.895C186.448 336.875 185.969 337.045 185.597 337.371C185.224 337.697 184.987 338.154 184.932 338.652C184.878 339.149 185.01 339.649 185.302 340.051L186.045 340.939L187.095 342.234L187.729 343.048ZM177.583 331.45C177.883 331.747 178.268 331.938 178.682 331.993C179.095 332.049 179.516 331.966 179.88 331.759C180.244 331.551 180.533 331.229 180.704 330.84C180.874 330.451 180.917 330.017 180.827 329.601C180.744 329.246 180.562 328.925 180.301 328.676L179.812 328.14L178.58 326.9L177.529 325.865C177.227 325.584 176.846 325.408 176.441 325.361C176.035 325.314 175.625 325.399 175.27 325.604C174.914 325.809 174.632 326.124 174.461 326.503C174.291 326.881 174.243 327.305 174.322 327.714C174.413 328.08 174.601 328.413 174.866 328.676L175.88 329.675L177.076 330.896L177.583 331.414V331.45ZM166.35 320.944C166.646 321.189 167.005 321.339 167.383 321.377C167.761 321.414 168.141 321.338 168.477 321.156C168.813 320.975 169.089 320.697 169.272 320.357C169.454 320.017 169.534 319.629 169.503 319.243C169.449 318.716 169.195 318.231 168.796 317.892L168.217 317.393L166.84 316.265L165.771 315.395C165.369 315.072 164.859 314.924 164.351 314.985C163.843 315.045 163.379 315.31 163.062 315.719C162.745 316.129 162.6 316.65 162.66 317.169C162.719 317.687 162.978 318.161 163.379 318.484L164.43 319.335L165.753 320.445L166.35 320.944ZM154.175 311.604C154.504 311.839 154.897 311.966 155.299 311.966C155.7 311.966 156.093 311.839 156.422 311.604C156.666 311.414 156.863 311.167 156.995 310.883C157.126 310.6 157.189 310.288 157.179 309.975C157.168 309.661 157.084 309.355 156.933 309.082C156.783 308.808 156.57 308.576 156.313 308.404L155.28 307.682L153.758 306.665L153.07 306.203C152.715 305.981 152.301 305.883 151.887 305.92C151.473 305.958 151.082 306.131 150.771 306.412C150.461 306.694 150.247 307.07 150.162 307.485C150.077 307.901 150.124 308.333 150.298 308.718C150.44 309.051 150.681 309.329 150.986 309.513L151.657 309.957L153.142 310.956L154.175 311.678V311.604ZM141.167 303.447C141.389 303.596 141.64 303.696 141.903 303.742C142.165 303.787 142.435 303.776 142.693 303.709C142.951 303.642 143.193 303.521 143.403 303.354C143.613 303.186 143.787 302.976 143.913 302.737C144.039 302.497 144.115 302.233 144.136 301.962C144.157 301.691 144.122 301.418 144.034 301.161C143.946 300.905 143.807 300.669 143.625 300.47C143.444 300.272 143.223 300.113 142.978 300.006L142.616 299.803L140.967 298.878L139.536 298.12C139.178 297.926 138.769 297.852 138.368 297.91C137.967 297.968 137.594 298.154 137.302 298.441C137.01 298.728 136.815 299.103 136.745 299.51C136.674 299.917 136.732 300.337 136.909 300.709C137.081 301.103 137.382 301.424 137.76 301.615L139.137 302.355L140.75 303.243L141.112 303.447H141.167ZM127.56 296.621C127.798 296.726 128.054 296.781 128.313 296.785C128.572 296.788 128.829 296.74 129.069 296.642C129.31 296.544 129.529 296.399 129.715 296.214C129.9 296.03 130.049 295.81 130.151 295.567C130.253 295.324 130.308 295.063 130.311 294.799C130.315 294.534 130.267 294.272 130.171 294.026C130.075 293.781 129.933 293.557 129.752 293.367C129.572 293.178 129.356 293.026 129.118 292.922L127.306 292.108L125.495 291.35C125.014 291.149 124.475 291.151 123.996 291.355C123.517 291.56 123.137 291.951 122.94 292.441C122.743 292.932 122.745 293.482 122.945 293.971C123.146 294.46 123.528 294.848 124.009 295.049L125.712 295.771L127.524 296.584L127.56 296.621ZM113.356 290.924C113.598 291.028 113.858 291.079 114.121 291.076C114.383 291.073 114.642 291.014 114.882 290.905C115.121 290.795 115.336 290.637 115.514 290.439C115.691 290.241 115.826 290.008 115.912 289.755C115.998 289.502 116.032 289.233 116.011 288.966C115.991 288.699 115.918 288.438 115.795 288.201C115.673 287.964 115.504 287.755 115.3 287.587C115.095 287.419 114.859 287.296 114.606 287.225L114.334 287.114L110.928 285.949C110.567 285.834 110.18 285.83 109.817 285.936C109.453 286.043 109.128 286.256 108.881 286.549C108.635 286.842 108.478 287.202 108.429 287.585C108.381 287.968 108.443 288.357 108.609 288.705C108.716 288.943 108.872 289.155 109.065 289.328C109.259 289.5 109.486 289.628 109.732 289.704L113.084 290.85H113.356V290.924ZM98.5715 286.171C98.8234 286.302 99.1006 286.374 99.3831 286.383C99.6657 286.392 99.9468 286.337 100.206 286.223C100.466 286.108 100.697 285.936 100.884 285.719C101.071 285.503 101.208 285.247 101.287 284.97C101.366 284.692 101.384 284.401 101.339 284.116C101.295 283.831 101.19 283.559 101.031 283.321C100.872 283.082 100.663 282.882 100.419 282.735C100.176 282.589 99.9037 282.498 99.6223 282.471L95.89 281.399C95.649 281.325 95.3958 281.304 95.1462 281.335C94.8967 281.367 94.6564 281.452 94.4406 281.584C94.1065 281.773 93.8354 282.061 93.6621 282.408C93.4889 282.756 93.4212 283.149 93.468 283.537C93.5146 283.924 93.6735 284.288 93.9243 284.583C94.175 284.878 94.5062 285.089 94.8754 285.19L98.499 286.245L98.5715 286.171ZM83.7329 282.212C84.1596 282.356 84.6223 282.343 85.0403 282.175C85.4584 282.006 85.8054 281.694 86.0209 281.291C86.2364 280.888 86.3068 280.421 86.2198 279.971C86.1328 279.521 85.8939 279.116 85.5447 278.828C85.31 278.607 85.0225 278.454 84.7113 278.384C83.4974 278.162 82.1567 277.773 80.9428 277.477C80.5607 277.389 80.1615 277.422 79.7977 277.57C79.434 277.718 79.1228 277.976 78.9051 278.308C78.6874 278.64 78.5733 279.032 78.5781 279.432C78.5829 279.832 78.7061 280.221 78.9317 280.548C79.209 280.938 79.6139 281.213 80.0731 281.325C81.287 281.602 82.6277 281.991 83.8235 282.212H83.7329ZM68.7313 278.865C69.1965 278.912 69.6627 278.784 70.0424 278.506C70.4221 278.227 70.6893 277.817 70.7937 277.352C70.8982 276.887 70.8329 276.398 70.61 275.979C70.387 275.559 70.0218 275.237 69.5829 275.073L65.7781 274.333C65.3603 274.248 64.9268 274.308 64.5458 274.502C64.1647 274.696 63.8577 275.014 63.673 275.406C63.4884 275.798 63.4366 276.241 63.5257 276.666C63.6149 277.092 63.84 277.474 64.1656 277.755C64.4216 277.975 64.7264 278.127 65.0534 278.199L68.84 278.939L68.7313 278.865ZM53.6029 276.072C54.0098 276.134 54.4256 276.063 54.7901 275.868C55.1546 275.673 55.449 275.365 55.6306 274.988C55.8121 274.611 55.8715 274.185 55.8002 273.771C55.7288 273.357 55.5303 272.978 55.2335 272.687C54.9607 272.418 54.6122 272.243 54.237 272.187L50.4141 271.558C49.9336 271.379 49.4031 271.403 48.9393 271.623C48.4755 271.843 48.1164 272.242 47.941 272.733C47.7657 273.224 47.7883 273.765 48.0041 274.239C48.2199 274.712 48.611 275.079 49.0916 275.258C49.3085 275.407 49.5567 275.502 49.8163 275.535L53.6029 276.164V276.072ZM38.402 273.741C38.7797 273.798 39.1656 273.74 39.5105 273.572C39.8553 273.405 40.1434 273.136 40.3378 272.8C40.5323 272.465 40.6244 272.078 40.6023 271.688C40.5802 271.299 40.4449 270.925 40.2138 270.615C40.0658 270.4 39.8746 270.219 39.6527 270.085C39.4309 269.951 39.1836 269.867 38.9274 269.838L35.1046 269.32C34.6822 269.26 34.2521 269.345 33.8822 269.562C33.5123 269.778 33.2236 270.115 33.0616 270.517C32.8996 270.92 32.8736 271.367 32.9876 271.786C33.1017 272.206 33.3492 272.575 33.6914 272.835C33.9525 273.047 34.266 273.181 34.5972 273.223L38.4201 273.741H38.402ZM23.1286 271.891C23.392 271.944 23.6631 271.94 23.9249 271.879C24.1866 271.819 24.4333 271.704 24.6492 271.542C24.8652 271.379 25.0458 271.173 25.1795 270.935C25.3132 270.698 25.3972 270.434 25.4261 270.162C25.4551 269.89 25.4283 269.614 25.3476 269.353C25.2669 269.092 25.1339 268.851 24.9571 268.645C24.7803 268.439 24.5636 268.272 24.3205 268.156C24.0775 268.04 23.8136 267.977 23.5453 267.97L19.7044 267.563C19.2972 267.526 18.8891 267.622 18.5384 267.836C18.1876 268.051 17.9122 268.373 17.7514 268.756C17.5907 269.14 17.5528 269.566 17.6432 269.972C17.7337 270.379 17.9477 270.747 18.2549 271.022C18.5495 271.281 18.9179 271.437 19.3058 271.466L23.1286 271.891ZM7.81903 270.356C8.2299 270.39 8.64073 270.29 8.99188 270.069C9.34302 269.849 9.61618 269.52 9.7717 269.13C9.92723 268.741 9.95705 268.31 9.85677 267.902C9.7565 267.494 9.53136 267.129 9.2141 266.86C8.90987 266.621 8.54573 266.473 8.16328 266.435L4.30417 266.102C4.05196 266.08 3.79802 266.109 3.55682 266.187C3.31562 266.266 3.09188 266.392 2.89841 266.558C2.70493 266.725 2.5455 266.929 2.42921 267.158C2.3129 267.388 2.24203 267.639 2.22062 267.896C2.1992 268.154 2.22765 268.413 2.30438 268.659C2.38112 268.905 2.50462 269.134 2.66782 269.331C2.83101 269.529 3.03069 269.692 3.25551 269.81C3.48032 269.929 3.72582 270.001 3.97803 270.023L7.81903 270.356ZM-7.5993 268.95C-7.1115 268.968 -6.6352 268.797 -6.26553 268.471C-5.89586 268.146 -5.66 267.69 -5.6051 267.195C-5.55019 266.7 -5.68027 266.202 -5.96933 265.8C-6.25839 265.399 -6.68518 265.123 -7.16445 265.029L-10.9873 264.604C-11.3329 264.563 -11.683 264.616 -12.0014 264.759C-12.3199 264.903 -12.5953 265.13 -12.7991 265.418C-12.9886 265.698 -13.1041 266.023 -13.1344 266.362C-13.1648 266.701 -13.1089 267.042 -12.9723 267.353C-12.8357 267.663 -12.6229 267.933 -12.3545 268.135C-12.0862 268.337 -11.7713 268.465 -11.4403 268.506L-7.5993 268.95ZM-22.8183 266.916C-22.4708 266.938 -22.1239 266.864 -21.8141 266.702C-21.5044 266.539 -21.2431 266.295 -21.0577 265.994C-20.8724 265.693 -20.7698 265.347 -20.7608 264.992C-20.7518 264.636 -20.8366 264.285 -21.0065 263.975C-21.1459 263.717 -21.3436 263.497 -21.5831 263.333C-21.8226 263.169 -22.097 263.066 -22.3835 263.032L-26.152 262.403C-26.4006 262.358 -26.6555 262.363 -26.902 262.419C-27.1486 262.474 -27.382 262.579 -27.5889 262.727C-27.7959 262.874 -27.9723 263.062 -28.1081 263.28C-28.2439 263.497 -28.3365 263.739 -28.3805 263.993C-28.4245 264.247 -28.4191 264.507 -28.3646 264.759C-28.3101 265.011 -28.2076 265.249 -28.063 265.46C-27.9183 265.672 -27.7342 265.852 -27.5214 265.99C-27.3085 266.129 -27.071 266.223 -26.8224 266.268C-25.5541 266.509 -24.2677 266.712 -22.9814 266.916H-22.8183ZM-38.1822 263.975C-37.7949 264.038 -37.398 263.979 -37.0438 263.807C-36.6897 263.635 -36.395 263.357 -36.1987 263.011C-36.0024 262.664 -35.9137 262.265 -35.9444 261.866C-35.9751 261.466 -36.1236 261.086 -36.3705 260.775C-36.6466 260.444 -37.0227 260.216 -37.4394 260.128L-41.1717 259.258C-41.5423 259.166 -41.9312 259.189 -42.289 259.324C-42.6468 259.459 -42.9572 259.699 -43.1806 260.015C-43.4041 260.33 -43.5306 260.706 -43.5438 261.095C-43.5571 261.484 -43.4567 261.869 -43.2553 262.199C-42.9857 262.643 -42.5565 262.962 -42.0595 263.087L-38.2547 263.975H-38.1822ZM-53.2744 260.017C-52.8805 260.143 -52.4573 260.136 -52.0674 259.997C-51.6776 259.859 -51.3418 259.596 -51.11 259.247C-50.8782 258.898 -50.7626 258.482 -50.7805 258.061C-50.7983 257.64 -50.9486 257.236 -51.209 256.909C-51.4602 256.598 -51.7934 256.367 -52.1692 256.243C-53.3831 255.892 -54.597 255.503 -55.7928 255.115C-56.0385 254.999 -56.3055 254.937 -56.5762 254.934C-56.847 254.93 -57.1153 254.986 -57.3637 255.096C-57.612 255.206 -57.8348 255.368 -58.0174 255.572C-58.2 255.776 -58.3382 256.017 -58.4231 256.28C-58.5079 256.542 -58.5374 256.82 -58.5097 257.095C-58.482 257.37 -58.3976 257.636 -58.2622 257.875C-58.1267 258.115 -57.9432 258.322 -57.7237 258.484C-57.5042 258.646 -57.2537 258.758 -56.9886 258.814C-55.7385 259.221 -54.5065 259.61 -53.2563 259.98L-53.2744 260.017ZM-68.0224 254.837C-67.6702 254.977 -67.286 255.009 -66.9163 254.93C-66.5466 254.851 -66.2071 254.665 -65.9388 254.394C-65.7117 254.164 -65.5444 253.88 -65.4521 253.567C-65.3598 253.255 -65.3453 252.923 -65.4101 252.604C-65.4749 252.284 -65.6169 251.986 -65.8231 251.737C-66.0293 251.487 -66.2933 251.294 -66.5911 251.175L-70.106 249.695C-70.5105 249.509 -70.9657 249.472 -71.3942 249.59C-71.8226 249.708 -72.1979 249.973 -72.4562 250.342C-72.7145 250.71 -72.8399 251.158 -72.8111 251.61C-72.7823 252.062 -72.6011 252.49 -72.2982 252.821C-72.1072 253.024 -71.8796 253.188 -71.6279 253.302C-70.4321 253.839 -69.2363 254.338 -68.0043 254.837H-68.0224ZM-82.2087 248.105C-81.9291 248.254 -81.6183 248.332 -81.3028 248.332C-80.9873 248.332 -80.6765 248.254 -80.3969 248.105C-80.0761 247.948 -79.8035 247.705 -79.6092 247.401C-79.4148 247.097 -79.306 246.744 -79.2948 246.381C-79.2836 246.019 -79.3703 245.66 -79.5455 245.344C-79.7207 245.028 -79.9777 244.767 -80.2882 244.59C-81.4115 243.974 -82.5167 243.357 -83.6038 242.741C-83.8553 242.578 -84.1424 242.481 -84.4394 242.458C-84.7365 242.436 -85.0344 242.488 -85.3069 242.611C-85.6409 242.748 -85.9307 242.977 -86.1432 243.274C-86.3557 243.57 -86.4824 243.921 -86.5088 244.288C-86.5352 244.654 -86.4604 245.02 -86.2927 245.345C-86.125 245.67 -85.8713 245.941 -85.5605 246.126C-84.4372 246.791 -83.2958 247.457 -82.1362 248.086L-82.2087 248.105ZM-95.471 239.504C-95.1433 239.764 -94.7418 239.909 -94.3268 239.916C-93.9118 239.924 -93.5056 239.794 -93.1689 239.546C-92.8323 239.298 -92.5833 238.946 -92.4594 238.541C-92.3355 238.137 -92.3432 237.702 -92.4815 237.303C-92.6042 236.93 -92.8309 236.602 -93.1338 236.359C-94.1484 235.601 -95.1449 234.806 -96.1232 233.992C-96.5172 233.661 -97.024 233.503 -97.5319 233.553C-98.0399 233.604 -98.5075 233.858 -98.8318 234.26C-99.1562 234.662 -99.3107 235.18 -99.2615 235.698C-99.2122 236.217 -98.9631 236.694 -98.5691 237.025C-97.5364 237.876 -96.5218 238.708 -95.471 239.504ZM-107.175 228.831C-106.887 229.145 -106.507 229.354 -106.092 229.427C-105.677 229.501 -105.25 229.434 -104.875 229.238C-104.501 229.041 -104.199 228.726 -104.016 228.339C-103.833 227.952 -103.778 227.514 -103.86 227.093C-103.925 226.753 -104.081 226.439 -104.312 226.186C-105.164 225.243 -105.961 224.337 -106.758 223.282C-106.91 223.056 -107.106 222.864 -107.334 222.718C-107.562 222.573 -107.817 222.478 -108.083 222.439C-108.349 222.4 -108.62 222.417 -108.879 222.491C-109.138 222.564 -109.379 222.692 -109.587 222.866C-109.795 223.04 -109.966 223.256 -110.088 223.5C-110.21 223.745 -110.28 224.013 -110.295 224.287C-110.31 224.561 -110.27 224.835 -110.175 225.092C-110.081 225.349 -109.935 225.583 -109.748 225.779C-108.914 226.815 -108.063 227.832 -107.175 228.831ZM-116.451 215.717C-116.355 215.982 -116.204 216.222 -116.009 216.422C-115.814 216.623 -115.579 216.778 -115.321 216.878C-115.062 216.978 -114.785 217.02 -114.509 217.002C-114.233 216.984 -113.964 216.905 -113.72 216.772C-113.477 216.639 -113.263 216.454 -113.095 216.23C-112.927 216.006 -112.808 215.747 -112.746 215.472C-112.683 215.197 -112.68 214.911 -112.734 214.635C-112.789 214.358 -112.901 214.096 -113.063 213.867C-113.679 212.739 -114.241 211.629 -114.785 210.464C-115.003 209.993 -115.396 209.63 -115.877 209.455C-116.358 209.28 -116.887 209.307 -117.348 209.53C-117.81 209.753 -118.165 210.154 -118.337 210.645C-118.508 211.136 -118.482 211.676 -118.263 212.147C-117.702 213.368 -117.086 214.57 -116.451 215.847V215.717ZM-122.304 200.642C-122.238 200.957 -122.093 201.249 -121.884 201.489C-121.674 201.729 -121.406 201.909 -121.108 202.011C-120.779 202.134 -120.424 202.164 -120.08 202.098C-119.736 202.031 -119.416 201.871 -119.154 201.634C-118.892 201.397 -118.698 201.092 -118.592 200.751C-118.486 200.411 -118.473 200.047 -118.553 199.699C-118.861 198.46 -119.133 197.239 -119.35 196C-119.422 195.558 -119.64 195.154 -119.968 194.856C-120.296 194.558 -120.714 194.383 -121.152 194.362C-121.591 194.34 -122.024 194.472 -122.378 194.737C-122.733 195.001 -122.988 195.382 -123.101 195.815C-123.174 196.1 -123.174 196.399 -123.101 196.684C-122.865 198.016 -122.593 199.348 -122.267 200.661L-122.304 200.642ZM-124.115 184.513C-124.142 184.962 -124.016 185.407 -123.76 185.772C-123.504 186.138 -123.132 186.403 -122.708 186.522C-122.283 186.641 -121.831 186.608 -121.428 186.427C-121.024 186.247 -120.694 185.93 -120.492 185.531C-120.342 185.246 -120.261 184.929 -120.256 184.606C-120.256 183.348 -120.166 182.072 -120.057 180.907C-119.978 180.44 -120.066 179.96 -120.306 179.555C-120.547 179.151 -120.922 178.848 -121.364 178.704C-121.805 178.56 -122.283 178.583 -122.709 178.77C-123.135 178.958 -123.48 179.296 -123.68 179.723C-123.835 179.974 -123.928 180.259 -123.952 180.555C-124.061 181.887 -124.133 183.256 -124.152 184.606L-124.115 184.513ZM-121.579 168.477C-121.714 168.891 -121.714 169.339 -121.579 169.753C-121.447 170.136 -121.202 170.468 -120.877 170.703C-120.553 170.937 -120.165 171.063 -119.767 171.063C-119.369 171.063 -118.981 170.937 -118.657 170.703C-118.332 170.468 -118.087 170.136 -117.955 169.753C-117.614 168.499 -117.208 167.265 -116.741 166.054C-116.65 165.811 -116.606 165.552 -116.612 165.292C-116.619 165.031 -116.675 164.775 -116.779 164.537C-116.882 164.299 -117.031 164.085 -117.215 163.905C-117.4 163.726 -117.618 163.585 -117.856 163.492C-118.094 163.398 -118.347 163.354 -118.602 163.36C-118.857 163.367 -119.108 163.425 -119.341 163.53C-119.574 163.636 -119.784 163.787 -119.96 163.976C-120.136 164.164 -120.273 164.387 -120.365 164.629C-120.836 165.887 -121.271 167.201 -121.651 168.477H-121.579ZM-115.165 153.679C-115.292 153.903 -115.375 154.15 -115.409 154.406C-115.443 154.662 -115.427 154.923 -115.362 155.173C-115.298 155.423 -115.185 155.657 -115.032 155.863C-114.878 156.068 -114.686 156.241 -114.468 156.371C-114.249 156.501 -114.007 156.585 -113.756 156.62C-113.505 156.654 -113.25 156.638 -113.005 156.572C-112.76 156.506 -112.531 156.391 -112.329 156.235C-112.128 156.078 -111.959 155.882 -111.831 155.659C-111.197 154.549 -110.545 153.458 -109.875 152.366C-109.652 152.016 -109.546 151.602 -109.572 151.186C-109.599 150.769 -109.755 150.373 -110.02 150.054C-110.212 149.816 -110.456 149.627 -110.734 149.503C-111.011 149.38 -111.313 149.325 -111.615 149.343C-111.917 149.361 -112.21 149.451 -112.471 149.607C-112.733 149.763 -112.954 149.979 -113.118 150.239C-113.824 151.386 -114.513 152.533 -115.165 153.679ZM-106.161 140.454C-106.397 140.753 -106.543 141.116 -106.581 141.498C-106.619 141.88 -106.547 142.266 -106.374 142.607C-106.201 142.948 -105.935 143.231 -105.607 143.42C-105.28 143.609 -104.905 143.697 -104.53 143.673C-104.268 143.651 -104.013 143.576 -103.779 143.452C-103.546 143.328 -103.339 143.158 -103.171 142.951C-102.374 141.953 -101.559 140.972 -100.725 139.992C-100.439 139.665 -100.268 139.25 -100.24 138.813C-100.212 138.376 -100.328 137.942 -100.57 137.58C-100.812 137.218 -101.166 136.949 -101.575 136.816C-101.984 136.684 -102.425 136.695 -102.827 136.848C-103.13 136.969 -103.403 137.158 -103.624 137.402C-104.476 138.401 -105.327 139.419 -106.161 140.454Z" fill="#E5EDFC"/>
<path fill-rule="evenodd" clip-rule="evenodd" d="M69.4011 281.565C69.2281 281.286 69.1711 280.947 69.2424 280.625C69.3138 280.302 69.5077 280.022 69.7816 279.845C70.0555 279.668 70.3869 279.61 70.7029 279.683C71.0189 279.756 71.2936 279.954 71.4666 280.233C71.4666 280.363 99.205 324.218 70.0172 357.919C69.9111 358.057 69.7778 358.17 69.6258 358.251C69.4739 358.332 69.3068 358.38 69.1357 358.39C68.9645 358.401 68.7931 358.374 68.6327 358.312C68.4724 358.25 68.3267 358.154 68.2054 358.03C68.0802 357.912 67.9803 357.769 67.9119 357.61C67.8436 357.451 67.8083 357.279 67.8083 357.105C67.8083 356.932 67.8436 356.76 67.9119 356.601C67.9803 356.441 68.0802 356.298 68.2054 356.181C96.1612 323.978 69.4736 281.676 69.4011 281.565Z" fill="#121A4F"/>
<path fill-rule="evenodd" clip-rule="evenodd" d="M-64.0545 240.373L-84.419 263.272C-78.1538 275.895 -75.1244 289.933 -75.6137 304.076C-76.5921 327.233 -153.05 455.563 -11.7845 454.897C129.481 454.231 50.8671 379.838 50.8671 379.838C50.8671 379.838 97.4662 364.449 73.9311 295.567C50.396 226.686 -64.0545 240.373 -64.0545 240.373Z" fill="#121A4F"/>
<path fill-rule="evenodd" clip-rule="evenodd" d="M52.1173 381.132C51.302 380.3 50.8128 379.838 50.8128 379.838C52.269 379.33 53.6861 378.711 55.0524 377.988C59.4833 372.891 63.5177 367.449 67.1189 361.711C86.3782 331.136 65.8869 289.093 65.8869 289.093L55.0161 285.782C55.0161 285.782 33.2747 277.847 27.4769 275.85C21.6792 273.852 -45.7374 278.162 -64.9242 314.878C-84.1111 351.593 -62.7501 404.827 -62.7501 404.827C-62.7501 404.827 16.7149 402.2 21.2444 401.867C24.6506 401.571 37.7136 396.374 52.1173 381.132Z" fill="#0B1345"/>
<path fill-rule="evenodd" clip-rule="evenodd" d="M90.11 403.072C112.794 413.19 115.747 434.368 118.7 457.933C121.309 478.853 122.124 510.389 116.725 558.314C111.326 606.239 25.556 495.093 25.556 495.093L90.11 403.072Z" fill="#FFE1BF"/>
<path fill-rule="evenodd" clip-rule="evenodd" d="M15.0301 371.847C15.0301 371.847 73.5689 393.137 90.1105 401.164C90.1105 401.164 86.9399 404.531 83.3888 422.861C79.8377 441.191 83.3888 468.011 79.6565 494.406C76.9388 513.476 64.2926 609.973 57.4803 662.041L-86.8105 650.166C-86.8105 647.854 -86.9374 645.061 -87.0823 641.898C-75.2332 651.313 -63.8733 651.738 -70.903 624.215C-83.1507 576.29 -80.7592 492.889 -76.6826 467.919C-72.6061 442.948 -66.5185 416.59 -72.2981 391.232C-68.4209 387.662 15.0301 371.847 15.0301 371.847Z" fill="#F07188"/>
<path fill-rule="evenodd" clip-rule="evenodd" d="M53.4762 386.201C68.1335 391.75 83.0083 397.705 90.1105 401.164C90.1105 401.164 86.9399 404.531 83.3888 422.861C79.8377 441.191 83.3888 468.011 79.6565 494.406C79.1129 498.216 78.1708 505.152 76.9569 514.197C44.3448 519.376 -51.9336 530.641 -75.052 528.551C-76.7084 528.402 -78.3542 528.148 -79.9801 527.792C-79.9801 501.786 -78.4944 479.054 -76.6826 467.919C-76.5739 467.271 -76.4652 466.642 -76.3746 466.069C-68.2034 490.651 34.4886 504.375 34.4886 504.375C34.4886 504.375 51.5013 465.939 47.1712 451.697C42.841 437.455 22.2409 437.843 22.2409 437.843L22.7664 425.117C22.7664 425.117 43.1852 396.892 48.1314 388.309C48.6931 387.162 50.6135 386.515 53.4762 386.201Z" fill="#E45E76"/>
<path fill-rule="evenodd" clip-rule="evenodd" d="M61.7742 389.401L62.9881 389.881C60.3972 400.591 56.9004 413.15 52.1173 420.549C47.87 427.591 42.061 433.515 35.159 437.843C27.7307 442.245 18.0195 444.89 4.3586 444.539C-6.17652 444.337 -16.3178 440.415 -24.3401 433.441C-32.9937 425.707 -39.2835 415.594 -42.458 404.309C-46.1903 390.991 -49.7051 386.552 -50.919 385.35L-49.4877 385.035C-47.8209 387.033 -44.5416 392.138 -41.226 403.939C-38.1086 414.987 -31.9376 424.883 -23.4524 432.442C-15.6707 439.182 -5.84464 442.966 4.3586 443.152C17.6752 443.485 27.169 440.914 34.4161 436.641C41.1286 432.423 46.7861 426.666 50.9397 419.827C55.7228 412.558 59.1652 400.055 61.8104 389.401H61.7742ZM85.8347 399.204L86.9036 399.666C84.0773 404.771 80.1095 415.462 76.4678 437.843C72.1013 464.663 77.1019 476.686 80.9429 481.847C80.9429 482.457 80.8523 483.067 80.7979 483.696C76.6852 478.924 70.4707 466.624 75.1995 437.64C78.8231 415.647 82.8271 404.679 85.8347 399.222V399.204ZM-77.661 475.354C-77.5644 474.504 -77.4738 473.69 -77.3893 472.913C-74.0918 466.31 -61.5724 437.233 -68.7108 389.678L-67.4788 389.29C-59.2714 443.577 -76.5377 474.208 -77.0269 474.91C-77.0649 474.98 -77.1139 475.042 -77.1719 475.095C-77.2299 475.172 -77.3038 475.235 -77.3883 475.28C-77.4729 475.325 -77.5659 475.35 -77.661 475.354Z" fill="#D64962"/>
<path fill-rule="evenodd" clip-rule="evenodd" d="M10.5005 307.941H10.9354C17.0641 307.877 22.9677 310.296 27.3522 314.668C31.7367 319.041 34.2443 325.009 34.3255 331.266L34.6154 379.116C43.1127 382.279 53.2768 386.127 62.7887 389.844C47.8052 422.861 30.1765 444.687 1.91266 438.435C-36.769 429.871 -35.392 396.707 -47.1686 384.48C-36.1711 382.057 -23.253 379.412 -12.0562 377.174L-12.328 331.821C-12.3766 325.571 -10.0048 319.555 -5.72916 315.083C-1.45349 310.61 4.37981 308.044 10.5005 307.941Z" fill="#FFE1BF"/>
<path fill-rule="evenodd" clip-rule="evenodd" d="M32.8761 323.257C33.8191 325.805 34.3099 328.505 34.3255 331.229L34.6154 379.079C43.1127 382.242 53.2768 386.09 62.7887 389.807C51.773 414.093 39.2354 432.35 22.2409 437.769C49.4177 419.088 41.0291 396.022 35.2495 393.599C29.4699 391.176 -16.4407 378.007 -16.4407 378.007L-12.0562 377.137L-12.328 331.784C-12.3516 328.293 -11.6201 324.84 -10.1857 321.672C-8.75131 318.503 -6.64941 315.697 -4.03002 313.453C8.19954 313.324 20.3929 317.208 32.8761 323.257Z" fill="#F9D7B1"/>
<path fill-rule="evenodd" clip-rule="evenodd" d="M62.7703 262.588C63.2232 262.588 63.658 262.588 64.111 262.588C68.2128 262.9 72.0882 264.629 75.1002 267.489C78.1121 270.348 80.0812 274.169 80.6837 278.323C81.2862 282.477 80.4863 286.717 78.4155 290.345C76.3447 293.973 73.1262 296.774 69.2892 298.287C65.4523 299.8 61.2252 299.935 57.3031 298.67C53.381 297.405 49.9972 294.815 47.7081 291.326C45.4191 287.837 44.361 283.657 44.7079 279.473C45.0547 275.289 46.7859 271.35 49.6167 268.303C49.8703 273.76 51.5734 280.307 58.4039 280.067L56.8457 269.561C56.7611 268.701 56.8494 267.832 57.1054 267.008C57.3615 266.184 57.7797 265.422 58.3345 264.769C58.8893 264.116 59.5689 263.586 60.3317 263.211C61.0945 262.836 61.9243 262.624 62.7703 262.588Z" fill="#F9DBB8"/>
<path fill-rule="evenodd" clip-rule="evenodd" d="M-10.5162 181.646C5.73407 179.485 22.1618 183.978 35.1776 194.143C48.1934 204.308 56.7392 219.319 58.9477 235.897L66.376 292.811C68.4831 309.397 64.0781 326.161 54.1225 339.444C44.1668 352.726 29.4688 361.449 13.2363 363.709C-3.01397 365.87 -19.4417 361.377 -32.4575 351.212C-45.4733 341.047 -54.019 326.036 -56.2276 309.458L-63.6378 252.544C-65.7501 235.96 -61.3494 219.196 -51.3966 205.913C-41.4439 192.629 -26.7475 183.906 -10.5162 181.646Z" fill="#FFE1BF"/>
<path fill-rule="evenodd" clip-rule="evenodd" d="M-10.5163 181.646C4.84408 179.61 20.3952 183.511 33.0811 192.585C45.767 201.658 54.6704 215.247 58.0418 230.681C57.6691 233.916 56.7107 237.052 55.2154 239.929L26.6435 238.228C26.6435 238.228 7.83717 274.925 -30.7901 283.84C-41.1717 286.245 -44.4148 296.936 -42.295 307.072C-37.1314 331.802 -16.3502 367.223 34.8328 356.458C28.142 360.237 20.8167 362.703 13.2363 363.727C-3.01402 365.889 -19.4417 361.396 -32.4575 351.231C-45.4733 341.065 -54.0191 326.054 -56.2276 309.477L-63.6378 252.562C-65.7553 235.975 -61.3571 219.207 -51.4038 205.919C-41.4505 192.632 -26.7511 183.906 -10.5163 181.646Z" fill="#FFE1BF"/>
<path fill-rule="evenodd" clip-rule="evenodd" d="M44.9424 296.307C46.5326 296.059 48.1591 296.298 49.6164 296.994C51.0736 297.689 52.2961 298.81 53.1294 300.215C53.9626 301.62 54.3691 303.245 54.2976 304.886C54.2261 306.527 53.6797 308.109 52.7275 309.433C51.7754 310.756 50.4601 311.762 48.9481 312.323C47.4361 312.883 45.7952 312.974 44.2329 312.583C42.6705 312.191 41.2569 311.336 40.1706 310.125C39.0843 308.913 38.3742 307.401 38.1301 305.777C37.9678 304.699 38.0154 303.598 38.27 302.538C38.5246 301.479 38.9813 300.48 39.614 299.601C40.2466 298.721 41.0428 297.978 41.9571 297.413C42.8714 296.847 43.8858 296.472 44.9424 296.307Z" fill="#FAC6A8"/>
<path fill-rule="evenodd" clip-rule="evenodd" d="M71.2856 414.075C71.2856 414.075 73.659 413.723 74.1844 415.61C74.7098 417.497 66.9373 427.651 66.3756 428.003C65.814 428.354 50.3595 426.357 50.3595 426.357C50.3595 426.357 49.5261 425.58 49.7072 424.969C49.8713 424.543 50.1248 424.157 50.4501 423.841L71.2856 414.075Z" fill="#000618"/>
<path fill-rule="evenodd" clip-rule="evenodd" d="M46.2103 255.67C41.1373 254.745 35.4483 255.67 31.716 259.517C31.5039 259.743 31.25 259.923 30.9691 260.048C30.6882 260.173 30.3858 260.24 30.0794 260.245C29.7731 260.25 29.4688 260.193 29.1841 260.077C28.8995 259.961 28.6402 259.789 28.4211 259.57C28.2021 259.352 28.0276 259.091 27.9079 258.803C27.7882 258.515 27.7256 258.206 27.7237 257.893C27.7218 257.58 27.7806 257.27 27.8968 256.98C28.0129 256.691 28.1841 256.428 28.4005 256.206C31.6269 252.897 35.9369 250.921 40.5032 250.657C42.7247 250.451 44.9637 250.569 47.1524 251.009C47.7571 251.138 48.287 251.506 48.6265 252.033C48.966 252.56 49.0874 253.202 48.9642 253.82C48.9061 254.128 48.7881 254.421 48.6173 254.682C48.4464 254.943 48.2262 255.166 47.9695 255.338C47.7128 255.511 47.4249 255.629 47.1228 255.686C46.8206 255.743 46.5104 255.737 46.2103 255.67Z" fill="#121A4F"/>
<path fill-rule="evenodd" clip-rule="evenodd" d="M-48.2919 281.047L-47.2411 289.112C-46.7338 292.996 -54.0353 303.391 -56.9523 303.798L-58.7641 289.611C-58.7641 289.611 -60.8476 283.285 -68.7108 284.358C-96.5398 259.314 -99.2213 213.941 -76.5015 187.121C-53.7817 160.301 1.40538 151.312 11.4246 153.291C21.4438 155.27 33.6371 170.641 33.6371 170.641C33.6371 170.641 40.8842 162.058 48.9648 164.907C57.0454 167.755 88.9328 213.294 90.5272 225.539C92.1216 237.784 72.0651 265.214 72.0651 265.214C64.2019 266.287 63.8215 272.964 63.8215 272.964L64.9629 281.769C62.0459 282.175 59.8899 278.402 59.3826 274.518L58.3317 266.453C32.6768 258.759 18.7623 226.778 18.7623 226.778C18.7623 226.778 -7.99778 281.602 -48.2919 281.047Z" fill="#121A4F"/>
<path fill-rule="evenodd" clip-rule="evenodd" d="M-91.793 231.125C-91.8971 219.568 -89.1692 208.167 -83.8574 197.96C-58.7098 217.863 -18.0714 231.254 15.7909 154.863C18.0698 156.046 20.2197 157.472 22.2047 159.117C9.06919 197.923 -24.4127 265.695 -91.793 231.125Z" fill="#161F5A"/>
<path fill-rule="evenodd" clip-rule="evenodd" d="M-48.292 281.047L-47.2412 289.112C-46.7339 292.996 -54.0354 303.391 -56.9524 303.798L-58.7642 289.611C-58.7642 289.611 -60.8477 283.285 -68.7109 284.358C-79.2863 274.749 -86.675 262.022 -89.8544 247.938C-89.8544 247.938 -42.2044 281.732 16.425 218.917C16.425 218.917 43.2395 261.607 82.4828 248.882C79.2833 254.511 75.7937 259.962 72.0288 265.214C64.1656 266.287 63.7851 272.964 63.7851 272.964L64.9265 281.769C62.0096 282.176 59.8536 278.402 59.3463 274.518L58.2954 266.453C32.6405 258.759 18.726 226.778 18.726 226.778C18.726 226.778 -7.99788 281.602 -48.292 281.047Z" fill="#0B1345"/>
<path fill-rule="evenodd" clip-rule="evenodd" d="M69.8358 365.466L73.858 366.576C73.858 366.576 76.2133 345.194 76.1771 343.122C75.8298 340.136 74.9519 337.24 73.5862 334.577C72.0281 331.081 66.3391 317.93 66.0492 317.467C65.7593 317.005 62.0814 320.297 63.7301 326.087C65.3788 331.876 68.1871 339.682 68.169 341.365C68.1509 343.048 64.3824 357.845 64.3824 357.845L69.8358 365.466Z" fill="#FFE1BF"/>
<path fill-rule="evenodd" clip-rule="evenodd" d="M73.8585 365.706C73.8475 364.075 73.408 362.476 72.5858 361.077C71.7636 359.679 70.5889 358.53 69.184 357.753C65.1619 355.274 55.6681 347.598 53.6389 346.655C52.5186 346.235 51.3121 346.113 50.133 346.301C48.9538 346.488 47.8409 346.979 46.899 347.728C42.8606 350.351 38.9823 353.224 35.2855 356.329C33.6911 358.03 29.7052 368.481 29.216 369.591C28.7268 370.7 32.7309 371.681 35.9377 369.202C35.9377 369.202 34.2528 372.643 33.7274 373.808C33.0056 377.704 32.5516 381.648 32.3685 385.609C32.3685 387.458 37.1698 386.496 38.8185 382.372C38.8185 382.372 38.5467 385.35 38.5467 386.275C38.5467 387.199 41.3187 386.848 41.3187 386.848C41.3187 386.848 44.5256 404.586 45.2503 406.806C45.9751 409.025 73.5505 510.387 73.5505 510.387L113.41 507.927C113.41 507.927 69.9269 408.526 69.5826 407.065C67.173 394.45 73.9128 376.157 73.8585 365.706Z" fill="#FFE1BF"/>
<path fill-rule="evenodd" clip-rule="evenodd" d="M41.3187 386.829L41.4999 387.754V388.106V388.309V388.513V388.716C42.3515 393.396 44.4894 404.956 45.1235 406.732C45.7576 408.508 60.9585 464.478 68.8398 493.37C74.0962 491.203 79.1891 488.644 84.077 485.712C84.077 485.712 53.2765 412.336 52.4794 409.451C51.6822 406.565 53.4577 404.272 52.8598 403.495C52.262 402.718 49.8704 401.645 49.2363 399.5C48.6021 397.354 47.1889 390.029 48.1311 387.07C48.8377 384.795 51.193 385.072 52.2257 385.22C53.2163 385.547 54.2271 385.807 55.2514 385.997C56.7914 386.219 56.6827 385.257 56.6827 385.257C57.3351 382.416 58.5026 379.725 60.1251 377.322C58.4401 376.397 55.813 371.94 55.813 371.94C54.0918 371.181 52.733 370.201 51.3742 371.163C49.4899 372.741 47.777 374.52 46.2649 376.471C46.0643 378.785 45.7193 381.083 45.2322 383.352C44.7611 386.053 41.3187 386.829 41.3187 386.829Z" fill="#FFE1BF"/>
<path fill-rule="evenodd" clip-rule="evenodd" d="M-137.178 666.665H152.128C154.348 666.569 156.442 665.582 157.955 663.92C159.467 662.258 160.277 660.054 160.209 657.786C160.277 655.521 159.467 653.319 157.954 651.659C156.44 650 154.347 649.018 152.128 648.927H-137.178C-139.397 649.018 -141.491 650 -143.004 651.659C-144.517 653.319 -145.327 655.521 -145.259 657.786C-145.332 660.056 -144.524 662.262 -143.01 663.925C-141.497 665.589 -139.4 666.573 -137.178 666.665Z" fill="#516BAE"/>
<path fill-rule="evenodd" clip-rule="evenodd" d="M157.364 478.425H-142.396C-143.417 478.398 -144.431 478.605 -145.363 479.031C-146.295 479.456 -147.122 480.09 -147.782 480.885C-148.443 481.68 -148.92 482.616 -149.18 483.624C-149.439 484.633 -149.474 485.687 -149.281 486.711L-126.362 642.083C-125.98 644.347 -124.845 646.407 -123.149 647.916C-121.452 649.426 -119.298 650.292 -117.049 650.369H132.017C134.268 650.293 136.425 649.427 138.124 647.918C139.823 646.409 140.962 644.348 141.348 642.083L164.249 486.711C164.445 485.687 164.413 484.631 164.155 483.621C163.897 482.611 163.419 481.674 162.758 480.878C162.097 480.082 161.269 479.448 160.335 479.024C159.401 478.599 158.386 478.394 157.364 478.425Z" fill="#566FB1"/>
<path fill-rule="evenodd" clip-rule="evenodd" d="M150.697 485.768H-135.765C-136.74 485.742 -137.709 485.939 -138.6 486.346C-139.491 486.752 -140.281 487.358 -140.912 488.117C-141.543 488.877 -141.999 489.771 -142.246 490.735C-142.494 491.698 -142.527 492.706 -142.342 493.684L-120.456 642.138C-120.083 644.299 -118.993 646.263 -117.37 647.701C-115.747 649.139 -113.689 649.964 -111.542 650.036H126.473C128.622 649.967 130.682 649.144 132.305 647.705C133.929 646.266 135.017 644.3 135.387 642.138L157.291 493.684C157.473 492.705 157.437 491.697 157.188 490.734C156.938 489.77 156.48 488.876 155.847 488.117C155.215 487.358 154.424 486.753 153.533 486.346C152.641 485.94 151.672 485.742 150.697 485.768Z" fill="#627BBC"/>
<path fill-rule="evenodd" clip-rule="evenodd" d="M-126.09 604.054L-120.474 642.138C-120.101 644.299 -119.011 646.263 -117.388 647.701C-115.765 649.139 -113.707 649.964 -111.56 650.036H126.473C128.622 649.967 130.682 649.144 132.305 647.705C133.929 646.266 135.017 644.3 135.387 642.138L157.291 493.685C157.58 492.12 157.311 490.501 156.534 489.121C155.757 487.74 154.522 486.689 153.052 486.156C120.313 543.903 39.6702 638.494 -126.09 604.054Z" fill="#566FB1"/>
<path fill-rule="evenodd" clip-rule="evenodd" d="M7.4748 610.583C25.0129 610.583 39.326 598.375 39.326 583.43C39.326 568.485 25.0129 556.222 7.4748 556.222C-10.0633 556.222 -24.3945 568.411 -24.3945 583.375C-24.3945 598.338 -10.1358 610.583 7.4748 610.583Z" fill="#566FB1"/>
<path fill-rule="evenodd" clip-rule="evenodd" d="M7.4748 562.788C11.5023 562.676 15.4978 563.546 19.1305 565.325C22.7632 567.104 25.9287 569.74 28.3647 573.016L-8.66823 598.764C-11.1052 597.032 -13.1072 594.737 -14.5113 592.066C-15.9155 589.395 -16.6821 586.424 -16.7488 583.393C-16.7488 571.999 -5.87807 562.751 7.4748 562.751V562.788ZM27.1327 595.453L16.0083 589.201L-2.54438 602.149C0.658241 603.379 4.05297 604.006 7.4748 603.998C11.1587 604.086 14.8185 603.369 18.2088 601.896C21.5992 600.422 24.6418 598.225 27.1327 595.453Z" fill="white"/>
<path fill-rule="evenodd" clip-rule="evenodd" d="M39.7062 272.779C38.3536 272.998 37.1413 273.756 36.336 274.886C35.5307 276.017 35.1985 277.428 35.4123 278.809L36.4812 285.616C36.6996 286.995 37.4431 288.229 38.5495 289.05C39.656 289.872 41.0357 290.213 42.3877 290C43.7418 289.777 44.9541 289.015 45.759 287.881C46.5639 286.748 46.8957 285.334 46.6816 283.951L45.6126 277.163C45.3988 275.782 44.6564 274.544 43.5487 273.722C42.441 272.9 41.0588 272.561 39.7062 272.779Z" fill="#3C2D5A"/>
<path fill-rule="evenodd" clip-rule="evenodd" d="M32.1509 321.532C32.349 321.678 32.5162 321.864 32.6424 322.078C32.7685 322.291 32.851 322.529 32.8848 322.776C32.9187 323.023 32.9032 323.275 32.8394 323.515C32.7755 323.756 32.6646 323.981 32.5133 324.177C32.1934 324.542 31.7448 324.763 31.2659 324.79C30.787 324.818 30.3169 324.651 29.9586 324.325C29.9586 324.325 23.7623 318.776 12.7466 329.153C12.565 329.317 12.353 329.441 12.1232 329.52C11.8935 329.598 11.6507 329.629 11.4091 329.61C11.1675 329.591 10.9322 329.523 10.7169 329.409C10.5016 329.296 10.3108 329.14 10.1558 328.949C9.98321 328.777 9.84609 328.571 9.75248 328.344C9.65887 328.117 9.61066 327.873 9.61066 327.627C9.61066 327.381 9.65887 327.137 9.75248 326.91C9.84609 326.682 9.98321 326.477 10.1558 326.304C23.4362 313.819 32.1328 321.495 32.1509 321.532Z" fill="#F4A58D"/>
<path fill-rule="evenodd" clip-rule="evenodd" d="M72.7711 414.426C73.0302 414.481 73.2631 414.625 73.4312 414.834C73.5993 415.042 73.6924 415.303 73.6952 415.573C73.822 416.609 67.6438 424.821 50.3956 425.413C50.3956 425.413 49.9789 425.284 49.9064 425.006C49.8339 424.729 50.1238 424.433 50.1238 424.433V424.119C49.9602 424.234 49.8213 424.382 49.7154 424.554C49.6095 424.725 49.5389 424.917 49.5078 425.117C49.5078 425.654 52.0443 436.53 52.5697 439.267C53.0952 442.005 58.3131 441.376 62.752 440.285C67.1908 439.193 77.7717 435.402 80.5437 429.557C80.7609 428.658 80.7609 427.718 80.5437 426.819C80.1089 425.561 74.746 415.425 74.4742 414.815C74.2965 414.501 74.0241 414.253 73.6977 414.11C73.3712 413.967 73.0081 413.935 72.6624 414.019L72.7711 414.426Z" fill="#0F1630"/>
<path fill-rule="evenodd" clip-rule="evenodd" d="M58.5849 424.452C55.8859 425.003 53.1467 425.325 50.3956 425.413C50.3956 425.413 49.9789 425.284 49.9064 425.006C49.8339 424.729 50.1238 424.433 50.1238 424.433V424.119C49.9602 424.234 49.8213 424.382 49.7154 424.554C49.6095 424.725 49.5389 424.917 49.5078 425.117C49.5078 425.654 52.0443 436.53 52.5697 439.267C53.0952 442.005 58.3131 441.376 62.752 440.285C63.3861 440.118 64.1471 439.915 64.9805 439.656L58.6755 424.452H58.5849Z" fill="#000618"/>
<path fill-rule="evenodd" clip-rule="evenodd" d="M-231.772 675.081H246.123C249.006 675.081 251.771 676.25 253.81 678.331C255.849 680.413 256.994 683.235 256.994 686.179C256.994 689.122 255.849 691.945 253.81 694.026C251.771 696.107 249.006 697.277 246.123 697.277H-231.772C-234.655 697.277 -237.42 696.107 -239.459 694.026C-241.497 691.945 -242.643 689.122 -242.643 686.179C-242.643 683.235 -241.497 680.413 -239.459 678.331C-237.42 676.25 -234.655 675.081 -231.772 675.081Z" fill="#9FA7D5"/>
<path d="M269.35 657.786H-255.017C-262.702 657.786 -268.931 664.146 -268.931 671.992V672.01C-268.931 679.856 -262.702 686.216 -255.017 686.216H269.35C277.035 686.216 283.265 679.856 283.265 672.01V671.992C283.265 664.146 277.035 657.786 269.35 657.786Z" fill="#B6794D"/>
<path d="M91.7947 657.786H62.8242V686.216H91.7947V657.786Z" fill="#915E40"/>
<path d="M121.889 657.786H106.833V686.216H121.889V657.786Z" fill="#915E40"/>
<path d="M145.207 657.786H137.688V686.216H145.207V657.786Z" fill="#915E40"/>
<path d="M203.365 657.786H170.97V686.216H203.365V657.786Z" fill="#915E40"/>
<path d="M244.003 657.786H227.806V686.216H244.003V657.786Z" fill="#915E40"/>
<path d="M0.970428 662.411H-253.876C-258.448 662.411 -262.155 666.195 -262.155 670.864C-262.155 675.532 -258.448 679.317 -253.876 679.317H0.970428C5.54327 679.317 9.25024 675.532 9.25024 670.864C9.25024 666.195 5.54327 662.411 0.970428 662.411Z" fill="#CA9274"/>
<path fill-rule="evenodd" clip-rule="evenodd" d="M242.717 120.275H148.359C145.061 120.284 141.901 121.626 139.568 124.007C137.236 126.388 135.922 129.615 135.912 132.982V222.727C135.906 223.011 135.985 223.289 136.137 223.526C136.289 223.763 136.507 223.948 136.764 224.056C137.021 224.164 137.303 224.19 137.575 224.131C137.846 224.073 138.094 223.931 138.286 223.726L159.52 202.048H242.717C246.018 202.043 249.183 200.704 251.519 198.322C253.856 195.941 255.172 192.711 255.182 189.341V132.982C255.172 129.611 253.856 126.382 251.519 124.001C249.183 121.619 246.018 120.279 242.717 120.275Z" fill="#AFCAFF"/>
<path fill-rule="evenodd" clip-rule="evenodd" d="M237.3 120.275H142.96C139.659 120.279 136.494 121.619 134.157 124.001C131.821 126.382 130.504 129.611 130.495 132.982V222.727C130.489 223.011 130.567 223.289 130.719 223.526C130.871 223.763 131.09 223.948 131.347 224.056C131.603 224.164 131.886 224.19 132.157 224.131C132.429 224.073 132.677 223.931 132.868 223.726L154.102 202.048H237.3C240.601 202.043 243.766 200.704 246.102 198.322C248.438 195.941 249.755 192.711 249.765 189.341V132.982C249.755 129.611 248.438 126.382 246.102 124.001C243.766 121.619 240.601 120.279 237.3 120.275Z" fill="#7DA7F8"/>
<mask id="mask0" mask-type="alpha" maskUnits="userSpaceOnUse" x="147" y="135" width="49" height="51">
<path fill-rule="evenodd" clip-rule="evenodd" d="M171.502 185.005C176.326 185.005 181.041 183.545 185.051 180.809C189.061 178.074 192.187 174.185 194.033 169.636C195.879 165.087 196.361 160.081 195.421 155.251C194.48 150.422 192.157 145.986 188.746 142.504C185.336 139.022 180.991 136.651 176.26 135.69C171.529 134.73 166.626 135.223 162.17 137.107C157.714 138.991 153.905 142.183 151.226 146.277C148.546 150.371 147.116 155.184 147.116 160.108C147.116 166.711 149.685 173.044 154.258 177.713C158.832 182.382 165.035 185.005 171.502 185.005Z" fill="#D5D5D5"/>
</mask>
<g mask="url(#mask0)">
<path d="M184.065 179.364C180.343 181.902 175.971 183.255 171.502 183.255C165.511 183.255 159.757 180.825 155.509 176.488C151.259 172.15 148.866 166.259 148.866 160.108C148.866 155.523 150.198 151.043 152.69 147.235C155.182 143.428 158.719 140.466 162.852 138.719C166.983 136.972 171.528 136.515 175.912 137.405C180.296 138.296 184.328 140.494 187.496 143.729C190.665 146.963 192.827 151.089 193.703 155.586C194.579 160.083 194.129 164.744 192.411 168.978C190.693 173.212 187.787 176.824 184.065 179.364Z" fill="#9A76FF" stroke="white" stroke-width="3.5"/>
<path fill-rule="evenodd" clip-rule="evenodd" d="M171.502 216.182C176.326 216.182 181.04 214.722 185.051 211.986C189.061 209.251 192.187 205.362 194.033 200.813C195.879 196.264 196.361 191.258 195.42 186.429C194.479 181.599 192.157 177.163 188.746 173.681C185.336 170.199 180.99 167.828 176.26 166.868C171.529 165.907 166.626 166.4 162.17 168.284C157.714 170.169 153.905 173.36 151.225 177.454C148.546 181.548 147.116 186.362 147.116 191.286C147.116 197.889 149.685 204.221 154.258 208.89C158.832 213.559 165.035 216.182 171.502 216.182Z" fill="white"/>
<path fill-rule="evenodd" clip-rule="evenodd" d="M171.298 164.171C173.379 164.171 175.413 163.541 177.143 162.361C178.874 161.181 180.222 159.503 181.019 157.54C181.815 155.577 182.024 153.417 181.618 151.334C181.212 149.25 180.209 147.336 178.738 145.834C177.266 144.331 175.391 143.308 173.35 142.894C171.309 142.479 169.194 142.692 167.271 143.505C165.348 144.318 163.705 145.695 162.549 147.461C161.393 149.228 160.775 151.305 160.775 153.429C160.775 156.278 161.884 159.011 163.857 161.025C165.831 163.04 168.507 164.171 171.298 164.171Z" fill="white"/>
</g>
<mask id="mask1" mask-type="alpha" maskUnits="userSpaceOnUse" x="180" y="132" width="57" height="58">
<path fill-rule="evenodd" clip-rule="evenodd" d="M208.39 189.154C213.917 189.154 219.32 187.481 223.915 184.347C228.51 181.212 232.092 176.757 234.207 171.544C236.321 166.331 236.875 160.596 235.797 155.062C234.718 149.528 232.057 144.445 228.149 140.455C224.241 136.466 219.262 133.749 213.842 132.648C208.421 131.547 202.803 132.112 197.697 134.271C192.591 136.431 188.227 140.087 185.156 144.778C182.086 149.47 180.447 154.985 180.447 160.627C180.447 168.193 183.391 175.449 188.632 180.799C193.872 186.149 200.979 189.154 208.39 189.154Z" fill="#D5D5D5"/>
</mask>
<g mask="url(#mask1)">
<path d="M222.929 182.901C218.622 185.839 213.563 187.404 208.39 187.404C201.455 187.404 194.797 184.592 189.882 179.574C184.965 174.555 182.197 167.74 182.197 160.627C182.197 155.323 183.738 150.141 186.621 145.737C189.503 141.332 193.596 137.905 198.379 135.883C203.16 133.861 208.42 133.333 213.494 134.363C218.568 135.393 223.233 137.938 226.899 141.68C230.565 145.422 233.066 150.195 234.079 155.396C235.092 160.598 234.572 165.989 232.585 170.886C230.598 175.783 227.236 179.963 222.929 182.901Z" fill="#76A5FF" stroke="white" stroke-width="3.5"/>
<path fill-rule="evenodd" clip-rule="evenodd" d="M208.39 224.424C213.917 224.424 219.32 222.751 223.915 219.617C228.51 216.482 232.092 212.027 234.207 206.814C236.322 201.601 236.875 195.866 235.797 190.332C234.718 184.798 232.057 179.715 228.149 175.725C224.241 171.736 219.262 169.019 213.842 167.918C208.421 166.817 202.803 167.382 197.697 169.541C192.591 171.701 188.227 175.357 185.157 180.048C182.086 184.74 180.447 190.255 180.447 195.897C180.447 203.463 183.391 210.719 188.632 216.069C193.872 221.419 200.979 224.424 208.39 224.424Z" fill="white"/>
<path fill-rule="evenodd" clip-rule="evenodd" d="M208.156 164.98C210.54 164.98 212.871 164.258 214.854 162.906C216.837 161.553 218.382 159.631 219.295 157.382C220.207 155.133 220.446 152.658 219.981 150.27C219.516 147.882 218.367 145.689 216.681 143.968C214.995 142.246 212.847 141.074 210.508 140.599C208.169 140.124 205.745 140.368 203.542 141.3C201.339 142.231 199.456 143.809 198.131 145.833C196.806 147.857 196.099 150.237 196.099 152.671C196.099 155.936 197.37 159.067 199.631 161.375C201.892 163.683 204.958 164.98 208.156 164.98Z" fill="white"/>
</g>
<path fill-rule="evenodd" clip-rule="evenodd" d="M315.601 366.865C323.016 366.867 330.201 369.492 335.932 374.296C341.663 379.099 345.586 385.782 347.031 393.207C348.477 400.632 347.356 408.338 343.86 415.014C340.364 421.69 334.708 426.921 327.857 429.817C321.007 432.713 313.384 433.095 306.289 430.896C299.193 428.698 293.064 424.056 288.945 417.761C284.826 411.467 282.973 403.909 283.7 396.375C284.428 388.842 287.691 381.799 292.935 376.447C295.907 373.402 299.44 370.988 303.33 369.343C307.22 367.699 311.39 366.857 315.601 366.865ZM344.191 401.325H331.11C331.028 404.888 330.665 408.438 330.022 411.942C333.364 412.701 336.593 413.908 339.625 415.53C342.334 411.283 343.908 406.385 344.191 401.325ZM327.685 401.325H317.322V410.333C320.456 410.402 323.58 410.705 326.671 411.239C327.281 407.969 327.62 404.653 327.685 401.325ZM313.898 401.325H303.534C303.599 404.653 303.939 407.969 304.549 411.239C307.639 410.705 310.764 410.402 313.898 410.333V401.325ZM300.11 401.325H287.011C287.307 406.385 288.887 411.28 291.594 415.53C294.626 413.905 297.855 412.699 301.197 411.942C300.546 408.44 300.182 404.888 300.11 401.325ZM287.011 397.847H300.11C300.176 394.824 300.442 391.808 300.907 388.821C297.388 388.007 294.001 386.68 290.852 384.881C288.593 388.829 287.277 393.265 287.011 397.829V397.847ZM304.259 389.542C303.836 392.291 303.594 395.066 303.534 397.847H313.789V390.449C310.557 390.362 307.335 390.035 304.15 389.468L304.259 389.542ZM326.942 389.542C323.763 390.11 320.548 390.437 317.322 390.523V397.921H327.685C327.619 395.139 327.371 392.365 326.942 389.616V389.542ZM331.11 397.847H344.191C343.938 393.283 342.628 388.846 340.368 384.9C337.214 386.703 333.821 388.03 330.294 388.839C330.774 391.825 331.046 394.841 331.11 397.866V397.847ZM317.322 370.676V387.027C320.359 386.95 323.387 386.647 326.381 386.12C325.803 383.473 324.972 380.889 323.899 378.407C322.685 375.67 320.438 371.804 317.394 370.676H317.322ZM317.322 413.81V428.441C320.366 427.294 322.612 423.428 323.826 420.691C324.693 418.715 325.39 416.667 325.91 414.568C323.068 414.096 320.199 413.818 317.322 413.736V413.81ZM313.789 428.441V413.736C310.905 413.819 308.03 414.097 305.183 414.568C305.717 416.665 306.42 418.712 307.285 420.691C308.498 423.428 310.745 427.312 313.789 428.441ZM313.789 386.953V370.602C310.745 371.73 308.498 375.596 307.285 378.333C306.203 380.812 305.372 383.396 304.802 386.046C307.796 386.573 310.824 386.876 313.861 386.953H313.789ZM292.627 381.903C295.409 383.446 298.384 384.598 301.469 385.325C302.084 382.418 302.994 379.585 304.186 376.872C305.016 374.946 306.074 373.132 307.339 371.471C302.772 372.877 298.619 375.419 295.254 378.87C294.316 379.836 293.439 380.862 292.627 381.94V381.903ZM329.533 385.325C332.613 384.597 335.581 383.446 338.357 381.903C337.556 380.82 336.685 379.795 335.748 378.833C332.38 375.386 328.228 372.844 323.663 371.434C324.921 373.1 325.979 374.913 326.816 376.835C327.999 379.552 328.91 382.384 329.533 385.288V385.325ZM337.451 418.286C334.817 416.935 332.03 415.922 329.153 415.271C328.567 417.623 327.785 419.918 326.816 422.133C325.984 424.068 324.919 425.888 323.645 427.553C328.217 426.148 332.376 423.606 335.748 420.154C336.346 419.544 336.907 418.915 337.451 418.305V418.286ZM301.831 415.271C298.959 415.923 296.178 416.935 293.551 418.286C294.087 418.933 294.655 419.55 295.254 420.136C298.619 423.586 302.772 426.129 307.339 427.534C306.075 425.869 305.011 424.056 304.168 422.133C303.224 419.939 302.461 417.669 301.885 415.345L301.831 415.271Z" fill="#E5EDFC"/>
<path d="M209.416 88.035H203.963C202.652 88.035 201.589 89.1199 201.589 90.4581V96.0256C201.589 97.3638 202.652 98.4486 203.963 98.4486H209.416C210.727 98.4486 211.79 97.3638 211.79 96.0256V90.4581C211.79 89.1199 210.727 88.035 209.416 88.035Z" fill="#E5EDFC"/>
<path d="M228.295 88.035H222.842C221.531 88.035 220.468 89.1199 220.468 90.4581V96.0256C220.468 97.3638 221.531 98.4486 222.842 98.4486H228.295C229.606 98.4486 230.669 97.3638 230.669 96.0256V90.4581C230.669 89.1199 229.606 88.035 228.295 88.035Z" fill="#9DBBF4"/>
<path d="M247.192 88.035H241.739C240.428 88.035 239.365 89.1199 239.365 90.4581V96.0256C239.365 97.3638 240.428 98.4486 241.739 98.4486H247.192C248.503 98.4486 249.566 97.3638 249.566 96.0256V90.4581C249.566 89.1199 248.503 88.035 247.192 88.035Z" fill="#E5EDFC"/>
<path d="M266.071 88.035H260.618C259.307 88.035 258.244 89.1199 258.244 90.4581V96.0256C258.244 97.3638 259.307 98.4486 260.618 98.4486H266.071C267.382 98.4486 268.444 97.3638 268.444 96.0256V90.4581C268.444 89.1199 267.382 88.035 266.071 88.035Z" fill="#9DBBF4"/>
<path d="M284.95 88.035H279.497C278.186 88.035 277.123 89.1199 277.123 90.4581V96.0256C277.123 97.3638 278.186 98.4486 279.497 98.4486H284.95C286.261 98.4486 287.324 97.3638 287.324 96.0256V90.4581C287.324 89.1199 286.261 88.035 284.95 88.035Z" fill="#E5EDFC"/>
<path d="M303.829 88.035H298.376C297.065 88.035 296.002 89.1199 296.002 90.4581V96.0256C296.002 97.3638 297.065 98.4486 298.376 98.4486H303.829C305.14 98.4486 306.203 97.3638 306.203 96.0256V90.4581C306.203 89.1199 305.14 88.035 303.829 88.035Z" fill="#E5EDFC"/>
<path d="M322.708 88.035H317.255C315.944 88.035 314.881 89.1199 314.881 90.4581V96.0256C314.881 97.3638 315.944 98.4486 317.255 98.4486H322.708C324.019 98.4486 325.082 97.3638 325.082 96.0256V90.4581C325.082 89.1199 324.019 88.035 322.708 88.035Z" fill="#E5EDFC"/>
<path d="M266.742 67.0229H261.288C259.977 67.0229 258.915 68.1077 258.915 69.4459V75.0134C258.915 76.3516 259.977 77.4365 261.288 77.4365H266.742C268.052 77.4365 269.115 76.3516 269.115 75.0134V69.4459C269.115 68.1077 268.052 67.0229 266.742 67.0229Z" fill="#E5EDFC"/>
<path d="M285.638 67.0229H280.185C278.874 67.0229 277.812 68.1077 277.812 69.4459V75.0134C277.812 76.3516 278.874 77.4365 280.185 77.4365H285.638C286.949 77.4365 288.012 76.3516 288.012 75.0134V69.4459C288.012 68.1077 286.949 67.0229 285.638 67.0229Z" fill="#9DBBF4"/>
<path d="M304.518 67.0229H299.064C297.753 67.0229 296.691 68.1077 296.691 69.4459V75.0134C296.691 76.3516 297.753 77.4365 299.064 77.4365H304.518C305.829 77.4365 306.891 76.3516 306.891 75.0134V69.4459C306.891 68.1077 305.829 67.0229 304.518 67.0229Z" fill="#E5EDFC"/>
<path d="M284.95 110.619H279.497C278.186 110.619 277.123 111.704 277.123 113.042V118.61C277.123 119.948 278.186 121.033 279.497 121.033H284.95C286.261 121.033 287.324 119.948 287.324 118.61V113.042C287.324 111.704 286.261 110.619 284.95 110.619Z" fill="#E5EDFC"/>
<path d="M303.829 110.619H298.376C297.065 110.619 296.002 111.704 296.002 113.042V118.61C296.002 119.948 297.065 121.033 298.376 121.033H303.829C305.14 121.033 306.203 119.948 306.203 118.61V113.042C306.203 111.704 305.14 110.619 303.829 110.619Z" fill="#9DBBF4"/>
<path d="M59.5632 93.0661C62.1948 93.0661 64.3282 90.8881 64.3282 88.2015C64.3282 85.5148 62.1948 83.3369 59.5632 83.3369C56.9315 83.3369 54.7982 85.5148 54.7982 88.2015C54.7982 90.8881 56.9315 93.0661 59.5632 93.0661Z" fill="#9DBBF4"/>
<path d="M137.126 371.625C139.758 371.625 141.891 369.447 141.891 366.761C141.891 364.074 139.758 361.896 137.126 361.896C134.494 361.896 132.361 364.074 132.361 366.761C132.361 369.447 134.494 371.625 137.126 371.625Z" fill="#9DBBF4"/>
<path d="M245.659 538.917C248.29 538.917 250.424 536.739 250.424 534.052C250.424 531.366 248.29 529.188 245.659 529.188C243.027 529.188 240.894 531.366 240.894 534.052C240.894 536.739 243.027 538.917 245.659 538.917Z" fill="#9DBBF4"/>
<path fill-rule="evenodd" clip-rule="evenodd" d="M250.073 241.039C251.019 241.043 251.944 240.759 252.731 240.224C253.518 239.689 254.131 238.928 254.493 238.036C254.855 237.144 254.949 236.163 254.762 235.216C254.576 234.27 254.118 233.401 253.447 232.722C252.776 232.042 251.922 231.581 250.994 231.398C250.065 231.215 249.105 231.318 248.234 231.694C247.363 232.071 246.622 232.703 246.104 233.51C245.586 234.318 245.315 235.265 245.326 236.23C245.345 237.506 245.852 238.723 246.74 239.622C247.627 240.521 248.823 241.03 250.073 241.039Z" fill="#9DBBF4"/>
<path d="M265.057 464.016C267.688 464.016 269.821 461.838 269.821 459.151C269.821 456.465 267.688 454.287 265.057 454.287C262.425 454.287 260.292 456.465 260.292 459.151C260.292 461.838 262.425 464.016 265.057 464.016Z" fill="#E5EDFC"/>
<path fill-rule="evenodd" clip-rule="evenodd" d="M169.792 258.426C170.736 258.426 171.658 258.14 172.442 257.605C173.226 257.069 173.836 256.309 174.197 255.419C174.557 254.529 174.65 253.55 174.465 252.605C174.279 251.661 173.824 250.795 173.155 250.115C172.487 249.435 171.636 248.974 170.711 248.788C169.785 248.602 168.827 248.701 167.956 249.072C167.086 249.443 166.343 250.07 165.822 250.872C165.3 251.675 165.024 252.617 165.027 253.58C165.032 254.867 165.536 256.099 166.429 257.008C167.323 257.916 168.532 258.426 169.792 258.426Z" fill="#E5EDFC"/>
<path d="M131.002 78.4908C133.634 78.4908 135.767 76.3128 135.767 73.6261C135.767 70.9395 133.634 68.7615 131.002 68.7615C128.37 68.7615 126.237 70.9395 126.237 73.6261C126.237 76.3128 128.37 78.4908 131.002 78.4908Z" fill="#E5EDFC"/>
<path d="M322.889 200.735C325.521 200.735 327.654 198.557 327.654 195.87C327.654 193.184 325.521 191.006 322.889 191.006C320.257 191.006 318.124 193.184 318.124 195.87C318.124 198.557 320.257 200.735 322.889 200.735Z" fill="#E5EDFC"/>
<path fill-rule="evenodd" clip-rule="evenodd" d="M246.866 610.99C250.472 610.985 253.967 612.256 256.758 614.588C259.548 616.92 261.459 620.167 262.167 623.776C262.874 627.386 262.333 631.134 260.637 634.382C258.94 637.63 256.193 640.177 252.862 641.588C249.532 643 245.826 643.188 242.375 642.122C238.924 641.056 235.942 638.801 233.937 635.741C231.932 632.681 231.029 629.007 231.381 625.343C231.733 621.68 233.319 618.255 235.868 615.651C237.311 614.174 239.025 613.001 240.912 612.201C242.799 611.402 244.823 610.99 246.866 610.99ZM253.588 620.035C252.257 618.685 250.564 617.767 248.723 617.396C246.882 617.026 244.975 617.22 243.242 617.953C241.508 618.687 240.026 619.927 238.982 621.519C237.937 623.11 237.377 624.981 237.372 626.897C237.375 628.49 237.762 630.057 238.5 631.461C239.237 632.864 240.302 634.06 241.6 634.944C242.898 635.827 244.389 636.371 245.942 636.526C247.494 636.681 249.06 636.443 250.501 635.833C251.942 635.223 253.214 634.26 254.204 633.029C255.194 631.798 255.871 630.337 256.176 628.775C256.481 627.213 256.405 625.599 255.953 624.074C255.502 622.55 254.689 621.162 253.588 620.035Z" fill="#C74958"/>
<path fill-rule="evenodd" clip-rule="evenodd" d="M222.081 657.953C228.552 657.933 234.753 655.3 239.329 650.628C243.905 645.957 246.484 639.626 246.504 633.019V607.106C246.504 606.522 246.276 605.962 245.872 605.549C245.468 605.136 244.919 604.905 244.348 604.905H199.814C199.242 604.905 198.694 605.136 198.289 605.549C197.885 605.962 197.658 606.522 197.658 607.106V633.093C197.696 639.687 200.284 645.999 204.858 650.655C209.432 655.311 215.622 657.934 222.081 657.953Z" fill="#D55867"/>
<path fill-rule="evenodd" clip-rule="evenodd" d="M238.079 629.967C238.087 632.568 237.689 635.153 236.901 637.625C236.465 638.973 235.926 640.285 235.289 641.546C232.609 646.699 228.27 650.749 223.005 653.014C220.038 654.254 216.861 654.882 213.656 654.864C212.32 654.866 210.987 654.755 209.67 654.531C213.815 657.038 218.598 658.229 223.408 657.952C228.219 657.675 232.84 655.944 236.684 652.977C239.358 650.922 241.59 648.328 243.242 645.357C243.951 644.18 244.557 642.942 245.054 641.657C246.023 638.93 246.519 636.05 246.522 633.149V607.106C246.522 606.522 246.295 605.962 245.89 605.549C245.486 605.136 244.937 604.905 244.366 604.905H238.079V629.967Z" fill="#C74958"/>
<path fill-rule="evenodd" clip-rule="evenodd" d="M200.919 657.953H243.242C244.106 657.948 244.933 657.596 245.543 656.972C246.154 656.349 246.499 655.505 246.504 654.624C246.499 653.742 246.154 652.898 245.543 652.275C244.933 651.651 244.106 651.299 243.242 651.294H200.919C200.056 651.299 199.229 651.651 198.618 652.275C198.008 652.898 197.663 653.742 197.658 654.624C197.663 655.505 198.008 656.349 198.618 656.972C199.229 657.596 200.056 657.948 200.919 657.953Z" fill="#C74958"/>
<path d="M209.597 613.838C209.597 611.52 207.756 609.64 205.485 609.64C203.213 609.64 201.372 611.52 201.372 613.838V628.876C201.372 631.195 203.213 633.075 205.485 633.075C207.756 633.075 209.597 631.195 209.597 628.876V613.838Z" fill="#E66978"/>
<path fill-rule="evenodd" clip-rule="evenodd" d="M201.227 574.163H219.834C220.515 574.158 221.167 573.88 221.648 573.388C222.129 572.897 222.402 572.232 222.407 571.537C222.402 570.842 222.129 570.176 221.648 569.685C221.167 569.193 220.515 568.915 219.834 568.91H194.795C193.017 568.91 191.312 568.189 190.055 566.906C188.798 565.622 188.092 563.881 188.092 562.066C188.096 560.253 188.804 558.515 190.06 557.233C191.316 555.95 193.019 555.227 194.795 555.223H259.929C261.704 555.232 263.403 555.956 264.659 557.238C265.914 558.519 266.623 560.254 266.633 562.066C266.628 563.88 265.92 565.618 264.664 566.9C263.408 568.183 261.705 568.905 259.929 568.91H237.209C236.528 568.915 235.877 569.193 235.395 569.685C234.914 570.176 234.641 570.842 234.636 571.537C234.641 572.232 234.914 572.897 235.395 573.388C235.877 573.88 236.528 574.158 237.209 574.163H245.942C247.313 574.163 248.628 574.718 249.6 575.706C250.571 576.694 251.119 578.035 251.124 579.435C251.119 580.836 250.571 582.179 249.601 583.17C248.63 584.161 247.315 584.72 245.942 584.725H231.448C228.725 584.73 226.114 585.836 224.189 587.802C222.263 589.768 221.18 592.432 221.175 595.212V600.04C221.17 600.696 220.913 601.323 220.458 601.787C220.004 602.251 219.389 602.514 218.747 602.518C218.103 602.518 217.486 602.257 217.03 601.792C216.575 601.328 216.319 600.697 216.319 600.04V590.884C216.314 589.252 215.677 587.688 214.547 586.534C213.416 585.38 211.885 584.73 210.286 584.725H201.227C199.854 584.72 198.539 584.161 197.568 583.17C196.598 582.179 196.05 580.836 196.045 579.435C196.05 578.035 196.598 576.694 197.569 575.706C198.541 574.718 199.856 574.163 201.227 574.163Z" fill="#AFCAFF"/>
</svg>
