<svg width="579" height="689" viewBox="0 0 579 689" fill="none" xmlns="http://www.w3.org/2000/svg">
<path d="M209.869 460.831C231.034 381.441 163.691 378.265 162.172 275.852C161.564 233.988 183.539 191.17 236.35 171.799C262.275 162.166 288.148 155.55 311.238 140.043C363.897 105.217 372.096 57.5547 386.223 1.02913C417.768 -123.084 529.976 -203.084 652.763 -199.909C741.321 -197.58 821.373 -194.616 902.084 -116.179C957.528 -62.2469 956.932 3.91124 1008.07 59.3253C1062.35 118.021 1073.56 146.178 1147.89 165.178C1218.12 182.803 1294.58 203.974 1348.35 257.535C1398.98 307.762 1391.54 360.319 1369.87 422.031C1345.97 490.041 1397.82 536.352 1451.85 562.868C1497.42 585.15 1557.87 583.192 1579.04 636.595C1601.92 694.444 1533.87 695.396 1470.63 695.396C1407.39 695.396 679.953 690.104 451.038 697.408C389.416 699.313 174.482 698.23 146.734 617.994C127.797 563.321 195.033 516.086 209.869 460.831Z" fill="#F7FAFF"/>
<path opacity="0.7" d="M142.274 511.459C177.095 578.072 244.57 632.569 325.277 662.101" stroke="#5FA3E1" stroke-miterlimit="10"/>
<path opacity="0.7" d="M152.527 529.254C140.162 520.824 131.92 509.021 129.313 496.011C128.798 494.476 128.693 492.867 129.007 491.296C129.321 489.724 130.046 488.227 131.132 486.907C131.821 486.211 132.799 485.748 133.879 485.606C134.742 485.638 135.586 485.832 136.344 486.173C137.102 486.514 137.754 486.993 138.251 487.573C144.286 493.156 146.414 500.896 147.459 508.318C148.503 515.741 150.477 521.229 152.372 529.254" fill="#8CC0F1"/>
<path opacity="0.7" d="M169.125 551.903C161.907 540.128 160.094 526.618 164.018 513.838C164.296 512.258 164.986 510.747 166.041 509.405C167.096 508.064 168.491 506.925 170.131 506.066C171.078 505.644 172.189 505.542 173.226 505.781C174.011 506.072 174.701 506.511 175.239 507.062C175.777 507.614 176.148 508.261 176.322 508.953C179.185 516.058 177.366 523.83 174.735 531.157C172.104 538.485 171.253 543.846 169.125 551.966" fill="#8CC0F1"/>
<path opacity="0.7" d="M193.539 580.007C184.644 569.07 180.841 555.876 182.822 542.831C182.821 541.204 183.261 539.597 184.111 538.127C184.961 536.656 186.199 535.359 187.735 534.329C188.611 533.821 189.69 533.606 190.753 533.727C191.57 533.946 192.313 534.318 192.925 534.813C193.536 535.309 193.998 535.914 194.274 536.582C198.143 543.37 197.562 551.268 196.015 558.786C194.467 566.304 194.506 571.855 193.539 579.976" fill="#8CC0F1"/>
<path opacity="0.7" d="M221.627 604.369C212.796 593.457 209.009 580.318 210.949 567.319C210.984 565.72 211.442 564.146 212.29 562.706C213.138 561.266 214.357 559.993 215.862 558.976C216.755 558.472 217.844 558.257 218.919 558.374C219.736 558.593 220.479 558.965 221.091 559.46C221.702 559.956 222.164 560.561 222.44 561.229C226.309 568.017 225.728 575.915 224.142 583.433C222.556 590.951 222.633 596.502 221.705 604.654" fill="#8CC0F1"/>
<path opacity="0.7" d="M263.645 632.632C253.392 622.501 247.902 609.696 248.169 596.534C248.013 594.937 248.278 593.332 248.946 591.827C249.613 590.322 250.668 588.952 252.038 587.81C252.858 587.241 253.904 586.936 254.978 586.954C255.821 587.109 256.609 587.422 257.28 587.867C257.951 588.313 258.487 588.88 258.847 589.523C263.606 595.867 263.954 603.829 263.374 611.315C262.794 618.802 263.374 624.448 263.568 632.632" fill="#8CC0F1"/>
<path opacity="0.7" d="M296.608 650.681C286.26 641.152 279.997 629.11 278.772 616.391C278.042 613.276 278.804 610.049 280.9 607.382C281.188 607.062 281.553 606.793 281.972 606.591C282.391 606.389 282.855 606.259 283.337 606.209C284.808 606.209 286.046 607.256 286.974 608.366C291.473 614.812 293.784 622.129 293.668 629.555C294.093 637.041 295.486 642.561 296.608 650.681Z" fill="#8CC0F1"/>
<path opacity="0.7" d="M177.443 561.927C160.868 564.017 143.921 561.35 129.468 554.377C127.597 553.686 125.923 552.683 124.55 551.433C123.178 550.182 122.139 548.711 121.498 547.113C121.224 546.244 121.377 545.321 121.924 544.544C122.509 544.007 123.244 543.594 124.066 543.34C124.887 543.086 125.772 542.998 126.644 543.084C136.123 543.084 145.215 546.764 153.34 551.078C161.464 555.392 168.197 557.771 177.443 561.927Z" fill="#8CC0F1"/>
<path opacity="0.7" d="M197.176 583.179C181.698 588.489 164.449 589.218 148.388 585.241C146.372 584.942 144.454 584.302 142.756 583.363C141.057 582.424 139.615 581.205 138.522 579.785C138.263 579.39 138.103 578.956 138.05 578.51C137.996 578.064 138.052 577.613 138.212 577.184C138.754 575.852 140.65 575.217 142.352 574.837C151.522 572.87 161.465 574.837 170.596 577.374C179.727 579.912 187 580.959 197.176 583.179Z" fill="#8CC0F1"/>
<path opacity="0.7" d="M226.657 607.731C212.781 615.447 196.077 618.988 179.378 617.755C177.326 617.782 175.288 617.464 173.392 616.82C171.495 616.177 169.78 615.221 168.352 614.012C167.653 613.309 167.32 612.409 167.423 611.506C167.655 610.11 169.319 609.19 170.905 608.524C179.417 605.098 189.631 605.352 199.226 606.399C208.821 607.446 216.133 607.224 226.657 607.731Z" fill="#8CC0F1"/>
<path opacity="0.7" d="M267.9 636.216C252.278 641.218 235.026 641.633 219.073 637.39C217.064 637.045 215.164 636.362 213.492 635.385C211.821 634.408 210.415 633.157 209.362 631.712C208.871 630.916 208.774 629.996 209.091 629.143C209.527 628.518 210.136 627.986 210.869 627.589C211.601 627.193 212.437 626.942 213.308 626.859C222.555 625.051 232.421 627.176 241.513 630.031C250.605 632.886 257.763 633.901 267.9 636.375" fill="#8CC0F1"/>
<path opacity="0.7" d="M337.897 652.553C326.678 662.757 311.511 669.479 294.952 671.585C292.966 672.017 290.892 672.108 288.861 671.851C286.83 671.595 284.886 670.996 283.151 670.094C282.265 669.56 281.668 668.763 281.488 667.874C281.541 667.154 281.799 666.454 282.243 665.832C282.687 665.209 283.303 664.681 284.041 664.289C291.276 659.277 301.258 657.533 310.853 656.645C320.448 655.756 327.528 654.075 337.936 652.521" fill="#8CC0F1"/>
<path opacity="0.7" d="M38.6785 665.547C84.9537 657.573 131.171 658.665 173.513 668.734C215.855 678.802 253.107 697.558 282.191 723.452" stroke="#5FA3E1" stroke-miterlimit="10"/>
<path opacity="0.7" d="M58.3531 662.384C46.3429 659.808 32.902 661.008 20.4597 665.767C18.8636 666.199 17.3505 666.903 16.0304 667.828C14.7102 668.754 13.6161 669.878 12.8276 671.118C12.4521 671.812 12.4008 672.556 12.6844 673.195C13.0095 673.637 13.4657 673.996 14.0191 674.247C14.5725 674.498 15.2089 674.634 15.881 674.645C23.1085 675.242 30.7405 672.709 37.7298 669.735C44.719 666.76 50.2852 665.232 58.1007 662.419" fill="#8CC0F1"/>
<path opacity="0.7" d="M84.634 660.3C71.5452 661.982 58.9014 667.536 48.9991 675.954C47.6931 676.882 46.6004 678.011 45.7965 679.263C44.9925 680.515 44.4964 681.861 44.3425 683.207C44.3258 683.946 44.6473 684.62 45.2408 685.09C45.7911 685.388 46.4374 685.559 47.127 685.59C47.8165 685.621 48.5296 685.51 49.208 685.267C56.5852 683.398 62.849 678.537 68.222 673.538C73.595 668.539 78.3421 665.323 84.6316 660.194" fill="#8CC0F1"/>
<path opacity="0.7" d="M117.536 659.987C104.8 660.241 91.9552 664.655 81.34 672.427C79.9676 673.25 78.7694 674.31 77.8284 675.536C76.8874 676.761 76.226 678.122 75.89 679.524C75.7793 680.312 75.9834 681.07 76.4648 681.66C76.9665 682.022 77.5676 682.266 78.2241 682.374C78.8806 682.483 79.576 682.452 80.2596 682.285C87.55 681.248 94.1754 676.812 100.022 672.182C105.868 667.552 110.792 664.661 117.536 659.987Z" fill="#8CC0F1"/>
<path opacity="0.7" d="M149.177 664.857C136.443 665.231 123.594 669.447 112.968 676.738C111.606 677.517 110.419 678.51 109.487 679.65C108.555 680.79 107.901 682.049 107.569 683.342C107.457 684.07 107.66 684.768 108.14 685.308C108.641 685.637 109.241 685.856 109.898 685.948C110.554 686.041 111.249 686.005 111.933 685.843C119.223 684.807 125.855 680.639 131.707 676.3C137.56 671.961 142.519 669.234 149.239 664.849" fill="#8CC0F1"/>
<path opacity="0.7" d="M190.207 673.432C177.328 672.523 163.831 675.802 152.19 682.669C150.73 683.38 149.418 684.338 148.345 685.481C147.271 686.623 146.46 687.921 145.968 689.287C145.747 690.064 145.856 690.844 146.272 691.476C146.731 691.889 147.307 692.192 147.956 692.362C148.605 692.532 149.311 692.565 150.021 692.458C157.496 692.002 164.705 688.193 171.14 683.943C177.575 679.693 182.906 677.391 190.237 673.317" fill="#8CC0F1"/>
<path opacity="0.7" d="M218.009 683.257C205.755 682.281 192.789 684.625 181.067 689.934C178.031 691.018 175.448 692.941 173.852 695.306C173.704 695.611 173.631 695.927 173.638 696.235C173.645 696.544 173.731 696.837 173.892 697.098C174.385 697.927 175.81 698.049 177.075 698.019C184.443 697.379 191.778 695.163 198.306 691.603C205.095 688.34 210.523 686.469 218.103 683.243" fill="#8CC0F1"/>
<path opacity="0.7" d="M96.4716 659.854C92.1169 649.864 83.2692 641.965 71.4314 637.499C70.074 636.809 68.5024 636.38 66.8177 636.24C65.133 636.101 63.3726 636.253 61.6497 636.688C60.7604 636.966 59.9821 637.488 59.4695 638.15C59.2016 638.727 59.1039 639.325 59.1847 639.893C59.2654 640.461 59.5222 640.983 59.9332 641.413C63.3044 646.619 70.338 649.691 77.3548 652.022C84.3717 654.353 89.0819 656.859 96.3743 659.868" fill="#8CC0F1"/>
<path opacity="0.7" d="M121.493 660.326C120.511 649.429 114.995 639.732 105.884 632.889C104.904 631.938 103.667 631.202 102.253 630.727C100.839 630.252 99.278 630.049 97.6691 630.131C97.2411 630.174 96.8148 630.289 96.4151 630.469C96.0154 630.648 95.6504 630.888 95.3412 631.176C94.9481 631.701 94.6947 632.28 94.6017 632.865C94.5087 633.449 94.5787 634.024 94.806 634.541C96.4039 640.434 101.604 644.922 107.063 648.659C112.521 652.396 115.957 655.835 121.493 660.326Z" fill="#8CC0F1"/>
<path opacity="0.7" d="M155.2 664.832C156.917 653.421 153.906 642.462 146.678 633.812C145.928 632.688 144.887 631.741 143.618 631.026C142.349 630.312 140.878 629.845 139.295 629.654C138.425 629.615 137.518 629.855 136.754 630.328C136.238 630.805 135.847 631.361 135.614 631.951C135.38 632.541 135.31 633.148 135.41 633.722C135.553 640.08 139.495 645.612 143.926 650.397C148.357 655.183 150.88 659.354 155.202 664.936" fill="#8CC0F1"/>
<path opacity="0.7" d="M195.517 673.98C194.146 663.007 187.971 653.37 178.04 646.703C176.971 645.766 175.631 645.054 174.107 644.612C172.583 644.17 170.909 644.009 169.191 644.138C168.274 644.265 167.397 644.667 166.742 645.261C166.331 645.799 166.073 646.389 165.99 646.981C165.907 647.573 166.001 648.149 166.265 648.662C168.123 654.572 173.789 658.959 179.601 662.602C185.413 666.245 189.331 669.615 195.387 673.999" fill="#8CC0F1"/>
<path opacity="0.7" d="M221.847 685.014C226.533 673.762 226.865 661.959 222.785 651.613C222.457 650.286 221.81 649.074 220.884 648.052C219.959 647.031 218.776 646.222 217.409 645.676C217.031 645.554 216.618 645.503 216.195 645.527C215.771 645.551 215.345 645.649 214.942 645.816C214.349 646.185 213.845 646.665 213.475 647.213C213.104 647.762 212.877 648.364 212.813 648.968C211.121 655.461 213.104 661.959 215.796 667.803C218.489 673.646 219.529 678.405 221.847 685.014Z" fill="#8CC0F1"/>
<path d="M539.727 670.865C539.972 661.839 539.972 652.802 539.727 643.754C539.238 631.716 537.853 618.944 529.014 609.34C523.351 603.204 511.945 592.1 503.432 588.832C479.397 579.628 462.696 578.094 436.828 583.329C425.545 585.63 408.313 594.901 404.647 607.139C397.274 594.667 362.771 577.594 317.309 598.335C281.054 614.842 292.868 652.357 300.485 660.827C299.4 660.063 298.133 659.491 296.763 659.15C295.393 658.808 293.951 658.704 292.53 658.844C291.108 658.984 289.738 659.365 288.506 659.963C287.274 660.56 286.208 661.362 285.375 662.315C284.543 663.269 283.962 664.354 283.671 665.502C283.379 666.649 283.383 667.834 283.681 668.98C283.98 670.127 284.567 671.21 285.405 672.16C286.243 673.11 287.314 673.907 288.55 674.5C277.221 670.764 265.222 668.567 253.028 667.997C247.024 667.436 240.943 668.076 235.308 669.864C232.529 670.796 230.118 672.339 228.342 674.322C226.567 676.306 225.495 678.652 225.246 681.102C225.246 686.004 236.775 689.806 236.775 689.806C236.775 689.806 187.077 682.336 171.353 690.639C152.777 700.41 163.572 703.145 166.994 703.111L472.513 699.777C478.257 699.777 486.404 698.409 492.188 698.409H541.886C540.269 689.29 539.547 680.079 539.727 670.865Z" fill="#E9F0FB"/>
<path fill-rule="evenodd" clip-rule="evenodd" d="M488.983 128.95C489.365 128.604 489.596 128.117 489.627 127.597C489.658 127.076 489.484 126.565 489.146 126.175C488.807 125.785 488.33 125.548 487.821 125.517C487.311 125.486 486.81 125.663 486.428 126.009C485.45 126.896 484.489 127.858 483.547 128.709C483.244 128.994 483.039 129.371 482.964 129.785C482.889 130.198 482.947 130.626 483.13 131.003C483.264 131.28 483.459 131.521 483.701 131.707C483.942 131.894 484.223 132.02 484.52 132.076C484.818 132.131 485.124 132.115 485.414 132.028C485.705 131.942 485.971 131.787 486.192 131.576C487.098 130.688 488.004 129.726 488.983 128.95ZM663.53 579.675C663.051 579.733 662.61 579.971 662.293 580.343C661.977 580.715 661.808 581.194 661.819 581.687C661.83 582.18 662.021 582.65 662.354 583.007C662.688 583.363 663.139 583.58 663.621 583.615H665.215H667.226H667.516C667.949 583.623 668.372 583.482 668.717 583.214C669.061 582.947 669.307 582.568 669.414 582.139C669.521 581.711 669.483 581.258 669.306 580.854C669.13 580.451 668.824 580.12 668.44 579.916C668.111 579.717 667.735 579.615 667.353 579.62H665.143L663.53 579.675ZM678.767 578.824C678.29 578.919 677.865 579.193 677.577 579.593C677.289 579.992 677.158 580.487 677.21 580.98C677.263 581.474 677.495 581.929 677.86 582.256C678.226 582.583 678.698 582.757 679.184 582.746L680.996 582.561L683.116 582.302C683.501 582.254 683.863 582.087 684.154 581.825C684.445 581.562 684.651 581.216 684.746 580.831C684.84 580.446 684.818 580.042 684.682 579.67C684.546 579.299 684.303 578.978 683.985 578.75C683.586 578.461 683.094 578.336 682.608 578.399L680.579 578.639L678.767 578.824ZM693.878 576.568C693.574 576.63 693.29 576.764 693.047 576.961C692.805 577.157 692.611 577.409 692.483 577.696C692.344 578.027 692.297 578.39 692.346 578.746C692.394 579.103 692.537 579.439 692.759 579.718C692.98 579.998 693.273 580.21 693.604 580.333C693.935 580.456 694.293 580.484 694.639 580.415L695.689 580.267L697.501 579.879L698.389 579.675C698.77 579.565 699.109 579.339 699.36 579.027C699.611 578.714 699.763 578.331 699.794 577.928C699.826 577.526 699.736 577.123 699.536 576.774C699.337 576.424 699.038 576.146 698.679 575.976C698.306 575.865 697.91 575.865 697.537 575.976L696.686 576.161L694.874 576.531L693.878 576.568ZM708.644 572.868C708.373 572.916 708.116 573.023 707.889 573.181C707.663 573.339 707.472 573.545 707.329 573.784C707.187 574.024 707.097 574.292 707.065 574.57C707.033 574.849 707.059 575.131 707.143 575.398C707.227 575.665 707.365 575.91 707.55 576.118C707.734 576.325 707.96 576.49 708.212 576.601C708.464 576.712 708.737 576.766 709.011 576.76C709.286 576.755 709.556 576.689 709.803 576.568L711.361 576.068L713.028 575.513L713.536 575.347C713.832 575.24 714.099 575.061 714.313 574.826C714.528 574.591 714.684 574.306 714.768 573.997C714.855 573.651 714.849 573.288 714.75 572.946C714.652 572.604 714.465 572.295 714.208 572.052C713.952 571.81 713.637 571.642 713.295 571.568C712.953 571.493 712.598 571.514 712.267 571.629L711.814 571.777L710.202 572.313L708.644 572.813V572.868ZM722.921 567.523C722.59 567.67 722.308 567.909 722.106 568.214C721.904 568.519 721.79 568.875 721.779 569.243C721.768 569.577 721.841 569.908 721.99 570.205C722.14 570.502 722.361 570.756 722.633 570.941C722.905 571.126 723.22 571.237 723.546 571.264C723.872 571.29 724.199 571.232 724.497 571.093L725.783 570.519L727.323 569.816L728.048 569.465C728.406 569.269 728.694 568.963 728.873 568.591C729.051 568.218 729.111 567.798 729.043 567.389C728.975 566.98 728.783 566.604 728.494 566.312C728.204 566.021 727.833 565.83 727.432 565.766C727.077 565.722 726.718 565.786 726.399 565.951L725.711 566.265L724.225 566.949L722.921 567.541V567.523ZM736.509 560.55C736.121 560.771 735.818 561.121 735.653 561.543C735.488 561.964 735.47 562.431 735.601 562.864C735.733 563.298 736.007 563.672 736.376 563.924C736.746 564.176 737.19 564.291 737.632 564.249C737.927 564.221 738.212 564.127 738.466 563.971L739.027 563.639L740.422 562.788L741.799 561.937C742.193 561.715 742.499 561.361 742.665 560.935C742.831 560.509 742.847 560.037 742.71 559.6C742.573 559.163 742.292 558.789 741.914 558.54C741.537 558.291 741.086 558.185 740.64 558.238C740.33 558.258 740.03 558.36 739.77 558.533L738.429 559.366L737.089 560.18L736.509 560.531V560.55ZM749.191 551.986C748.835 552.263 748.586 552.66 748.485 553.106C748.385 553.552 748.441 554.02 748.643 554.428C748.846 554.836 749.181 555.16 749.592 555.342C750.004 555.524 750.464 555.554 750.895 555.426C751.128 555.359 751.348 555.253 751.547 555.112L752.38 554.446L753.63 553.465L754.627 552.652C754.921 552.406 755.137 552.077 755.25 551.707C755.362 551.336 755.366 550.94 755.26 550.568C755.153 550.195 754.942 549.863 754.653 549.612C754.363 549.361 754.008 549.202 753.63 549.156C753.117 549.105 752.605 549.257 752.199 549.581L751.239 550.358L750.025 551.338L749.191 551.986ZM760.714 541.905C760.535 542.087 760.392 542.304 760.294 542.542C760.197 542.781 760.146 543.036 760.145 543.295C760.144 543.553 760.193 543.81 760.289 544.049C760.386 544.288 760.527 544.505 760.705 544.689C760.884 544.872 761.096 545.018 761.33 545.118C761.563 545.217 761.814 545.269 762.067 545.27C762.32 545.271 762.571 545.221 762.805 545.123C763.039 545.024 763.253 544.88 763.432 544.698L764.211 543.921L765.316 542.793L766.186 541.887C766.396 541.679 766.553 541.422 766.645 541.139C766.736 540.855 766.759 540.553 766.711 540.259C766.667 539.89 766.52 539.542 766.289 539.255C766.058 538.969 765.752 538.754 765.407 538.638C765.061 538.522 764.691 538.508 764.338 538.599C763.985 538.689 763.665 538.88 763.414 539.149L762.562 540.037L761.494 541.128L760.714 541.905ZM770.951 530.437C770.672 530.85 770.557 531.355 770.63 531.851C770.702 532.347 770.955 532.796 771.339 533.108C771.724 533.421 772.209 533.573 772.699 533.533C773.188 533.494 773.645 533.267 773.977 532.897L774.538 532.176L775.499 530.936L776.386 529.753C776.602 529.458 776.733 529.108 776.764 528.742C776.796 528.376 776.727 528.008 776.565 527.68C776.403 527.351 776.155 527.075 775.848 526.883C775.541 526.69 775.188 526.589 774.828 526.59C774.534 526.597 774.245 526.67 773.982 526.804C773.719 526.938 773.488 527.131 773.306 527.367L772.437 528.532L771.513 529.734L770.951 530.437ZM779.774 517.804C779.574 518.126 779.47 518.502 779.476 518.884C779.481 519.266 779.596 519.638 779.806 519.954C780.015 520.27 780.311 520.517 780.656 520.664C781.002 520.811 781.382 520.852 781.749 520.782C782.016 520.732 782.27 520.625 782.495 520.469C782.72 520.313 782.91 520.111 783.054 519.876L783.362 519.376L784.159 518.044L785.083 516.454C785.287 516.004 785.319 515.493 785.172 515.02C785.025 514.548 784.71 514.149 784.288 513.903C783.867 513.657 783.371 513.581 782.897 513.69C782.424 513.799 782.008 514.086 781.731 514.493L780.862 515.991L780.082 517.286L779.774 517.804ZM787.022 504.19C786.848 504.656 786.852 505.172 787.035 505.635C787.217 506.098 787.564 506.473 788.006 506.686C788.448 506.898 788.952 506.933 789.418 506.782C789.884 506.632 790.277 506.307 790.518 505.874L791.261 504.227L791.895 502.803L792.149 502.23C792.319 501.823 792.351 501.369 792.24 500.942C792.128 500.514 791.879 500.137 791.533 499.871C791.186 499.604 790.763 499.464 790.329 499.473C789.896 499.481 789.477 499.638 789.141 499.918C788.91 500.121 788.725 500.374 788.598 500.658L788.362 501.212L787.764 502.6L787.022 504.19ZM792.765 489.819C792.638 490.224 792.642 490.66 792.777 491.063C792.912 491.466 793.17 491.813 793.514 492.054C793.858 492.295 794.268 492.417 794.685 492.4C795.102 492.384 795.502 492.231 795.827 491.964C796.099 491.727 796.306 491.421 796.425 491.076L796.878 489.689L797.349 488.209L797.639 487.285C797.711 486.82 797.617 486.345 797.375 485.946C797.133 485.546 796.758 485.248 796.319 485.107C795.88 484.966 795.406 484.991 794.983 485.176C794.56 485.362 794.217 485.697 794.015 486.119L793.743 487.007L793.272 488.45L792.819 489.819H792.765ZM796.932 474.873C796.822 475.3 796.854 475.753 797.024 476.159C797.195 476.565 797.494 476.901 797.873 477.114C798.252 477.326 798.69 477.403 799.117 477.333C799.544 477.262 799.936 477.047 800.23 476.723C800.47 476.467 800.634 476.146 800.701 475.798L800.954 474.651L801.28 473.116L801.516 471.914C801.607 471.483 801.553 471.033 801.362 470.638C801.172 470.242 800.857 469.923 800.467 469.733C800.078 469.543 799.637 469.492 799.216 469.589C798.795 469.686 798.418 469.925 798.146 470.268C797.934 470.514 797.79 470.815 797.729 471.137L797.494 472.302L797.186 473.8L796.932 474.947V474.873ZM799.541 459.558C799.481 460.076 799.625 460.596 799.941 461.006C800.257 461.415 800.719 461.679 801.226 461.741C801.733 461.802 802.243 461.655 802.644 461.333C803.045 461.01 803.304 460.538 803.364 460.021L803.491 459.022L803.654 457.449L803.781 456.062C803.824 455.646 803.735 455.227 803.528 454.866C803.321 454.504 803.006 454.22 802.63 454.055C802.253 453.89 801.835 453.852 801.435 453.947C801.036 454.042 800.677 454.264 800.411 454.582C800.149 454.896 799.985 455.283 799.94 455.692L799.813 457.043L799.65 458.578L799.541 459.558ZM800.592 444.058C800.592 444.578 800.794 445.077 801.154 445.444C801.515 445.812 802.003 446.019 802.512 446.019C803.022 446.019 803.51 445.812 803.87 445.444C804.231 445.077 804.433 444.578 804.433 444.058V440.081C804.459 439.806 804.428 439.529 804.343 439.267C804.258 439.005 804.12 438.764 803.939 438.56C803.757 438.355 803.535 438.192 803.288 438.08C803.041 437.969 802.774 437.911 802.503 437.911C802.233 437.911 801.966 437.969 801.718 438.08C801.471 438.192 801.25 438.355 801.068 438.56C800.886 438.764 800.748 439.005 800.663 439.267C800.578 439.529 800.548 439.806 800.574 440.081V443.984L800.592 444.058ZM800.103 428.521C800.148 429.041 800.394 429.521 800.787 429.856C801.179 430.19 801.686 430.352 802.195 430.306C802.705 430.259 803.175 430.008 803.503 429.607C803.831 429.207 803.989 428.689 803.944 428.169V427.226L803.799 425.617L803.654 424.211C803.561 423.724 803.292 423.29 802.901 422.996C802.51 422.702 802.025 422.568 801.542 422.621C801.059 422.675 800.613 422.912 800.293 423.285C799.972 423.658 799.801 424.14 799.813 424.636L799.958 426.005L800.103 427.559V428.521ZM798.11 413.095C798.164 413.404 798.292 413.695 798.481 413.944C798.671 414.192 798.916 414.389 799.197 414.519C799.517 414.672 799.873 414.732 800.225 414.691C800.577 414.651 800.911 414.512 801.19 414.29C801.469 414.068 801.683 413.771 801.808 413.433C801.932 413.095 801.963 412.728 801.896 412.373L801.697 411.263L801.389 409.691L801.154 408.47C801.12 408.2 801.032 407.94 800.895 407.706C800.758 407.471 800.575 407.269 800.358 407.11C800.141 406.952 799.894 406.841 799.632 406.784C799.371 406.728 799.101 406.727 798.84 406.782C798.578 406.837 798.331 406.946 798.112 407.103C797.894 407.261 797.71 407.462 797.572 407.695C797.434 407.929 797.344 408.189 797.309 408.459C797.274 408.729 797.293 409.004 797.367 409.266L797.621 410.45L797.91 412.003L798.11 413.095ZM794.631 397.964C794.749 398.364 794.988 398.715 795.314 398.967C795.639 399.22 796.034 399.361 796.443 399.37C796.741 399.366 797.034 399.291 797.299 399.152C797.564 399.012 797.794 398.811 797.969 398.566C798.145 398.32 798.263 398.035 798.312 397.735C798.362 397.435 798.342 397.127 798.255 396.836L797.874 395.504L797.421 393.932L797.131 393.026C797.003 392.602 796.738 392.236 796.38 391.986C796.021 391.736 795.59 391.618 795.157 391.65C794.724 391.682 794.315 391.863 793.995 392.163C793.676 392.463 793.466 392.865 793.399 393.303C793.317 393.606 793.317 393.925 793.399 394.228L793.653 395.097L794.106 396.614L794.486 397.964H794.631ZM789.703 383.167C789.797 383.41 789.937 383.632 790.115 383.819C790.293 384.007 790.505 384.157 790.74 384.261C790.974 384.365 791.227 384.421 791.483 384.425C791.738 384.429 791.993 384.382 792.23 384.286C792.468 384.19 792.685 384.047 792.869 383.866C793.053 383.684 793.2 383.467 793.302 383.228C793.404 382.988 793.458 382.73 793.463 382.469C793.467 382.208 793.421 381.949 793.327 381.706L792.638 379.986L792.022 378.469L791.823 378.025C791.619 377.547 791.237 377.171 790.761 376.98C790.285 376.789 789.755 376.799 789.286 377.008C788.818 377.216 788.45 377.606 788.263 378.092C788.076 378.577 788.086 379.119 788.29 379.597L788.471 380.004L789.069 381.484L789.739 383.167H789.703ZM783.38 369.036C783.59 369.413 783.915 369.709 784.307 369.879C784.698 370.048 785.132 370.082 785.544 369.975C785.956 369.868 786.322 369.626 786.585 369.285C786.849 368.945 786.996 368.526 787.003 368.092C786.987 367.783 786.907 367.48 786.768 367.204L786.406 366.483L785.645 365.003L784.938 363.69C784.726 363.309 784.395 363.011 783.999 362.842C783.602 362.673 783.162 362.644 782.748 362.758C782.333 362.872 781.967 363.124 781.708 363.473C781.448 363.823 781.31 364.25 781.314 364.689C781.321 365.008 781.408 365.321 781.568 365.595L782.238 366.89L782.999 368.314L783.362 369.036H783.38ZM775.698 355.626C775.897 355.922 776.169 356.159 776.488 356.312C776.806 356.465 777.159 356.528 777.51 356.495C777.842 356.46 778.161 356.338 778.434 356.141C778.707 355.943 778.925 355.677 779.067 355.368C779.209 355.059 779.271 354.717 779.245 354.377C779.22 354.036 779.109 353.708 778.923 353.424L778.035 352.074L777.111 350.668L776.749 350.132C776.533 349.811 776.228 349.563 775.872 349.421C775.517 349.279 775.128 349.25 774.756 349.337C774.445 349.405 774.156 349.551 773.915 349.762C773.673 349.973 773.486 350.242 773.371 350.544C773.256 350.846 773.217 351.173 773.256 351.495C773.295 351.817 773.412 352.124 773.596 352.389L773.922 352.888L774.828 354.257L775.716 355.626H775.698ZM766.73 343.048C767.001 343.384 767.374 343.619 767.79 343.717C768.207 343.814 768.643 343.769 769.031 343.587C769.419 343.406 769.738 343.099 769.938 342.714C770.137 342.329 770.207 341.887 770.136 341.457C770.072 341.125 769.929 340.813 769.719 340.551L769.085 339.737L767.998 338.424L767.237 337.48C766.892 337.125 766.428 336.915 765.938 336.895C765.448 336.875 764.969 337.045 764.597 337.371C764.224 337.697 763.987 338.154 763.932 338.652C763.878 339.149 764.01 339.649 764.302 340.051L765.045 340.939L766.095 342.234L766.73 343.048ZM756.584 331.45C756.883 331.747 757.268 331.938 757.682 331.993C758.095 332.049 758.516 331.966 758.88 331.759C759.244 331.551 759.533 331.229 759.704 330.84C759.874 330.451 759.917 330.017 759.827 329.601C759.745 329.246 759.562 328.925 759.301 328.676L758.812 328.14L757.58 326.9L756.529 325.865C756.227 325.584 755.847 325.408 755.441 325.361C755.035 325.314 754.625 325.399 754.27 325.604C753.915 325.809 753.632 326.124 753.461 326.503C753.291 326.881 753.243 327.305 753.322 327.714C753.413 328.08 753.601 328.413 753.866 328.676L754.881 329.675L756.076 330.896L756.584 331.414V331.45ZM745.35 320.944C745.646 321.189 746.005 321.339 746.383 321.377C746.761 321.414 747.141 321.338 747.477 321.156C747.813 320.975 748.089 320.697 748.272 320.357C748.454 320.017 748.534 319.629 748.503 319.243C748.449 318.716 748.195 318.231 747.796 317.892L747.217 317.393L745.84 316.265L744.771 315.395C744.369 315.072 743.859 314.924 743.351 314.985C742.843 315.045 742.379 315.31 742.062 315.719C741.745 316.129 741.6 316.65 741.66 317.169C741.719 317.687 741.978 318.161 742.379 318.484L743.43 319.335L744.753 320.445L745.35 320.944ZM733.175 311.604C733.504 311.839 733.897 311.966 734.299 311.966C734.701 311.966 735.093 311.839 735.422 311.604C735.666 311.414 735.863 311.167 735.995 310.883C736.126 310.6 736.189 310.288 736.179 309.975C736.168 309.661 736.084 309.355 735.933 309.082C735.783 308.808 735.57 308.576 735.313 308.404L734.28 307.682L732.759 306.665L732.07 306.203C731.715 305.981 731.301 305.883 730.887 305.92C730.473 305.958 730.082 306.131 729.772 306.412C729.461 306.694 729.247 307.07 729.162 307.485C729.077 307.901 729.125 308.333 729.298 308.718C729.44 309.051 729.681 309.329 729.987 309.513L730.657 309.957L732.143 310.956L733.175 311.678V311.604ZM720.167 303.447C720.389 303.596 720.64 303.696 720.903 303.742C721.165 303.787 721.435 303.776 721.693 303.709C721.951 303.642 722.193 303.521 722.403 303.354C722.613 303.186 722.787 302.976 722.913 302.737C723.039 302.497 723.115 302.233 723.136 301.962C723.157 301.691 723.122 301.418 723.034 301.161C722.947 300.905 722.807 300.669 722.625 300.47C722.444 300.272 722.223 300.113 721.978 300.006L721.616 299.803L719.967 298.878L718.536 298.12C718.178 297.926 717.769 297.852 717.368 297.91C716.967 297.968 716.594 298.154 716.302 298.441C716.011 298.728 715.815 299.103 715.745 299.51C715.674 299.917 715.732 300.337 715.909 300.709C716.081 301.103 716.382 301.424 716.76 301.615L718.137 302.355L719.75 303.243L720.112 303.447H720.167ZM706.56 296.621C706.798 296.726 707.054 296.781 707.313 296.785C707.572 296.788 707.829 296.74 708.069 296.642C708.31 296.544 708.529 296.399 708.715 296.214C708.9 296.03 709.049 295.81 709.151 295.567C709.253 295.324 709.308 295.063 709.311 294.799C709.315 294.534 709.267 294.272 709.171 294.026C709.075 293.781 708.933 293.557 708.752 293.367C708.572 293.178 708.356 293.026 708.118 292.922L706.306 292.108L704.495 291.35C704.014 291.149 703.475 291.151 702.996 291.355C702.517 291.56 702.137 291.951 701.94 292.441C701.743 292.932 701.745 293.482 701.945 293.971C702.146 294.46 702.529 294.848 703.009 295.049L704.712 295.771L706.524 296.584L706.56 296.621ZM692.356 290.924C692.598 291.028 692.858 291.079 693.121 291.076C693.383 291.073 693.642 291.014 693.882 290.905C694.121 290.795 694.337 290.637 694.514 290.439C694.691 290.241 694.826 290.008 694.912 289.755C694.998 289.502 695.032 289.233 695.012 288.966C694.991 288.699 694.918 288.438 694.796 288.201C694.673 287.964 694.504 287.755 694.3 287.587C694.095 287.419 693.859 287.296 693.606 287.225L693.334 287.114L689.928 285.949C689.567 285.834 689.18 285.83 688.817 285.936C688.453 286.043 688.128 286.256 687.881 286.549C687.635 286.842 687.478 287.202 687.429 287.585C687.381 287.968 687.443 288.357 687.609 288.705C687.716 288.943 687.872 289.155 688.065 289.328C688.259 289.5 688.486 289.628 688.732 289.704L692.084 290.85H692.356V290.924ZM677.572 286.171C677.823 286.302 678.101 286.374 678.383 286.383C678.666 286.392 678.947 286.337 679.206 286.223C679.466 286.108 679.697 285.936 679.884 285.719C680.071 285.503 680.209 285.247 680.287 284.97C680.366 284.692 680.384 284.401 680.339 284.116C680.295 283.831 680.19 283.559 680.031 283.321C679.872 283.082 679.663 282.882 679.419 282.735C679.176 282.589 678.904 282.498 678.622 282.471L674.89 281.399C674.649 281.325 674.396 281.304 674.146 281.335C673.897 281.367 673.656 281.452 673.441 281.584C673.107 281.773 672.835 282.061 672.662 282.408C672.489 282.756 672.421 283.149 672.468 283.537C672.515 283.924 672.674 284.288 672.924 284.583C673.175 284.878 673.506 285.089 673.875 285.19L677.499 286.245L677.572 286.171ZM662.733 282.212C663.16 282.356 663.622 282.343 664.04 282.175C664.458 282.006 664.805 281.694 665.021 281.291C665.236 280.888 665.307 280.421 665.22 279.971C665.133 279.521 664.894 279.116 664.545 278.828C664.31 278.607 664.023 278.454 663.711 278.384C662.497 278.162 661.157 277.773 659.943 277.477C659.561 277.389 659.162 277.422 658.798 277.57C658.434 277.718 658.123 277.976 657.905 278.308C657.687 278.64 657.573 279.032 657.578 279.432C657.583 279.832 657.706 280.221 657.932 280.548C658.209 280.938 658.614 281.213 659.073 281.325C660.287 281.602 661.628 281.991 662.824 282.212H662.733ZM647.731 278.865C648.197 278.912 648.663 278.784 649.042 278.506C649.422 278.227 649.689 277.817 649.794 277.352C649.898 276.887 649.833 276.398 649.61 275.979C649.387 275.559 649.022 275.237 648.583 275.073L644.778 274.333C644.36 274.248 643.927 274.308 643.546 274.502C643.165 274.696 642.858 275.014 642.673 275.406C642.488 275.798 642.437 276.241 642.526 276.666C642.615 277.092 642.84 277.474 643.166 277.755C643.422 277.975 643.726 278.127 644.053 278.199L647.84 278.939L647.731 278.865ZM632.603 276.072C633.01 276.134 633.426 276.063 633.79 275.868C634.155 275.673 634.449 275.365 634.631 274.988C634.812 274.611 634.872 274.185 634.8 273.771C634.729 273.357 634.53 272.978 634.234 272.687C633.961 272.418 633.612 272.243 633.237 272.187L629.414 271.558C628.934 271.379 628.403 271.403 627.939 271.623C627.476 271.843 627.117 272.242 626.941 272.733C626.766 273.224 626.788 273.765 627.004 274.239C627.22 274.712 627.611 275.079 628.092 275.258C628.309 275.407 628.557 275.502 628.816 275.535L632.603 276.164V276.072ZM617.402 273.741C617.78 273.798 618.166 273.74 618.511 273.572C618.855 273.405 619.143 273.136 619.338 272.8C619.532 272.465 619.624 272.078 619.602 271.688C619.58 271.299 619.445 270.925 619.214 270.615C619.066 270.4 618.875 270.219 618.653 270.085C618.431 269.951 618.184 269.867 617.927 269.838L614.105 269.32C613.682 269.26 613.252 269.345 612.882 269.562C612.512 269.778 612.224 270.115 612.062 270.517C611.9 270.92 611.874 271.367 611.988 271.786C612.102 272.206 612.349 272.575 612.691 272.835C612.953 273.047 613.266 273.181 613.597 273.223L617.42 273.741H617.402ZM602.129 271.891C602.392 271.944 602.663 271.94 602.925 271.879C603.187 271.819 603.433 271.704 603.649 271.542C603.865 271.379 604.046 271.173 604.18 270.935C604.313 270.698 604.397 270.434 604.426 270.162C604.455 269.89 604.428 269.614 604.348 269.353C604.267 269.092 604.134 268.851 603.957 268.645C603.78 268.439 603.564 268.272 603.321 268.156C603.078 268.04 602.814 267.977 602.545 267.97L598.704 267.563C598.297 267.526 597.889 267.622 597.538 267.836C597.188 268.051 596.912 268.373 596.751 268.756C596.591 269.14 596.553 269.566 596.643 269.972C596.734 270.379 596.948 270.747 597.255 271.022C597.55 271.281 597.918 271.437 598.306 271.466L602.129 271.891ZM586.819 270.356C587.23 270.39 587.641 270.29 587.992 270.069C588.343 269.849 588.616 269.52 588.772 269.13C588.927 268.741 588.957 268.31 588.857 267.902C588.757 267.494 588.531 267.129 588.214 266.86C587.91 266.621 587.546 266.473 587.163 266.435L583.304 266.102C583.052 266.08 582.798 266.109 582.557 266.187C582.316 266.266 582.092 266.392 581.898 266.558C581.705 266.725 581.546 266.929 581.429 267.158C581.313 267.388 581.242 267.639 581.221 267.896C581.199 268.154 581.228 268.413 581.304 268.659C581.381 268.905 581.505 269.134 581.668 269.331C581.831 269.529 582.031 269.692 582.256 269.81C582.48 269.929 582.726 270.001 582.978 270.023L586.819 270.356ZM571.401 268.95C571.889 268.968 572.365 268.797 572.735 268.471C573.104 268.146 573.34 267.69 573.395 267.195C573.45 266.7 573.32 266.202 573.031 265.8C572.742 265.399 572.315 265.123 571.836 265.029L568.013 264.604C567.667 264.563 567.317 264.616 566.999 264.759C566.68 264.903 566.405 265.13 566.201 265.418C566.011 265.698 565.896 266.023 565.866 266.362C565.835 266.701 565.891 267.042 566.028 267.353C566.164 267.663 566.377 267.933 566.646 268.135C566.914 268.337 567.229 268.465 567.56 268.506L571.401 268.95ZM556.182 266.916C556.529 266.938 556.876 266.864 557.186 266.702C557.496 266.539 557.757 266.295 557.942 265.994C558.128 265.693 558.23 265.347 558.239 264.992C558.248 264.636 558.163 264.285 557.994 263.975C557.854 263.717 557.657 263.497 557.417 263.333C557.178 263.169 556.903 263.066 556.617 263.032L552.848 262.403C552.599 262.358 552.345 262.363 552.098 262.419C551.851 262.474 551.618 262.579 551.411 262.727C551.204 262.874 551.028 263.062 550.892 263.28C550.756 263.497 550.664 263.739 550.62 263.993C550.576 264.247 550.581 264.507 550.635 264.759C550.69 265.011 550.792 265.249 550.937 265.46C551.082 265.672 551.266 265.852 551.479 265.99C551.692 266.129 551.929 266.223 552.178 266.268C553.446 266.509 554.732 266.712 556.019 266.916H556.182ZM540.818 263.975C541.205 264.038 541.602 263.979 541.956 263.807C542.31 263.635 542.605 263.357 542.801 263.011C542.998 262.664 543.086 262.265 543.056 261.866C543.025 261.466 542.876 261.086 542.63 260.775C542.353 260.444 541.977 260.216 541.561 260.128L537.828 259.258C537.458 259.166 537.069 259.189 536.711 259.324C536.353 259.459 536.043 259.699 535.819 260.015C535.596 260.33 535.469 260.706 535.456 261.095C535.443 261.484 535.543 261.869 535.745 262.199C536.014 262.643 536.444 262.962 536.941 263.087L540.745 263.975H540.818ZM525.726 260.017C526.12 260.143 526.543 260.136 526.933 259.997C527.323 259.859 527.658 259.596 527.89 259.247C528.122 258.898 528.237 258.482 528.22 258.061C528.202 257.64 528.051 257.236 527.791 256.909C527.54 256.598 527.207 256.367 526.831 256.243C525.617 255.892 524.403 255.503 523.207 255.115C522.962 254.999 522.695 254.937 522.424 254.934C522.153 254.93 521.885 254.986 521.636 255.096C521.388 255.206 521.165 255.368 520.983 255.572C520.8 255.776 520.662 256.017 520.577 256.28C520.492 256.542 520.463 256.82 520.49 257.095C520.518 257.37 520.602 257.636 520.738 257.875C520.873 258.115 521.057 258.322 521.276 258.484C521.496 258.646 521.746 258.758 522.011 258.814C523.262 259.221 524.494 259.61 525.744 259.98L525.726 260.017ZM510.978 254.837C511.33 254.977 511.714 255.009 512.084 254.93C512.453 254.851 512.793 254.665 513.061 254.394C513.288 254.164 513.456 253.88 513.548 253.567C513.64 253.255 513.655 252.923 513.59 252.604C513.525 252.284 513.383 251.986 513.177 251.737C512.971 251.487 512.707 251.294 512.409 251.175L508.894 249.695C508.49 249.509 508.034 249.472 507.606 249.59C507.177 249.708 506.802 249.973 506.544 250.342C506.286 250.71 506.16 251.158 506.189 251.61C506.218 252.062 506.399 252.49 506.702 252.821C506.893 253.024 507.12 253.188 507.372 253.302C508.568 253.839 509.764 254.338 510.996 254.837H510.978ZM496.791 248.105C497.071 248.254 497.382 248.332 497.697 248.332C498.013 248.332 498.324 248.254 498.603 248.105C498.924 247.948 499.197 247.705 499.391 247.401C499.585 247.097 499.694 246.744 499.705 246.381C499.716 246.019 499.63 245.66 499.455 245.344C499.279 245.028 499.022 244.767 498.712 244.59C497.589 243.974 496.483 243.357 495.396 242.741C495.145 242.578 494.858 242.481 494.561 242.458C494.264 242.436 493.966 242.488 493.693 242.611C493.359 242.748 493.069 242.977 492.857 243.274C492.644 243.57 492.518 243.921 492.491 244.288C492.465 244.654 492.54 245.02 492.707 245.345C492.875 245.67 493.129 245.941 493.44 246.126C494.563 246.791 495.704 247.457 496.864 248.086L496.791 248.105ZM483.529 239.504C483.857 239.764 484.258 239.909 484.673 239.916C485.088 239.924 485.494 239.794 485.831 239.546C486.168 239.298 486.417 238.946 486.541 238.541C486.665 238.137 486.657 237.702 486.519 237.303C486.396 236.93 486.169 236.602 485.866 236.359C484.852 235.601 483.855 234.806 482.877 233.992C482.483 233.661 481.976 233.503 481.468 233.553C480.96 233.604 480.493 233.858 480.168 234.26C479.844 234.662 479.689 235.18 479.739 235.698C479.788 236.217 480.037 236.694 480.431 237.025C481.464 237.876 482.478 238.708 483.529 239.504ZM471.825 228.831C472.113 229.145 472.493 229.354 472.908 229.427C473.323 229.501 473.75 229.434 474.125 229.238C474.499 229.041 474.801 228.726 474.984 228.339C475.167 227.952 475.222 227.514 475.141 227.093C475.076 226.753 474.919 226.439 474.688 226.186C473.836 225.243 473.039 224.337 472.242 223.282C472.09 223.056 471.894 222.864 471.666 222.718C471.438 222.573 471.183 222.478 470.917 222.439C470.651 222.4 470.38 222.417 470.121 222.491C469.862 222.564 469.621 222.692 469.413 222.866C469.205 223.04 469.034 223.256 468.912 223.5C468.79 223.745 468.72 224.013 468.705 224.287C468.69 224.561 468.73 224.835 468.825 225.092C468.919 225.349 469.065 225.583 469.252 225.779C470.086 226.815 470.937 227.832 471.825 228.831ZM462.549 215.717C462.645 215.982 462.796 216.222 462.991 216.422C463.186 216.623 463.421 216.778 463.679 216.878C463.938 216.978 464.215 217.02 464.491 217.002C464.767 216.984 465.036 216.905 465.28 216.772C465.524 216.639 465.737 216.454 465.905 216.23C466.073 216.006 466.192 215.747 466.254 215.472C466.317 215.197 466.32 214.911 466.266 214.635C466.211 214.358 466.099 214.096 465.937 213.867C465.321 212.739 464.759 211.629 464.215 210.464C463.997 209.993 463.604 209.63 463.123 209.455C462.642 209.28 462.113 209.307 461.652 209.53C461.19 209.753 460.835 210.154 460.663 210.645C460.492 211.136 460.518 211.676 460.737 212.147C461.298 213.368 461.914 214.57 462.549 215.847V215.717ZM456.697 200.642C456.762 200.957 456.907 201.249 457.117 201.489C457.326 201.729 457.594 201.909 457.892 202.011C458.221 202.134 458.576 202.164 458.92 202.098C459.264 202.031 459.584 201.871 459.846 201.634C460.108 201.397 460.302 201.092 460.408 200.751C460.514 200.411 460.527 200.047 460.447 199.699C460.139 198.46 459.867 197.239 459.65 196C459.578 195.558 459.36 195.154 459.032 194.856C458.704 194.558 458.286 194.383 457.848 194.362C457.409 194.34 456.977 194.472 456.622 194.737C456.268 195.001 456.012 195.382 455.899 195.815C455.826 196.1 455.826 196.399 455.899 196.684C456.135 198.016 456.407 199.348 456.733 200.661L456.697 200.642ZM454.885 184.513C454.858 184.962 454.984 185.407 455.24 185.772C455.496 186.138 455.868 186.403 456.293 186.522C456.717 186.641 457.169 186.608 457.572 186.427C457.976 186.247 458.306 185.93 458.508 185.531C458.658 185.246 458.739 184.929 458.744 184.606C458.744 183.348 458.834 182.072 458.943 180.907C459.022 180.44 458.934 179.96 458.694 179.555C458.453 179.151 458.078 178.848 457.636 178.704C457.195 178.56 456.717 178.583 456.291 178.77C455.865 178.958 455.52 179.296 455.32 179.723C455.165 179.974 455.072 180.259 455.048 180.555C454.939 181.887 454.867 183.256 454.849 184.606L454.885 184.513ZM457.421 168.477C457.286 168.891 457.286 169.339 457.421 169.753C457.553 170.136 457.798 170.468 458.123 170.703C458.447 170.937 458.835 171.063 459.233 171.063C459.631 171.063 460.019 170.937 460.343 170.703C460.668 170.468 460.913 170.136 461.045 169.753C461.386 168.499 461.792 167.265 462.259 166.054C462.35 165.811 462.394 165.552 462.388 165.292C462.381 165.031 462.325 164.775 462.221 164.537C462.118 164.299 461.969 164.085 461.785 163.905C461.6 163.726 461.382 163.585 461.144 163.492C460.907 163.398 460.653 163.354 460.398 163.36C460.143 163.367 459.892 163.425 459.659 163.53C459.426 163.636 459.216 163.787 459.04 163.976C458.864 164.164 458.727 164.387 458.635 164.629C458.164 165.887 457.729 167.201 457.349 168.477H457.421ZM463.835 153.679C463.708 153.903 463.625 154.15 463.591 154.406C463.557 154.662 463.573 154.923 463.638 155.173C463.703 155.423 463.815 155.657 463.968 155.863C464.122 156.068 464.314 156.241 464.532 156.371C464.751 156.501 464.993 156.585 465.244 156.62C465.495 156.654 465.75 156.638 465.995 156.572C466.24 156.506 466.469 156.391 466.671 156.235C466.872 156.078 467.041 155.882 467.169 155.659C467.803 154.549 468.455 153.458 469.125 152.366C469.348 152.016 469.454 151.602 469.428 151.186C469.401 150.769 469.245 150.373 468.98 150.054C468.788 149.816 468.544 149.627 468.266 149.503C467.989 149.38 467.687 149.325 467.385 149.343C467.083 149.361 466.79 149.451 466.529 149.607C466.267 149.763 466.046 149.979 465.882 150.239C465.176 151.386 464.487 152.533 463.835 153.679ZM472.84 140.454C472.603 140.753 472.457 141.116 472.419 141.498C472.381 141.88 472.453 142.266 472.626 142.607C472.799 142.948 473.065 143.231 473.393 143.42C473.72 143.609 474.095 143.697 474.47 143.673C474.732 143.651 474.988 143.576 475.221 143.452C475.454 143.328 475.661 143.158 475.829 142.951C476.626 141.953 477.441 140.972 478.275 139.992C478.561 139.665 478.732 139.25 478.76 138.813C478.788 138.376 478.672 137.942 478.43 137.58C478.188 137.218 477.834 136.949 477.425 136.816C477.016 136.684 476.575 136.695 476.173 136.848C475.87 136.969 475.597 137.158 475.376 137.402C474.524 138.401 473.673 139.419 472.84 140.454Z" fill="#E5EDFC"/>
<path fill-rule="evenodd" clip-rule="evenodd" d="M507.101 292.256C507.282 291.981 507.561 291.788 507.879 291.719C508.197 291.65 508.528 291.71 508.804 291.886C508.939 291.974 509.055 292.089 509.146 292.223C509.238 292.358 509.302 292.509 509.336 292.669C509.369 292.829 509.372 292.994 509.343 293.155C509.313 293.316 509.253 293.469 509.166 293.606C509.039 293.828 460.592 370.682 498.857 415.481C498.974 415.607 499.065 415.757 499.123 415.921C499.18 416.086 499.204 416.26 499.192 416.434C499.18 416.608 499.133 416.777 499.053 416.932C498.974 417.086 498.864 417.222 498.73 417.33C498.61 417.439 498.471 417.523 498.319 417.576C498.167 417.629 498.007 417.651 497.847 417.641C497.687 417.631 497.53 417.588 497.387 417.516C497.243 417.443 497.114 417.343 497.009 417.219C457.53 370.904 506.974 292.497 507.101 292.256Z" fill="#121A4F"/>
<path fill-rule="evenodd" clip-rule="evenodd" d="M514.946 240.373L494.581 263.272C500.846 275.895 503.876 289.933 503.386 304.076C502.408 327.233 425.951 455.563 567.216 454.897C708.481 454.231 629.867 379.838 629.867 379.838C629.867 379.838 676.466 364.449 652.931 295.567C629.396 226.686 514.946 240.373 514.946 240.373Z" fill="#121A4F"/>
<path fill-rule="evenodd" clip-rule="evenodd" d="M631.117 381.132C630.302 380.3 629.813 379.838 629.813 379.838C631.269 379.33 632.686 378.711 634.052 377.988C638.483 372.891 642.518 367.449 646.119 361.711C665.378 331.136 644.887 289.093 644.887 289.093L634.016 285.782C634.016 285.782 612.275 277.847 606.477 275.85C600.679 273.852 533.263 278.162 514.076 314.878C494.889 351.593 516.25 404.827 516.25 404.827C516.25 404.827 595.715 402.2 600.244 401.867C603.651 401.571 616.714 396.374 631.117 381.132Z" fill="#0B1345"/>
<path fill-rule="evenodd" clip-rule="evenodd" d="M535.654 400.535L513.623 389.031C513.623 389.031 490.341 394.949 478.438 410.228C466.535 425.506 430.48 556.111 429.121 572.073C427.762 588.036 438.361 648.927 457.747 648.927C477.134 648.927 486.736 515.843 486.736 515.843L502.571 465.902L535.654 400.535Z" fill="#FFE1BF"/>
<path fill-rule="evenodd" clip-rule="evenodd" d="M535.654 400.535L513.623 389.031C508.068 390.582 502.679 392.695 497.534 395.338C500.397 396.744 502.625 400.35 502.372 408.286C501.683 429.113 470.557 508.648 463.744 530.881C456.932 553.114 451.497 566.321 451.497 566.321L437.329 535.949C436.042 540.851 434.883 545.456 433.85 549.637C439.14 578.824 445.753 618.832 446.641 641.694C449.92 646.152 453.635 648.889 457.747 648.889C477.134 648.889 486.736 515.806 486.736 515.806L502.571 465.865L535.654 400.535Z" fill="#FFE1BF"/>
<path fill-rule="evenodd" clip-rule="evenodd" d="M594.03 371.847C594.03 371.847 652.569 393.137 669.111 401.164C669.111 401.164 665.94 404.531 662.389 422.861C658.838 441.191 662.389 468.011 658.657 494.406C655.939 513.476 643.293 609.973 636.48 662.041L492.19 650.166C492.19 647.854 492.063 645.061 491.918 641.898C503.767 651.313 515.127 651.738 508.097 624.215C495.849 576.29 498.241 492.889 502.317 467.919C506.394 442.948 512.482 416.59 506.702 391.232C510.579 387.662 594.03 371.847 594.03 371.847Z" fill="#F07188"/>
<path fill-rule="evenodd" clip-rule="evenodd" d="M632.476 386.201C647.134 391.75 662.008 397.705 669.111 401.164C669.111 401.164 665.94 404.531 662.389 422.861C658.838 441.191 662.389 468.011 658.657 494.406C658.113 498.216 657.171 505.152 655.957 514.197C623.345 519.376 527.066 530.641 503.948 528.551C502.292 528.402 500.646 528.148 499.02 527.792C499.02 501.786 500.506 479.054 502.317 467.919C502.426 467.271 502.535 466.642 502.625 466.069C510.797 490.651 613.489 504.375 613.489 504.375C613.489 504.375 630.501 465.939 626.171 451.697C621.841 437.455 601.241 437.843 601.241 437.843L601.766 425.117C601.766 425.117 622.185 396.892 627.131 388.309C627.693 387.162 629.614 386.515 632.476 386.201Z" fill="#E45E76"/>
<path fill-rule="evenodd" clip-rule="evenodd" d="M640.774 389.401L641.988 389.881C639.397 400.591 635.9 413.15 631.117 420.549C626.87 427.591 621.061 433.515 614.159 437.843C606.731 442.245 597.02 444.89 583.359 444.539C572.824 444.337 562.682 440.415 554.66 433.441C546.006 425.707 539.717 415.594 536.542 404.309C532.81 390.991 529.295 386.552 528.081 385.35L529.512 385.035C531.179 387.033 534.458 392.138 537.774 403.939C540.892 414.987 547.062 424.883 555.548 432.442C563.329 439.182 573.155 442.966 583.359 443.152C596.675 443.485 606.169 440.914 613.416 436.641C620.129 432.423 625.786 426.666 629.94 419.827C634.723 412.558 638.165 400.055 640.81 389.401H640.774ZM664.835 399.204L665.904 399.666C663.077 404.771 659.11 415.462 655.468 437.843C651.101 464.663 656.102 476.686 659.943 481.847C659.943 482.457 659.852 483.067 659.798 483.696C655.685 478.924 649.471 466.624 654.2 437.64C657.823 415.647 661.827 404.679 664.835 399.222V399.204ZM501.339 475.354C501.436 474.504 501.526 473.69 501.611 472.913C504.908 466.31 517.428 437.233 510.289 389.678L511.521 389.29C519.729 443.577 502.462 474.208 501.973 474.91C501.935 474.98 501.886 475.042 501.828 475.095C501.77 475.172 501.696 475.235 501.612 475.28C501.527 475.325 501.434 475.35 501.339 475.354Z" fill="#D64962"/>
<path fill-rule="evenodd" clip-rule="evenodd" d="M589.501 307.941H589.935C596.064 307.877 601.968 310.296 606.352 314.668C610.737 319.041 613.244 325.009 613.326 331.266L613.616 379.116C622.113 382.279 632.277 386.127 641.789 389.844C626.805 422.861 609.177 444.687 580.913 438.435C542.231 429.871 543.608 396.707 531.831 384.48C542.829 382.057 555.747 379.412 566.944 377.174L566.672 331.821C566.623 325.571 568.995 319.555 573.271 315.083C577.547 310.61 583.38 308.044 589.501 307.941Z" fill="#FFE1BF"/>
<path fill-rule="evenodd" clip-rule="evenodd" d="M611.876 323.257C612.819 325.805 613.31 328.505 613.326 331.229L613.615 379.079C622.113 382.242 632.277 386.09 641.789 389.807C630.773 414.093 618.235 432.35 601.241 437.769C628.418 419.088 620.029 396.022 614.25 393.599C608.47 391.176 562.559 378.007 562.559 378.007L566.944 377.137L566.672 331.784C566.648 328.293 567.38 324.84 568.814 321.672C570.249 318.503 572.351 315.697 574.97 313.453C587.2 313.324 599.393 317.208 611.876 323.257Z" fill="#F9D7B1"/>
<path fill-rule="evenodd" clip-rule="evenodd" d="M512.699 283.378C512.264 283.489 511.829 283.637 511.413 283.785C507.532 285.18 504.232 287.881 502.056 291.445C499.879 295.01 498.955 299.224 499.436 303.395C499.918 307.566 501.775 311.446 504.703 314.396C507.631 317.347 511.456 319.192 515.548 319.628C519.639 320.064 523.755 319.066 527.217 316.797C530.679 314.528 533.282 311.124 534.597 307.145C535.912 303.165 535.862 298.847 534.453 294.9C533.045 290.954 530.363 287.615 526.849 285.431C528.009 290.758 528.027 297.565 521.414 299.137L520.236 288.575C520.104 287.715 519.799 286.891 519.341 286.156C518.884 285.421 518.282 284.79 517.575 284.302C516.868 283.815 516.07 283.481 515.231 283.322C514.393 283.163 513.53 283.182 512.699 283.378Z" fill="#F9DBB8"/>
<path fill-rule="evenodd" clip-rule="evenodd" d="M568.484 181.646C584.734 179.485 601.162 183.978 614.178 194.143C627.193 204.308 635.739 219.319 637.948 235.897L645.376 292.811C647.483 309.397 643.078 326.161 633.122 339.444C623.167 352.726 608.469 361.449 592.236 363.709C575.986 365.87 559.558 361.377 546.543 351.212C533.527 341.047 524.981 326.036 522.772 309.458L515.362 252.544C513.25 235.96 517.651 219.196 527.603 205.913C537.556 192.629 552.253 183.906 568.484 181.646Z" fill="#FFE1BF"/>
<path fill-rule="evenodd" clip-rule="evenodd" d="M568.484 181.646C583.844 179.61 599.395 183.511 612.081 192.585C624.767 201.658 633.671 215.247 637.042 230.681C636.669 233.916 635.711 237.052 634.215 239.929L605.644 238.228C605.644 238.228 586.837 274.925 548.21 283.84C537.828 286.245 534.585 296.936 536.705 307.072C541.869 331.802 562.65 367.223 613.833 356.458C607.142 360.237 599.817 362.703 592.236 363.727C575.986 365.889 559.558 361.396 546.543 351.231C533.527 341.065 524.981 326.054 522.772 309.477L515.362 252.562C513.245 235.975 517.643 219.207 527.596 205.919C537.55 192.632 552.249 183.906 568.484 181.646Z" fill="#FFE1BF"/>
<path fill-rule="evenodd" clip-rule="evenodd" d="M557.287 307.072C558.877 306.824 560.504 307.063 561.961 307.759C563.418 308.454 564.641 309.575 565.474 310.98C566.307 312.385 566.714 314.01 566.642 315.651C566.571 317.292 566.024 318.874 565.072 320.198C564.12 321.521 562.805 322.527 561.293 323.088C559.781 323.648 558.14 323.739 556.578 323.348C555.015 322.956 553.602 322.101 552.515 320.89C551.429 319.678 550.719 318.166 550.475 316.542C550.313 315.464 550.36 314.363 550.615 313.303C550.869 312.244 551.326 311.246 551.959 310.366C552.591 309.487 553.388 308.743 554.302 308.178C555.216 307.613 556.231 307.237 557.287 307.072Z" fill="#FAC6A8"/>
<path fill-rule="evenodd" clip-rule="evenodd" d="M547.775 274.074C547.473 274.03 547.165 274.048 546.87 274.125C546.574 274.203 546.297 274.339 546.053 274.527C545.809 274.714 545.603 274.948 545.448 275.217C545.293 275.485 545.191 275.782 545.148 276.09C545.105 276.399 545.122 276.713 545.198 277.014C545.274 277.316 545.408 277.6 545.591 277.849C545.775 278.098 546.004 278.307 546.267 278.466C546.53 278.624 546.821 278.728 547.123 278.772C549.337 279.034 551.576 278.972 553.772 278.587C558.302 277.94 562.441 275.616 565.404 272.058C565.795 271.567 565.98 270.938 565.917 270.308C565.854 269.679 565.549 269.101 565.069 268.701C564.588 268.301 563.972 268.112 563.355 268.177C562.738 268.241 562.172 268.552 561.78 269.043C558.501 273.223 552.866 274.629 547.775 274.074Z" fill="#121A4F"/>
<path fill-rule="evenodd" clip-rule="evenodd" d="M530.708 281.047L531.759 289.112C532.266 292.996 524.965 303.391 522.048 303.798L520.236 289.611C520.236 289.611 518.152 283.285 510.289 284.358C482.46 259.314 479.779 213.941 502.499 187.121C525.218 160.301 580.405 151.312 590.425 153.291C600.444 155.27 612.637 170.641 612.637 170.641C612.637 170.641 619.884 162.058 627.965 164.907C636.045 167.755 667.933 213.294 669.527 225.539C671.122 237.784 651.065 265.214 651.065 265.214C643.202 266.287 642.822 272.964 642.822 272.964L643.963 281.769C641.046 282.175 638.89 278.402 638.383 274.518L637.332 266.453C611.677 258.759 597.762 226.778 597.762 226.778C597.762 226.778 571.002 281.602 530.708 281.047Z" fill="#121A4F"/>
<path fill-rule="evenodd" clip-rule="evenodd" d="M487.207 231.125C487.103 219.568 489.831 208.167 495.143 197.96C520.29 217.863 560.929 231.254 594.791 154.863C597.07 156.046 599.22 157.472 601.205 159.117C588.069 197.923 554.587 265.695 487.207 231.125Z" fill="#161F5A"/>
<path fill-rule="evenodd" clip-rule="evenodd" d="M530.708 281.047L531.759 289.112C532.266 292.996 524.965 303.391 522.048 303.798L520.236 289.611C520.236 289.611 518.152 283.285 510.289 284.358C499.714 274.749 492.325 262.022 489.146 247.938C489.146 247.938 536.796 281.732 595.425 218.917C595.425 218.917 622.24 261.607 661.483 248.882C658.283 254.511 654.794 259.962 651.029 265.214C643.166 266.287 642.785 272.964 642.785 272.964L643.927 281.769C641.01 282.176 638.854 278.402 638.346 274.518L637.295 266.453C611.641 258.759 597.726 226.778 597.726 226.778C597.726 226.778 571.002 281.602 530.708 281.047Z" fill="#0B1345"/>
<path fill-rule="evenodd" clip-rule="evenodd" d="M441.822 666.665H731.128C733.348 666.569 735.442 665.582 736.955 663.92C738.468 662.258 739.277 660.054 739.209 657.786C739.277 655.521 738.467 653.319 736.954 651.659C735.44 650 733.347 649.018 731.128 648.927H441.822C439.603 649.018 437.509 650 435.996 651.659C434.483 653.319 433.673 655.521 433.741 657.786C433.668 660.056 434.476 662.262 435.99 663.925C437.503 665.589 439.6 666.573 441.822 666.665Z" fill="#516BAE"/>
<path fill-rule="evenodd" clip-rule="evenodd" d="M736.364 478.425H436.604C435.583 478.398 434.569 478.605 433.637 479.031C432.705 479.456 431.878 480.09 431.218 480.885C430.557 481.68 430.08 482.616 429.82 483.624C429.561 484.633 429.526 485.687 429.719 486.711L452.638 642.083C453.02 644.347 454.155 646.407 455.851 647.916C457.548 649.426 459.702 650.292 461.951 650.369H711.017C713.268 650.293 715.425 649.427 717.124 647.918C718.824 646.409 719.962 644.348 720.348 642.083L743.249 486.711C743.445 485.687 743.413 484.631 743.155 483.621C742.897 482.611 742.42 481.674 741.758 480.878C741.097 480.082 740.269 479.448 739.335 479.024C738.401 478.599 737.386 478.394 736.364 478.425Z" fill="#566FB1"/>
<path fill-rule="evenodd" clip-rule="evenodd" d="M729.697 485.768H443.235C442.26 485.742 441.291 485.939 440.4 486.346C439.51 486.752 438.72 487.358 438.088 488.117C437.457 488.877 437.001 489.771 436.754 490.735C436.506 491.698 436.474 492.706 436.658 493.684L458.545 642.138C458.917 644.299 460.007 646.263 461.63 647.701C463.253 649.139 465.311 649.964 467.459 650.036H705.473C707.622 649.967 709.682 649.144 711.305 647.705C712.929 646.266 714.017 644.3 714.387 642.138L736.292 493.684C736.473 492.705 736.438 491.697 736.188 490.734C735.938 489.77 735.48 488.876 734.847 488.117C734.215 487.358 733.424 486.753 732.533 486.346C731.642 485.94 730.672 485.742 729.697 485.768Z" fill="#627BBC"/>
<path fill-rule="evenodd" clip-rule="evenodd" d="M452.91 604.054L458.526 642.138C458.899 644.299 459.989 646.263 461.612 647.701C463.235 649.139 465.293 649.964 467.44 650.036H705.473C707.622 649.967 709.682 649.144 711.305 647.705C712.929 646.266 714.017 644.3 714.387 642.138L736.292 493.685C736.58 492.12 736.311 490.501 735.534 489.121C734.757 487.74 733.522 486.689 732.052 486.156C699.313 543.903 618.67 638.494 452.91 604.054Z" fill="#566FB1"/>
<path fill-rule="evenodd" clip-rule="evenodd" d="M586.475 610.583C604.013 610.583 618.326 598.375 618.326 583.43C618.326 568.485 604.013 556.222 586.475 556.222C568.937 556.222 554.605 568.411 554.605 583.375C554.605 598.338 568.864 610.583 586.475 610.583Z" fill="#566FB1"/>
<path fill-rule="evenodd" clip-rule="evenodd" d="M586.475 562.788C590.502 562.676 594.498 563.546 598.131 565.325C601.763 567.104 604.929 569.74 607.365 573.016L570.332 598.764C567.895 597.032 565.893 594.737 564.489 592.066C563.085 589.395 562.318 586.424 562.251 583.393C562.251 571.999 573.122 562.751 586.475 562.751V562.788ZM606.133 595.453L595.008 589.201L576.456 602.149C579.658 603.379 583.053 604.006 586.475 603.998C590.159 604.086 593.819 603.369 597.209 601.896C600.599 600.422 603.642 598.225 606.133 595.453Z" fill="white"/>
<path fill-rule="evenodd" clip-rule="evenodd" d="M556.78 282.361C555.44 282.596 554.246 283.361 553.456 284.49C552.666 285.619 552.343 287.02 552.558 288.39L553.609 295.197C553.836 296.574 554.585 297.804 555.694 298.621C556.803 299.438 558.182 299.776 559.534 299.562C560.884 299.339 562.093 298.58 562.898 297.451C563.702 296.321 564.037 294.913 563.828 293.532L562.759 286.726C562.653 286.035 562.414 285.373 562.055 284.778C561.696 284.183 561.224 283.667 560.668 283.261C560.111 282.854 559.48 282.565 558.813 282.411C558.145 282.256 557.454 282.239 556.78 282.361Z" fill="#3C2D5A"/>
<path fill-rule="evenodd" clip-rule="evenodd" d="M347.228 675.081H825.123C828.006 675.081 830.771 676.25 832.81 678.331C834.849 680.413 835.994 683.235 835.994 686.179C835.994 689.122 834.849 691.945 832.81 694.026C830.771 696.107 828.006 697.277 825.123 697.277H347.228C344.345 697.277 341.58 696.107 339.541 694.026C337.503 691.945 336.357 689.122 336.357 686.179C336.357 683.235 337.503 680.413 339.541 678.331C341.58 676.25 344.345 675.081 347.228 675.081Z" fill="#9FA7D5"/>
<path d="M848.35 657.786H323.983C316.298 657.786 310.069 664.146 310.069 671.992V672.01C310.069 679.856 316.298 686.216 323.983 686.216H848.35C856.035 686.216 862.265 679.856 862.265 672.01V671.992C862.265 664.146 856.035 657.786 848.35 657.786Z" fill="#B6794D"/>
<path d="M579.97 662.411H325.124C320.552 662.411 316.845 666.195 316.845 670.864C316.845 675.532 320.552 679.317 325.124 679.317H579.97C584.543 679.317 588.25 675.532 588.25 670.864C588.25 666.195 584.543 662.411 579.97 662.411Z" fill="#CA9274"/>
<mask id="mask0" mask-type="alpha" maskUnits="userSpaceOnUse" x="475" y="35" width="91" height="93">
<path fill-rule="evenodd" clip-rule="evenodd" d="M520.814 127.423C529.693 127.423 538.372 124.735 545.755 119.699C553.137 114.663 558.891 107.506 562.289 99.1312C565.687 90.7568 566.576 81.5418 564.844 72.6515C563.112 63.7612 558.836 55.595 552.558 49.1854C546.28 42.7759 538.28 38.4109 529.572 36.6425C520.864 34.8742 511.838 35.7818 503.635 39.2506C495.432 42.7194 488.42 48.5936 483.488 56.1305C478.555 63.6673 475.922 72.5282 475.922 81.5926C475.922 93.7477 480.652 105.405 489.071 114C497.49 122.595 508.908 127.423 520.814 127.423Z" fill="#D5D5D5"/>
</mask>
<g mask="url(#mask0)">
<path d="M544.769 118.254C537.675 123.093 529.339 125.673 520.814 125.673C509.384 125.673 498.414 121.038 490.321 112.775C482.226 104.511 477.672 93.2951 477.672 81.5926C477.672 72.8663 480.207 64.3389 484.952 57.0888C489.697 49.8392 496.437 44.1943 504.316 40.8624C512.195 37.5307 520.862 36.6596 529.224 38.3575C537.586 40.0556 545.272 44.2478 551.308 50.41C557.344 56.5725 561.459 64.4285 563.126 72.9862C564.794 81.5441 563.938 90.4141 560.668 98.4733C557.398 106.532 551.863 113.414 544.769 118.254Z" fill="#F6FAFF" stroke="#E5EDFC" stroke-width="3.5"/>
<path fill-rule="evenodd" clip-rule="evenodd" d="M520.814 184.087C529.693 184.087 538.372 181.399 545.755 176.363C553.137 171.327 558.891 164.169 562.289 155.795C565.687 147.42 566.576 138.205 564.844 129.315C563.112 120.425 558.836 112.258 552.558 105.849C546.28 99.4394 538.28 95.0744 529.572 93.3061C520.864 91.5377 511.838 92.4453 503.635 95.9141C495.432 99.3829 488.42 105.257 483.488 112.794C478.555 120.331 475.922 129.192 475.922 138.256C475.922 150.411 480.652 162.068 489.071 170.663C497.489 179.258 508.908 184.087 520.814 184.087Z" fill="#E5EDFC"/>
<path fill-rule="evenodd" clip-rule="evenodd" d="M520.437 88.5859C524.268 88.5859 528.013 87.4261 531.198 85.2533C534.384 83.0804 536.867 79.992 538.333 76.3787C539.799 72.7654 540.182 68.7894 539.435 64.9535C538.687 61.1176 536.843 57.5941 534.134 54.8286C531.425 52.0631 527.973 50.1797 524.216 49.4167C520.459 48.6537 516.564 49.0453 513.025 50.542C509.486 52.0387 506.46 54.5733 504.332 57.8252C502.204 61.0771 501.068 64.9003 501.068 68.8113C501.068 74.0559 503.108 79.0856 506.741 82.794C510.373 86.5025 515.3 88.5859 520.437 88.5859Z" fill="#E5EDFC"/>
</g>
<path fill-rule="evenodd" clip-rule="evenodd" d="M309.09 381.299C319.465 378.775 330.095 377.502 340.76 377.507C348.077 377.488 355.089 374.511 360.263 369.229C365.438 363.947 368.353 356.788 368.372 349.318C368.373 347.988 368.283 346.659 368.1 345.342H411.764C414.936 345.356 417.974 346.649 420.217 348.939C422.459 351.228 423.726 354.33 423.74 357.568V443.836C423.738 444.105 423.658 444.367 423.51 444.59C423.363 444.813 423.154 444.987 422.911 445.089C422.667 445.192 422.4 445.219 422.141 445.167C421.883 445.115 421.645 444.987 421.457 444.798L401.038 423.952H321.066C317.891 423.947 314.848 422.658 312.603 420.366C310.358 418.074 309.095 414.967 309.09 411.726V381.299Z" fill="#AFCAFF"/>
<path fill-rule="evenodd" clip-rule="evenodd" d="M316.519 340.699H407.198C410.373 340.704 413.417 341.994 415.661 344.285C417.906 346.577 419.17 349.684 419.174 352.925V439.175C419.182 439.445 419.107 439.71 418.961 439.935C418.815 440.16 418.605 440.334 418.359 440.433C418.114 440.543 417.842 440.574 417.58 440.521C417.317 440.468 417.077 440.334 416.892 440.137L396.491 419.347H316.519C313.344 419.337 310.301 418.046 308.054 415.756C305.808 413.466 304.539 410.362 304.524 407.12V352.925C304.534 349.682 305.801 346.576 308.049 344.284C310.297 341.993 313.342 340.704 316.519 340.699Z" fill="#7DA7F8"/>
<path d="M346.114 388.378H346.116C346.119 388.378 346.121 388.378 346.123 388.378H377.499C378.271 388.378 378.95 387.907 379.163 387.225L386.085 364.964C386.234 364.484 386.129 363.968 385.803 363.57C385.475 363.171 384.964 362.937 384.421 362.937H342.123L340.886 357.822C340.709 357.094 340.007 356.577 339.196 356.577H328.813C327.857 356.577 327.082 357.289 327.082 358.167C327.082 359.045 327.857 359.757 328.813 359.757H337.808C338.027 360.663 343.728 384.235 344.056 385.591C342.217 386.326 340.927 388.01 340.927 389.968C340.927 392.598 343.256 394.738 346.118 394.738H377.499C378.455 394.738 379.229 394.026 379.229 393.148C379.229 392.27 378.455 391.558 377.499 391.558H346.118C345.164 391.558 344.388 390.844 344.388 389.968C344.388 389.092 345.161 388.38 346.114 388.378ZM382.127 366.117L376.193 385.198H347.506L342.891 366.117H382.127Z" fill="white"/>
<path d="M344.388 399.508C344.388 402.138 346.717 404.278 349.579 404.278C352.442 404.278 354.771 402.138 354.771 399.508C354.771 396.878 352.442 394.738 349.579 394.738C346.717 394.738 344.388 396.878 344.388 399.508ZM349.579 397.918C350.533 397.918 351.31 398.632 351.31 399.508C351.31 400.385 350.533 401.098 349.579 401.098C348.625 401.098 347.849 400.385 347.849 399.508C347.849 398.632 348.625 397.918 349.579 397.918Z" fill="white"/>
<path d="M368.846 399.508C368.846 402.138 371.175 404.278 374.038 404.278C376.9 404.278 379.229 402.138 379.229 399.508C379.229 396.878 376.9 394.738 374.038 394.738C371.175 394.738 368.846 396.878 368.846 399.508ZM374.038 397.918C374.992 397.918 375.768 398.632 375.768 399.508C375.768 400.385 374.992 401.098 374.038 401.098C373.083 401.098 372.307 400.385 372.307 399.508C372.307 398.632 373.083 397.918 374.038 397.918Z" fill="white"/>
<path fill-rule="evenodd" clip-rule="evenodd" d="M271.731 258.229C272.76 256.169 274.361 254.464 276.333 253.327C277.209 252.826 277.972 252.142 278.571 251.32C279.17 250.498 279.593 249.555 279.812 248.555C280.392 245.929 280.629 243.236 280.518 240.546C280.518 240.055 280.709 239.585 281.049 239.238C281.389 238.891 281.85 238.696 282.33 238.696H285.392C285.706 238.697 286.017 238.747 286.316 238.844C287.734 239.472 288.893 240.583 289.595 241.989C290.558 243.766 291.057 245.766 291.045 247.797C291.045 249.146 290.844 250.487 290.447 251.773C289.916 253.168 289.688 254.664 289.777 256.157C289.951 256.185 290.128 256.185 290.302 256.157H298.002C298.888 256.147 299.772 256.259 300.629 256.49C301.817 256.784 302.894 257.427 303.727 258.34C304.677 259.498 305.174 260.974 305.122 262.483C305.114 263.28 305.022 264.073 304.851 264.851C305.956 267.773 306.173 271.398 303.927 273.803C304.082 275.012 303.938 276.242 303.508 277.379C303.077 278.517 302.374 279.526 301.463 280.314C301 281.943 300.022 283.371 298.682 284.375C297.342 285.378 295.714 285.901 294.052 285.863H279.92C277.429 285.672 275.059 284.689 273.144 283.051C272.96 283.752 272.598 284.39 272.093 284.901C271.356 285.617 270.376 286.015 269.358 286.011H262.853C262.329 286.013 261.81 285.91 261.325 285.706C260.841 285.502 260.4 285.203 260.03 284.824C259.659 284.446 259.365 283.996 259.166 283.502C258.967 283.007 258.865 282.477 258.867 281.941V261.225C258.869 260.684 258.975 260.149 259.18 259.651C259.386 259.152 259.686 258.7 260.063 258.321C260.801 257.605 261.781 257.208 262.799 257.211H269.231C270.094 257.206 270.935 257.492 271.622 258.025L271.731 258.229ZM273.344 278.575C274.956 280.258 277.674 282.441 279.975 282.441H294.107C295.074 282.437 296.009 282.089 296.753 281.458C297.497 280.827 298.002 279.952 298.183 278.982C298.237 278.711 298.349 278.455 298.512 278.235C298.675 278.014 298.885 277.833 299.125 277.706C300.43 277.04 300.466 274.857 300.285 273.636C300.216 273.293 300.245 272.937 300.367 272.61C300.488 272.282 300.699 271.997 300.973 271.787C302.676 270.492 302.115 267.718 301.372 266.053C301.162 265.643 301.111 265.168 301.227 264.721C301.412 264.058 301.515 263.375 301.535 262.686C301.571 262.07 301.391 261.46 301.028 260.966C300.661 260.588 300.196 260.325 299.687 260.208C299.136 260.066 298.57 259.998 298.002 260.004H290.302C289.506 260.108 288.699 259.939 288.007 259.524C287.315 259.109 286.778 258.471 286.479 257.711C285.961 255.403 286.151 252.988 287.023 250.793C287.311 249.86 287.458 248.886 287.457 247.908C287.478 246.506 287.141 245.123 286.479 243.894C286.176 243.322 285.756 242.824 285.247 242.433H284.051C284.067 244.845 283.787 247.25 283.218 249.591C282.876 251.069 282.233 252.457 281.331 253.665C280.429 254.873 279.288 255.873 277.982 256.601C276.683 257.502 275.592 258.68 274.782 260.053C273.972 261.426 273.462 262.962 273.289 264.555V278.612L273.344 278.575ZM269.34 261.096H262.853C262.778 261.066 262.694 261.066 262.618 261.096C262.577 261.128 262.543 261.17 262.521 261.219C262.499 261.267 262.489 261.32 262.491 261.373V282.089C262.49 282.145 262.501 282.2 262.523 282.251C262.545 282.303 262.577 282.348 262.618 282.385C262.653 282.422 262.695 282.451 262.742 282.47C262.789 282.489 262.839 282.498 262.89 282.496H269.321C269.397 282.528 269.482 282.528 269.557 282.496C269.626 282.414 269.665 282.309 269.666 282.2V261.484C269.668 261.43 269.66 261.376 269.641 261.325C269.622 261.275 269.592 261.229 269.555 261.191C269.517 261.152 269.472 261.122 269.423 261.103C269.373 261.083 269.32 261.075 269.267 261.077L269.34 261.096Z" fill="#E5EDFC"/>
<path d="M376.354 276.97H370.9C369.59 276.97 368.527 278.055 368.527 279.393V284.96C368.527 286.299 369.59 287.383 370.9 287.383H376.354C377.665 287.383 378.727 286.299 378.727 284.96V279.393C378.727 278.055 377.665 276.97 376.354 276.97Z" fill="#E5EDFC"/>
<path d="M395.233 276.97H389.779C388.468 276.97 387.406 278.055 387.406 279.393V284.96C387.406 286.299 388.468 287.383 389.779 287.383H395.233C396.543 287.383 397.606 286.299 397.606 284.96V279.393C397.606 278.055 396.543 276.97 395.233 276.97Z" fill="#9DBBF4"/>
<path d="M414.111 276.97H408.658C407.347 276.97 406.284 278.055 406.284 279.393V284.96C406.284 286.299 407.347 287.383 408.658 287.383H414.111C415.422 287.383 416.485 286.299 416.485 284.96V279.393C416.485 278.055 415.422 276.97 414.111 276.97Z" fill="#E5EDFC"/>
<path d="M432.99 276.97H427.537C426.226 276.97 425.163 278.055 425.163 279.393V284.96C425.163 286.299 426.226 287.383 427.537 287.383H432.99C434.301 287.383 435.364 286.299 435.364 284.96V279.393C435.364 278.055 434.301 276.97 432.99 276.97Z" fill="#E5EDFC"/>
<path d="M395.903 255.958H390.449C389.139 255.958 388.076 257.042 388.076 258.381V263.948C388.076 265.286 389.139 266.371 390.449 266.371H395.903C397.214 266.371 398.276 265.286 398.276 263.948V258.381C398.276 257.042 397.214 255.958 395.903 255.958Z" fill="#E5EDFC"/>
<path d="M414.8 255.958H409.346C408.036 255.958 406.973 257.042 406.973 258.381V263.948C406.973 265.286 408.036 266.371 409.346 266.371H414.8C416.111 266.371 417.173 265.286 417.173 263.948V258.381C417.173 257.042 416.111 255.958 414.8 255.958Z" fill="#9DBBF4"/>
<path d="M451.48 276.139H446.026C444.716 276.139 443.653 277.224 443.653 278.562V284.13C443.653 285.468 444.716 286.553 446.026 286.553H451.48C452.791 286.553 453.853 285.468 453.853 284.13V278.562C453.853 277.224 452.791 276.139 451.48 276.139Z" fill="#E5EDFC"/>
<path d="M432.99 299.554H427.537C426.226 299.554 425.163 300.639 425.163 301.977V307.545C425.163 308.883 426.226 309.968 427.537 309.968H432.99C434.301 309.968 435.364 308.883 435.364 307.545V301.977C435.364 300.639 434.301 299.554 432.99 299.554Z" fill="#9DBBF4"/>
<path fill-rule="evenodd" clip-rule="evenodd" d="M373.626 494.702C359.132 479.608 348.261 498.771 349.819 518.007C351.25 536.245 366.651 598.819 363.788 625.14H369.694C384.062 591.365 392.197 514.012 373.626 494.702Z" fill="#C4E2FE"/>
<path fill-rule="evenodd" clip-rule="evenodd" d="M367.521 625.14C381.562 571.944 363.788 498.401 363.734 498.142C363.708 498.032 363.662 497.929 363.597 497.838C363.532 497.747 363.45 497.669 363.355 497.611C363.261 497.552 363.156 497.514 363.047 497.497C362.938 497.48 362.826 497.486 362.719 497.513C362.505 497.57 362.32 497.71 362.205 497.903C362.09 498.097 362.054 498.328 362.103 498.549C362.103 498.789 379.968 572.425 365.817 625.14H367.521Z" fill="#A3CCF2"/>
<path fill-rule="evenodd" clip-rule="evenodd" d="M337.825 527.94C322.461 519.672 318.675 537.725 324.635 552.652C329.582 565.026 351.395 601.631 359.657 625.14H367.43C368.082 592.641 355.871 537.725 337.825 527.94Z" fill="#E1F6FF"/>
<path fill-rule="evenodd" clip-rule="evenodd" d="M364.585 625.14C359.53 581.192 330.904 533.415 330.795 533.249C330.702 533.087 330.549 532.97 330.37 532.923C330.192 532.876 330.003 532.903 329.844 532.999C329.686 533.095 329.571 533.251 329.525 533.433C329.479 533.615 329.506 533.808 329.599 533.97C329.708 534.155 358.153 581.617 363.208 625.14H364.585Z" fill="#A4D7F1"/>
<path fill-rule="evenodd" clip-rule="evenodd" d="M402.452 548.823C417.272 542.22 419.628 559.311 413.051 572.869C408.594 581.987 392.523 605.367 381.725 625.232H369.368C373.59 595.065 387.142 555.63 402.452 548.823Z" fill="#7CB8F0"/>
<path fill-rule="evenodd" clip-rule="evenodd" d="M373.789 625.14C384.316 588.72 408.539 554.39 408.648 554.242C408.756 554.12 408.904 554.042 409.064 554.025C409.225 554.007 409.386 554.051 409.516 554.148C409.647 554.244 409.738 554.387 409.772 554.548C409.805 554.709 409.779 554.877 409.699 555.019C409.608 555.149 385.62 589.127 375.13 625.14H373.789Z" fill="#5596D2"/>
<path d="M394.788 610.953H343.55C342.009 610.953 340.76 612.228 340.76 613.801V626.712C340.76 628.285 342.009 629.561 343.55 629.561H394.788C396.329 629.561 397.578 628.285 397.578 626.712V613.801C397.578 612.228 396.329 610.953 394.788 610.953Z" fill="#3A468C"/>
<path fill-rule="evenodd" clip-rule="evenodd" d="M352.337 621.459H386L394.788 629.561L387.613 657.786H369.169H350.725L343.55 629.561L352.337 621.459Z" fill="#3A468C"/>
<path fill-rule="evenodd" clip-rule="evenodd" d="M394.788 629.561L393.32 635.369H345.018L343.55 629.561H394.788Z" fill="#273277"/>
<path d="M257.527 535.561C260.158 535.561 262.292 533.383 262.292 530.696C262.292 528.01 260.158 525.832 257.527 525.832C254.895 525.832 252.762 528.01 252.762 530.696C252.762 533.383 254.895 535.561 257.527 535.561Z" fill="#9DBBF4"/>
<path d="M400.404 209.077C403.036 209.077 405.169 206.899 405.169 204.212C405.169 201.526 403.036 199.348 400.404 199.348C397.773 199.348 395.639 201.526 395.639 204.212C395.639 206.899 397.773 209.077 400.404 209.077Z" fill="#9DBBF4"/>
<path d="M388.845 488.32C391.477 488.32 393.61 486.142 393.61 483.456C393.61 480.769 391.477 478.591 388.845 478.591C386.214 478.591 384.08 480.769 384.08 483.456C384.08 486.142 386.214 488.32 388.845 488.32Z" fill="#E5EDFC"/>
</svg>
