<svg width="646" height="458" viewBox="0 0 646 458" fill="none" xmlns="http://www.w3.org/2000/svg">
<path d="M48.4123 324.342C30.5164 316.4 31.1311 290.794 49.3875 283.719L331.067 174.57C336.385 172.51 342.295 172.595 347.551 174.807L602.614 282.159C619.737 289.366 620.771 313.24 604.335 321.9L364.812 448.109C353.98 453.817 341.131 454.249 329.94 449.282L48.4123 324.342Z" fill="#CCD2E0"/>
<path d="M50.8589 319.935C33.1899 312.129 33.4397 286.97 51.2602 279.516L314.425 169.435C319.813 167.181 325.875 167.162 331.277 169.382L598.142 279.046C615.475 286.168 616.536 310.316 599.894 318.932L363.058 441.539C352.296 447.111 339.588 447.503 328.503 442.605L50.8589 319.935Z" fill="#DDE3EF"/>
<path d="M352.395 356.624C356.575 358.73 356.575 362.14 352.395 364.245L309.815 386.023C307.506 387.061 304.952 387.602 302.361 387.602C299.77 387.602 297.216 387.061 294.907 386.023L163.822 319.027C159.642 316.922 159.642 313.512 163.822 311.407L206.402 289.641C208.709 288.603 211.261 288.062 213.85 288.062C216.438 288.062 218.99 288.603 221.297 289.641L352.395 356.624Z" fill="#6D7687"/>
<path d="M352.395 354.372C356.575 356.477 356.575 359.887 352.395 361.993L309.871 383.709C307.563 384.75 305.008 385.292 302.417 385.292C299.825 385.292 297.271 384.75 294.962 383.709L163.822 316.775C159.642 314.67 159.642 311.26 163.822 309.154L206.402 287.377C208.709 286.339 211.261 285.798 213.85 285.798C216.438 285.798 218.99 286.339 221.297 287.377L352.395 354.372Z" fill="#C4D0F0"/>
<path d="M160.729 312.749V309.29L355.516 354.704V358.484L160.729 312.749Z" fill="#C4D0F0"/>
<path d="M352.395 350.9C356.575 353.005 356.575 356.415 352.395 358.52L309.815 380.286C307.507 381.327 304.952 381.869 302.361 381.869C299.769 381.869 297.215 381.327 294.907 380.286L163.822 313.303C159.642 311.198 159.642 307.787 163.822 305.682L206.402 283.904C208.709 282.867 211.261 282.326 213.85 282.326C216.438 282.326 218.99 282.867 221.297 283.904L352.395 350.9Z" fill="white"/>
<path d="M212.937 290.417L217.02 292.497C217.479 292.704 217.988 292.811 218.503 292.811C219.019 292.811 219.528 292.704 219.987 292.497L220.531 292.214C220.709 292.16 220.864 292.058 220.974 291.922C221.084 291.786 221.143 291.624 221.143 291.457C221.143 291.29 221.084 291.127 220.974 290.992C220.864 290.856 220.709 290.754 220.531 290.7L216.448 288.619C215.988 288.416 215.479 288.31 214.964 288.31C214.449 288.31 213.941 288.416 213.48 288.619L212.937 288.902C212.764 288.962 212.616 289.066 212.512 289.201C212.407 289.336 212.351 289.496 212.351 289.66C212.351 289.823 212.407 289.983 212.512 290.118C212.616 290.253 212.764 290.357 212.937 290.417Z" fill="#93A0C2"/>
<path d="M205.288 294.344L209.356 296.424C209.816 296.631 210.324 296.738 210.84 296.738C211.356 296.738 211.864 296.631 212.324 296.424L215.668 294.713C215.847 294.659 216.002 294.557 216.111 294.421C216.221 294.285 216.28 294.123 216.28 293.956C216.28 293.789 216.221 293.626 216.111 293.491C216.002 293.355 215.847 293.253 215.668 293.199L211.585 291.118C211.128 290.912 210.622 290.804 210.108 290.804C209.595 290.804 209.089 290.912 208.632 291.118L205.288 292.842C205.114 292.898 204.964 293.001 204.858 293.135C204.752 293.269 204.695 293.429 204.695 293.593C204.695 293.756 204.752 293.916 204.858 294.051C204.964 294.185 205.114 294.287 205.288 294.344Z" fill="#93A0C2"/>
<path d="M221.283 294.677L225.073 296.597C225.53 296.804 226.036 296.911 226.55 296.911C227.063 296.911 227.569 296.804 228.027 296.597L228.57 296.314C228.749 296.26 228.904 296.158 229.014 296.022C229.124 295.887 229.183 295.724 229.183 295.557C229.183 295.39 229.124 295.228 229.014 295.092C228.904 294.956 228.749 294.854 228.57 294.8L224.78 292.879C224.323 292.673 223.817 292.565 223.303 292.565C222.79 292.565 222.284 292.673 221.826 292.879L221.283 293.163C221.104 293.217 220.949 293.319 220.839 293.454C220.73 293.59 220.671 293.753 220.671 293.92C220.671 294.087 220.73 294.249 220.839 294.385C220.949 294.521 221.104 294.623 221.283 294.677Z" fill="#93A0C2"/>
<path d="M197.29 298.443L203.407 301.57C203.864 301.776 204.37 301.884 204.884 301.884C205.397 301.884 205.903 301.776 206.36 301.57L210.122 299.637C210.301 299.583 210.456 299.481 210.566 299.345C210.676 299.21 210.735 299.047 210.735 298.88C210.735 298.713 210.676 298.55 210.566 298.415C210.456 298.279 210.301 298.177 210.122 298.123L203.992 295.008C203.534 294.805 203.028 294.699 202.515 294.699C202.002 294.699 201.496 294.805 201.038 295.008L197.29 296.941C197.116 296.998 196.966 297.1 196.86 297.234C196.754 297.369 196.697 297.528 196.697 297.692C196.697 297.856 196.754 298.016 196.86 298.15C196.966 298.284 197.116 298.386 197.29 298.443Z" fill="#93A0C2"/>
<path d="M229.322 298.763L232.666 300.462C233.126 300.669 233.635 300.776 234.15 300.776C234.666 300.776 235.175 300.669 235.634 300.462L236.178 300.191C236.356 300.137 236.511 300.035 236.621 299.9C236.731 299.764 236.79 299.601 236.79 299.434C236.79 299.267 236.731 299.105 236.621 298.969C236.511 298.833 236.356 298.731 236.178 298.677L232.82 296.966C232.362 296.759 231.856 296.652 231.343 296.652C230.829 296.652 230.323 296.759 229.866 296.966L229.322 297.249C229.144 297.303 228.989 297.405 228.879 297.541C228.769 297.677 228.71 297.839 228.71 298.006C228.71 298.173 228.769 298.336 228.879 298.471C228.989 298.607 229.144 298.709 229.322 298.763Z" fill="#93A0C2"/>
<path d="M223.707 297.299L219.918 295.378C219.463 295.172 218.959 295.064 218.448 295.064C217.936 295.064 217.432 295.172 216.978 295.378L213.634 297.09C213.455 297.144 213.3 297.246 213.19 297.381C213.08 297.517 213.021 297.68 213.021 297.847C213.021 298.014 213.08 298.176 213.19 298.312C213.3 298.448 213.455 298.55 213.634 298.604L217.41 300.537C217.868 300.74 218.374 300.846 218.886 300.846C219.399 300.846 219.905 300.74 220.363 300.537L223.707 298.825C223.891 298.774 224.052 298.673 224.166 298.535C224.28 298.398 224.341 298.232 224.341 298.062C224.341 297.892 224.28 297.726 224.166 297.589C224.052 297.452 223.891 297.35 223.707 297.299Z" fill="#93A0C2"/>
<path d="M236.944 302.654L240.427 304.439C240.885 304.646 241.391 304.753 241.904 304.753C242.418 304.753 242.924 304.646 243.381 304.439L243.925 304.168C244.103 304.114 244.259 304.012 244.368 303.877C244.478 303.741 244.537 303.578 244.537 303.411C244.537 303.244 244.478 303.082 244.368 302.946C244.259 302.81 244.103 302.708 243.925 302.654L240.441 300.869C239.983 300.666 239.477 300.56 238.964 300.56C238.452 300.56 237.946 300.666 237.488 300.869L236.93 301.14C236.752 301.195 236.598 301.298 236.489 301.435C236.381 301.571 236.323 301.735 236.325 301.901C236.326 302.068 236.387 302.231 236.498 302.366C236.609 302.501 236.765 302.601 236.944 302.654Z" fill="#93A0C2"/>
<path d="M231.301 301.226L227.957 299.527C227.502 299.321 226.998 299.213 226.487 299.213C225.976 299.213 225.472 299.321 225.017 299.527L221.673 301.238C221.494 301.292 221.339 301.394 221.229 301.53C221.12 301.666 221.061 301.828 221.061 301.995C221.061 302.162 221.12 302.325 221.229 302.46C221.339 302.596 221.494 302.698 221.673 302.752L225.017 304.463C225.477 304.67 225.985 304.778 226.501 304.778C227.017 304.778 227.525 304.67 227.985 304.463L231.329 302.74C232.137 302.272 232.123 301.595 231.301 301.226Z" fill="#93A0C2"/>
<path d="M211.46 300.302L207.698 302.235C207.524 302.292 207.374 302.394 207.268 302.528C207.162 302.663 207.105 302.822 207.105 302.986C207.105 303.15 207.162 303.31 207.268 303.444C207.374 303.578 207.524 303.68 207.698 303.737L211.474 305.67C211.934 305.876 212.442 305.984 212.958 305.984C213.474 305.984 213.982 305.876 214.442 305.67L218.19 303.737C218.998 303.331 218.998 302.654 218.19 302.235L214.414 300.302C213.957 300.096 213.45 299.988 212.937 299.988C212.423 299.988 211.917 300.096 211.46 300.302Z" fill="#93A0C2"/>
<path d="M182.033 306.274L194.099 312.429C194.556 312.635 195.063 312.743 195.576 312.743C196.09 312.743 196.596 312.635 197.053 312.429L200.522 310.656C200.7 310.599 200.853 310.495 200.961 310.359C201.069 310.222 201.127 310.06 201.127 309.893C201.127 309.726 201.069 309.564 200.961 309.427C200.853 309.291 200.7 309.187 200.522 309.13L188.456 302.974C187.996 302.768 187.488 302.66 186.972 302.66C186.457 302.66 185.948 302.768 185.488 302.974L182.033 304.759C181.197 305.178 181.211 305.867 182.033 306.274Z" fill="#93A0C2"/>
<path d="M244.691 306.618L248.132 308.366C248.592 308.567 249.097 308.671 249.609 308.671C250.122 308.671 250.627 308.567 251.086 308.366L251.63 308.083C251.808 308.029 251.963 307.927 252.073 307.791C252.183 307.655 252.242 307.493 252.242 307.326C252.242 307.159 252.183 306.996 252.073 306.86C251.963 306.725 251.808 306.623 251.63 306.569L248.188 304.82C247.731 304.614 247.225 304.506 246.711 304.506C246.198 304.506 245.692 304.614 245.234 304.82L244.691 305.104C244.512 305.158 244.357 305.26 244.247 305.395C244.137 305.531 244.078 305.694 244.078 305.861C244.078 306.028 244.137 306.19 244.247 306.326C244.357 306.462 244.512 306.564 244.691 306.618Z" fill="#93A0C2"/>
<path d="M189.738 302.321L198.544 306.827C199.001 307.033 199.507 307.141 200.021 307.141C200.534 307.141 201.04 307.033 201.498 306.827L204.814 305.116C204.992 305.062 205.148 304.96 205.257 304.824C205.367 304.688 205.426 304.525 205.426 304.359C205.426 304.192 205.367 304.029 205.257 303.893C205.148 303.757 204.992 303.655 204.814 303.601L195.994 299.108C195.537 298.902 195.031 298.794 194.517 298.794C194.004 298.794 193.497 298.902 193.04 299.108L189.71 300.807C188.902 301.225 188.916 301.903 189.738 302.321Z" fill="#93A0C2"/>
<path d="M239.062 305.14L235.579 303.355C235.121 303.149 234.615 303.041 234.102 303.041C233.588 303.041 233.082 303.149 232.625 303.355L229.281 305.079C229.102 305.133 228.947 305.235 228.837 305.37C228.727 305.506 228.668 305.669 228.668 305.836C228.668 306.003 228.727 306.165 228.837 306.301C228.947 306.437 229.102 306.539 229.281 306.593L232.778 308.366C233.236 308.569 233.742 308.675 234.255 308.675C234.768 308.675 235.274 308.569 235.732 308.366L239.076 306.642C239.256 306.59 239.412 306.489 239.523 306.353C239.634 306.217 239.692 306.054 239.691 305.887C239.689 305.719 239.627 305.557 239.514 305.423C239.401 305.288 239.243 305.189 239.062 305.14Z" fill="#93A0C2"/>
<path d="M225.756 306.15L222.412 304.451C221.957 304.244 221.453 304.137 220.942 304.137C220.43 304.137 219.926 304.244 219.472 304.451L215.71 306.371C215.531 306.425 215.376 306.527 215.266 306.663C215.156 306.799 215.097 306.961 215.097 307.128C215.097 307.295 215.156 307.458 215.266 307.594C215.376 307.729 215.531 307.831 215.71 307.885L219.054 309.584C219.508 309.791 220.012 309.898 220.524 309.898C221.035 309.898 221.539 309.791 221.994 309.584L225.756 307.664C225.934 307.61 226.089 307.508 226.199 307.372C226.309 307.236 226.368 307.074 226.368 306.907C226.368 306.74 226.309 306.577 226.199 306.441C226.089 306.306 225.934 306.204 225.756 306.15Z" fill="#93A0C2"/>
<path d="M202.807 307.492C201.985 307.898 201.999 308.575 202.807 308.994L206.583 310.927C207.041 311.133 207.547 311.241 208.06 311.241C208.574 311.241 209.08 311.133 209.537 310.927L212.853 309.216C213.661 308.809 213.661 308.132 212.853 307.714L209.077 305.781C208.62 305.574 208.114 305.467 207.6 305.467C207.087 305.467 206.581 305.574 206.123 305.781L202.807 307.492Z" fill="#93A0C2"/>
<path d="M246.767 309.068L243.325 307.308C242.867 307.104 242.361 306.998 241.848 306.998C241.336 306.998 240.83 307.104 240.372 307.308L237.028 309.031C236.849 309.085 236.694 309.187 236.584 309.323C236.474 309.459 236.415 309.621 236.415 309.788C236.415 309.955 236.474 310.118 236.584 310.254C236.694 310.389 236.849 310.491 237.028 310.545L240.455 312.293C240.915 312.5 241.423 312.608 241.939 312.608C242.455 312.608 242.963 312.5 243.423 312.293L246.767 310.57C247.589 310.164 247.575 309.487 246.767 309.068Z" fill="#93A0C2"/>
<path d="M252.396 310.545L256.172 312.465C256.629 312.672 257.135 312.78 257.649 312.78C258.162 312.78 258.669 312.672 259.126 312.465L259.669 312.182C259.848 312.128 260.003 312.026 260.113 311.891C260.223 311.755 260.282 311.592 260.282 311.425C260.282 311.258 260.223 311.096 260.113 310.96C260.003 310.824 259.848 310.722 259.669 310.668L255.893 308.748C255.436 308.541 254.93 308.434 254.416 308.434C253.903 308.434 253.397 308.541 252.939 308.748L252.382 309.031C252.204 309.086 252.05 309.189 251.941 309.326C251.833 309.462 251.775 309.625 251.777 309.792C251.778 309.959 251.839 310.121 251.95 310.256C252.061 310.391 252.217 310.492 252.396 310.545Z" fill="#93A0C2"/>
<path d="M220.475 313.106C220.654 313.052 220.809 312.95 220.918 312.814C221.028 312.678 221.087 312.516 221.087 312.349C221.087 312.182 221.028 312.019 220.918 311.884C220.809 311.748 220.654 311.646 220.475 311.592L217.131 309.893C216.675 309.689 216.172 309.583 215.661 309.583C215.15 309.583 214.647 309.689 214.191 309.893L210.861 311.604C210.682 311.658 210.527 311.76 210.417 311.896C210.307 312.032 210.248 312.194 210.248 312.361C210.248 312.528 210.307 312.691 210.417 312.827C210.527 312.962 210.682 313.064 210.861 313.118L214.247 314.768C214.704 314.974 215.21 315.082 215.724 315.082C216.237 315.082 216.743 314.974 217.201 314.768L220.475 313.106Z" fill="#93A0C2"/>
<path d="M182.771 313.02L186.213 311.247C186.392 311.193 186.547 311.091 186.657 310.955C186.766 310.819 186.825 310.657 186.825 310.49C186.825 310.323 186.766 310.16 186.657 310.024C186.547 309.889 186.392 309.787 186.213 309.733L180.807 306.95C180.346 306.747 179.838 306.641 179.323 306.641C178.808 306.641 178.3 306.747 177.839 306.95L174.398 308.723C174.219 308.777 174.064 308.879 173.954 309.015C173.844 309.151 173.785 309.313 173.785 309.48C173.785 309.647 173.844 309.81 173.954 309.946C174.064 310.081 174.219 310.183 174.398 310.237L179.873 313.032C180.324 313.228 180.821 313.329 181.324 313.327C181.827 313.325 182.322 313.22 182.771 313.02Z" fill="#93A0C2"/>
<path d="M233.516 310.064L230.033 308.292C229.573 308.085 229.065 307.978 228.549 307.978C228.033 307.978 227.525 308.085 227.065 308.292L223.317 310.212C223.138 310.266 222.983 310.368 222.874 310.504C222.764 310.64 222.705 310.802 222.705 310.969C222.705 311.136 222.764 311.299 222.874 311.435C222.983 311.57 223.138 311.672 223.317 311.726L226.787 313.536C227.246 313.737 227.751 313.841 228.264 313.841C228.776 313.841 229.281 313.737 229.74 313.536L233.502 311.603C233.692 311.557 233.86 311.457 233.979 311.319C234.099 311.181 234.165 311.012 234.166 310.839C234.168 310.665 234.105 310.495 233.988 310.355C233.871 310.216 233.705 310.114 233.516 310.064Z" fill="#93A0C2"/>
<path d="M260.435 314.645L263.779 316.344C264.237 316.55 264.743 316.658 265.256 316.658C265.77 316.658 266.276 316.55 266.733 316.344L267.291 316.061C267.471 316.01 267.629 315.91 267.74 315.775C267.852 315.64 267.913 315.477 267.913 315.31C267.913 315.143 267.852 314.98 267.74 314.845C267.629 314.71 267.471 314.61 267.291 314.559L263.947 312.848C263.489 312.641 262.983 312.534 262.47 312.534C261.956 312.534 261.45 312.641 260.993 312.848L260.449 313.131C260.27 313.184 260.114 313.284 260.003 313.419C259.892 313.554 259.831 313.717 259.83 313.884C259.828 314.05 259.886 314.214 259.994 314.35C260.103 314.487 260.257 314.59 260.435 314.645Z" fill="#93A0C2"/>
<path d="M254.806 313.168L251.031 311.247C250.572 311.044 250.067 310.938 249.554 310.938C249.041 310.938 248.535 311.044 248.077 311.247L244.733 312.971C244.554 313.025 244.399 313.127 244.289 313.262C244.179 313.398 244.12 313.561 244.12 313.728C244.12 313.895 244.179 314.057 244.289 314.193C244.399 314.329 244.554 314.431 244.733 314.485L248.509 316.405C248.966 316.612 249.472 316.719 249.986 316.719C250.499 316.719 251.005 316.612 251.463 316.405L254.806 314.694C254.99 314.643 255.151 314.541 255.265 314.404C255.379 314.267 255.44 314.101 255.44 313.931C255.44 313.761 255.379 313.595 255.265 313.458C255.151 313.32 254.99 313.219 254.806 313.168Z" fill="#93A0C2"/>
<path d="M198.363 313.106C198.184 313.16 198.029 313.262 197.919 313.398C197.809 313.534 197.75 313.697 197.75 313.863C197.75 314.03 197.809 314.193 197.919 314.329C198.029 314.465 198.184 314.567 198.363 314.621L202.153 316.541C202.607 316.747 203.111 316.855 203.623 316.855C204.134 316.855 204.638 316.747 205.093 316.541L208.562 314.768C208.741 314.714 208.896 314.612 209.006 314.477C209.115 314.341 209.174 314.178 209.174 314.011C209.174 313.844 209.115 313.682 209.006 313.546C208.896 313.41 208.741 313.308 208.562 313.254L204.772 311.321C204.314 311.118 203.808 311.012 203.295 311.012C202.782 311.012 202.276 311.118 201.818 311.321L198.363 313.106Z" fill="#93A0C2"/>
<path d="M194.252 313.844L190.476 311.912C190.019 311.705 189.513 311.598 189 311.598C188.486 311.598 187.98 311.705 187.523 311.912L184.081 313.684C183.902 313.738 183.747 313.84 183.637 313.976C183.528 314.112 183.469 314.275 183.469 314.442C183.469 314.608 183.528 314.771 183.637 314.907C183.747 315.043 183.902 315.145 184.081 315.199L187.857 317.119C188.314 317.326 188.82 317.433 189.334 317.433C189.847 317.433 190.354 317.326 190.811 317.119L194.266 315.359C194.445 315.303 194.599 315.2 194.707 315.064C194.816 314.927 194.873 314.764 194.872 314.597C194.87 314.43 194.81 314.268 194.699 314.133C194.588 313.998 194.432 313.897 194.252 313.844Z" fill="#93A0C2"/>
<path d="M241.207 313.992L237.78 312.305C237.323 312.099 236.816 311.991 236.303 311.991C235.789 311.991 235.283 312.099 234.826 312.305L231.064 314.238C230.89 314.295 230.74 314.397 230.634 314.531C230.528 314.665 230.471 314.825 230.471 314.989C230.471 315.153 230.528 315.313 230.634 315.447C230.74 315.581 230.89 315.683 231.064 315.74L234.506 317.488C234.964 317.692 235.47 317.798 235.983 317.798C236.495 317.798 237.001 317.692 237.459 317.488L241.207 315.555C242.113 315.087 242.03 314.41 241.207 313.992Z" fill="#93A0C2"/>
<path d="M218.427 316.984L221.91 318.769C222.367 318.976 222.873 319.083 223.387 319.083C223.9 319.083 224.407 318.976 224.864 318.769L228.18 317.058C228.359 317.004 228.514 316.902 228.624 316.766C228.733 316.63 228.792 316.468 228.792 316.301C228.792 316.134 228.733 315.971 228.624 315.836C228.514 315.7 228.359 315.598 228.18 315.544L224.697 313.771C224.239 313.565 223.733 313.457 223.22 313.457C222.706 313.457 222.2 313.565 221.743 313.771L218.427 315.47C218.248 315.524 218.093 315.626 217.983 315.762C217.873 315.897 217.814 316.06 217.814 316.227C217.814 316.394 217.873 316.557 217.983 316.692C218.093 316.828 218.248 316.93 218.427 316.984Z" fill="#93A0C2"/>
<path d="M268.043 318.523L271.526 320.308C271.986 320.514 272.495 320.622 273.01 320.622C273.526 320.622 274.034 320.514 274.494 320.308L275.038 320.024C275.216 319.97 275.371 319.868 275.481 319.733C275.591 319.597 275.65 319.434 275.65 319.267C275.65 319.1 275.591 318.938 275.481 318.802C275.371 318.666 275.216 318.564 275.038 318.51L271.554 316.725C271.097 316.519 270.591 316.411 270.077 316.411C269.564 316.411 269.058 316.519 268.6 316.725L268.057 316.996C267.873 317.046 267.711 317.146 267.596 317.283C267.481 317.419 267.418 317.585 267.416 317.755C267.415 317.925 267.475 318.091 267.587 318.229C267.7 318.367 267.86 318.47 268.043 318.523Z" fill="#93A0C2"/>
<path d="M262.414 317.046L259.07 315.347C258.613 315.141 258.107 315.033 257.593 315.033C257.08 315.033 256.574 315.141 256.116 315.347L252.772 317.058C252.594 317.112 252.438 317.214 252.329 317.35C252.219 317.486 252.16 317.649 252.16 317.816C252.16 317.982 252.219 318.145 252.329 318.281C252.438 318.417 252.594 318.519 252.772 318.573L256.116 320.284C256.575 320.485 257.081 320.589 257.593 320.589C258.106 320.589 258.611 320.485 259.07 320.284L262.414 318.56C262.593 318.506 262.748 318.404 262.858 318.269C262.968 318.133 263.027 317.97 263.027 317.803C263.027 317.636 262.968 317.474 262.858 317.338C262.748 317.202 262.593 317.1 262.414 317.046Z" fill="#93A0C2"/>
<path d="M212.853 315.421C212.395 315.217 211.889 315.111 211.376 315.111C210.864 315.111 210.358 315.217 209.9 315.421L206.402 317.231C206.224 317.285 206.068 317.387 205.959 317.522C205.849 317.658 205.79 317.821 205.79 317.988C205.79 318.155 205.849 318.317 205.959 318.453C206.068 318.589 206.224 318.691 206.402 318.745L209.746 320.444C210.201 320.65 210.705 320.758 211.216 320.758C211.727 320.758 212.231 320.65 212.686 320.444L216.156 318.671C216.334 318.617 216.489 318.515 216.599 318.379C216.709 318.243 216.768 318.081 216.768 317.914C216.768 317.747 216.709 317.584 216.599 317.449C216.489 317.313 216.334 317.211 216.156 317.157L212.853 315.421Z" fill="#93A0C2"/>
<path d="M192.135 319.298L195.465 321.01C195.924 321.216 196.433 321.324 196.949 321.324C197.464 321.324 197.973 321.216 198.433 321.01L201.874 319.237C202.053 319.183 202.208 319.081 202.318 318.945C202.427 318.809 202.487 318.647 202.487 318.48C202.487 318.313 202.427 318.15 202.318 318.014C202.208 317.879 202.053 317.777 201.874 317.723L198.53 315.999C198.072 315.795 197.566 315.689 197.053 315.689C196.54 315.689 196.034 315.795 195.576 315.999L192.121 317.772C191.313 318.203 191.313 318.88 192.135 319.298Z" fill="#93A0C2"/>
<path d="M249.247 318.103L245.471 316.17C245.016 315.964 244.512 315.856 244.001 315.856C243.49 315.856 242.986 315.964 242.531 316.17L238.769 318.103C238.589 318.154 238.431 318.254 238.319 318.389C238.207 318.524 238.147 318.687 238.147 318.854C238.147 319.021 238.207 319.184 238.319 319.319C238.431 319.454 238.589 319.554 238.769 319.605L242.545 321.538C243.002 321.744 243.508 321.852 244.022 321.852C244.535 321.852 245.042 321.744 245.499 321.538L249.261 319.605C250.083 319.199 250.069 318.46 249.247 318.103Z" fill="#93A0C2"/>
<path d="M226.215 320.923L229.657 322.671C230.115 322.874 230.621 322.98 231.134 322.98C231.647 322.98 232.153 322.874 232.611 322.671L235.927 320.96C236.106 320.906 236.261 320.804 236.371 320.668C236.48 320.532 236.539 320.369 236.539 320.203C236.539 320.036 236.48 319.873 236.371 319.737C236.261 319.602 236.106 319.499 235.927 319.445L232.499 317.697C232.042 317.491 231.536 317.383 231.022 317.383C230.509 317.383 230.003 317.491 229.545 317.697L226.215 319.409C225.393 319.839 225.393 320.517 226.215 320.923Z" fill="#93A0C2"/>
<path d="M275.804 322.486L278.716 323.976C279.178 324.176 279.686 324.28 280.2 324.28C280.714 324.28 281.222 324.176 281.684 323.976L282.227 323.693C282.406 323.639 282.561 323.537 282.671 323.401C282.781 323.265 282.84 323.103 282.84 322.936C282.84 322.769 282.781 322.606 282.671 322.47C282.561 322.335 282.406 322.233 282.227 322.179L279.315 320.689C278.858 320.483 278.352 320.375 277.838 320.375C277.325 320.375 276.819 320.483 276.361 320.689L275.804 320.972C275.625 321.026 275.47 321.128 275.36 321.264C275.251 321.4 275.192 321.562 275.192 321.729C275.192 321.896 275.251 322.059 275.36 322.195C275.47 322.33 275.625 322.432 275.804 322.486Z" fill="#93A0C2"/>
<path d="M270.161 321.009L266.678 319.224C266.223 319.018 265.719 318.91 265.208 318.91C264.696 318.91 264.193 319.018 263.738 319.224L260.394 320.948C260.215 321.002 260.06 321.104 259.95 321.239C259.84 321.375 259.781 321.538 259.781 321.705C259.781 321.872 259.84 322.034 259.95 322.17C260.06 322.306 260.215 322.408 260.394 322.462L263.877 324.235C264.337 324.441 264.845 324.549 265.361 324.549C265.877 324.549 266.385 324.441 266.845 324.235L270.189 322.523C270.997 322.154 270.983 321.428 270.161 321.009Z" fill="#93A0C2"/>
<path d="M220.461 324.382L223.916 322.597C224.095 322.543 224.25 322.441 224.36 322.305C224.47 322.169 224.529 322.006 224.529 321.84C224.529 321.673 224.47 321.51 224.36 321.374C224.25 321.239 224.095 321.137 223.916 321.083L220.433 319.31C219.973 319.103 219.465 318.996 218.949 318.996C218.433 318.996 217.925 319.103 217.465 319.31L214.01 321.083C213.188 321.501 213.202 322.178 214.01 322.597L217.493 324.382C217.953 324.587 218.461 324.694 218.977 324.694C219.493 324.694 220.001 324.587 220.461 324.382Z" fill="#93A0C2"/>
<path d="M199.742 323.176L203.225 324.961C203.683 325.168 204.189 325.275 204.702 325.275C205.216 325.275 205.722 325.168 206.179 324.961L209.621 323.188C209.8 323.134 209.955 323.032 210.064 322.897C210.174 322.761 210.233 322.598 210.233 322.431C210.233 322.264 210.174 322.102 210.064 321.966C209.955 321.83 209.8 321.728 209.621 321.674L206.124 319.901C205.666 319.695 205.16 319.587 204.647 319.587C204.133 319.587 203.627 319.695 203.17 319.901L199.728 321.674C199.548 321.726 199.392 321.827 199.281 321.963C199.17 322.099 199.112 322.262 199.113 322.43C199.115 322.597 199.177 322.759 199.29 322.894C199.403 323.028 199.561 323.127 199.742 323.176Z" fill="#93A0C2"/>
<path d="M256.869 321.982L253.525 320.27C253.066 320.067 252.561 319.961 252.048 319.961C251.535 319.961 251.029 320.067 250.571 320.27L246.809 322.203C246.63 322.257 246.475 322.359 246.365 322.495C246.255 322.631 246.196 322.794 246.196 322.96C246.196 323.127 246.255 323.29 246.365 323.426C246.475 323.561 246.63 323.664 246.809 323.718L250.153 325.416C250.61 325.623 251.116 325.73 251.63 325.73C252.143 325.73 252.649 325.623 253.107 325.416L256.855 323.496C257.034 323.443 257.19 323.342 257.301 323.207C257.412 323.072 257.473 322.91 257.474 322.743C257.476 322.576 257.418 322.413 257.31 322.277C257.201 322.14 257.047 322.037 256.869 321.982Z" fill="#93A0C2"/>
<path d="M233.921 324.862L237.71 326.795C238.165 327.001 238.669 327.109 239.18 327.109C239.692 327.109 240.196 327.001 240.65 326.795L243.98 325.084C244.154 325.027 244.304 324.925 244.41 324.791C244.516 324.656 244.573 324.497 244.573 324.333C244.573 324.169 244.516 324.009 244.41 323.875C244.304 323.741 244.154 323.638 243.98 323.582L240.204 321.649C239.745 321.443 239.236 321.335 238.721 321.335C238.205 321.335 237.696 321.443 237.237 321.649L233.907 323.385C233.742 323.447 233.602 323.55 233.504 323.683C233.406 323.815 233.355 323.97 233.356 324.128C233.358 324.286 233.412 324.44 233.513 324.57C233.613 324.701 233.755 324.803 233.921 324.862Z" fill="#93A0C2"/>
<path d="M277.351 324.678L274.439 323.176C273.979 322.976 273.474 322.871 272.962 322.871C272.449 322.871 271.944 322.976 271.485 323.176L268.141 324.9C267.962 324.954 267.807 325.056 267.697 325.192C267.587 325.327 267.528 325.49 267.528 325.657C267.528 325.824 267.587 325.986 267.697 326.122C267.807 326.258 267.962 326.36 268.141 326.414L271.067 327.904C271.526 328.11 272.035 328.218 272.551 328.218C273.066 328.218 273.575 328.11 274.034 327.904L277.378 326.18C278.187 325.774 278.173 325.084 277.351 324.678Z" fill="#93A0C2"/>
<path d="M282.993 326.155L286.769 328.075C287.227 328.282 287.733 328.389 288.246 328.389C288.76 328.389 289.266 328.282 289.723 328.075L290.267 327.792C290.445 327.738 290.6 327.636 290.71 327.5C290.82 327.365 290.879 327.202 290.879 327.035C290.879 326.868 290.82 326.706 290.71 326.57C290.6 326.434 290.445 326.332 290.267 326.278L286.491 324.357C286.033 324.151 285.527 324.043 285.014 324.043C284.5 324.043 283.994 324.151 283.537 324.357L282.98 324.641C282.801 324.696 282.647 324.799 282.539 324.936C282.43 325.072 282.372 325.235 282.374 325.402C282.375 325.569 282.436 325.731 282.547 325.866C282.658 326.001 282.814 326.102 282.993 326.155Z" fill="#93A0C2"/>
<path d="M221.771 326.549L225.212 328.297C225.669 328.504 226.176 328.611 226.689 328.611C227.203 328.611 227.709 328.504 228.166 328.297L231.621 326.512C231.8 326.458 231.955 326.356 232.065 326.221C232.175 326.085 232.234 325.922 232.234 325.755C232.234 325.588 232.175 325.426 232.065 325.29C231.955 325.154 231.8 325.052 231.621 324.998L228.18 323.262C227.723 323.056 227.216 322.948 226.703 322.948C226.189 322.948 225.683 323.056 225.226 323.262L221.757 325.047C221.583 325.105 221.434 325.209 221.329 325.344C221.225 325.479 221.169 325.639 221.171 325.803C221.172 325.966 221.231 326.126 221.338 326.259C221.445 326.393 221.596 326.494 221.771 326.549Z" fill="#93A0C2"/>
<path d="M207.489 327.14L210.93 328.888C211.388 329.095 211.894 329.202 212.407 329.202C212.921 329.202 213.427 329.095 213.884 328.888L217.326 327.128C217.503 327.071 217.656 326.967 217.764 326.83C217.872 326.694 217.93 326.531 217.93 326.365C217.93 326.198 217.872 326.035 217.764 325.899C217.656 325.762 217.503 325.658 217.326 325.601L213.884 323.853C213.427 323.647 212.921 323.539 212.407 323.539C211.894 323.539 211.388 323.647 210.93 323.853L207.489 325.626C207.31 325.68 207.155 325.782 207.045 325.918C206.936 326.053 206.876 326.216 206.876 326.383C206.876 326.55 206.936 326.713 207.045 326.848C207.155 326.984 207.31 327.086 207.489 327.14Z" fill="#93A0C2"/>
<path d="M264.615 325.933L261.132 324.161C260.675 323.954 260.169 323.847 259.655 323.847C259.142 323.847 258.635 323.954 258.178 324.161L254.416 326.081C254.238 326.135 254.082 326.237 253.973 326.373C253.863 326.509 253.804 326.671 253.804 326.838C253.804 327.005 253.863 327.168 253.973 327.304C254.082 327.439 254.238 327.541 254.416 327.595L257.913 329.368C258.368 329.574 258.872 329.682 259.383 329.682C259.895 329.682 260.399 329.574 260.853 329.368L264.615 327.448C264.794 327.394 264.949 327.292 265.059 327.156C265.169 327.02 265.228 326.857 265.228 326.691C265.228 326.524 265.169 326.361 265.059 326.225C264.949 326.09 264.794 325.987 264.615 325.933Z" fill="#93A0C2"/>
<path d="M241.96 328.974L245.304 330.673C245.761 330.88 246.267 330.987 246.781 330.987C247.294 330.987 247.8 330.88 248.258 330.673L251.588 328.974C251.766 328.92 251.922 328.818 252.031 328.683C252.141 328.547 252.2 328.384 252.2 328.217C252.2 328.05 252.141 327.888 252.031 327.752C251.922 327.616 251.766 327.514 251.588 327.46L248.244 325.749C247.785 325.548 247.279 325.444 246.767 325.444C246.255 325.444 245.749 325.548 245.29 325.749L241.974 327.46C241.795 327.513 241.639 327.614 241.527 327.749C241.416 327.884 241.356 328.046 241.354 328.213C241.353 328.38 241.41 328.543 241.519 328.679C241.627 328.816 241.782 328.919 241.96 328.974Z" fill="#93A0C2"/>
<path d="M291.033 330.255L294.377 331.954C294.834 332.16 295.34 332.268 295.854 332.268C296.367 332.268 296.873 332.16 297.331 331.954L297.874 331.671C298.053 331.617 298.208 331.515 298.318 331.379C298.428 331.243 298.487 331.08 298.487 330.914C298.487 330.747 298.428 330.584 298.318 330.448C298.208 330.313 298.053 330.21 297.874 330.156L294.53 328.458C294.073 328.251 293.567 328.144 293.053 328.144C292.54 328.144 292.034 328.251 291.576 328.458L291.033 328.741C290.854 328.795 290.699 328.897 290.589 329.033C290.479 329.168 290.42 329.331 290.42 329.498C290.42 329.665 290.479 329.827 290.589 329.963C290.699 330.099 290.854 330.201 291.033 330.255Z" fill="#93A0C2"/>
<path d="M285.404 328.778L281.628 326.845C281.17 326.641 280.664 326.535 280.151 326.535C279.638 326.535 279.132 326.641 278.674 326.845L275.33 328.568C275.152 328.622 274.996 328.724 274.887 328.86C274.777 328.996 274.718 329.158 274.718 329.325C274.718 329.492 274.777 329.655 274.887 329.791C274.996 329.926 275.152 330.028 275.33 330.082L279.12 332.003C279.577 332.209 280.084 332.317 280.597 332.317C281.111 332.317 281.617 332.209 282.074 332.003L285.418 330.292C285.596 330.236 285.75 330.133 285.859 329.997C285.968 329.86 286.025 329.697 286.024 329.53C286.022 329.363 285.961 329.201 285.85 329.066C285.739 328.931 285.583 328.83 285.404 328.778Z" fill="#93A0C2"/>
<path d="M229.476 330.476L233.252 332.409C233.709 332.615 234.215 332.723 234.729 332.723C235.242 332.723 235.748 332.615 236.206 332.409L239.661 330.636C239.84 330.582 239.995 330.48 240.105 330.344C240.214 330.209 240.273 330.046 240.273 329.879C240.273 329.712 240.214 329.549 240.105 329.414C239.995 329.278 239.84 329.176 239.661 329.122L235.885 327.189C235.428 326.983 234.922 326.875 234.408 326.875C233.895 326.875 233.389 326.983 232.931 327.189L229.462 328.974C229.288 329.032 229.139 329.135 229.035 329.27C228.93 329.405 228.874 329.566 228.876 329.729C228.877 329.893 228.936 330.052 229.043 330.186C229.15 330.319 229.301 330.421 229.476 330.476Z" fill="#93A0C2"/>
<path d="M271.805 329.603L268.893 328.113C268.433 327.906 267.925 327.799 267.409 327.799C266.893 327.799 266.385 327.906 265.925 328.113L262.177 330.046C261.997 330.096 261.839 330.196 261.727 330.331C261.615 330.466 261.555 330.629 261.555 330.797C261.555 330.964 261.615 331.127 261.727 331.262C261.839 331.397 261.997 331.497 262.177 331.548L265.103 333.037C265.558 333.244 266.062 333.351 266.573 333.351C267.084 333.351 267.588 333.244 268.043 333.037L271.805 331.117C271.984 331.063 272.139 330.961 272.249 330.825C272.358 330.689 272.417 330.527 272.417 330.36C272.417 330.193 272.358 330.03 272.249 329.894C272.139 329.759 271.984 329.657 271.805 329.603Z" fill="#93A0C2"/>
<path d="M249.582 332.852L253.065 334.625C253.522 334.832 254.028 334.939 254.542 334.939C255.055 334.939 255.561 334.832 256.019 334.625L259.335 332.926C259.513 332.872 259.669 332.77 259.778 332.634C259.888 332.499 259.947 332.336 259.947 332.169C259.947 332.002 259.888 331.84 259.778 331.704C259.669 331.568 259.513 331.466 259.335 331.412L255.851 329.639C255.394 329.433 254.888 329.325 254.375 329.325C253.861 329.325 253.355 329.433 252.898 329.639L249.582 331.338C248.746 331.757 248.759 332.434 249.582 332.852Z" fill="#93A0C2"/>
<path d="M298.641 334.132L302.124 335.917C302.585 336.121 303.093 336.227 303.608 336.227C304.123 336.227 304.631 336.121 305.092 335.917L305.635 335.647C305.814 335.592 305.969 335.49 306.079 335.355C306.188 335.219 306.248 335.056 306.248 334.889C306.248 334.723 306.188 334.56 306.079 334.424C305.969 334.288 305.814 334.186 305.635 334.132L302.152 332.347C301.694 332.141 301.188 332.033 300.675 332.033C300.161 332.033 299.655 332.141 299.198 332.347L298.654 332.63C298.48 332.686 298.329 332.787 298.222 332.92C298.114 333.054 298.056 333.213 298.055 333.377C298.053 333.541 298.108 333.701 298.213 333.836C298.318 333.971 298.467 334.074 298.641 334.132Z" fill="#93A0C2"/>
<path d="M293.012 332.655L289.668 330.957C289.21 330.75 288.704 330.643 288.191 330.643C287.677 330.643 287.171 330.75 286.714 330.957L283.37 332.668C283.191 332.722 283.036 332.824 282.926 332.96C282.816 333.095 282.757 333.258 282.757 333.425C282.757 333.592 282.816 333.754 282.926 333.89C283.036 334.026 283.191 334.128 283.37 334.182L286.714 335.881C287.171 336.087 287.677 336.195 288.191 336.195C288.704 336.195 289.21 336.087 289.668 335.881L293.012 334.17C293.19 334.116 293.345 334.014 293.455 333.878C293.565 333.742 293.624 333.579 293.624 333.413C293.624 333.246 293.565 333.083 293.455 332.947C293.345 332.812 293.19 332.71 293.012 332.655Z" fill="#93A0C2"/>
<path d="M237.515 334.588L240.859 336.287C241.317 336.49 241.823 336.596 242.336 336.596C242.849 336.596 243.355 336.49 243.813 336.287L247.282 334.502C247.461 334.448 247.616 334.346 247.726 334.21C247.836 334.074 247.895 333.912 247.895 333.745C247.895 333.578 247.836 333.415 247.726 333.279C247.616 333.144 247.461 333.042 247.282 332.988L243.952 331.289C243.492 331.085 242.984 330.979 242.468 330.979C241.953 330.979 241.445 331.085 240.985 331.289L237.515 333.074C237.336 333.128 237.181 333.23 237.072 333.366C236.962 333.501 236.903 333.664 236.903 333.831C236.903 333.998 236.962 334.16 237.072 334.296C237.181 334.432 237.336 334.534 237.515 334.588Z" fill="#93A0C2"/>
<path d="M279.844 333.702L276.082 331.782C275.623 331.575 275.114 331.468 274.599 331.468C274.083 331.468 273.574 331.575 273.115 331.782L269.367 333.702C269.188 333.756 269.033 333.858 268.923 333.994C268.813 334.13 268.754 334.293 268.754 334.46C268.754 334.626 268.813 334.789 268.923 334.925C269.033 335.061 269.188 335.163 269.367 335.217L273.143 337.149C273.602 337.35 274.107 337.455 274.619 337.455C275.132 337.455 275.637 337.35 276.096 337.149L279.858 335.217C280.68 334.798 280.667 334.121 279.844 333.702Z" fill="#93A0C2"/>
<path d="M257.328 336.804L260.254 338.294C260.709 338.5 261.213 338.608 261.724 338.608C262.236 338.608 262.74 338.5 263.194 338.294L266.524 336.595C266.703 336.541 266.858 336.439 266.968 336.303C267.078 336.167 267.137 336.005 267.137 335.838C267.137 335.671 267.078 335.508 266.968 335.372C266.858 335.237 266.703 335.135 266.524 335.081L263.612 333.591C263.153 333.385 262.644 333.277 262.128 333.277C261.613 333.277 261.104 333.385 260.645 333.591L257.328 335.29C257.15 335.344 256.995 335.446 256.885 335.582C256.775 335.717 256.716 335.88 256.716 336.047C256.716 336.214 256.775 336.377 256.885 336.512C256.995 336.648 257.15 336.75 257.328 336.804Z" fill="#93A0C2"/>
<path d="M300.758 336.607L297.275 334.835C296.818 334.628 296.312 334.521 295.798 334.521C295.285 334.521 294.778 334.628 294.321 334.835L290.977 336.546C290.798 336.6 290.643 336.702 290.533 336.838C290.424 336.973 290.365 337.136 290.365 337.303C290.365 337.47 290.424 337.632 290.533 337.768C290.643 337.904 290.798 338.006 290.977 338.06L294.46 339.845C294.919 340.049 295.424 340.155 295.937 340.155C296.45 340.155 296.956 340.049 297.414 339.845L300.758 338.122C301.58 337.703 301.58 337.038 300.758 336.607Z" fill="#93A0C2"/>
<path d="M306.401 338.085L310.01 339.931C310.47 340.138 310.978 340.245 311.494 340.245C312.01 340.245 312.518 340.138 312.978 339.931L313.521 339.648C313.702 339.597 313.859 339.497 313.971 339.362C314.083 339.227 314.143 339.064 314.143 338.897C314.143 338.73 314.083 338.567 313.971 338.432C313.859 338.297 313.702 338.197 313.521 338.146L309.913 336.299C309.453 336.093 308.944 335.985 308.429 335.985C307.913 335.985 307.404 336.093 306.945 336.299L306.401 336.57C306.223 336.624 306.068 336.726 305.958 336.862C305.848 336.998 305.789 337.161 305.789 337.327C305.789 337.494 305.848 337.657 305.958 337.793C306.068 337.929 306.223 338.031 306.401 338.085Z" fill="#93A0C2"/>
<path d="M245.123 338.466L248.62 340.239C249.077 340.445 249.584 340.553 250.097 340.553C250.611 340.553 251.117 340.445 251.574 340.239L255.029 338.454C255.208 338.4 255.363 338.298 255.473 338.162C255.583 338.026 255.642 337.863 255.642 337.696C255.642 337.53 255.583 337.367 255.473 337.231C255.363 337.095 255.208 336.993 255.029 336.939L251.532 335.167C251.075 334.96 250.569 334.853 250.055 334.853C249.542 334.853 249.036 334.96 248.578 335.167L245.123 336.927C244.934 336.975 244.767 337.076 244.649 337.215C244.53 337.353 244.466 337.523 244.466 337.696C244.466 337.87 244.53 338.04 244.649 338.178C244.767 338.317 244.934 338.418 245.123 338.466Z" fill="#93A0C2"/>
<path d="M277.42 339.315L280.764 341.026C281.221 341.233 281.728 341.34 282.241 341.34C282.755 341.34 283.261 341.233 283.718 341.026L287.466 339.094C287.646 339.043 287.804 338.943 287.916 338.808C288.028 338.673 288.088 338.51 288.088 338.343C288.088 338.175 288.028 338.012 287.916 337.877C287.804 337.742 287.646 337.642 287.466 337.592L284.122 335.88C283.663 335.68 283.157 335.575 282.645 335.575C282.133 335.575 281.627 335.68 281.168 335.88L277.406 337.813C277.233 337.871 277.084 337.974 276.979 338.109C276.874 338.245 276.819 338.405 276.82 338.568C276.822 338.732 276.88 338.892 276.987 339.025C277.095 339.159 277.246 339.26 277.42 339.315Z" fill="#93A0C2"/>
<path d="M264.518 340.473L268.294 342.406C268.753 342.607 269.259 342.711 269.771 342.711C270.283 342.711 270.789 342.607 271.248 342.406L274.564 340.695C274.738 340.638 274.888 340.536 274.994 340.402C275.1 340.268 275.157 340.108 275.157 339.944C275.157 339.78 275.1 339.621 274.994 339.486C274.888 339.352 274.738 339.25 274.564 339.193L270.788 337.26C270.331 337.054 269.825 336.946 269.311 336.946C268.798 336.946 268.291 337.054 267.834 337.26L264.504 338.959C264.326 339.014 264.172 339.118 264.063 339.254C263.954 339.391 263.897 339.554 263.898 339.721C263.9 339.888 263.961 340.05 264.072 340.185C264.183 340.32 264.339 340.421 264.518 340.473Z" fill="#93A0C2"/>
<path d="M305.329 343.871L308.673 342.147C308.851 342.093 309.006 341.991 309.116 341.855C309.226 341.719 309.285 341.557 309.285 341.39C309.285 341.223 309.226 341.06 309.116 340.925C309.006 340.789 308.851 340.687 308.673 340.633L305.05 338.786C304.593 338.58 304.087 338.472 303.573 338.472C303.06 338.472 302.553 338.58 302.096 338.786L298.752 340.51C298.573 340.564 298.418 340.666 298.308 340.802C298.199 340.937 298.14 341.1 298.14 341.267C298.14 341.434 298.199 341.596 298.308 341.732C298.418 341.868 298.573 341.97 298.752 342.024L302.375 343.871C302.834 344.072 303.339 344.177 303.852 344.177C304.364 344.177 304.87 344.072 305.329 343.871Z" fill="#93A0C2"/>
<path d="M252.884 342.417L255.81 343.907C256.267 344.113 256.773 344.221 257.286 344.221C257.8 344.221 258.306 344.113 258.763 343.907L262.219 342.122C262.398 342.068 262.553 341.966 262.662 341.83C262.772 341.694 262.831 341.532 262.831 341.365C262.831 341.198 262.772 341.035 262.662 340.9C262.553 340.764 262.398 340.662 262.219 340.608L259.293 339.118C258.835 338.915 258.329 338.809 257.816 338.809C257.303 338.809 256.797 338.915 256.339 339.118L252.87 340.903C252.684 340.952 252.522 341.052 252.407 341.19C252.291 341.327 252.23 341.494 252.232 341.665C252.233 341.836 252.298 342.002 252.415 342.137C252.533 342.273 252.697 342.371 252.884 342.417Z" fill="#93A0C2"/>
<path d="M295.227 343.083C295.406 343.028 295.561 342.926 295.671 342.791C295.78 342.655 295.839 342.492 295.839 342.325C295.839 342.159 295.78 341.996 295.671 341.86C295.561 341.724 295.406 341.622 295.227 341.568L291.744 339.783C291.285 339.58 290.78 339.474 290.267 339.474C289.754 339.474 289.248 339.58 288.79 339.783L285.028 341.716C284.849 341.77 284.694 341.872 284.584 342.008C284.474 342.144 284.415 342.306 284.415 342.473C284.415 342.64 284.474 342.803 284.584 342.938C284.694 343.074 284.849 343.176 285.028 343.23L288.511 345.003C288.969 345.207 289.475 345.313 289.988 345.313C290.501 345.313 291.007 345.207 291.465 345.003L295.227 343.083Z" fill="#93A0C2"/>
<path d="M272.558 344.572L275.901 346.283C276.359 346.489 276.865 346.597 277.378 346.597C277.892 346.597 278.398 346.489 278.855 346.283L282.185 344.572C282.98 344.165 282.98 343.488 282.185 343.07L278.855 341.358C278.397 341.155 277.891 341.049 277.378 341.049C276.866 341.049 276.36 341.155 275.901 341.358L272.558 343.082C271.735 343.488 271.749 344.153 272.558 344.572Z" fill="#93A0C2"/>
<path d="M322.327 346.222L325.671 347.921C326.128 348.127 326.634 348.235 327.148 348.235C327.661 348.235 328.168 348.127 328.625 347.921L329.168 347.638C329.347 347.583 329.502 347.481 329.612 347.346C329.722 347.21 329.781 347.047 329.781 346.88C329.781 346.713 329.722 346.551 329.612 346.415C329.502 346.279 329.347 346.177 329.168 346.123L325.824 344.424C325.367 344.218 324.861 344.11 324.347 344.11C323.834 344.11 323.328 344.218 322.87 344.424L322.327 344.708C322.148 344.762 321.993 344.864 321.883 344.999C321.774 345.135 321.714 345.298 321.714 345.465C321.714 345.631 321.774 345.794 321.883 345.93C321.993 346.066 322.148 346.168 322.327 346.222Z" fill="#93A0C2"/>
<path d="M260.073 346.086L263.849 348.007C264.306 348.213 264.813 348.321 265.326 348.321C265.84 348.321 266.346 348.213 266.803 348.007L270.258 346.234C270.436 346.177 270.589 346.073 270.697 345.937C270.805 345.8 270.863 345.638 270.863 345.471C270.863 345.304 270.805 345.142 270.697 345.005C270.589 344.869 270.436 344.765 270.258 344.708L266.483 342.787C266.025 342.581 265.519 342.473 265.006 342.473C264.492 342.473 263.986 342.581 263.529 342.787L260.059 344.572C259.251 345.003 259.251 345.668 260.073 346.086Z" fill="#93A0C2"/>
<path d="M292.788 347.157L296.411 349.004C296.866 349.21 297.37 349.318 297.881 349.318C298.392 349.318 298.896 349.21 299.351 349.004L303.113 347.083C303.292 347.029 303.447 346.927 303.556 346.792C303.666 346.656 303.725 346.493 303.725 346.326C303.725 346.159 303.666 345.997 303.556 345.861C303.447 345.725 303.292 345.623 303.113 345.569L299.49 343.723C299.035 343.516 298.531 343.409 298.02 343.409C297.509 343.409 297.005 343.516 296.55 343.723L292.788 345.643C292.61 345.697 292.454 345.799 292.345 345.935C292.235 346.071 292.176 346.233 292.176 346.4C292.176 346.567 292.235 346.73 292.345 346.866C292.454 347.001 292.61 347.103 292.788 347.157Z" fill="#93A0C2"/>
<path d="M280.165 348.463L283.648 350.236C284.108 350.442 284.617 350.55 285.132 350.55C285.648 350.55 286.156 350.442 286.616 350.236L289.932 348.537C290.111 348.483 290.266 348.381 290.376 348.245C290.486 348.109 290.545 347.946 290.545 347.78C290.545 347.613 290.486 347.45 290.376 347.314C290.266 347.178 290.111 347.076 289.932 347.022L286.449 345.237C285.99 345.037 285.484 344.932 284.972 344.932C284.46 344.932 283.954 345.037 283.495 345.237L280.179 346.949C280 347.001 279.844 347.102 279.733 347.237C279.622 347.372 279.561 347.534 279.559 347.701C279.558 347.868 279.615 348.031 279.724 348.168C279.833 348.304 279.987 348.407 280.165 348.463Z" fill="#93A0C2"/>
<path d="M312.978 355.96L316.74 354.027C316.919 353.973 317.074 353.871 317.184 353.735C317.293 353.6 317.352 353.437 317.352 353.27C317.352 353.103 317.293 352.941 317.184 352.805C317.074 352.669 316.919 352.567 316.74 352.513L307.391 347.749C306.931 347.542 306.423 347.435 305.907 347.435C305.391 347.435 304.883 347.542 304.423 347.749L300.633 349.669C300.454 349.723 300.299 349.825 300.19 349.961C300.08 350.097 300.021 350.259 300.021 350.426C300.021 350.593 300.08 350.756 300.19 350.892C300.299 351.027 300.454 351.129 300.633 351.183L309.982 355.96C310.446 356.17 310.959 356.279 311.48 356.279C312.001 356.279 312.514 356.17 312.978 355.96Z" fill="#93A0C2"/>
<path d="M320.976 351.848L324.32 350.137C324.498 350.083 324.653 349.98 324.763 349.845C324.873 349.709 324.932 349.546 324.932 349.379C324.932 349.213 324.873 349.05 324.763 348.914C324.653 348.778 324.498 348.676 324.32 348.622L312.936 342.812C312.479 342.605 311.973 342.498 311.459 342.498C310.946 342.498 310.44 342.605 309.982 342.812L306.638 344.535C306.46 344.589 306.305 344.691 306.195 344.827C306.085 344.963 306.026 345.125 306.026 345.292C306.026 345.459 306.085 345.622 306.195 345.758C306.305 345.893 306.46 345.995 306.638 346.049L318.022 351.848C318.479 352.054 318.985 352.162 319.499 352.162C320.012 352.162 320.518 352.054 320.976 351.848Z" fill="#93A0C2"/>
<path d="M268.113 350.198L271.457 351.897C271.914 352.103 272.42 352.211 272.934 352.211C273.447 352.211 273.953 352.103 274.411 351.897L277.866 350.124C278.045 350.07 278.2 349.968 278.31 349.832C278.419 349.696 278.478 349.534 278.478 349.367C278.478 349.2 278.419 349.037 278.31 348.901C278.2 348.766 278.045 348.664 277.866 348.61L274.522 346.898C274.063 346.698 273.557 346.593 273.045 346.593C272.533 346.593 272.027 346.698 271.568 346.898L268.099 348.684C267.921 348.739 267.766 348.842 267.658 348.979C267.549 349.115 267.492 349.278 267.493 349.445C267.495 349.612 267.555 349.774 267.666 349.909C267.777 350.044 267.934 350.145 268.113 350.198Z" fill="#93A0C2"/>
<path d="M262.553 348.684L221.59 327.756C221.132 327.549 220.626 327.442 220.113 327.442C219.599 327.442 219.093 327.549 218.636 327.756L215.194 329.541C215.015 329.595 214.86 329.697 214.751 329.833C214.641 329.969 214.582 330.131 214.582 330.298C214.582 330.465 214.641 330.628 214.751 330.763C214.86 330.899 215.015 331.001 215.194 331.055L256.158 351.984C256.615 352.19 257.121 352.298 257.635 352.298C258.148 352.298 258.655 352.19 259.112 351.984L262.567 350.223C262.756 350.174 262.922 350.072 263.039 349.932C263.156 349.793 263.219 349.623 263.217 349.449C263.216 349.275 263.15 349.106 263.03 348.968C262.91 348.831 262.743 348.731 262.553 348.684Z" fill="#93A0C2"/>
<path d="M337.584 350.47L333.404 348.352C332.947 348.146 332.441 348.038 331.927 348.038C331.414 348.038 330.908 348.146 330.45 348.352L329.907 348.635C329.728 348.689 329.573 348.791 329.463 348.927C329.353 349.063 329.294 349.225 329.294 349.392C329.294 349.559 329.353 349.722 329.463 349.858C329.573 349.993 329.728 350.095 329.907 350.149L334.087 352.267C334.545 352.47 335.051 352.577 335.564 352.577C336.077 352.577 336.583 352.47 337.041 352.267L337.584 351.984C337.763 351.93 337.918 351.828 338.028 351.692C338.138 351.556 338.197 351.394 338.197 351.227C338.197 351.06 338.138 350.897 338.028 350.761C337.918 350.626 337.763 350.524 337.584 350.47Z" fill="#93A0C2"/>
<path d="M275.72 354.076L286.797 359.714C287.252 359.921 287.756 360.028 288.267 360.028C288.778 360.028 289.282 359.921 289.737 359.714L293.207 357.942C293.385 357.888 293.54 357.786 293.65 357.65C293.76 357.514 293.819 357.351 293.819 357.185C293.819 357.018 293.76 356.855 293.65 356.719C293.54 356.584 293.385 356.482 293.207 356.427L282.143 350.777C281.685 350.573 281.179 350.467 280.667 350.467C280.154 350.467 279.648 350.573 279.19 350.777L275.72 352.55C275.536 352.601 275.376 352.702 275.262 352.84C275.148 352.977 275.087 353.143 275.087 353.313C275.087 353.483 275.148 353.649 275.262 353.786C275.376 353.923 275.536 354.025 275.72 354.076Z" fill="#93A0C2"/>
<path d="M270.161 352.562L266.817 350.863C266.36 350.656 265.854 350.549 265.34 350.549C264.827 350.549 264.32 350.656 263.863 350.863L260.422 352.623C260.243 352.677 260.088 352.779 259.978 352.915C259.868 353.051 259.809 353.214 259.809 353.38C259.809 353.547 259.868 353.71 259.978 353.846C260.088 353.982 260.243 354.084 260.422 354.138L263.766 355.849C264.225 356.05 264.73 356.154 265.242 356.154C265.755 356.154 266.26 356.05 266.719 355.849L270.161 354.076C270.34 354.022 270.495 353.92 270.605 353.784C270.714 353.648 270.773 353.486 270.773 353.319C270.773 353.152 270.714 352.989 270.605 352.854C270.495 352.718 270.34 352.616 270.161 352.562Z" fill="#93A0C2"/>
<path d="M332.68 352.931L328.5 350.813C328.045 350.607 327.541 350.5 327.03 350.5C326.518 350.5 326.015 350.607 325.56 350.813L322.216 352.525C322.037 352.579 321.882 352.681 321.772 352.816C321.662 352.952 321.603 353.115 321.603 353.282C321.603 353.449 321.662 353.611 321.772 353.747C321.882 353.883 322.037 353.985 322.216 354.039L326.396 356.156C326.853 356.363 327.359 356.47 327.873 356.47C328.386 356.47 328.892 356.363 329.35 356.156L332.694 354.445C332.879 354.396 333.042 354.296 333.157 354.158C333.272 354.021 333.333 353.854 333.332 353.683C333.33 353.512 333.266 353.347 333.148 353.211C333.03 353.075 332.866 352.977 332.68 352.931Z" fill="#93A0C2"/>
<path d="M277.42 356.267L274.425 354.741C273.967 354.534 273.461 354.427 272.948 354.427C272.434 354.427 271.928 354.534 271.471 354.741L268.029 356.514C267.855 356.57 267.705 356.672 267.599 356.807C267.493 356.941 267.436 357.101 267.436 357.264C267.436 357.428 267.493 357.588 267.599 357.722C267.705 357.857 267.855 357.959 268.029 358.015L271.025 359.554C271.487 359.754 271.994 359.858 272.509 359.858C273.023 359.858 273.531 359.754 273.993 359.554L277.434 357.782C277.612 357.726 277.766 357.623 277.875 357.487C277.984 357.35 278.041 357.187 278.04 357.02C278.038 356.853 277.978 356.691 277.867 356.556C277.755 356.421 277.599 356.32 277.42 356.267Z" fill="#93A0C2"/>
<path d="M305.426 359.838L308.742 358.127C308.923 358.076 309.08 357.976 309.192 357.841C309.304 357.706 309.364 357.543 309.364 357.376C309.364 357.209 309.304 357.046 309.192 356.911C309.08 356.776 308.923 356.676 308.742 356.625L294.196 349.239C293.741 349.032 293.237 348.925 292.726 348.925C292.215 348.925 291.711 349.032 291.256 349.239L287.926 350.938C287.747 350.992 287.592 351.094 287.482 351.229C287.372 351.365 287.313 351.528 287.313 351.695C287.313 351.862 287.372 352.024 287.482 352.16C287.592 352.296 287.747 352.398 287.926 352.452L302.472 359.838C302.931 360.039 303.437 360.144 303.949 360.144C304.461 360.144 304.967 360.039 305.426 359.838Z" fill="#93A0C2"/>
<path d="M285.501 360.379L281.698 358.446C281.238 358.24 280.729 358.132 280.214 358.132C279.698 358.132 279.19 358.24 278.73 358.446L275.288 360.219C275.11 360.273 274.954 360.375 274.845 360.511C274.735 360.647 274.676 360.809 274.676 360.976C274.676 361.143 274.735 361.306 274.845 361.442C274.954 361.577 275.11 361.679 275.288 361.733L279.092 363.666C279.549 363.873 280.055 363.98 280.569 363.98C281.082 363.98 281.589 363.873 282.046 363.666L285.487 361.893C285.667 361.841 285.823 361.74 285.934 361.605C286.045 361.47 286.105 361.308 286.107 361.141C286.108 360.974 286.051 360.811 285.942 360.674C285.834 360.538 285.68 360.435 285.501 360.379Z" fill="#93A0C2"/>
<path d="M291.061 361.893L294.767 363.789C295.224 363.995 295.731 364.103 296.244 364.103C296.757 364.103 297.264 363.995 297.721 363.789L301.176 362.016C301.355 361.962 301.51 361.86 301.62 361.724C301.73 361.589 301.789 361.426 301.789 361.259C301.789 361.092 301.73 360.93 301.62 360.794C301.51 360.658 301.355 360.556 301.176 360.502L297.47 358.606C297.01 358.4 296.502 358.292 295.986 358.292C295.47 358.292 294.962 358.4 294.502 358.606L291.047 360.379C290.225 360.797 290.239 361.475 291.061 361.893Z" fill="#93A0C2"/>
<path d="M317.144 360.908L312.964 358.791C312.506 358.587 312 358.481 311.487 358.481C310.974 358.481 310.468 358.587 310.01 358.791L306.694 360.502C306.515 360.556 306.36 360.658 306.25 360.794C306.141 360.93 306.082 361.092 306.082 361.259C306.082 361.426 306.141 361.589 306.25 361.725C306.36 361.86 306.515 361.962 306.694 362.016L310.874 364.122C311.329 364.328 311.833 364.436 312.344 364.436C312.855 364.436 313.359 364.328 313.814 364.122L317.144 362.423C317.323 362.369 317.478 362.267 317.588 362.131C317.697 361.995 317.756 361.832 317.756 361.666C317.756 361.499 317.697 361.336 317.588 361.2C317.478 361.064 317.323 360.963 317.144 360.908Z" fill="#93A0C2"/>
<path d="M293.471 364.454L289.765 362.558C289.305 362.352 288.797 362.244 288.281 362.244C287.765 362.244 287.257 362.352 286.797 362.558L283.356 364.331C283.177 364.385 283.022 364.487 282.912 364.623C282.802 364.759 282.743 364.921 282.743 365.088C282.743 365.255 282.802 365.418 282.912 365.553C283.022 365.689 283.177 365.791 283.356 365.845L287.062 367.741C287.519 367.948 288.025 368.055 288.539 368.055C289.052 368.055 289.559 367.948 290.016 367.741L293.457 365.981C293.642 365.931 293.803 365.83 293.918 365.694C294.034 365.558 294.097 365.392 294.098 365.222C294.1 365.052 294.04 364.885 293.927 364.747C293.814 364.609 293.655 364.507 293.471 364.454Z" fill="#93A0C2"/>
<path d="M309.578 364.786L305.398 362.681C304.941 362.475 304.435 362.367 303.921 362.367C303.408 362.367 302.902 362.475 302.444 362.681L298.989 364.454C298.81 364.508 298.655 364.61 298.545 364.746C298.436 364.882 298.376 365.044 298.376 365.211C298.376 365.378 298.436 365.541 298.545 365.676C298.655 365.812 298.81 365.914 298.989 365.968L303.169 368.073C303.624 368.28 304.128 368.387 304.639 368.387C305.15 368.387 305.654 368.28 306.109 368.073L309.578 366.301C309.757 366.247 309.912 366.145 310.022 366.009C310.132 365.873 310.191 365.71 310.191 365.543C310.191 365.377 310.132 365.214 310.022 365.078C309.912 364.942 309.757 364.84 309.578 364.786Z" fill="#93A0C2"/>
<path d="M301.887 368.738L297.707 366.633C297.247 366.426 296.739 366.319 296.223 366.319C295.707 366.319 295.199 366.426 294.739 366.633L291.298 368.406C291.119 368.46 290.964 368.562 290.854 368.698C290.744 368.833 290.685 368.996 290.685 369.163C290.685 369.33 290.744 369.492 290.854 369.628C290.964 369.764 291.119 369.866 291.298 369.92L295.478 372.025C295.935 372.232 296.441 372.339 296.955 372.339C297.468 372.339 297.974 372.232 298.432 372.025L301.873 370.252C302.052 370.2 302.208 370.099 302.319 369.964C302.43 369.829 302.491 369.667 302.493 369.5C302.494 369.333 302.437 369.17 302.328 369.033C302.219 368.897 302.065 368.793 301.887 368.738Z" fill="#93A0C2"/>
<path d="M314.288 342.11L318.064 344.043C318.523 344.243 319.028 344.348 319.541 344.348C320.053 344.348 320.558 344.243 321.017 344.043L321.561 343.76C321.74 343.706 321.895 343.604 322.004 343.468C322.114 343.332 322.173 343.169 322.173 343.002C322.173 342.836 322.114 342.673 322.004 342.537C321.895 342.401 321.74 342.299 321.561 342.245L317.785 340.313C317.328 340.106 316.821 339.999 316.308 339.999C315.795 339.999 315.288 340.106 314.831 340.313L314.288 340.596C313.466 341.014 313.466 341.691 314.288 342.11Z" fill="#93A0C2"/>
<path d="M325.128 356.809L320.948 354.692C320.493 354.486 319.989 354.378 319.478 354.378C318.967 354.378 318.463 354.486 318.008 354.692L314.288 356.625C314.114 356.681 313.964 356.784 313.858 356.918C313.752 357.052 313.695 357.212 313.695 357.376C313.695 357.539 313.752 357.699 313.858 357.833C313.964 357.968 314.114 358.07 314.288 358.127L318.468 360.244C318.925 360.45 319.431 360.558 319.945 360.558C320.458 360.558 320.964 360.45 321.422 360.244L325.17 358.311C325.95 357.856 325.95 357.228 325.128 356.809Z" fill="#93A0C2"/>
<path d="M180.807 244.055L86.6875 292.165L129.895 314.35L224.014 266.251L180.807 244.055Z" fill="#6D7687"/>
<path d="M139.69 129.514C151.101 123.691 160.408 128.381 160.436 139.965L160.52 164.587C160.488 165.117 160.315 165.633 160.015 166.093C159.714 166.553 159.296 166.944 158.792 167.234C157.845 167.714 157.064 167.32 157.064 166.36L156.981 141.738C156.981 132.099 149.192 128.196 139.69 133.034C130.187 137.873 122.482 149.666 122.524 159.318V183.94C122.506 184.465 122.349 184.979 122.066 185.44C121.783 185.902 121.382 186.299 120.894 186.599C119.946 187.079 119.166 186.685 119.152 185.725L119.082 161.103C119.027 149.494 128.278 135.337 139.69 129.514Z" fill="url(#paint0_linear)"/>
<path d="M129.895 311.21L86.6875 289.025L105.874 182.463L130.48 195.094L129.895 311.21Z" fill="#3F6FCE"/>
<path d="M119.068 189.234L109.663 285L129.895 311.21L130.48 195.094L119.068 189.234Z" fill="#4980EA"/>
<path d="M109.663 285L86.6875 289.026L105.915 182.476L119.068 189.234L109.663 285Z" fill="#5D91F8"/>
<path d="M130.48 195.094L105.874 182.463L179.553 144.878L204.159 157.509L130.48 195.094Z" fill="#4980EA"/>
<path d="M105.915 182.463V182.475L130.48 195.094L179.901 169.881L179.595 144.902L179.567 144.89L105.915 182.463Z" fill="#3E73D9"/>
<path d="M204.159 157.509L224.014 263.198L129.895 311.21L130.48 195.094L204.159 157.509Z" fill="#6795EF"/>
<path d="M170.12 145.149C181.545 139.326 190.853 144.017 190.881 155.589L190.964 180.21C190.932 180.739 190.759 181.253 190.459 181.711C190.158 182.169 189.74 182.558 189.236 182.845C188.289 183.337 187.509 182.943 187.509 181.983L187.425 157.361C187.425 147.71 179.636 143.82 170.134 148.658C160.631 153.496 152.94 165.29 152.94 174.941L153.024 199.563C152.991 200.088 152.819 200.599 152.522 201.055C152.224 201.511 151.809 201.898 151.31 202.185C150.349 202.678 149.582 202.284 149.568 201.323V176.702C149.471 165.117 158.723 151.034 170.12 145.149Z" fill="url(#paint1_linear)"/>
<path d="M201.581 231.916C201.08 231.27 200.42 230.733 199.65 230.345C198.88 229.957 198.021 229.728 197.137 229.675C194.925 229.588 192.738 230.113 190.881 231.177C188.498 232.429 186.408 234.071 184.722 236.015C182.814 238.052 181.29 240.346 180.208 242.811C179.136 245.08 178.555 247.506 178.494 249.964C178.423 251.875 179.038 253.758 180.249 255.343C180.764 255.996 181.439 256.539 182.222 256.931C183.006 257.323 183.879 257.554 184.778 257.609C186.96 257.715 189.125 257.211 190.964 256.168C193.375 254.881 195.495 253.211 197.22 251.244C199.102 249.165 200.615 246.844 201.707 244.362C202.748 242.105 203.301 239.696 203.337 237.259C203.449 235.354 202.831 233.471 201.581 231.916ZM194.085 245.31C193.357 246.508 192.273 247.508 190.95 248.203C190.498 248.5 189.966 248.688 189.407 248.749C188.847 248.809 188.279 248.74 187.759 248.548C187.319 248.229 186.974 247.82 186.753 247.357C186.532 246.894 186.442 246.39 186.492 245.889C186.547 244.5 187.028 243.151 187.885 241.986C188.602 240.807 189.666 239.82 190.964 239.13C191.381 238.783 191.913 238.563 192.482 238.503C193.051 238.443 193.627 238.546 194.125 238.797C194.623 239.048 195.016 239.433 195.247 239.897C195.479 240.36 195.535 240.877 195.409 241.371C195.377 242.765 194.919 244.126 194.085 245.31Z" fill="white"/>
<path d="M167.849 238.096C169.727 236.043 171.219 233.736 172.266 231.263C173.294 229.005 173.829 226.594 173.84 224.16C173.95 222.248 173.38 220.354 172.21 218.743C171.711 218.082 171.039 217.538 170.25 217.156C169.462 216.775 168.581 216.567 167.682 216.552C165.502 216.45 163.342 216.958 161.509 218.005C159.142 219.274 157.055 220.914 155.351 222.843C153.44 224.907 151.894 227.214 150.767 229.688C149.726 231.944 149.173 234.354 149.136 236.791C149.039 238.708 149.629 240.604 150.822 242.208C151.364 242.848 152.055 243.38 152.848 243.766C153.641 244.153 154.518 244.385 155.42 244.448C157.6 244.54 159.758 244.028 161.593 242.983C164.005 241.713 166.127 240.056 167.849 238.096ZM158.388 235.351C157.939 235.042 157.587 234.636 157.367 234.173C157.148 233.709 157.067 233.203 157.134 232.704C157.142 231.342 157.576 230.008 158.388 228.85C159.146 227.664 160.228 226.665 161.537 225.945C161.968 225.636 162.491 225.445 163.043 225.395C163.595 225.345 164.151 225.437 164.644 225.662C165.101 225.928 165.471 226.295 165.715 226.728C165.96 227.16 166.071 227.642 166.038 228.124C165.958 229.532 165.479 230.899 164.644 232.1C163.944 233.294 162.876 234.288 161.565 234.969C161.125 235.282 160.596 235.482 160.037 235.55C159.477 235.617 158.907 235.548 158.388 235.351Z" fill="white"/>
<path d="M194.266 202.493L194.029 202.136L193.319 202.333L186.032 206.051L184.694 207.454L157.552 271.261L157.413 271.901L158.36 272.221L165.633 268.516L166.985 267.014L194.043 203.342L194.266 202.493Z" fill="white"/>
<path d="M451.112 371.804L422.173 357.031L411.402 351.528L409.271 350.445C407.511 349.656 405.566 349.244 403.593 349.244C401.62 349.244 399.674 349.656 397.915 350.445L330.478 385.063C327.343 386.676 327.357 389.273 330.478 390.886L332.596 391.969L343.366 397.46L372.306 412.233C374.067 413.024 376.015 413.437 377.99 413.437C379.966 413.437 381.914 413.024 383.675 412.233L451.112 377.615C454.219 376.015 454.206 373.405 451.112 371.804Z" fill="#6D7687"/>
<path d="M451.112 374.044L383.675 408.662C381.914 409.453 379.966 409.866 377.991 409.866C376.015 409.866 374.067 409.453 372.306 408.662L343.366 393.889L332.596 388.398L330.478 387.315C329.823 387.061 329.258 386.656 328.841 386.143C328.424 385.63 328.172 385.027 328.109 384.397V386.059C328.179 386.688 328.436 387.29 328.854 387.803C329.273 388.315 329.838 388.721 330.492 388.977L332.61 390.06L343.38 395.551L372.306 410.324C374.069 411.117 376.019 411.531 377.997 411.531C379.976 411.531 381.926 411.117 383.689 410.324L451.112 375.694C451.758 375.441 452.315 375.041 452.727 374.535C453.138 374.028 453.389 373.434 453.453 372.813V371.151C453.387 371.773 453.136 372.368 452.725 372.877C452.314 373.385 451.757 373.788 451.112 374.044Z" fill="#8591B3"/>
<path d="M451.112 374.044L383.675 408.662C381.914 409.453 379.966 409.866 377.991 409.866C376.015 409.866 374.067 409.453 372.306 408.662L343.366 393.889L332.596 388.398L330.478 387.315C329.823 387.061 329.258 386.656 328.841 386.143C328.424 385.63 328.172 385.027 328.109 384.397V384.717C328.177 385.344 328.432 385.943 328.848 386.454C329.264 386.964 329.827 387.368 330.478 387.623L332.596 388.706L343.366 394.197L372.292 408.97C374.055 409.763 376.005 410.177 377.984 410.177C379.962 410.177 381.912 409.763 383.675 408.97L451.112 374.339C451.758 374.084 452.315 373.681 452.727 373.173C453.138 372.665 453.389 372.069 453.453 371.446V371.163C453.386 371.783 453.134 372.377 452.723 372.883C452.312 373.389 451.756 373.79 451.112 374.044Z" fill="#F0F4FF"/>
<path d="M451.112 368.221L422.173 353.448L411.361 348.007L409.229 346.923C407.47 346.134 405.524 345.723 403.551 345.723C401.578 345.723 399.633 346.134 397.873 346.923L330.436 381.554C327.301 383.154 327.315 385.764 330.436 387.365L332.554 388.448L343.325 393.938L372.264 408.711C374.025 409.503 375.973 409.915 377.949 409.915C379.925 409.915 381.873 409.503 383.634 408.711L451.112 374.044C454.22 372.431 454.206 369.822 451.112 368.221Z" fill="#C4D0F0"/>
<path d="M332.68 388.461L343.353 393.902L343.715 394.087L422.48 353.633L422.131 353.461L411.458 348.02L332.68 388.461Z" fill="#F0F4FF"/>
<path d="M422.131 353.46L343.352 393.901L332.582 388.411L411.361 347.97L422.131 353.46Z" fill="#2F2E48"/>
<path d="M439.604 368.628C443.365 370.548 443.393 373.663 439.604 375.583C437.787 376.457 435.763 376.942 433.696 376.999C433.933 375.596 432.999 374.155 430.909 373.084C428.557 371.984 425.901 371.489 423.246 371.656C423.42 370.998 423.761 370.383 424.244 369.858C424.727 369.334 425.338 368.913 426.033 368.628C428.135 367.683 430.46 367.19 432.818 367.19C435.176 367.19 437.501 367.683 439.604 368.628Z" fill="#DCB051"/>
<path d="M430.937 373.084C433.041 374.155 433.974 375.546 433.723 376.999C431.061 377.168 428.397 376.677 426.032 375.583C423.928 374.512 422.995 373.121 423.246 371.656C425.91 371.484 428.576 371.979 430.937 373.084Z" fill="#DC7330"/>
<path d="M433.738 376.999C433.562 377.657 433.22 378.271 432.737 378.796C432.254 379.32 431.644 379.741 430.951 380.028C428.848 380.977 426.52 381.473 424.158 381.473C421.797 381.473 419.469 380.977 417.366 380.028C413.604 378.119 413.576 375.005 417.366 373.084C419.186 372.205 421.214 371.716 423.288 371.656C423.037 373.06 423.97 374.512 426.074 375.583C428.431 376.673 431.084 377.163 433.738 376.999Z" fill="#CB4F43"/>
<path style="mix-blend-mode:overlay" opacity="0.5" d="M335.257 379.031H441.359L451.112 374.045C454.233 372.432 454.22 369.822 451.112 368.222L429.237 357.068H378.046L335.257 379.031Z" fill="url(#paint2_linear)"/>
<path d="M338.378 337.826L275.191 305.313L275.177 304.07L338.364 336.583L338.378 337.826Z" fill="#EBF0FF"/>
<path d="M398.653 293.124C397.928 291.758 393.47 280.149 388.76 267.863C384.58 256.783 379.732 244.324 379.118 243.241C378.64 242.456 377.914 241.81 377.028 241.382C360.685 232.986 330.185 217.265 313.841 208.869C314.727 209.296 315.456 209.936 315.945 210.716C316.544 211.824 321.337 224.258 325.573 235.337C330.296 247.648 334.741 259.245 335.465 260.612C335.923 261.386 336.192 262.236 336.254 263.107C336.317 263.979 336.171 264.852 335.828 265.671C334.902 267.223 333.437 268.47 331.648 269.229L284.804 294.983L347.992 327.509L394.891 301.754C396.674 300.987 398.137 299.742 399.071 298.197C399.403 297.372 399.537 296.495 399.465 295.622C399.393 294.749 399.117 293.898 398.653 293.124Z" fill="url(#paint3_linear)"/>
<path d="M364.92 244.152L301.747 211.627L301.733 208.549L364.92 241.074V244.152Z" fill="#EBF0FF"/>
<path d="M315.959 205.557C314.632 204.892 313.126 204.555 311.601 204.584C310.075 204.612 308.587 205.003 307.292 205.717L301.719 208.549L364.906 241.074L370.48 238.23C371.775 237.518 373.265 237.129 374.79 237.103C376.315 237.077 377.82 237.415 379.146 238.082L315.959 205.557Z" fill="url(#paint4_linear)"/>
<path d="M370.48 238.23C371.398 237.701 372.427 237.342 373.507 237.174C374.586 237.005 375.693 237.032 376.76 237.252C377.828 237.471 378.834 237.88 379.718 238.452C380.602 239.024 381.346 239.749 381.905 240.582C382.518 241.702 386.155 251.144 391.658 265.437C395.936 276.591 400.785 289.222 401.412 290.502C402.084 291.767 402.441 293.145 402.458 294.543C402.475 295.941 402.151 297.325 401.509 298.603C400.122 301.264 397.788 303.451 394.863 304.832L347.964 328.752V327.521L394.863 301.766C396.646 300.999 398.109 299.754 399.043 298.209C399.384 297.387 399.527 296.512 399.465 295.639C399.402 294.766 399.135 293.914 398.681 293.137C397.956 291.77 393.498 280.161 388.788 267.875C384.608 256.795 379.759 244.336 379.146 243.253C378.267 242.008 376.875 241.113 375.263 240.757C373.652 240.401 371.947 240.612 370.508 241.345L364.934 244.176V241.099L370.48 238.23Z" fill="#C4D0F0"/>
<path d="M483.591 314.879L479.69 333.887C479.596 334.751 479.234 335.577 478.644 336.271C478.054 336.966 477.259 337.504 476.346 337.826L482.1 336.226C483.013 335.904 483.809 335.366 484.398 334.671C484.988 333.976 485.35 333.151 485.444 332.286L489.345 313.278L483.591 314.879Z" fill="#CFDFFF"/>
<path d="M528.455 129.206L277.196 1.03749C276.644 0.725989 276.023 0.5211 275.375 0.436239C274.727 0.351379 274.065 0.388462 273.434 0.545059L267.68 2.14547C268.311 1.98887 268.972 1.95179 269.62 2.03665C270.269 2.12151 270.889 2.3264 271.442 2.6379L522.701 130.806C524.378 131.83 525.69 133.255 526.484 134.914C527.279 136.573 527.523 138.398 527.187 140.175L493.218 305.804L498.972 304.204L532.942 138.574C533.281 136.797 533.038 134.972 532.244 133.312C531.449 131.653 530.135 130.228 528.455 129.206Z" fill="url(#paint5_linear)"/>
<path d="M230.353 171.715L226.451 190.723C226.116 192.5 226.36 194.324 227.154 195.983C227.949 197.642 229.261 199.067 230.938 200.091L482.197 328.259C485.401 329.897 488.592 328.358 489.317 324.812L493.218 305.804L230.353 171.715Z" fill="white"/>
<path d="M522.701 130.806L271.442 2.63778C268.237 1.00044 265.047 2.5516 264.322 6.08481L230.353 171.715L493.218 305.804L527.187 140.174C527.523 138.398 527.279 136.573 526.485 134.914C525.69 133.255 524.378 131.83 522.701 130.806Z" fill="url(#paint6_linear)"/>
<path d="M271.107 11.0952L519.886 138.008L518.047 146.933L269.268 20.0206L271.107 11.0952Z" fill="#8C97AD"/>
<path d="M317.227 44.5192L518.047 146.884L515.079 161.558L266.273 34.6459L269.268 20.0822L272.947 21.9535L275.427 16.5244C275.537 16.3156 275.697 16.1298 275.894 15.9791C276.092 15.8285 276.323 15.7163 276.573 15.6501C276.823 15.5839 277.086 15.565 277.344 15.5947C277.603 15.6245 277.852 15.7021 278.074 15.8227L315.415 34.8552C315.959 35.2062 316.409 35.658 316.734 36.1791C317.059 36.7002 317.251 37.2778 317.296 37.8714L317.227 44.5192Z" fill="white"/>
<path d="M315.053 37.3176C315.18 37.3866 315.278 37.4904 315.332 37.6131C315.4 37.7209 315.423 37.8463 315.398 37.9677C315.373 38.0891 315.3 38.1988 315.193 38.2779L314.231 38.7457L314.83 39.9768C314.9 40.0832 314.926 40.2078 314.903 40.3291C314.88 40.4504 314.81 40.5609 314.705 40.6415C314.655 40.6687 314.597 40.6831 314.538 40.6831C314.479 40.6831 314.421 40.6687 314.371 40.6415C314.244 40.5726 314.146 40.4688 314.092 40.3461L313.479 39.115L312.517 39.5828C312.466 39.6066 312.408 39.6189 312.35 39.6189C312.292 39.6189 312.235 39.6066 312.183 39.5828C312.06 39.5132 311.967 39.4092 311.918 39.2874C311.849 39.1809 311.823 39.0564 311.846 38.9351C311.869 38.8137 311.939 38.7033 312.044 38.6226L313.019 38.1548L312.406 36.9237C312.337 36.814 312.313 36.6866 312.338 36.5631C312.364 36.4396 312.437 36.3277 312.545 36.2466C312.597 36.2228 312.654 36.2104 312.712 36.2104C312.771 36.2104 312.828 36.2228 312.88 36.2466C312.999 36.3194 313.092 36.4223 313.144 36.542L313.757 37.7731L314.719 37.3053C314.77 37.2799 314.829 37.2677 314.888 37.2698C314.947 37.272 315.004 37.2885 315.053 37.3176Z" fill="#6D95B3"/>
<path d="M323.817 41.4297C324.168 41.6549 324.453 41.9514 324.647 42.2943C324.841 42.6371 324.939 43.0162 324.932 43.3994L324.834 45.7508C324.834 46.5018 324.263 46.8465 323.622 46.5264L320.348 44.8521C319.992 44.6297 319.704 44.3341 319.507 43.9908C319.311 43.6475 319.212 43.2671 319.219 42.8824L319.317 40.531C319.317 39.7924 319.902 39.4353 320.543 39.7554L323.817 41.4297Z" fill="white"/>
<path d="M510.077 153.162L504.225 150.183C504.174 150.152 504.113 150.134 504.051 150.131C503.989 150.128 503.927 150.139 503.871 150.164C503.816 150.189 503.769 150.227 503.735 150.274C503.702 150.321 503.684 150.374 503.682 150.429C503.656 150.567 503.675 150.709 503.737 150.837C503.799 150.966 503.9 151.076 504.03 151.156L509.868 154.135C510.119 154.258 510.356 154.135 510.412 153.864C510.437 153.731 510.418 153.595 510.359 153.471C510.3 153.346 510.202 153.24 510.077 153.162Z" fill="#788194"/>
<path d="M510.579 150.663L504.741 147.684C504.689 147.653 504.629 147.635 504.567 147.632C504.504 147.629 504.442 147.64 504.387 147.665C504.331 147.69 504.284 147.728 504.251 147.775C504.218 147.822 504.199 147.875 504.198 147.93C504.172 148.068 504.191 148.21 504.253 148.338C504.314 148.467 504.416 148.577 504.546 148.657L510.384 151.636C510.635 151.759 510.872 151.636 510.927 151.365C510.954 151.231 510.936 151.093 510.874 150.968C510.812 150.843 510.709 150.737 510.579 150.663Z" fill="#788194"/>
<path d="M511.094 148.115L505.326 145.173C505.075 145.05 504.838 145.173 504.783 145.432C504.756 145.568 504.775 145.707 504.837 145.834C504.899 145.961 505.001 146.069 505.131 146.146L510.969 149.125C511.023 149.152 511.083 149.167 511.145 149.168C511.207 149.169 511.268 149.156 511.322 149.13C511.377 149.104 511.423 149.066 511.456 149.02C511.49 148.974 511.509 148.921 511.512 148.866C511.541 148.718 511.516 148.566 511.441 148.431C511.366 148.296 511.245 148.186 511.094 148.115Z" fill="#788194"/>
<path d="M501.829 142.169L500.129 150.417L271.386 33.7353L273.072 25.4871L501.829 142.169Z" fill="#DEE6FF"/>
<path d="M266.273 34.6462L238.978 167.542L487.77 294.454L515.052 161.546L266.273 34.6462Z" fill="#6949EA"/>
<path d="M362.552 230.573L487.77 294.454L515.051 161.546L389.847 97.6777L362.552 230.573Z" fill="white"/>
<path d="M389.54 99.1304L514.759 162.999L515.051 161.546L389.847 97.6777L389.54 99.1304Z" fill="#DEE6FF"/>
<path d="M502.721 135.423L499.934 134.032C499.683 133.909 499.446 134.032 499.39 134.303C499.366 134.435 499.384 134.572 499.443 134.696C499.502 134.82 499.6 134.927 499.725 135.004L502.512 136.395C502.748 136.519 502.985 136.395 503.041 136.137C503.07 136.003 503.055 135.865 502.999 135.739C502.942 135.612 502.845 135.503 502.721 135.423Z" fill="white"/>
<path d="M509.603 135.719L506.817 134.315C506.762 134.288 506.7 134.273 506.637 134.272C506.574 134.272 506.512 134.286 506.458 134.314C506.403 134.341 506.357 134.381 506.325 134.428C506.292 134.476 506.275 134.531 506.273 134.586L505.674 137.504C505.649 137.637 505.668 137.773 505.727 137.897C505.786 138.022 505.884 138.128 506.009 138.206L508.795 139.597C509.032 139.732 509.283 139.597 509.339 139.351L509.938 136.433C509.966 136.298 509.949 136.159 509.889 136.032C509.83 135.906 509.731 135.797 509.603 135.719ZM508.572 138.415L506.705 137.455L507.109 135.522L508.976 136.47L508.572 138.415Z" fill="white"/>
<path d="M516.152 139.214C516.094 139.087 515.991 138.98 515.86 138.907C515.809 138.88 515.751 138.865 515.692 138.865C515.633 138.865 515.576 138.88 515.525 138.907L514.285 139.51L513.505 137.885C513.451 137.759 513.353 137.651 513.226 137.577C513.175 137.553 513.117 137.541 513.059 137.541C513.001 137.541 512.943 137.553 512.892 137.577C512.779 137.655 512.702 137.767 512.676 137.892C512.65 138.017 512.678 138.146 512.752 138.254L513.519 139.892L512.293 140.495C512.07 140.581 512.014 140.901 512.153 141.172C512.202 141.301 512.3 141.41 512.432 141.48C512.484 141.503 512.541 141.516 512.599 141.516C512.657 141.516 512.715 141.503 512.766 141.48L514.007 140.876L514.787 142.501C514.841 142.627 514.938 142.735 515.065 142.809C515.117 142.839 515.178 142.855 515.24 142.855C515.301 142.855 515.362 142.839 515.414 142.809C515.518 142.726 515.588 142.614 515.613 142.492C515.638 142.369 515.617 142.243 515.553 142.132L514.773 140.495L516.013 139.892C516.117 139.808 516.187 139.696 516.212 139.574C516.238 139.452 516.216 139.325 516.152 139.214Z" fill="white"/>
<path d="M425.377 218.484C426.381 219.088 427.173 219.928 427.666 220.909C428.158 221.89 428.33 222.973 428.164 224.036L426.408 233.885C426.032 235.978 424.179 236.889 422.228 235.916L379.035 213.892C378.03 213.283 377.237 212.438 376.745 211.453C376.253 210.468 376.081 209.382 376.248 208.315L378.004 198.467C378.38 196.374 380.233 195.475 382.184 196.448L425.377 218.484Z" fill="#4980EA"/>
<path d="M290.341 134.14L290.342 134.135L297.863 102.351C298.305 100.63 299.312 99.4217 300.545 98.8275C301.774 98.2354 303.304 98.2146 304.882 99.0159C304.882 99.0159 304.882 99.0159 304.883 99.016L342.476 118.16C344.218 119.187 345.56 120.64 346.346 122.323C347.134 124.009 347.332 125.857 346.922 127.637C346.921 127.639 346.921 127.64 346.921 127.642L339.175 159.422C339.175 159.422 339.175 159.423 339.175 159.423C338.752 161.142 337.746 162.351 336.512 162.945C335.282 163.538 333.752 163.557 332.196 162.758L332.194 162.757L294.605 143.616C292.898 142.569 291.593 141.11 290.84 139.431C290.084 137.745 289.912 135.906 290.341 134.14Z" stroke="white" stroke-width="1.5"/>
<path d="M261.606 106.863L262.567 108.795L259.042 110.507L261.425 115.246L259.99 115.948L256.646 109.288L261.606 106.863Z" fill="white"/>
<path d="M367.024 146.649L370.368 153.31L365.408 155.735L364.433 153.814L367.958 152.078L365.589 147.363L367.024 146.649Z" fill="white"/>
<path d="M391.561 156.794V156.941L391.31 158.172V158.357L391.449 158.492L393.498 159.539H393.665L393.748 159.403L393.916 158.172H394.027C394.449 158.331 394.91 158.394 395.367 158.358C395.823 158.321 396.263 158.186 396.647 157.963C397.015 157.722 397.32 157.413 397.541 157.059C397.762 156.704 397.894 156.311 397.928 155.907C398.074 155.153 398.002 154.378 397.719 153.654C397.49 153.05 397.157 152.481 396.73 151.968C396.34 151.525 395.797 150.971 395.086 150.293L393.693 148.939C393.445 148.682 393.239 148.396 393.08 148.09C392.968 147.84 392.929 147.569 392.968 147.302C393.038 146.933 393.205 146.723 393.484 146.649C393.665 146.622 393.851 146.626 394.03 146.662C394.209 146.698 394.379 146.765 394.529 146.859C395.082 147.143 395.52 147.574 395.783 148.09C396.035 148.522 396.137 149.01 396.075 149.493V149.616V149.801L396.201 149.949L398.458 151.094H398.611L398.695 150.971V150.7C398.876 149.702 398.741 148.679 398.305 147.745C397.896 146.766 397.227 145.888 396.354 145.184V145.037L396.619 143.67V143.486L396.479 143.338L394.431 142.304H394.278L394.194 142.427L393.971 143.806L393.888 143.892C393.509 143.765 393.102 143.717 392.698 143.751C392.295 143.785 391.906 143.901 391.561 144.089C391.212 144.32 390.924 144.614 390.715 144.951C390.506 145.289 390.381 145.662 390.349 146.046C390.209 146.804 390.276 147.581 390.544 148.311C390.794 149.003 391.166 149.655 391.644 150.244C392.157 150.867 392.716 151.459 393.316 152.017L393.651 152.337C394.119 152.765 394.552 153.221 394.947 153.704C395.164 153.993 395.254 154.344 395.197 154.688C395.182 154.821 395.131 154.948 395.048 155.059C394.966 155.17 394.855 155.263 394.724 155.329C394.535 155.383 394.335 155.394 394.14 155.362C393.945 155.33 393.763 155.255 393.609 155.144C393.016 154.865 392.531 154.437 392.216 153.913C391.924 153.52 391.796 153.05 391.853 152.583V152.362V152.165L391.714 152.029L389.499 150.897H389.345L389.248 151.02V151.377C389.071 152.355 389.191 153.358 389.596 154.282C390.013 155.247 390.687 156.108 391.561 156.794Z" fill="#2E3138"/>
<path d="M412.67 158.284L415.094 159.515H415.248L415.345 159.392L415.415 158.949C415.423 158.797 415.475 158.65 415.565 158.521C415.655 158.392 415.781 158.285 415.93 158.21C416.096 158.157 416.274 158.141 416.449 158.162C416.624 158.183 416.79 158.242 416.934 158.333C417.309 158.525 417.61 158.813 417.797 159.158C417.994 159.486 418.067 159.861 418.006 160.229C417.909 160.758 417.24 161.337 416.014 161.977L414.802 162.617C413.76 163.198 412.686 163.733 411.583 164.218C411.541 164.246 411.506 164.281 411.479 164.321C411.453 164.361 411.436 164.406 411.43 164.452L411.068 166.495V166.68L411.207 166.828L419.107 170.866H419.274L419.358 170.742L419.748 168.563V168.379L419.609 168.243L415.303 166.052V165.978V165.904L415.707 165.732C416.543 165.363 417.184 165.055 417.658 164.833C418.102 164.61 418.53 164.363 418.94 164.095C419.448 163.792 419.891 163.413 420.25 162.974C420.568 162.567 420.773 162.099 420.849 161.608C420.977 160.884 420.925 160.145 420.696 159.441C420.189 157.881 419.015 156.556 417.421 155.748C416.784 155.399 416.064 155.184 415.317 155.12C414.715 155.079 414.117 155.242 413.645 155.575C413.141 155.953 412.805 156.477 412.698 157.053L412.531 157.976V158.173L412.67 158.284Z" fill="#2E3138"/>
<path d="M403.446 162.248C403.989 163.032 404.746 163.684 405.647 164.144C406.371 164.574 407.249 164.753 408.114 164.648C408.488 164.585 408.841 164.448 409.147 164.247C409.453 164.047 409.705 163.789 409.883 163.491C410.234 162.971 410.462 162.393 410.552 161.792C410.67 161.107 410.67 160.41 410.552 159.724C410.389 158.63 409.815 157.615 408.922 156.843V156.757L411.276 156.043C411.321 156.022 411.359 155.993 411.388 155.956C411.417 155.92 411.436 155.878 411.444 155.834L411.876 153.372V153.187L411.75 153.052L404.393 149.358H404.24L404.143 149.482L403.752 151.648V151.833L403.878 151.981L407.57 153.864V153.938L404.588 154.775L404.477 154.898V155.071L405.341 157.533L405.48 157.717H405.619L406.274 157.594C406.429 157.59 406.582 157.619 406.72 157.681C406.967 157.816 407.178 157.995 407.342 158.207C407.505 158.419 407.616 158.659 407.668 158.912C407.759 159.384 407.759 159.867 407.668 160.34C407.616 160.732 407.458 161.108 407.208 161.435C407.143 161.516 407.061 161.584 406.965 161.635C406.87 161.687 406.764 161.721 406.654 161.736C406.544 161.751 406.431 161.746 406.323 161.722C406.214 161.698 406.113 161.655 406.024 161.595C405.775 161.468 405.568 161.286 405.424 161.066C405.256 160.835 405.147 160.575 405.104 160.303C405.063 159.971 405.063 159.637 405.104 159.306C405.118 159.242 405.107 159.176 405.074 159.119C405.042 159.061 404.988 159.014 404.923 158.985L402.498 157.754C402.373 157.693 402.289 157.754 402.262 157.865C402.178 158.462 402.178 159.066 402.262 159.663C402.438 160.59 402.842 161.473 403.446 162.248Z" fill="#2E3138"/>
<path d="M438.321 180.653V180.813L438.07 182.044V182.229L438.209 182.364L440.258 183.411H440.411L440.508 183.288L440.676 182.057L440.773 181.995C441.172 182.146 441.605 182.212 442.038 182.188C442.471 182.165 442.892 182.052 443.267 181.86C443.635 181.616 443.938 181.305 444.157 180.948C444.376 180.591 444.505 180.196 444.535 179.791C444.678 179.042 444.611 178.272 444.34 177.551C444.107 176.946 443.768 176.377 443.337 175.864C442.961 175.421 442.417 174.867 441.707 174.19C440.996 173.513 440.634 173.131 440.313 172.823C440.059 172.576 439.852 172.293 439.7 171.986C439.582 171.738 439.544 171.465 439.589 171.198C439.659 170.841 439.826 170.62 440.104 170.546C440.466 170.493 440.836 170.568 441.135 170.755C441.696 171.032 442.136 171.465 442.389 171.986C442.648 172.416 442.751 172.906 442.682 173.39V173.513V173.697L442.807 173.845L445.051 174.99H445.413L445.511 174.867V174.608C445.683 173.608 445.553 172.584 445.134 171.642C444.71 170.666 444.038 169.79 443.17 169.081V168.933L443.448 167.567V167.382L443.323 167.234L441.289 166.2H441.122L441.038 166.336L440.815 167.702L440.717 167.788C440.338 167.662 439.931 167.615 439.528 167.649C439.125 167.683 438.736 167.798 438.391 167.985C438.044 168.217 437.758 168.511 437.551 168.849C437.344 169.187 437.222 169.56 437.192 169.943C437.046 170.7 437.113 171.478 437.387 172.208C437.633 172.898 438 173.551 438.474 174.141C438.996 174.76 439.559 175.352 440.16 175.913L440.481 176.221C440.955 176.648 441.388 177.11 441.776 177.6C442.004 177.886 442.099 178.239 442.041 178.585C442.025 178.719 441.972 178.847 441.887 178.958C441.802 179.07 441.688 179.162 441.553 179.225C441.289 179.348 440.926 179.287 440.439 179.04C439.847 178.76 439.363 178.332 439.045 177.809C438.762 177.418 438.639 176.953 438.697 176.492V176.27V176.073L438.558 175.938L436.342 174.805H436.175L436.092 174.941V175.286C435.915 176.264 436.035 177.267 436.44 178.191C436.843 179.129 437.487 179.972 438.321 180.653Z" fill="#2E3138"/>
<path d="M457.019 176.492C456.448 175.831 455.733 175.278 454.915 174.867C454.284 174.516 453.568 174.301 452.825 174.239C452.218 174.196 451.616 174.359 451.139 174.694C450.638 175.077 450.307 175.605 450.206 176.184L450.039 177.107V177.292L450.164 177.427L452.589 178.658H452.742L452.839 178.535V178.092C452.846 177.939 452.899 177.79 452.992 177.66C453.085 177.53 453.215 177.425 453.369 177.353C453.532 177.298 453.708 177.28 453.881 177.302C454.054 177.323 454.219 177.384 454.358 177.476C454.733 177.669 455.034 177.956 455.222 178.301C455.426 178.628 455.499 179.005 455.431 179.372C455.333 179.902 454.679 180.493 453.452 181.12L452.226 181.761C451.19 182.349 450.115 182.883 449.008 183.361C448.968 183.39 448.935 183.425 448.911 183.465C448.887 183.505 448.872 183.55 448.868 183.595L448.506 185.639V185.835L448.631 185.971L456.546 190.009H456.699L456.796 189.886L457.173 187.719V187.522L457.047 187.387L452.742 185.195L452.672 185.121V185.048L453.076 184.875L455.013 183.977C455.463 183.756 455.896 183.509 456.309 183.238C456.813 182.936 457.252 182.556 457.605 182.118C457.927 181.711 458.137 181.243 458.218 180.751C458.339 180.027 458.287 179.289 458.064 178.584C457.87 177.834 457.516 177.124 457.019 176.492Z" fill="#2E3138"/>
<path d="M380.972 179.544L417.421 198.134L417.811 195.955L381.362 177.365L380.972 179.544Z" fill="#2E3138"/>
<path d="M382.504 170.927L455.152 207.995L455.932 203.637L383.284 166.569L382.504 170.927Z" fill="#2E3138"/>
<path d="M424.053 172.896L431.494 173.13C431.605 173.13 431.661 173.056 431.689 172.933L432.093 170.693C432.103 170.633 432.098 170.573 432.079 170.515C432.06 170.458 432.026 170.405 431.981 170.36L425.711 163.589L425.544 163.491L425.433 163.626L425.001 166.088C424.988 166.147 424.991 166.207 425.008 166.264C425.025 166.321 425.055 166.375 425.098 166.421L428.888 170.225V170.336L424.499 169.991C424.447 169.991 424.398 170.009 424.361 170.041C424.325 170.074 424.304 170.117 424.304 170.163L423.872 172.625C423.872 172.761 423.872 172.847 423.97 172.896H424.053Z" fill="#2E3138"/>
<path d="M467.469 182.585C466.855 181.434 465.853 180.479 464.599 179.852C464.138 179.548 463.597 179.352 463.027 179.284C462.456 179.215 461.876 179.275 461.339 179.458C460.842 179.746 460.43 180.133 460.137 180.589C459.844 181.045 459.678 181.557 459.653 182.081L458.859 186.586C458.6 187.877 458.784 189.206 459.388 190.403C459.969 191.553 460.944 192.513 462.175 193.148C462.639 193.458 463.185 193.656 463.762 193.723C464.338 193.789 464.924 193.723 465.463 193.53C465.966 193.235 466.382 192.84 466.678 192.375C466.973 191.911 467.14 191.391 467.163 190.858L467.971 186.352C468.231 185.081 468.056 183.769 467.469 182.585ZM465.24 184.814L464.39 189.602C464.387 189.796 464.332 189.986 464.231 190.157C464.129 190.328 463.983 190.475 463.805 190.587C463.632 190.668 463.436 190.703 463.24 190.688C463.045 190.673 462.859 190.608 462.704 190.501C462.281 190.296 461.955 189.964 461.785 189.566C461.585 189.128 461.532 188.65 461.631 188.187L462.481 183.41C462.487 183.214 462.542 183.021 462.643 182.846C462.745 182.672 462.889 182.519 463.067 182.401C463.233 182.323 463.421 182.288 463.608 182.301C463.796 182.314 463.975 182.375 464.125 182.475C464.554 182.686 464.888 183.02 465.073 183.422C465.274 183.846 465.332 184.312 465.24 184.764V184.814Z" fill="#2E3138"/>
<path d="M385.5 206.358C385.24 206.09 384.929 205.865 384.58 205.693C384.303 205.545 383.995 205.449 383.675 205.41C383.421 205.384 383.165 205.436 382.95 205.558C382.747 205.688 382.607 205.882 382.56 206.099L382.63 206.223L383.73 206.961H383.856C383.877 206.929 383.907 206.901 383.944 206.882C383.981 206.862 384.022 206.852 384.065 206.85C384.183 206.853 384.298 206.883 384.399 206.937C384.557 207.016 384.683 207.136 384.761 207.281C384.81 207.417 384.81 207.564 384.761 207.7V207.872L384.009 207.478C383.83 207.36 383.624 207.277 383.405 207.234C383.186 207.192 382.96 207.191 382.741 207.232C382.407 207.318 382.212 207.589 382.142 208.032C382.07 208.415 382.139 208.807 382.337 209.153C382.555 209.499 382.878 209.785 383.271 209.977C383.744 210.224 384.107 210.236 384.371 209.977V210.261V210.359L385.472 210.925V210.864L385.988 207.971C386.031 207.676 385.993 207.376 385.876 207.097C385.79 206.836 385.664 206.587 385.5 206.358ZM384.622 208.882C384.622 209.066 384.497 209.189 384.343 209.226C384.256 209.249 384.163 209.254 384.074 209.239C383.984 209.224 383.9 209.19 383.828 209.14C383.704 209.076 383.603 208.982 383.535 208.869C383.471 208.76 383.447 208.635 383.466 208.512C383.466 208.365 383.563 208.291 383.689 208.266C383.858 208.256 384.026 208.3 384.162 208.389L384.622 208.623V208.882Z" fill="white"/>
<path d="M395.448 209.669L394.348 209.103L393.86 210.9C393.738 210.543 393.463 210.243 393.094 210.063C392.946 209.975 392.78 209.915 392.604 209.887C392.429 209.86 392.249 209.865 392.076 209.903C391.766 209.997 391.51 210.196 391.366 210.457C391.186 210.765 391.068 211.098 391.018 211.442C390.962 211.789 390.962 212.141 391.018 212.488C391.051 212.919 391.189 213.339 391.422 213.719C391.619 214.062 391.924 214.349 392.299 214.544C392.437 214.644 392.609 214.699 392.787 214.699C392.965 214.699 393.137 214.644 393.275 214.544V214.815V214.901V214.963L394.375 215.529H394.445L395.476 209.792V209.706L395.448 209.669ZM393.581 212.82C393.547 213.05 393.462 213.272 393.33 213.473C393.301 213.51 393.264 213.542 393.221 213.566C393.178 213.591 393.129 213.607 393.079 213.616C393.029 213.624 392.977 213.623 392.927 213.613C392.877 213.603 392.829 213.585 392.787 213.559C392.672 213.496 392.574 213.412 392.499 213.312C392.424 213.212 392.375 213.099 392.355 212.98C392.306 212.716 392.306 212.445 392.355 212.18C392.39 211.937 392.49 211.705 392.648 211.503C392.711 211.433 392.802 211.386 392.903 211.372C393.004 211.358 393.107 211.379 393.191 211.429C393.396 211.558 393.536 211.752 393.581 211.971C393.638 212.235 393.638 212.507 393.581 212.771V212.82Z" fill="white"/>
<path d="M391.073 207.405L389.973 206.851H389.889L389.583 208.611C389.454 208.261 389.18 207.966 388.816 207.786C388.68 207.691 388.52 207.624 388.35 207.592C388.18 207.56 388.003 207.563 387.835 207.601C387.666 207.639 387.51 207.712 387.378 207.812C387.246 207.912 387.142 208.038 387.075 208.18C386.897 208.489 386.779 208.822 386.726 209.165C386.678 209.512 386.678 209.864 386.726 210.211C386.765 210.643 386.907 211.063 387.144 211.443C387.342 211.786 387.646 212.072 388.022 212.267C388.157 212.366 388.327 212.421 388.503 212.421C388.678 212.421 388.848 212.366 388.983 212.267V212.538V212.637V212.698L390.098 213.265L391.129 207.515L391.073 207.405ZM389.137 210.495C389.115 210.727 389.028 210.951 388.886 211.147C388.858 211.186 388.821 211.219 388.778 211.244C388.735 211.27 388.686 211.287 388.635 211.295C388.584 211.303 388.532 211.302 388.482 211.291C388.431 211.281 388.384 211.261 388.342 211.233C388.232 211.17 388.138 211.087 388.066 210.989C387.994 210.892 387.946 210.782 387.924 210.667C387.868 210.403 387.868 210.131 387.924 209.867C387.95 209.622 388.051 209.387 388.217 209.19C388.245 209.152 388.281 209.121 388.323 209.096C388.366 209.072 388.413 209.056 388.463 209.049C388.513 209.042 388.564 209.045 388.613 209.056C388.662 209.068 388.707 209.088 388.747 209.116C388.853 209.176 388.944 209.256 389.013 209.349C389.083 209.442 389.13 209.547 389.151 209.657C389.212 209.935 389.202 210.221 389.123 210.495H389.137Z" fill="white"/>
<path d="M402.317 214.741C402.138 214.634 401.935 214.559 401.722 214.521C401.51 214.483 401.29 214.483 401.077 214.52C400.887 214.576 400.712 214.667 400.566 214.789C400.419 214.91 400.303 215.057 400.227 215.222C400.104 215.473 400.019 215.738 399.977 216.009C399.943 216.275 399.943 216.544 399.977 216.81C399.999 217.319 400.156 217.817 400.436 218.262C400.695 218.684 401.081 219.033 401.551 219.272C401.734 219.383 401.942 219.458 402.161 219.492C402.379 219.526 402.604 219.518 402.819 219.469C403.021 219.403 403.203 219.296 403.35 219.157C403.498 219.018 403.607 218.851 403.669 218.669C403.778 218.44 403.853 218.2 403.892 217.955C404.042 217.181 403.885 216.385 403.446 215.702C403.172 215.299 402.783 214.968 402.317 214.741ZM402.554 217.314C402.519 217.473 402.473 217.629 402.415 217.782C402.36 217.911 402.257 218.02 402.122 218.09C402.061 218.123 401.992 218.14 401.92 218.14C401.849 218.14 401.779 218.123 401.718 218.09C401.568 218.006 401.448 217.886 401.37 217.745C401.286 217.574 401.239 217.39 401.231 217.204C401.217 217.036 401.217 216.867 401.231 216.699C401.26 216.535 401.307 216.375 401.37 216.219C401.523 215.899 401.76 215.812 402.053 215.972C402.205 216.048 402.327 216.165 402.401 216.305C402.486 216.467 402.534 216.643 402.54 216.822C402.558 216.986 402.563 217.15 402.554 217.314Z" fill="white"/>
<path d="M399.935 213.646V213.572L399.224 213.215V213.141L399.405 212.107V212.033L398.346 211.491L398.165 212.513L397.719 212.279H397.65L397.482 213.202V213.362L397.928 213.584V213.646L397.552 215.775C397.463 216.135 397.522 216.51 397.719 216.834C397.973 217.144 398.302 217.4 398.681 217.585L399.224 217.844L399.336 217.77L399.517 216.785V216.699V216.637L399.224 216.502C399.103 216.429 399.011 216.324 398.961 216.203C398.911 216.081 398.905 215.949 398.945 215.825L399.224 214.273L399.921 214.63H400.004V214.557L400.158 213.633L399.935 213.646Z" fill="white"/>
<path d="M416.878 222.177C416.751 222.087 416.594 222.038 416.432 222.038C416.27 222.038 416.112 222.087 415.986 222.177V221.906V221.82L415.916 221.759L414.816 221.205H414.76L414.007 225.39V225.489L414.077 225.55L415.178 226.117H415.248L415.652 223.888C415.654 223.813 415.679 223.74 415.723 223.675C415.767 223.61 415.828 223.557 415.902 223.519C415.97 223.491 416.044 223.477 416.118 223.477C416.193 223.477 416.267 223.491 416.334 223.519L416.543 223.605C416.636 223.646 416.721 223.7 416.794 223.765H416.933L417.31 222.67V222.522C417.2 222.377 417.052 222.259 416.878 222.177Z" fill="white"/>
<path d="M413.171 220.491C412.92 220.22 412.613 219.995 412.265 219.826C411.986 219.671 411.673 219.57 411.346 219.531C411.093 219.511 410.839 219.562 410.621 219.678C410.422 219.817 410.284 220.013 410.231 220.232L410.315 220.355L411.402 221.082H411.527C411.549 221.051 411.58 221.025 411.617 221.008C411.653 220.99 411.694 220.982 411.736 220.983C411.855 220.98 411.972 221.011 412.07 221.069C412.23 221.141 412.358 221.258 412.433 221.402C412.516 221.533 412.545 221.685 412.516 221.833V221.993L411.764 221.611C411.585 221.491 411.38 221.406 411.161 221.362C410.943 221.317 410.716 221.314 410.496 221.353C410.175 221.439 409.966 221.71 409.897 222.153C409.822 222.536 409.896 222.931 410.106 223.273C410.315 223.621 410.634 223.908 411.025 224.098C411.513 224.344 411.875 224.356 412.126 224.098V224.393V224.479L413.227 225.046H413.297V224.972L413.812 222.079C413.861 221.789 413.828 221.493 413.714 221.217C413.578 220.951 413.394 220.706 413.171 220.491ZM412.293 223.014C412.292 223.089 412.264 223.16 412.214 223.22C412.164 223.28 412.094 223.324 412.015 223.347C411.93 223.37 411.841 223.375 411.754 223.362C411.667 223.349 411.585 223.319 411.513 223.273C411.385 223.209 411.279 223.115 411.207 223.002C411.143 222.888 411.119 222.759 411.137 222.633C411.137 222.485 411.234 222.411 411.36 222.387C411.529 222.378 411.696 222.422 411.833 222.51L412.307 222.756L412.293 223.014Z" fill="white"/>
<path d="M409.284 218.668C409.01 218.293 408.643 217.977 408.211 217.745C407.86 217.546 407.441 217.463 407.027 217.511C406.843 217.546 406.671 217.617 406.524 217.719C406.377 217.822 406.258 217.953 406.177 218.102C406.018 218.384 405.914 218.688 405.87 219.001C405.816 219.348 405.816 219.7 405.87 220.047C405.934 220.514 406.11 220.963 406.386 221.365C406.647 221.742 407.011 222.055 407.445 222.276C407.786 222.484 408.204 222.572 408.615 222.522C408.798 222.491 408.971 222.423 409.119 222.322C409.266 222.222 409.385 222.092 409.465 221.943C409.504 221.855 409.537 221.764 409.563 221.672L409.493 221.537L408.434 220.798H408.323C408.3 220.85 408.265 220.898 408.219 220.936C408.173 220.974 408.118 221.003 408.058 221.02C407.928 221.039 407.795 221.017 407.682 220.958C407.544 220.878 407.43 220.771 407.348 220.645C407.265 220.519 407.218 220.377 407.208 220.232C407.182 220.011 407.182 219.788 407.208 219.567C407.245 219.36 407.311 219.157 407.403 218.964C407.428 218.913 407.465 218.868 407.513 218.832C407.561 218.797 407.618 218.771 407.678 218.758C407.739 218.745 407.803 218.745 407.864 218.757C407.925 218.769 407.982 218.794 408.03 218.829C408.156 218.901 408.261 218.997 408.337 219.112C408.426 219.222 408.488 219.348 408.518 219.481V219.703L408.601 219.838L409.716 220.207L409.827 220.133C409.841 220.011 409.841 219.887 409.827 219.764C409.734 219.37 409.549 218.997 409.284 218.668Z" fill="white"/>
<path d="M420.222 223.986L419.511 223.629V223.555L419.692 222.521V222.447L419.623 222.374L418.578 221.844H418.508L418.327 222.878L417.881 222.657H417.811L417.644 223.58V223.666L417.714 223.74L418.16 223.962V224.023L417.783 226.141C417.701 226.504 417.76 226.881 417.951 227.212C418.198 227.523 418.528 227.777 418.912 227.95L419.455 228.209L419.581 228.147L419.748 227.163V227.076L419.678 227.015L419.4 226.867C419.281 226.796 419.191 226.693 419.143 226.573C419.095 226.454 419.092 226.323 419.135 226.202L419.4 224.651L420.11 225.02V224.959L420.277 224.036L420.222 223.986Z" fill="white"/>
<path d="M421.698 163.922L421.183 166.765L388.328 149.998L388.83 147.154L421.698 163.922Z" fill="#FC404A"/>
<path d="M300.242 163.54L286.309 156.449C285.013 155.797 283.675 156.449 283.313 157.878L280.457 169.647C280.283 170.361 280.353 171.105 280.658 171.785C280.963 172.464 281.49 173.048 282.171 173.463L296.104 180.554C297.4 181.219 298.737 180.554 299.086 179.138L301.956 167.369C302.133 166.653 302.064 165.906 301.759 165.224C301.454 164.542 300.926 163.956 300.242 163.54Z" fill="white"/>
<path d="M268.127 161.153L254.193 154.062C252.884 153.397 251.56 154.062 251.198 155.478L248.411 167.247C248.237 167.961 248.307 168.705 248.613 169.385C248.918 170.064 249.444 170.648 250.125 171.063L264.058 178.154C265.354 178.819 266.692 178.154 267.04 176.738L269.91 164.969C270.077 164.249 269.996 163.5 269.678 162.82C269.361 162.14 268.82 161.56 268.127 161.153Z" fill="white"/>
<path d="M345.205 186.488L331.271 179.397C329.976 178.745 328.638 179.397 328.276 180.825L325.419 192.582C325.243 193.298 325.311 194.045 325.616 194.727C325.922 195.409 326.45 195.995 327.133 196.411L341.066 203.502C342.362 204.167 343.7 203.502 344.062 202.086L346.849 190.317C347.033 189.607 346.975 188.864 346.682 188.183C346.39 187.502 345.876 186.912 345.205 186.488Z" fill="white"/>
<path d="M322.8 175.014L308.867 167.923C307.571 167.258 306.22 167.923 305.871 169.351L303.085 181.108C302.908 181.824 302.976 182.571 303.282 183.253C303.587 183.935 304.115 184.521 304.798 184.937L318.732 192.028C320.027 192.692 321.365 192.028 321.713 190.6L324.5 178.843C324.678 178.128 324.612 177.382 324.309 176.7C324.006 176.018 323.481 175.431 322.8 175.014Z" fill="white"/>
<path style="mix-blend-mode:overlay" opacity="0.4" d="M523.481 158.284L336.622 225.919L448.185 282.832L501.926 263.381L523.481 158.284Z" fill="url(#paint7_linear)"/>
<path style="mix-blend-mode:overlay" opacity="0.4" d="M235.062 148.755L423.9 80.4049L312.336 23.4919L256.617 43.6694L235.062 148.755Z" fill="url(#paint8_linear)"/>
<defs>
<linearGradient id="paint0_linear" x1="119.068" y1="156.905" x2="160.52" y2="156.905" gradientUnits="userSpaceOnUse">
<stop stop-color="#4E576B"/>
<stop offset="1" stop-color="#282D38"/>
</linearGradient>
<linearGradient id="paint1_linear" x1="149.513" y1="172.541" x2="190.964" y2="172.541" gradientUnits="userSpaceOnUse">
<stop stop-color="#525C73"/>
<stop offset="1" stop-color="#373E4D"/>
</linearGradient>
<linearGradient id="paint2_linear" x1="335.257" y1="368.05" x2="453.439" y2="368.05" gradientUnits="userSpaceOnUse">
<stop stop-color="white"/>
<stop offset="1" stop-color="#DFE3EB" stop-opacity="0"/>
</linearGradient>
<linearGradient id="paint3_linear" x1="351.349" y1="263.591" x2="343.061" y2="300.826" gradientUnits="userSpaceOnUse">
<stop stop-color="#C8D5F5"/>
<stop offset="1" stop-color="white"/>
</linearGradient>
<linearGradient id="paint4_linear" x1="14616.5" y1="6798.31" x2="18918.3" y2="6798.31" gradientUnits="userSpaceOnUse">
<stop stop-color="#C8D5F5"/>
<stop offset="1" stop-color="white"/>
</linearGradient>
<linearGradient id="paint5_linear" x1="42850.2" y1="37883.8" x2="93408.2" y2="37883.8" gradientUnits="userSpaceOnUse">
<stop stop-color="#4E576B"/>
<stop offset="1" stop-color="#282D38"/>
</linearGradient>
<linearGradient id="paint6_linear" x1="39921.8" y1="37885.2" x2="103223" y2="37885.2" gradientUnits="userSpaceOnUse">
<stop stop-color="#525C73"/>
<stop offset="1" stop-color="#373E4D"/>
</linearGradient>
<linearGradient id="paint7_linear" x1="39562.1" y1="22432.6" x2="64621.8" y2="22432.6" gradientUnits="userSpaceOnUse">
<stop stop-color="white"/>
<stop offset="1" stop-color="#DFE3EB" stop-opacity="0"/>
</linearGradient>
<linearGradient id="paint8_linear" x1="26111.5" y1="8748.04" x2="51704.7" y2="8748.04" gradientUnits="userSpaceOnUse">
<stop stop-color="white"/>
<stop offset="1" stop-color="#DFE3EB" stop-opacity="0"/>
</linearGradient>
</defs>
</svg>
