<svg width="50" height="50" viewBox="0 0 50 50" fill="none" xmlns="http://www.w3.org/2000/svg">
<path d="M16.8506 38.2717C16.8379 38.2092 16.8193 38.1477 16.7949 38.0881C16.7705 38.0295 16.7402 37.9729 16.7051 37.9202C16.6699 37.8665 16.6289 37.8167 16.584 37.7717C16.5391 37.7268 16.4893 37.6858 16.4355 37.6506C16.3828 37.6155 16.3262 37.5852 16.2666 37.5608C16.208 37.5364 16.1465 37.5168 16.084 37.5051C15.958 37.4797 15.8281 37.4797 15.7031 37.5051C15.6406 37.5168 15.5791 37.5364 15.5195 37.5608C15.4609 37.5852 15.4043 37.6155 15.3516 37.6506C15.2979 37.6858 15.248 37.7268 15.2031 37.7717C15.1582 37.8167 15.1172 37.8665 15.082 37.9202C15.0459 37.9729 15.0166 38.0295 14.9922 38.0881C14.9678 38.1477 14.9482 38.2092 14.9365 38.2717C14.9238 38.3342 14.917 38.3987 14.917 38.4622C14.917 38.5256 14.9238 38.5901 14.9365 38.6526C14.9482 38.7151 14.9678 38.7766 14.9922 38.8352C15.0166 38.8948 15.0459 38.9514 15.082 39.0042C15.1172 39.0579 15.1582 39.1077 15.2031 39.1526C15.248 39.1975 15.2979 39.2385 15.3516 39.2737C15.4043 39.3089 15.4609 39.3392 15.5195 39.3636C15.5791 39.388 15.6406 39.4076 15.7031 39.4193C15.7656 39.432 15.8301 39.4388 15.8936 39.4388C15.957 39.4388 16.0215 39.432 16.084 39.4193C16.1465 39.4076 16.208 39.388 16.2666 39.3636C16.3262 39.3392 16.3828 39.3088 16.4355 39.2737C16.4893 39.2385 16.5391 39.1975 16.584 39.1526C16.6289 39.1077 16.6699 39.0579 16.7051 39.0042C16.7402 38.9514 16.7705 38.8948 16.7949 38.8352C16.8193 38.7766 16.8379 38.7151 16.8506 38.6526C16.8633 38.5901 16.8701 38.5256 16.8701 38.4622C16.8701 38.3987 16.8633 38.3342 16.8506 38.2717Z" fill="#3878F4"/>
<path d="M44.9212 38.5725C44.9174 38.5627 44.9135 38.5531 44.9094 38.5435C44.0106 36.4403 41.9025 35.6629 39.4078 36.515L32.6043 38.3964C32.2109 37.2052 31.2298 36.1916 29.8425 35.6767C29.8339 35.6736 29.8253 35.6705 29.8166 35.6675L22.338 33.1292C21.7155 32.3247 19.7657 30.2659 16.115 30.2659C13.5638 30.2659 11.3068 32.0161 10.0156 33.9238H0.976563C0.437207 33.9238 0 34.361 0 34.9003V47.2125C0 47.7519 0.437207 48.1891 0.976563 48.1891H6.78291C7.32227 48.1891 7.75947 47.7519 7.75947 47.2125V46.3694H10.4824C11.0218 46.3694 11.459 45.9322 11.459 45.3928V45.1118C13.0463 45.2502 13.5684 45.5513 15.0262 46.3919C16.1473 47.0384 17.8417 48.0155 20.8931 49.3874C20.9072 49.3938 20.9216 49.3998 20.9359 49.4055C21.5216 49.6359 22.6664 49.9978 24.0778 49.9978C25.0603 49.9978 26.1721 49.8223 27.3133 49.305L42.3515 43.9207C42.3782 43.9111 42.4046 43.9003 42.4304 43.8884C43.8676 43.2272 46.0093 41.3636 44.9212 38.5725ZM5.80635 46.2359H1.95313V35.8768H5.80635V46.2359ZM9.50586 44.4162H7.75947V35.8768H9.50586V44.4162ZM41.65 42.0971L26.6186 47.479C26.6054 47.4837 26.5875 47.4908 26.5745 47.496C26.5613 47.5014 26.5481 47.5071 26.5352 47.513C24.4417 48.4751 22.4518 47.8992 21.6719 47.5959C18.7244 46.2697 17.1513 45.3625 16.0019 44.6998C14.4038 43.7783 13.6338 43.3341 11.459 43.1545V35.2891C12.3847 33.7719 14.1798 32.2189 16.1151 32.2189C19.4341 32.2189 20.8404 34.3776 20.8957 34.4647C21.0149 34.6586 21.1982 34.8048 21.4138 34.878L29.175 37.5122C30.4146 37.9774 31.0696 39.0389 30.7686 40.0975C30.6296 40.5864 30.3085 40.9918 29.8646 41.2392C29.4244 41.4844 28.9156 41.5451 28.4307 41.4109L19.6813 38.6382C19.1669 38.4752 18.6183 38.76 18.4554 39.2742C18.2924 39.7883 18.5771 40.3372 19.0913 40.5001L27.8559 43.2776C27.8651 43.2805 27.8744 43.2833 27.8838 43.286C28.2337 43.3855 28.5899 43.4347 28.944 43.4347C29.5923 43.4347 30.2334 43.2696 30.8152 42.9454C31.7149 42.4441 32.3655 41.6224 32.6472 40.6317C32.6696 40.5526 32.6896 40.4735 32.7068 40.3944L40.0392 38.3631C41.0981 38.0014 42.4883 37.871 43.1072 39.2965C43.7479 40.9701 42.0828 41.8907 41.65 42.0971Z" fill="#3878F4"/>
<path d="M35.0645 12.8459C35.0518 12.7834 35.0332 12.7219 35.0078 12.6624C34.9834 12.6038 34.9541 12.5471 34.918 12.4944C34.8828 12.4407 34.8418 12.3909 34.7969 12.3459C34.752 12.301 34.7021 12.26 34.6484 12.2249C34.5957 12.1897 34.5391 12.1594 34.4805 12.135C34.4209 12.1106 34.3594 12.0911 34.2979 12.0793C34.1719 12.054 34.042 12.054 33.916 12.0793C33.8535 12.0911 33.792 12.1106 33.7334 12.135C33.6738 12.1594 33.6172 12.1897 33.5645 12.2249C33.5107 12.26 33.4609 12.301 33.416 12.3459C33.3711 12.3909 33.3301 12.4407 33.2949 12.4944C33.2598 12.5471 33.2295 12.6038 33.2051 12.6624C33.1807 12.7219 33.1611 12.7834 33.1494 12.8459C33.1367 12.9084 33.1299 12.9729 33.1299 13.0364C33.1299 13.0999 33.1367 13.1643 33.1494 13.2268C33.1611 13.2893 33.1807 13.3508 33.2051 13.4094C33.2295 13.469 33.2598 13.5256 33.2949 13.5784C33.3301 13.6321 33.3711 13.6819 33.416 13.7268C33.4609 13.7717 33.5107 13.8127 33.5645 13.8479C33.6172 13.8831 33.6738 13.9133 33.7334 13.9377C33.792 13.9622 33.8535 13.9807 33.916 13.9934C33.9785 14.0061 34.043 14.0129 34.1064 14.0129C34.1699 14.0129 34.2344 14.0061 34.2979 13.9934C34.3594 13.9807 34.4209 13.9622 34.4805 13.9377C34.5391 13.9133 34.5957 13.8831 34.6484 13.8479C34.7021 13.8127 34.752 13.7717 34.7969 13.7268C34.8418 13.6819 34.8828 13.6321 34.918 13.5784C34.9541 13.5256 34.9834 13.469 35.0078 13.4094C35.0332 13.3508 35.0518 13.2893 35.0645 13.2268C35.0771 13.1643 35.083 13.0999 35.083 13.0364C35.083 12.9729 35.0771 12.9084 35.0645 12.8459Z" fill="#3878F4"/>
<path d="M49.0234 3.30959H43.217C42.6777 3.30959 42.2405 3.7468 42.2405 4.28616V5.12932H39.5175C38.9781 5.12932 38.5409 5.56653 38.5409 6.10588V6.38694C36.9536 6.24836 36.4316 5.94739 34.9739 5.10676C33.8528 4.46028 32.1583 3.48323 29.1069 2.11126C29.0927 2.10481 29.0784 2.09885 29.0639 2.09319C28.0706 1.70237 25.4674 0.933423 22.687 2.19348L18.7574 3.60051L15.4449 0.288208C15.0636 -0.0931396 14.4452 -0.0931396 14.0639 0.288208L3.18909 11.1629C2.83733 11.5148 2.76985 12.1248 3.18909 12.5441L21.7718 31.1268C22.0692 31.4242 22.7655 31.5142 23.153 31.1268L33.0812 21.1987C33.3393 21.2209 33.6072 21.2329 33.8848 21.2329C36.4362 21.2329 38.693 19.4827 39.9841 17.5751H49.0234C49.5627 17.5751 49.9999 17.1379 49.9999 16.5986V4.28616C49.9999 3.7468 49.5627 3.30959 49.0234 3.30959ZM14.7543 2.35979L16.9801 4.58557C16.3185 4.99475 15.5535 5.2137 14.7543 5.2137C13.955 5.2137 13.1902 4.99485 12.5285 4.58557L14.7543 2.35979ZM7.48655 14.0793L5.26077 11.8534L7.48655 9.62766C7.89573 10.2893 8.11468 11.0542 8.11468 11.8534C8.11468 12.6527 7.89583 13.4176 7.48655 14.0793ZM22.4624 29.0551L20.237 26.8297C21.5957 25.9912 23.3289 25.9912 24.6877 26.8297L22.4624 29.0551ZM26.0948 25.4229C23.9367 23.8574 20.9881 23.8574 18.8301 25.4229L8.89348 15.4862C9.65608 14.4373 10.0678 13.1775 10.0678 11.8534C10.0678 10.5293 9.65618 9.26956 8.89348 8.22073L11.1217 5.9926C12.1705 6.7552 13.4303 7.16692 14.7544 7.16692C16.0785 7.16692 17.3383 6.7552 18.3871 5.9926L20.4993 8.10481C20.0436 8.1721 19.5991 8.32229 19.1847 8.55325C18.4847 8.94329 17.9355 9.52737 17.5935 10.234C16.4919 10.438 15.4721 10.9713 14.6721 11.7712C12.5017 13.9417 12.5017 17.4733 14.6722 19.6438C15.7574 20.7289 17.1828 21.2716 18.6084 21.2716C20.0339 21.2716 21.4595 20.729 22.5448 19.6438C23.2508 18.9377 23.7454 18.0699 23.9932 17.1242L27.2905 18.2433C26.9193 19.9628 27.2994 21.7718 28.3249 23.1927L26.0948 25.4229ZM20.1574 15.822C20.166 15.8251 20.1746 15.8282 20.1833 15.8312L22.1361 16.494C21.9886 17.1595 21.6549 17.7714 21.1637 18.2627C19.7547 19.6715 17.4621 19.6717 16.0533 18.2627C14.6444 16.8538 14.6444 14.5614 16.0533 13.1524C16.3932 12.8123 16.7943 12.5466 17.2313 12.3664C17.4115 13.8666 18.4917 15.2038 20.1574 15.822ZM29.7321 21.7855C29.3551 21.1712 29.1418 20.4701 29.1081 19.7546C29.5759 20.0928 30.1476 20.4241 30.8304 20.6871L29.7321 21.7855ZM38.5408 16.2092C37.6153 17.7266 35.8201 19.2796 33.8848 19.2796C33.5227 19.2796 33.1833 19.2538 32.866 19.2079C32.8648 19.2077 32.8635 19.2075 32.8622 19.2073C30.7533 18.901 29.6188 17.7024 29.2448 17.2278C29.2249 17.1985 29.1401 17.0874 29.1275 17.069C29.0137 16.8657 28.8272 16.7022 28.5893 16.6214L20.8248 13.9862C19.5858 13.5211 18.9308 12.4601 19.231 11.4019C19.2312 11.4012 19.2314 11.4005 19.2316 11.3998C19.2319 11.399 19.2321 11.3982 19.2323 11.3974C19.3718 10.9101 19.6923 10.5059 20.1353 10.2591C20.5753 10.0139 21.084 9.95305 21.5692 10.0875L30.3185 12.8601C30.8327 13.0233 31.3816 12.7383 31.5445 12.2241C31.7073 11.71 31.4227 11.1612 30.9085 10.9982L23.95 8.79309L23.8893 8.73235C23.8887 8.73176 23.8881 8.73108 23.8874 8.73049L20.2849 5.12795L23.3814 4.01917C23.3918 4.01536 23.4047 4.01057 23.4151 4.00637C23.4177 4.0053 23.4228 4.00335 23.4253 4.00227C23.4386 3.9969 23.4517 3.99124 23.4647 3.98528C25.558 3.02317 27.5479 3.59905 28.3279 3.90237C31.2754 5.22864 32.8487 6.13577 33.9981 6.79856C35.5961 7.72014 36.3661 8.16419 38.5408 8.34378V16.2092ZM42.2405 15.6218H40.4941V7.08245H42.2405V15.6218ZM48.0468 15.6218H44.1936V5.26272H48.0468V15.6218Z" fill="#3878F4"/>
</svg>
