<svg width="54" height="54" viewBox="0 0 54 54" fill="none" xmlns="http://www.w3.org/2000/svg">
<path d="M13.4869 31.132H21.9327C22.3989 31.132 22.7772 30.7545 22.7772 30.2874V29.4428H25.1116L28.3117 31.0433C28.4283 31.1016 28.5583 31.132 28.6893 31.132H38.8242C40.2211 31.132 41.3579 29.9952 41.3579 28.5983C41.3579 27.9471 41.1037 27.3584 40.6991 26.9091C41.1045 26.4598 41.3579 25.8711 41.3579 25.22C41.3579 24.5688 41.1037 23.9801 40.6991 23.5308C41.1045 23.0815 41.3579 22.4928 41.3579 21.8417C41.3579 21.1905 41.1037 20.6018 40.6991 20.1525C41.1045 19.7032 41.3579 19.1145 41.3579 18.4634C41.3579 17.0664 40.2211 15.9296 38.8242 15.9296H32.9121V10.8622C32.9121 8.99905 31.397 7.48389 29.5338 7.48389H28.6893C28.223 7.48389 27.8447 7.86141 27.8447 8.32846V13.0463L24.9613 15.9296H22.7772V15.0851C22.7772 14.618 22.3989 14.2405 21.9327 14.2405H13.4869C13.0207 14.2405 12.6423 14.618 12.6423 15.0851V30.2874C12.6423 30.7545 13.0207 31.132 13.4869 31.132ZM25.311 17.6188C25.5348 17.6188 25.7501 17.5301 25.9081 17.3713L29.2864 13.993C29.4451 13.8351 29.5338 13.6206 29.5338 13.3959V9.17304C30.4654 9.17304 31.223 9.93062 31.223 10.8622V16.7742C31.223 17.2413 31.6013 17.6188 32.0676 17.6188H38.8242C39.2895 17.6188 39.6687 17.9972 39.6687 18.4634C39.6687 18.9296 39.2895 19.3079 38.8242 19.3079H32.9121V20.9971H38.8242C39.2895 20.9971 39.6687 21.3755 39.6687 21.8417C39.6687 22.3079 39.2895 22.6862 38.8242 22.6862H32.9121V24.3754H38.8242C39.2895 24.3754 39.6687 24.7538 39.6687 25.22C39.6687 25.6862 39.2895 26.0645 38.8242 26.0645H32.9121V27.7537H38.8242C39.2895 27.7537 39.6687 28.1321 39.6687 28.5983C39.6687 29.0645 39.2895 29.4428 38.8242 29.4428H28.8886L25.6885 27.8424C25.5719 27.7841 25.4419 27.7537 25.311 27.7537H22.7772V17.6188H25.311ZM14.3315 15.9296H21.0881V29.4428H14.3315V15.9296Z" fill="#3878F4"/>
<path d="M26.9999 38.733C27.9314 38.733 28.689 39.4906 28.689 40.4222H30.3782C30.3782 38.8521 29.2971 37.5413 27.8445 37.1638V35.3547H26.1553V37.1638C24.7026 37.5413 23.6216 38.8521 23.6216 40.4222C23.6216 42.2853 25.1367 43.8005 26.9999 43.8005C27.9314 43.8005 28.689 44.5581 28.689 45.4896C28.689 46.4212 27.9314 47.1788 26.9999 47.1788C26.0683 47.1788 25.3107 46.4212 25.3107 45.4896H23.6216C23.6216 47.0597 24.7026 48.3705 26.1553 48.748V50.5571H27.8445V48.748C29.2971 48.3705 30.3782 47.0597 30.3782 45.4896C30.3782 43.6265 28.863 42.1113 26.9999 42.1113C26.0683 42.1113 25.3107 41.3538 25.3107 40.4222C25.3107 39.4906 26.0683 38.733 26.9999 38.733Z" fill="#3878F4"/>
<path d="M43.047 38.733C43.9786 38.733 44.7361 39.4906 44.7361 40.4222H46.4253C46.4253 38.8521 45.3442 37.5413 43.8916 37.1638V35.3547H42.2024V37.1638C40.7498 37.5413 39.6687 38.8521 39.6687 40.4222C39.6687 42.2853 41.1839 43.8005 43.047 43.8005C43.9786 43.8005 44.7361 44.5581 44.7361 45.4896C44.7361 46.4212 43.9786 47.1788 43.047 47.1788C42.1154 47.1788 41.3579 46.4212 41.3579 45.4896H39.6687C39.6687 47.0597 40.7498 48.3705 42.2024 48.748V50.5571H43.8916V48.748C45.3442 48.3705 46.4253 47.0597 46.4253 45.4896C46.4253 43.6265 44.9101 42.1113 43.047 42.1113C42.1154 42.1113 41.3579 41.3538 41.3579 40.4222C41.3579 39.4906 42.1154 38.733 43.047 38.733Z" fill="#3878F4"/>
<path d="M43.0469 32.821C39.8924 32.821 36.9203 34.3117 35.0158 36.7779C33.1611 34.3768 30.2617 32.821 26.9999 32.821C23.7373 32.821 20.8388 34.3768 18.9832 36.7779C17.0787 34.3117 14.1067 32.821 10.953 32.821C5.36446 32.821 0.818115 37.3674 0.818115 42.9559C0.818115 48.5445 5.36446 53.0908 10.953 53.0908C14.1067 53.0908 17.0787 51.6002 18.9832 49.1332C20.8388 51.5351 23.7373 53.0908 26.9999 53.0908C30.2642 53.0908 33.1653 51.5326 35.02 49.1281C36.9228 51.5993 39.8729 53.0908 43.0469 53.0908C48.6354 53.0908 53.1818 48.5445 53.1818 42.9559C53.1818 37.3674 48.6354 32.821 43.0469 32.821ZM10.953 51.4017C6.29603 51.4017 2.50726 47.6129 2.50726 42.9559C2.50726 38.299 6.29603 34.5102 10.953 34.5102C13.7899 34.5102 16.4402 35.9679 17.9959 38.3243C17.278 39.7145 16.865 41.2862 16.865 42.9559C16.865 44.6248 17.278 46.1974 17.9951 47.5867C16.4402 49.944 13.7899 51.4017 10.953 51.4017ZM26.9999 51.4017C22.3429 51.4017 18.5542 47.6129 18.5542 42.9559C18.5542 38.299 22.3429 34.5102 26.9999 34.5102C31.6569 34.5102 35.4457 38.299 35.4457 42.9559C35.4457 47.6129 31.6569 51.4017 26.9999 51.4017ZM43.0469 51.4017C40.1913 51.4017 37.5605 49.9482 36.0048 47.5867C36.7218 46.1966 37.1348 44.6248 37.1348 42.9559C37.1348 41.2871 36.7218 39.7145 36.0039 38.3243C37.5597 35.9679 40.2091 34.5102 43.0469 34.5102C47.7038 34.5102 51.4926 38.299 51.4926 42.9559C51.4926 47.6129 47.7038 51.4017 43.0469 51.4017Z" fill="#3878F4"/>
<path d="M10.953 38.733C11.8846 38.733 12.6422 39.4906 12.6422 40.4222H14.3313C14.3313 38.8521 13.2502 37.5413 11.7976 37.1638V35.3547H10.1084V37.1638C8.65576 37.5413 7.57471 38.8521 7.57471 40.4222C7.57471 42.2853 9.08987 43.8005 10.953 43.8005C11.8846 43.8005 12.6422 44.5581 12.6422 45.4896C12.6422 46.4212 11.8846 47.1788 10.953 47.1788C10.0214 47.1788 9.26386 46.4212 9.26386 45.4896H7.57471C7.57471 47.0597 8.65576 48.3705 10.1084 48.748V50.5571H11.7976V48.748C13.2502 48.3705 14.3313 47.0597 14.3313 45.4896C14.3313 43.6265 12.8161 42.1113 10.953 42.1113C10.0214 42.1113 9.26386 41.3538 9.26386 40.4222C9.26386 39.4906 10.0214 38.733 10.953 38.733Z" fill="#3878F4"/>
<path d="M28.6892 0.727295H30.3784V4.95017H28.6892V0.727295Z" fill="#3878F4"/>
<path d="M32.3113 5.20032L35.6897 1.82193L36.8841 3.01634L33.5057 6.39473L32.3113 5.20032Z" fill="#3878F4"/>
<path d="M22.1771 3.01648L23.3715 1.82202L26.7497 5.20054L25.5554 6.395L22.1771 3.01648Z" fill="#3878F4"/>
</svg>
