<svg width="640" height="439" viewBox="0 0 640 439" fill="none" xmlns="http://www.w3.org/2000/svg">
<path opacity="0.39" d="M360.025 438.754C514.441 438.754 639.62 430.108 639.62 419.443C639.62 408.778 514.441 400.132 360.025 400.132C205.608 400.132 80.429 408.778 80.429 419.443C80.429 430.108 205.608 438.754 360.025 438.754Z" fill="#49CDEA" fill-opacity="0.28"/>
<path d="M228.14 171.73C226.366 168.869 224.75 166.122 223.154 163.392C221.557 160.662 220.059 157.964 218.581 155.217C215.625 149.871 212.846 144.623 210.224 139.375C205.001 128.879 200.37 118.449 196.428 107.839C192.486 97.2282 188.761 86.438 185.391 75.2881C184.977 73.8821 184.504 72.4924 184.07 71.0864C183.636 69.6804 183.262 68.2744 182.809 66.8521C181.882 64.0237 181.133 61.1627 180.187 58.2689C179.695 56.8139 179.3 55.3589 178.847 53.9038C178.394 52.4488 177.921 50.961 177.389 49.4896C176.443 46.5305 175.418 43.5387 174.156 40.4651C172.54 43.3483 171.144 46.3134 169.978 49.3425C169.406 50.8302 168.894 52.3507 168.421 53.8711C167.948 55.3916 167.455 56.912 167.12 58.4488C166.41 61.5224 165.701 64.6286 165.346 67.7513C165.129 69.3044 164.972 70.8739 164.794 72.4434C164.617 74.0129 164.617 75.566 164.578 77.1518C164.238 89.8343 166.442 102.475 171.101 114.558C175.748 126.737 182.954 138.139 192.387 148.236C197.125 153.254 202.505 157.831 208.431 161.888C211.395 163.923 214.53 165.781 217.812 167.446C221.048 169.195 224.513 170.632 228.14 171.73Z" fill="#8CC0F1"/>
<path d="M228.14 172.717C222.857 168.63 218.029 164.162 213.716 159.366C209.359 154.638 205.372 149.687 201.779 144.543C194.565 134.234 188.715 123.319 184.331 111.985C179.975 100.636 176.944 88.9729 175.279 77.1519L174.662 72.7181L174.224 68.2679C173.886 65.3065 173.826 62.3288 173.647 59.3511C173.528 57.8623 173.647 56.3734 173.508 54.8682V50.4016C173.508 48.9128 173.508 47.4239 173.627 45.9351V41.4521C173.369 44.4299 173.05 47.4076 172.891 50.3853L172.672 54.8682C172.672 56.3734 172.553 57.8623 172.672 59.3511C172.672 62.3452 172.672 65.3393 172.951 68.3333L173.249 72.8163L173.747 77.2828C174.005 80.2769 174.562 83.2382 175.04 86.216C175.279 87.7048 175.637 89.1609 175.935 90.6498C176.234 92.1387 176.512 93.6112 176.93 95.0673L178.084 99.4684C178.482 100.925 178.959 102.381 179.397 103.837L180.073 106.013L180.849 108.172C181.367 109.612 181.844 111.052 182.401 112.475C186.834 123.927 192.89 134.91 200.446 145.198C204.254 150.323 208.461 155.242 213.04 159.922C215.347 162.229 217.735 164.487 220.262 166.647C222.729 168.805 225.361 170.832 228.14 172.717Z" fill="#78AFE3"/>
<path d="M225.112 161.86C222.154 163.254 219.295 164.549 216.457 165.828C213.618 167.107 210.819 168.304 208.04 169.501C202.482 171.879 197.003 174.109 191.544 176.24C180.606 180.47 169.708 184.225 158.572 187.718C147.436 191.21 136.121 194.178 124.389 197.097L119.982 198.228L115.536 199.327C112.558 200.13 109.58 200.786 106.503 201.606C104.995 202.016 103.466 202.36 101.918 202.754C100.37 203.147 98.841 203.557 97.2927 204C94.1761 204.82 91.0397 205.639 87.8239 206.722C90.9804 207.769 94.2163 208.646 97.511 209.345C99.1388 209.69 100.767 210.001 102.394 210.296C104.022 210.591 105.69 210.87 107.337 211.05C110.625 211.49 113.938 211.791 117.263 211.952C118.93 212.051 120.597 212.1 122.285 212.165C123.972 212.231 125.62 212.165 127.307 212.165C140.806 211.889 154.156 209.761 166.81 205.869C179.576 201.978 191.411 196.255 201.767 188.964C206.92 185.301 211.579 181.189 215.663 176.699C217.71 174.461 219.56 172.105 221.201 169.649C222.865 167.186 224.177 164.572 225.112 161.86Z" fill="#9CCCFA"/>
<path d="M226.121 161.86C221.997 165.791 217.453 169.416 212.543 172.692C207.685 176.006 202.58 179.072 197.258 181.873C186.603 187.442 175.242 192.056 163.373 195.635C151.494 199.207 139.223 201.842 126.728 203.504L122.044 204.136L117.319 204.621C114.183 204.978 111.026 205.14 107.87 205.399C106.282 205.528 104.694 205.593 103.126 205.674L98.3617 205.901C96.7736 205.901 95.1856 205.901 93.5975 205.998L88.8333 206.111C92.0094 206.111 95.1856 206.273 98.3815 206.273H103.146C104.734 206.273 106.322 206.273 107.91 206.16C111.086 205.982 114.282 205.884 117.438 205.577L122.202 205.188L126.927 204.67C130.103 204.362 133.22 203.828 136.356 203.375C137.944 203.148 139.473 202.824 141.041 202.549C142.609 202.274 144.157 202.015 145.706 201.675L150.331 200.671C151.859 200.331 153.388 199.926 154.916 199.554L157.199 198.938L159.462 198.307C160.971 197.886 162.499 197.481 163.988 197.012C175.979 193.367 187.4 188.579 198.012 182.747C203.289 179.82 208.328 176.618 213.099 173.162C215.461 171.429 217.764 169.632 219.948 167.738C222.163 165.892 224.225 163.929 226.121 161.86Z" fill="#7FB9F0"/>
<path d="M224.102 166.407C220.703 164.784 217.502 163.323 214.34 161.814C211.178 160.304 208.115 158.746 205.092 157.237C199.025 154.186 193.235 151.102 187.485 147.986C176.082 141.721 165.273 135.197 154.721 128.331C144.168 121.466 133.991 114.179 123.676 106.518C122.391 105.561 121.067 104.619 119.723 103.662C118.38 102.704 117.154 101.714 115.771 100.74C113.103 98.8416 110.554 96.8128 107.867 94.8652C106.483 93.9077 105.179 92.8852 103.914 91.8789C102.65 90.8727 101.089 89.8827 99.6065 88.8602C96.8201 86.8477 94.014 84.8189 90.8522 82.9038C91.4523 86.0129 92.2972 89.0868 93.3817 92.1062C93.9152 93.5993 94.5081 95.0925 95.1404 96.5694C95.7728 98.0463 96.3854 99.5232 97.1165 100.935C98.5789 103.808 100.081 106.681 101.879 109.423C102.748 110.803 103.677 112.166 104.586 113.546C105.495 114.925 106.562 116.208 107.57 117.522C115.804 128.146 126.136 137.57 138.141 145.405C150.238 153.357 163.953 159.489 178.651 163.518C185.974 165.483 193.534 166.794 201.199 167.429C205.032 167.762 208.889 167.859 212.739 167.721C216.576 167.639 220.388 167.198 224.102 166.407Z" fill="#9CCCFA"/>
<path d="M225.112 166.795C218.008 165.81 211.024 164.308 204.241 162.308C197.44 160.387 190.793 158.115 184.338 155.505C171.449 150.26 159.283 143.882 148.051 136.482C136.825 129.072 126.487 120.79 117.18 111.749L113.76 108.355L110.42 104.864C108.068 102.563 106.013 100.116 103.878 97.734C102.772 96.5594 101.783 95.3194 100.756 94.0958L97.6921 90.425C96.6842 89.185 95.7157 87.9125 94.7868 86.6562L91.8617 82.9038C93.6405 85.4979 95.3995 88.0919 97.2573 90.6534L100.123 94.4384C101.092 95.711 102.1 96.9835 103.068 98.2072C105.044 100.638 107.021 103.102 109.333 105.5L112.594 109.089L115.994 112.564C118.227 114.93 120.678 117.132 123.069 119.368C124.255 120.493 125.56 121.554 126.785 122.631C128.01 123.707 129.256 124.817 130.58 125.894L134.533 129.01C135.837 130.054 137.201 131.016 138.485 132.028L140.462 133.529L142.438 134.965C143.841 135.927 145.205 136.906 146.628 137.82C158.027 145.316 170.467 151.663 183.686 156.729C190.265 159.228 197.031 161.375 203.944 163.157C207.403 164.021 210.901 164.788 214.419 165.441C217.945 166.078 221.516 166.53 225.112 166.795Z" fill="#7FB9F0"/>
<path d="M222.083 163.834C219.319 161.575 216.732 159.398 214.185 157.287C211.638 155.175 209.189 152.933 206.76 150.739C201.922 146.434 197.282 142.162 192.8 137.873C183.776 129.263 175.482 120.539 167.544 111.519C159.606 102.5 152.123 93.2516 144.659 83.4303C143.75 82.219 142.684 81.0241 141.815 79.7964C140.946 78.5687 139.979 77.3247 139.011 76.097C137.037 73.6581 135.24 71.1864 133.245 68.6328C132.218 67.3888 131.271 66.0956 130.303 64.8352C129.336 63.5748 128.328 62.2817 127.242 61.0213C125.268 58.4514 123.155 55.8487 120.726 53.2952C120.284 56.4515 120.086 59.6281 120.134 62.8055C120.134 64.3769 120.213 65.9483 120.371 67.5197C120.489 69.1566 120.627 70.6789 120.884 72.2176C121.314 75.3407 121.933 78.4438 122.74 81.5151C123.135 83.0538 123.57 84.5761 124.004 86.1148C124.438 87.6535 125.031 89.143 125.584 90.649C130.075 102.802 136.982 114.249 146.021 124.516C155.062 134.883 166.254 143.834 179.076 150.952C185.486 154.484 192.339 157.431 199.513 159.742C203.109 160.898 206.797 161.844 210.551 162.574C214.325 163.359 218.194 163.781 222.083 163.834Z" fill="#9CCCFA"/>
<path d="M223.093 164.821C216.517 162.308 210.226 159.316 204.295 155.881C198.332 152.522 192.632 148.858 187.226 144.911C176.442 136.99 166.716 128.141 158.215 118.516C149.759 108.868 142.44 98.577 136.357 87.7828L134.072 83.7385L131.966 79.6123C130.515 76.8779 129.323 74.0616 127.992 71.2945C127.316 69.9027 126.74 68.4946 126.144 67.0701L124.355 62.8457C123.779 61.4375 123.302 59.9966 122.746 58.5721L121.136 54.2822C122.031 57.1804 122.885 60.0949 123.859 62.9767L125.349 67.2666C125.866 68.7075 126.362 70.1483 126.978 71.5565C128.19 74.3727 129.303 77.2381 130.694 80.0053L132.681 84.1806L134.867 88.3068C136.258 91.0739 137.907 93.7428 139.497 96.4936C140.292 97.8526 141.206 99.1461 142.04 100.472C142.875 101.799 143.729 103.141 144.683 104.418L147.525 108.201C148.459 109.494 149.512 110.739 150.446 112L151.916 113.899L153.466 115.749C154.519 116.977 155.453 118.238 156.606 119.45C165.178 129.183 175.116 138.048 186.213 145.86C191.78 149.727 197.641 153.299 203.759 156.552C206.839 158.19 209.978 159.663 213.197 161.055C216.389 162.492 219.695 163.75 223.093 164.821Z" fill="#7FB9F0"/>
<path d="M225.112 165.084C221.986 165.084 219.018 165.084 216.07 164.957C213.122 164.83 210.234 164.783 207.385 164.672C201.687 164.451 196.101 164.15 190.627 163.771C179.627 163.012 168.864 161.873 158.259 160.433C147.655 158.994 136.931 157.144 126.069 155.088C124.704 154.819 123.339 154.581 121.954 154.328L117.839 153.537C115.049 153.063 112.299 152.462 109.45 151.956C108.026 151.719 106.621 151.418 105.177 151.165C103.733 150.912 102.308 150.643 100.824 150.406C97.9158 149.9 94.8888 149.362 91.8617 149.03C93.7388 150.99 95.7744 152.85 97.9554 154.597C99.0501 155.451 100.158 156.29 101.279 157.112C102.407 157.934 103.554 158.694 104.761 159.5C107.122 161.043 109.578 162.49 112.121 163.834C113.387 164.514 114.673 165.163 115.959 165.827C117.245 166.491 118.591 167.045 119.916 167.646C130.764 172.421 142.533 175.714 154.737 177.389C166.969 179.096 179.483 179.053 191.695 177.262C197.809 176.358 203.78 174.921 209.502 172.976C212.361 172.012 215.132 170.886 217.791 169.607C220.438 168.326 222.894 166.808 225.112 165.084Z" fill="#9CCCFA"/>
<path d="M226.121 166.335C220.655 167.909 215.029 169.078 209.309 169.826C203.62 170.659 197.873 171.201 192.102 171.45C180.558 171.867 168.993 171.262 157.607 169.648C146.224 168.015 135.058 165.493 124.26 162.114L120.304 160.847L116.349 159.467C113.659 158.574 111.068 157.502 108.437 156.512C107.112 156.041 105.826 155.489 104.481 154.888L100.526 153.264C99.2202 152.728 97.9742 152.128 96.7083 151.641L92.8712 150.017C95.3436 151.267 97.7961 152.534 100.308 153.735L104.106 155.473C105.391 156.057 106.637 156.658 107.943 157.096C110.553 158.152 113.125 159.272 115.854 160.214L119.81 161.708L123.766 163.055C126.436 163.997 129.185 164.777 131.934 165.589C133.299 165.994 134.703 166.319 136.088 166.693C137.472 167.066 138.837 167.44 140.261 167.732L144.474 168.69C145.878 168.982 147.303 169.242 148.727 169.518L150.843 169.924L152.979 170.265C154.423 170.492 155.847 170.752 157.271 170.947C168.768 172.576 180.459 173.083 192.102 172.457C197.909 172.123 203.683 171.477 209.388 170.525C212.236 170.021 215.065 169.469 217.854 168.787C220.672 168.121 223.434 167.302 226.121 166.335Z" fill="#7FB9F0"/>
<path d="M477.479 108.565C479.088 106.215 480.557 103.963 482.027 101.711C483.496 99.4592 484.847 97.2562 486.217 95.0533C488.865 90.7018 491.427 86.3502 493.903 81.9987C498.749 73.3338 503.038 64.7178 506.951 55.8897C510.863 47.0616 514.338 38.1519 517.675 28.8831C518.072 27.7246 518.549 26.5823 518.966 25.4074C519.383 24.2325 519.78 23.0739 520.217 21.899C521.13 19.5492 521.885 17.1504 522.818 14.7679C523.295 13.5604 523.692 12.3528 524.149 11.1453C524.606 9.93776 525.063 8.69758 525.559 7.47372C526.492 5.02599 527.426 2.57827 528.677 0C529.909 2.48404 530.951 5.02924 531.795 7.62058C532.192 8.8934 532.55 10.1825 532.867 11.4717C533.185 12.7608 533.523 14.0499 533.741 15.3554C534.178 17.95 534.635 20.5772 534.774 23.2044C534.774 24.5099 534.933 25.8316 534.992 27.1534C535.052 28.4752 534.992 29.7806 534.992 31.1024C534.683 41.7551 532.255 52.2944 527.803 62.3027C523.367 72.3666 516.835 81.7202 508.5 89.9457C504.322 94.0103 499.628 97.6973 494.499 100.944C491.937 102.558 489.243 104.025 486.436 105.334C483.615 106.696 480.608 107.78 477.479 108.565Z" fill="#9CCCFA"/>
<path d="M477.479 109.552C482.04 106.269 486.239 102.662 490.026 98.7734C493.881 94.9198 497.44 90.8729 500.681 86.6562C507.125 78.2012 512.465 69.2135 516.614 59.8417C520.754 50.4448 523.814 40.7514 525.755 30.8878L526.472 27.1808L527.03 23.4575C527.468 20.9753 527.647 18.4767 527.946 15.9945C528.106 14.7534 528.165 13.4959 528.265 12.2548L528.524 8.49881C528.524 7.24137 528.524 6.00026 528.643 4.74282L528.783 0.986816C528.783 3.48537 528.962 6.00026 528.962 8.49881V12.2711C528.962 13.5286 528.962 14.786 528.822 16.0271C528.623 18.542 528.504 21.0569 528.145 23.5555L527.687 27.2951L527.07 31.0348C526.711 33.5497 526.114 35.9339 525.576 38.4978C525.317 39.7226 524.939 40.9474 524.62 42.1885C524.302 43.4296 524.003 44.6544 523.585 45.8628L522.429 49.5209C522.031 50.7456 521.553 51.9378 521.135 53.1462L520.458 54.8936L519.721 56.6736C519.203 57.8657 518.745 59.0742 518.207 60.2499C514.005 69.7183 508.478 78.755 501.737 87.1788C498.354 91.3585 494.648 95.3567 490.644 99.149C488.652 101.011 486.541 102.84 484.35 104.587C482.194 106.363 479.899 108.021 477.479 109.552Z" fill="#7FB9F0"/>
<path d="M480.507 104.016C483.399 102.796 486.152 101.609 488.864 100.422C491.577 99.2346 494.189 98.015 496.842 96.8278C502.028 94.4211 507.067 91.9872 511.96 89.5262C521.753 84.6476 531.087 79.395 540.201 73.9147C549.316 68.4344 558.151 62.5313 567.146 56.4168C568.263 55.6525 569.42 54.9045 570.557 54.1239C571.693 53.3433 572.79 52.4977 573.947 51.7822C576.261 50.2535 578.495 48.5298 580.868 47.0499C582.065 46.2856 583.201 45.4237 584.378 44.6594C585.555 43.8951 586.771 43.0332 588.008 42.2689C590.421 40.6427 592.855 39.0165 595.587 37.5042C594.944 40.1079 594.105 42.6767 593.074 45.1961C592.555 46.4482 591.997 47.6679 591.419 48.9038C590.84 50.1397 590.222 51.3431 589.544 52.5302C588.168 54.8882 586.791 57.2787 585.156 59.5229C584.358 60.6775 583.521 61.7995 582.703 62.9216C581.885 64.0437 580.948 65.117 580.03 66.174C572.681 74.8699 563.617 82.5134 553.205 88.7944C542.816 95.1045 531.132 99.8567 518.701 102.829C512.511 104.281 506.144 105.176 499.714 105.495C496.505 105.664 493.285 105.636 490.081 105.414C486.833 105.26 483.619 104.79 480.507 104.016Z" fill="#8CC0F1"/>
<path d="M480.507 104.617C486.421 104.004 492.254 102.961 497.939 101.499C503.653 100.088 509.25 98.3831 514.699 96.3934C525.615 92.3739 535.971 87.407 545.586 81.5786C555.225 75.7113 564.163 69.1119 572.278 61.8686L575.325 59.1383L578.254 56.2625C580.232 54.4046 582.053 52.4336 583.952 50.5111C584.902 49.5579 585.792 48.5562 586.683 47.5707L589.334 44.6304C590.224 43.6449 591.055 42.6109 591.926 41.5931L594.578 38.4912C592.975 40.6076 591.412 42.724 589.75 44.792L587.197 47.8615C586.346 48.8955 585.495 49.9295 584.585 50.915C582.765 52.886 581.004 54.9055 579.065 56.8118L576.196 59.7037L573.208 62.5148C571.229 64.405 569.132 66.166 567.054 67.9755C566.006 68.8802 564.898 69.7041 563.829 70.5927C562.761 71.4813 561.633 72.4183 560.544 73.1938L557.161 75.6494C556.033 76.4734 554.846 77.265 553.698 78.0405L551.957 79.236L550.157 80.3831C548.95 81.1262 547.782 81.9017 546.555 82.6449C536.844 88.5244 526.317 93.4482 515.193 97.3143C509.641 99.2258 503.944 100.845 498.137 102.161C495.229 102.775 492.32 103.324 489.372 103.777C486.443 104.216 483.482 104.497 480.507 104.617Z" fill="#78AFE3"/>
<path d="M482.526 101.648C484.938 99.8349 487.21 98.0705 489.443 96.3224C491.675 94.5743 493.828 92.8263 495.941 91.0945C500.186 87.6147 504.252 84.1676 508.179 80.6878C516.052 73.7282 523.387 66.6542 530.443 59.3189C537.498 51.9835 544.156 44.3704 550.833 36.4469C551.65 35.4504 552.527 34.4701 553.384 33.4736C554.241 32.477 555.038 31.4641 555.896 30.4512C557.65 28.4581 559.264 26.3996 561.058 24.3575C561.975 23.3446 562.812 22.299 563.689 21.2534C564.566 20.2079 565.483 19.1786 566.42 18.1494C568.233 16.0419 570.067 13.9344 572.22 11.8433C572.419 14.5092 572.419 17.1825 572.22 19.8484C572.12 21.1717 571.961 22.4787 571.801 23.802C571.642 25.1253 571.442 26.4323 571.143 27.7229C570.585 30.3042 570.027 32.9345 569.15 35.4667C568.732 36.741 568.313 38.0153 567.875 39.2896C567.436 40.5639 566.878 41.7892 566.34 43.0471C562.025 53.0787 555.729 62.4612 547.704 70.8202C539.7 79.2317 529.95 86.4212 518.902 92.0584C513.402 94.839 507.547 97.118 501.442 98.8547C498.401 99.717 495.291 100.405 492.134 100.913C488.976 101.458 485.753 101.705 482.526 101.648Z" fill="#9CCCFA"/>
<path d="M482.526 102.643C488.03 100.718 493.313 98.3872 498.312 95.6778C503.377 93.0013 508.234 90.0633 512.854 86.8813C522.076 80.5477 530.463 73.4228 537.874 65.6258C545.278 57.7548 551.772 49.3245 557.271 40.4461L559.343 37.1761L561.316 33.7752C562.638 31.5188 563.743 29.1971 564.947 26.8917C565.578 25.7635 566.111 24.5863 566.663 23.409L568.301 19.91C568.854 18.7492 569.327 17.5556 569.821 16.3784L571.36 12.8303C570.491 15.2338 569.663 17.6537 568.716 20.0409L567.236 23.6052C566.742 24.7825 566.269 25.9924 565.697 27.1533C564.572 29.4914 563.526 31.8458 562.263 34.1349L560.428 37.5848L558.455 40.9857C557.192 43.2748 555.692 45.4657 554.272 47.6894C553.561 48.8012 552.752 49.864 551.983 50.9595C551.213 52.0549 550.483 53.1341 549.654 54.2295L547.188 57.4179C546.359 58.4643 545.471 59.478 544.603 60.5244L543.321 62.0777L541.959 63.582C541.032 64.5793 540.144 65.6094 539.216 66.5904C531.736 74.4772 523.166 81.611 513.683 87.8459C508.955 90.9387 503.985 93.7681 498.805 96.3155C496.201 97.5744 493.557 98.768 490.912 99.8472C488.194 100.93 485.392 101.863 482.526 102.643Z" fill="#7FB9F0"/>
<path d="M156.972 410.717C154.325 408.246 151.827 405.859 149.384 403.49C146.941 401.121 144.572 398.735 142.259 396.383C137.608 391.702 133.142 387.015 128.86 382.322C120.255 372.931 112.297 363.42 104.672 353.603C97.0478 343.785 89.8673 333.627 82.7238 323.043C81.8355 321.713 80.8732 320.418 79.9849 319.089C79.0965 317.759 78.1342 316.396 77.2829 315.066C75.4323 312.39 73.6742 309.646 71.731 306.919C70.7501 305.573 69.8803 304.175 68.918 302.795C67.9557 301.414 67.0674 300.016 65.9755 298.636C64.0138 295.841 62.0521 293.011 59.7388 290.233C59.3127 293.627 59.1149 297.043 59.1466 300.46C59.1466 302.164 59.2761 303.868 59.3872 305.573C59.4982 307.277 59.6278 308.982 59.8683 310.686C60.3495 314.095 60.8307 317.418 61.719 320.725C62.0891 322.429 62.5148 324.134 62.9219 325.702C63.3291 327.27 63.9028 328.974 64.4394 330.61C68.7616 343.767 75.3878 356.185 84.0563 367.374C92.7125 378.663 103.448 388.47 115.776 396.349C121.92 400.233 128.496 403.501 135.393 406.098C138.831 407.332 142.355 408.351 145.942 409.149C149.54 410.065 153.241 410.591 156.972 410.717Z" fill="#8CC0F1"/>
<path d="M157.305 411.551C151.035 408.747 145.047 405.439 139.409 401.666C133.707 397.965 128.262 393.941 123.105 389.616C112.814 380.924 103.547 371.258 95.4563 360.777C87.3921 350.254 80.4156 339.058 74.618 327.337L72.4527 322.94L70.4355 318.474C69.0476 315.526 67.9002 312.458 66.7342 309.458C66.0865 307.958 65.5498 306.407 64.8836 304.89L63.1995 300.305C62.6443 298.771 62.1817 297.203 61.6635 295.669L60.1274 291.033C60.9787 294.17 61.7745 297.306 62.7183 300.425L64.1989 305.095C64.6985 306.646 65.1797 308.197 65.7534 309.731C66.9008 312.782 67.9742 315.884 69.2881 318.883L71.1388 323.417L73.2115 327.9C74.544 330.899 76.117 333.797 77.6345 336.728C78.3933 338.194 79.2631 339.609 80.0774 341.057C80.8917 342.506 81.6875 343.938 82.5758 345.335L85.2222 349.562C86.1105 350.96 87.0728 352.306 88.0167 353.687L89.4231 355.749L90.9037 357.778C91.903 359.107 92.8653 360.471 93.8832 361.8C102.055 372.391 111.539 382.069 122.143 390.638C127.412 394.881 132.976 398.804 138.798 402.382C141.741 404.086 144.72 405.79 147.792 407.375C150.862 408.955 154.04 410.35 157.305 411.551Z" fill="#78AFE3"/>
<path d="M151.957 406.677C148.255 405.978 144.813 405.262 141.389 404.547C137.966 403.831 134.597 403.047 131.266 402.297C124.641 400.746 118.201 399.144 111.853 397.439C99.1761 394.031 86.9433 390.144 74.8401 385.866C62.7369 381.588 50.7077 376.765 38.4934 371.652C36.9759 371.004 35.4214 370.391 33.8853 369.743L29.2587 367.766C26.1126 366.505 23.059 365.09 19.8389 363.812C18.2289 363.181 16.6743 362.482 15.0643 361.8C13.4542 361.119 11.8256 360.471 10.16 359.84C6.8844 358.511 3.59025 357.147 0 356.022C1.6846 359.063 3.56961 362.006 5.64447 364.834C6.69934 366.249 7.77271 367.629 8.8831 368.993C9.99349 370.356 11.1039 371.72 12.3068 372.998C14.6941 375.555 17.1185 378.111 19.7094 380.498C21.0233 381.708 22.3558 382.867 23.6883 384.043C25.0207 385.219 26.4457 386.293 27.8707 387.452C39.2382 396.239 52.1079 403.23 65.957 408.143C79.8183 413.098 94.5248 415.747 109.392 415.966C116.785 416.028 124.163 415.348 131.396 413.938C134.999 413.244 138.543 412.31 142 411.143C145.495 410.014 148.836 408.515 151.957 406.677Z" fill="#8CC0F1"/>
<path d="M152.771 407.172C145.939 408.071 139.033 408.402 132.136 408.16C125.231 408.002 118.345 407.432 111.52 406.456C97.8499 404.503 84.448 401.2 71.5459 396.604C58.5977 391.963 46.1604 386.193 34.4035 379.373L29.9989 376.816L25.6684 374.123C22.7629 372.419 20.0055 370.391 17.174 368.499C15.749 367.578 14.3795 366.573 13.01 365.584L8.88308 362.636C7.51361 361.647 6.19965 360.573 4.84868 359.551L0.81427 356.449C3.38667 358.647 5.92205 360.863 8.54997 362.994L12.5659 366.13C13.8983 367.186 15.2123 368.243 16.6188 369.232C19.3762 371.192 22.1707 373.237 24.9837 375.078L29.2587 377.89L33.6447 380.566C36.5317 382.407 39.5668 383.975 42.5648 385.679C44.0453 386.514 45.6184 387.247 47.1359 388.048C48.6534 388.849 50.1895 389.633 51.7625 390.332L56.4632 392.514C58.0362 393.213 59.6278 393.86 61.2193 394.525L63.6067 395.531L66.031 396.468C67.6596 397.065 69.2511 397.712 70.8982 398.292C83.928 402.93 97.5071 406.134 111.353 407.836C118.246 408.645 125.188 409.038 132.136 409.013C135.597 409.013 139.057 408.842 142.518 408.552C145.965 408.298 149.389 407.837 152.771 407.172Z" fill="#78AFE3"/>
<path d="M149.088 404.445C145.738 402.877 142.592 401.326 139.465 399.775C136.337 398.224 133.321 396.656 130.341 395.105C124.37 391.968 118.552 388.81 112.889 385.628C101.6 379.186 90.8482 372.453 80.3365 365.329C69.8248 358.204 59.6463 350.62 49.3197 342.677C48.0242 341.672 46.6918 340.7 45.3963 339.695L41.4915 336.661C38.7895 334.667 36.2356 332.553 33.4967 330.525C32.1272 329.52 30.8132 328.446 29.4438 327.406C28.0743 326.366 26.6863 325.327 25.2613 324.321C22.4668 322.225 19.7094 320.094 16.5262 318.117C17.2697 321.489 18.2463 324.814 19.4503 328.071C20.061 329.673 20.7087 331.275 21.3934 332.86C22.0782 334.445 22.7629 336.03 23.5587 337.547C25.1503 340.615 26.7418 343.7 28.6295 346.615C29.5548 348.08 30.4801 349.546 31.461 350.995C32.4418 352.444 33.5152 353.841 34.57 355.239C43.0736 366.484 53.5273 376.365 65.5128 384.486C77.4914 392.69 90.9486 398.881 105.265 402.774C112.377 404.677 119.693 405.86 127.084 406.302C130.78 406.551 134.491 406.551 138.188 406.302C141.887 406.073 145.545 405.45 149.088 404.445Z" fill="#9CCCFA"/>
<path d="M149.736 405.109C142.883 404.286 136.126 402.894 129.545 400.95C122.907 399.095 116.404 396.852 110.076 394.235C97.403 388.975 85.379 382.479 74.2109 374.856C63.011 367.194 52.6199 358.577 43.1756 349.12L39.6408 345.557L36.2357 341.893C33.9038 339.473 31.8126 336.899 29.6103 334.394C28.4815 333.149 27.4636 331.837 26.4087 330.559L23.2626 326.673C22.2263 325.377 21.2639 324.031 20.2461 322.701L17.174 318.815C19.0247 321.56 20.8753 324.321 22.7259 327.031L25.7055 331.036C26.6863 332.365 27.6672 333.712 28.7405 335.007C30.8503 337.581 32.9045 340.206 35.1808 342.694L38.4934 346.461L41.9727 350.125C44.2489 352.597 46.7288 354.898 49.1347 357.25C50.3561 358.426 51.6515 359.516 52.8359 360.658C54.0204 361.8 55.3343 362.942 56.6668 364.067L60.5901 367.323C61.9041 368.396 63.2736 369.402 64.6245 370.442L66.6418 372.01L68.733 373.493C70.121 374.481 71.4904 375.487 72.9154 376.441C84.2426 384.1 96.5107 390.501 109.466 395.513C115.903 398.007 122.512 400.108 129.249 401.803C132.617 402.621 136.004 403.354 139.428 403.933C142.831 404.538 146.275 404.93 149.736 405.109Z" fill="#7FB9F0"/>
<path d="M506.754 29.6086H183.723V216.143H506.754V29.6086Z" fill="white"/>
<path d="M506.754 29.6086H183.723V47.3738H506.754V29.6086Z" fill="#4980EA"/>
<path d="M506.754 29.6086H484.545V47.3738H506.754V29.6086Z" fill="#3E75C8"/>
<g opacity="0.52">
<path opacity="0.52" d="M489.186 32.6416L502.578 43.6196" stroke="white" stroke-width="0.75" stroke-miterlimit="10"/>
<path opacity="0.52" d="M502.578 32.6416L489.186 43.6196" stroke="white" stroke-width="0.75" stroke-miterlimit="10"/>
</g>
<path d="M296.292 72.2212C295.037 71.8607 294.123 71.4189 293.55 70.8958C292.981 70.3677 292.696 69.7177 292.696 68.9458C292.696 68.0724 293.044 67.3513 293.74 66.7826C294.441 66.2087 295.35 65.9218 296.467 65.9218C297.229 65.9218 297.907 66.0691 298.501 66.3636C299.1 66.6582 299.562 67.0644 299.887 67.5824C300.217 68.1003 300.382 68.6666 300.382 69.281H298.912C298.912 68.6107 298.699 68.0851 298.272 67.7042C297.846 67.3183 297.244 67.1253 296.467 67.1253C295.746 67.1253 295.182 67.2853 294.776 67.6052C294.375 67.9201 294.174 68.3593 294.174 68.923C294.174 69.375 294.365 69.7583 294.745 70.0732C295.131 70.383 295.784 70.6673 296.703 70.9263C297.627 71.1853 298.348 71.4722 298.866 71.7871C299.389 72.0968 299.775 72.4599 300.024 72.8763C300.278 73.2927 300.405 73.7828 300.405 74.3464C300.405 75.2453 300.055 75.9664 299.354 76.5097C298.653 77.048 297.716 77.3171 296.543 77.3171C295.781 77.3171 295.07 77.1724 294.41 76.883C293.75 76.5884 293.24 76.1873 292.879 75.6794C292.524 75.1716 292.346 74.5953 292.346 73.9503H293.816C293.816 74.6207 294.062 75.1513 294.555 75.5423C295.053 75.9283 295.715 76.1212 296.543 76.1212C297.315 76.1212 297.907 75.9638 298.318 75.649C298.729 75.3341 298.935 74.905 298.935 74.3617C298.935 73.8183 298.745 73.3994 298.364 73.1048C297.983 72.8052 297.292 72.5107 296.292 72.2212ZM310.81 77.1648H309.34V72.0384H303.749V77.1648H302.286V66.0742H303.749V70.8425H309.34V66.0742H310.81V77.1648ZM321.939 71.9775C321.939 73.0642 321.756 74.0138 321.39 74.8263C321.025 75.6337 320.507 76.2507 319.836 76.6773C319.166 77.1039 318.384 77.3171 317.49 77.3171C316.617 77.3171 315.843 77.1039 315.167 76.6773C314.492 76.2457 313.966 75.6337 313.59 74.8416C313.22 74.0443 313.029 73.1226 313.019 72.0765V71.2767C313.019 70.2103 313.204 69.2683 313.575 68.4507C313.946 67.6332 314.469 67.0085 315.144 66.5769C315.825 66.1402 316.602 65.9218 317.475 65.9218C318.364 65.9218 319.146 66.1376 319.821 66.5693C320.502 66.9958 321.025 67.6179 321.39 68.4355C321.756 69.248 321.939 70.1951 321.939 71.2767V71.9775ZM320.484 71.2615C320.484 69.9462 320.22 68.9382 319.692 68.2375C319.164 67.5316 318.425 67.1787 317.475 67.1787C316.551 67.1787 315.822 67.5316 315.289 68.2375C314.761 68.9382 314.489 69.9132 314.474 71.1625V71.9775C314.474 73.2521 314.741 74.255 315.274 74.9863C315.812 75.7125 316.551 76.0755 317.49 76.0755C318.435 76.0755 319.166 75.7328 319.684 75.0472C320.202 74.3566 320.469 73.3689 320.484 72.0841V71.2615ZM325.595 72.823V77.1648H324.133V66.0742H328.223C329.437 66.0742 330.386 66.3839 331.072 67.0035C331.762 67.623 332.108 68.4431 332.108 69.4638C332.108 70.5404 331.77 71.3707 331.095 71.9546C330.424 72.5335 329.462 72.823 328.208 72.823H325.595ZM325.595 71.6271H328.223C329.005 71.6271 329.604 71.4443 330.021 71.0787C330.437 70.708 330.645 70.1748 330.645 69.4791C330.645 68.8189 330.437 68.2908 330.021 67.8947C329.604 67.4986 329.033 67.2929 328.307 67.2777H325.595V71.6271ZM346.367 77.1648H344.897L339.314 68.6183V77.1648H337.844V66.0742H339.314L344.912 74.6587V66.0742H346.367V77.1648ZM357.496 71.9775C357.496 73.0642 357.313 74.0138 356.947 74.8263C356.582 75.6337 356.064 76.2507 355.394 76.6773C354.723 77.1039 353.941 77.3171 353.047 77.3171C352.174 77.3171 351.4 77.1039 350.724 76.6773C350.049 76.2457 349.523 75.6337 349.147 74.8416C348.777 74.0443 348.586 73.1226 348.576 72.0765V71.2767C348.576 70.2103 348.761 69.2683 349.132 68.4507C349.503 67.6332 350.026 67.0085 350.701 66.5769C351.382 66.1402 352.159 65.9218 353.032 65.9218C353.921 65.9218 354.703 66.1376 355.378 66.5693C356.059 66.9958 356.582 67.6179 356.947 68.4355C357.313 69.248 357.496 70.1951 357.496 71.2767V71.9775ZM356.041 71.2615C356.041 69.9462 355.777 68.9382 355.249 68.2375C354.721 67.5316 353.982 67.1787 353.032 67.1787C352.108 67.1787 351.379 67.5316 350.846 68.2375C350.318 68.9382 350.046 69.9132 350.031 71.1625V71.9775C350.031 73.2521 350.298 74.255 350.831 74.9863C351.369 75.7125 352.108 76.0755 353.047 76.0755C353.992 76.0755 354.723 75.7328 355.241 75.0472C355.759 74.3566 356.026 73.3689 356.041 72.0841V71.2615ZM362.081 73.6685L362.295 75.131L362.607 73.8132L364.801 66.0742H366.035L368.175 73.8132L368.48 75.1539L368.716 73.6609L370.437 66.0742H371.908L369.219 77.1648H367.886L365.601 69.083L365.425 68.2375L365.25 69.083L362.881 77.1648H361.548L358.867 66.0742H360.329L362.081 73.6685ZM374.894 74.0341H373.621L373.522 66.0742H375L374.894 74.0341ZM373.469 76.4564C373.469 76.2279 373.538 76.0375 373.675 75.8851C373.817 75.7277 374.025 75.649 374.299 75.649C374.574 75.649 374.782 75.7277 374.924 75.8851C375.066 76.0375 375.137 76.2279 375.137 76.4564C375.137 76.6849 375.066 76.8753 374.924 77.0277C374.782 77.175 374.574 77.2486 374.299 77.2486C374.025 77.2486 373.817 77.175 373.675 77.0277C373.538 76.8753 373.469 76.6849 373.469 76.4564Z" fill="#7048E7"/>
<path opacity="0.3" d="M250.348 110.539H215.017V139.16H250.348V110.539Z" fill="#7048E7"/>
<path opacity="0.3" d="M250.348 142.121H215.017V147.056H250.348V142.121Z" fill="#7048E7"/>
<path opacity="0.3" d="M306.879 110.539H271.547V139.16H306.879V110.539Z" fill="#7048E7"/>
<path opacity="0.3" d="M306.879 142.121H271.547V147.056H306.879V142.121Z" fill="#7048E7"/>
<path opacity="0.3" d="M363.409 110.539H327.068V139.16H363.409V110.539Z" fill="#7048E7"/>
<path opacity="0.3" d="M363.409 142.121H327.068V147.056H363.409V142.121Z" fill="#7048E7"/>
<path opacity="0.3" d="M418.93 110.539H383.598V139.16H418.93V110.539Z" fill="#7048E7"/>
<path opacity="0.3" d="M418.93 142.121H383.598V147.056H418.93V142.121Z" fill="#7048E7"/>
<path opacity="0.3" d="M475.46 110.539H440.129V139.16H475.46V110.539Z" fill="#7048E7"/>
<path opacity="0.3" d="M475.46 142.121H440.129V147.056H475.46V142.121Z" fill="#7048E7"/>
<path opacity="0.3" d="M250.348 158.899H215.017V188.508H250.348V158.899Z" fill="#7048E7"/>
<path opacity="0.3" d="M250.348 192.456H215.017V195.417H250.348V192.456Z" fill="#7048E7"/>
<path opacity="0.3" d="M306.879 158.899H271.547V188.508H306.879V158.899Z" fill="#7048E7"/>
<path opacity="0.3" d="M306.879 192.456H271.547V195.417H306.879V192.456Z" fill="#7048E7"/>
<path opacity="0.3" d="M363.409 158.899H327.068V188.508H363.409V158.899Z" fill="#7048E7"/>
<path opacity="0.3" d="M363.409 192.456H327.068V195.417H363.409V192.456Z" fill="#7048E7"/>
<path opacity="0.3" d="M418.93 158.899H383.598V188.508H418.93V158.899Z" fill="#7048E7"/>
<path opacity="0.3" d="M418.93 192.456H383.598V195.417H418.93V192.456Z" fill="#7048E7"/>
<path opacity="0.3" d="M475.46 158.899H440.129V188.508H475.46V158.899Z" fill="#7048E7"/>
<path opacity="0.3" d="M475.46 192.456H440.129V195.417H475.46V192.456Z" fill="#7048E7"/>
<path opacity="0.3" d="M475 67.5C475 68.7856 474.619 70.0423 473.905 71.1112C473.19 72.1801 472.175 73.0132 470.987 73.5052C469.8 73.9972 468.493 74.1259 467.232 73.8751C465.971 73.6243 464.813 73.0052 463.904 72.0962C462.995 71.1871 462.376 70.029 462.125 68.7681C461.874 67.5072 462.003 66.2003 462.495 65.0126C462.987 63.8248 463.82 62.8097 464.889 62.0954C465.958 61.3812 467.214 61 468.5 61C470.224 61 471.877 61.6848 473.096 62.9038C474.315 64.1228 475 65.7761 475 67.5Z" fill="#7048E7"/>
<path opacity="0.3" d="M458.261 66.1125H440.091V68.0867H458.261V66.1125Z" fill="#7048E7"/>
<path d="M601.644 79.9431H278.614V267.464H601.644V79.9431Z" fill="white"/>
<path d="M601.644 79.9431H278.614V98.6953H601.644V79.9431Z" fill="#BD8DFB"/>
<path d="M601.644 79.9431H579.435V98.6953H601.644V79.9431Z" fill="#9870EF"/>
<g opacity="0.52">
<path opacity="0.52" d="M583.862 83.8564L597.273 94.8345" stroke="white" stroke-width="0.75" stroke-miterlimit="10"/>
<path opacity="0.52" d="M597.273 83.8564L583.862 94.8345" stroke="white" stroke-width="0.75" stroke-miterlimit="10"/>
</g>
<path d="M391.182 122.556C389.927 122.195 389.013 121.754 388.44 121.231C387.871 120.702 387.586 120.052 387.586 119.281C387.586 118.407 387.934 117.686 388.63 117.117C389.331 116.543 390.24 116.257 391.357 116.257C392.119 116.257 392.797 116.404 393.391 116.698C393.99 116.993 394.452 117.399 394.777 117.917C395.107 118.435 395.272 119.001 395.272 119.616H393.802C393.802 118.945 393.589 118.42 393.162 118.039C392.736 117.653 392.134 117.46 391.357 117.46C390.636 117.46 390.072 117.62 389.666 117.94C389.265 118.255 389.064 118.694 389.064 119.258C389.064 119.71 389.255 120.093 389.635 120.408C390.021 120.718 390.674 121.002 391.593 121.261C392.517 121.52 393.238 121.807 393.756 122.122C394.279 122.432 394.665 122.795 394.914 123.211C395.168 123.627 395.295 124.117 395.295 124.681C395.295 125.58 394.945 126.301 394.244 126.844C393.543 127.383 392.606 127.652 391.433 127.652C390.671 127.652 389.96 127.507 389.3 127.218C388.64 126.923 388.13 126.522 387.769 126.014C387.414 125.506 387.236 124.93 387.236 124.285H388.706C388.706 124.955 388.952 125.486 389.445 125.877C389.943 126.263 390.605 126.456 391.433 126.456C392.205 126.456 392.797 126.299 393.208 125.984C393.619 125.669 393.825 125.24 393.825 124.696C393.825 124.153 393.635 123.734 393.254 123.44C392.873 123.14 392.182 122.845 391.182 122.556ZM405.7 127.5H404.23V122.373H398.639V127.5H397.177V116.409H398.639V121.177H404.23V116.409H405.7V127.5ZM416.829 122.312C416.829 123.399 416.646 124.349 416.28 125.161C415.915 125.968 415.397 126.585 414.727 127.012C414.056 127.439 413.274 127.652 412.38 127.652C411.507 127.652 410.733 127.439 410.057 127.012C409.382 126.58 408.856 125.968 408.48 125.176C408.11 124.379 407.919 123.457 407.909 122.411V121.611C407.909 120.545 408.094 119.603 408.465 118.785C408.836 117.968 409.359 117.343 410.034 116.912C410.715 116.475 411.492 116.257 412.365 116.257C413.254 116.257 414.036 116.472 414.711 116.904C415.392 117.331 415.915 117.953 416.28 118.77C416.646 119.583 416.829 120.53 416.829 121.611V122.312ZM415.374 121.596C415.374 120.281 415.11 119.273 414.582 118.572C414.054 117.866 413.315 117.513 412.365 117.513C411.441 117.513 410.712 117.866 410.179 118.572C409.651 119.273 409.379 120.248 409.364 121.497V122.312C409.364 123.587 409.631 124.59 410.164 125.321C410.702 126.047 411.441 126.41 412.38 126.41C413.325 126.41 414.056 126.067 414.574 125.382C415.092 124.691 415.359 123.704 415.374 122.419V121.596ZM420.485 123.158V127.5H419.023V116.409H423.113C424.327 116.409 425.276 116.719 425.962 117.338C426.652 117.958 426.998 118.778 426.998 119.799C426.998 120.875 426.66 121.705 425.985 122.289C425.314 122.868 424.352 123.158 423.098 123.158H420.485ZM420.485 121.962H423.113C423.895 121.962 424.494 121.779 424.911 121.413C425.327 121.043 425.535 120.509 425.535 119.814C425.535 119.154 425.327 118.625 424.911 118.229C424.494 117.833 423.923 117.628 423.197 117.612H420.485V121.962ZM441.257 127.5H439.787L434.204 118.953V127.5H432.734V116.409H434.204L439.802 124.993V116.409H441.257V127.5ZM452.386 122.312C452.386 123.399 452.203 124.349 451.837 125.161C451.472 125.968 450.954 126.585 450.284 127.012C449.613 127.439 448.831 127.652 447.937 127.652C447.064 127.652 446.29 127.439 445.614 127.012C444.939 126.58 444.413 125.968 444.037 125.176C443.667 124.379 443.476 123.457 443.466 122.411V121.611C443.466 120.545 443.652 119.603 444.022 118.785C444.393 117.968 444.916 117.343 445.591 116.912C446.272 116.475 447.049 116.257 447.922 116.257C448.811 116.257 449.593 116.472 450.268 116.904C450.949 117.331 451.472 117.953 451.837 118.77C452.203 119.583 452.386 120.53 452.386 121.611V122.312ZM450.931 121.596C450.931 120.281 450.667 119.273 450.139 118.572C449.611 117.866 448.872 117.513 447.922 117.513C446.998 117.513 446.269 117.866 445.736 118.572C445.208 119.273 444.936 120.248 444.921 121.497V122.312C444.921 123.587 445.188 124.59 445.721 125.321C446.259 126.047 446.998 126.41 447.937 126.41C448.882 126.41 449.613 126.067 450.131 125.382C450.649 124.691 450.916 123.704 450.931 122.419V121.596ZM456.971 124.003L457.185 125.466L457.497 124.148L459.691 116.409H460.925L463.065 124.148L463.37 125.489L463.606 123.996L465.327 116.409H466.798L464.109 127.5H462.776L460.491 119.418L460.315 118.572L460.14 119.418L457.771 127.5H456.438L453.757 116.409H455.219L456.971 124.003ZM469.784 124.369H468.511L468.412 116.409H469.89L469.784 124.369ZM468.359 126.791C468.359 126.563 468.428 126.372 468.565 126.22C468.707 126.062 468.915 125.984 469.189 125.984C469.464 125.984 469.672 126.062 469.814 126.22C469.956 126.372 470.027 126.563 470.027 126.791C470.027 127.02 469.956 127.21 469.814 127.362C469.672 127.51 469.464 127.583 469.189 127.583C468.915 127.583 468.707 127.51 468.565 127.362C468.428 127.21 468.359 127.02 468.359 126.791Z" fill="#793CC6"/>
<path opacity="0.3" d="M345.239 161.86H309.907V190.482H345.239V161.86Z" fill="#5857E4"/>
<path opacity="0.3" d="M345.239 194.43H309.907V197.39H345.239V194.43Z" fill="#5857E4"/>
<path opacity="0.3" d="M401.769 161.86H366.437V190.482H401.769V161.86Z" fill="#5857E4"/>
<path opacity="0.3" d="M401.769 194.43H366.437V197.39H401.769V194.43Z" fill="#5857E4"/>
<path opacity="0.3" d="M457.29 161.86H421.958V190.482H457.29V161.86Z" fill="#5857E4"/>
<path opacity="0.3" d="M457.29 194.43H421.958V197.39H457.29V194.43Z" fill="#5857E4"/>
<path opacity="0.3" d="M513.82 161.86H478.489V190.482H513.82V161.86Z" fill="#5857E4"/>
<path opacity="0.3" d="M513.82 194.43H478.489V197.39H513.82V194.43Z" fill="#5857E4"/>
<path opacity="0.3" d="M570.35 161.86H534.009V190.482H570.35V161.86Z" fill="#5857E4"/>
<path opacity="0.3" d="M570.35 194.43H534.009V197.39H570.35V194.43Z" fill="#5857E4"/>
<path opacity="0.3" d="M345.239 211.208H309.907V239.829H345.239V211.208Z" fill="#5857E4"/>
<path opacity="0.3" d="M345.239 242.79H309.907V245.751H345.239V242.79Z" fill="#5857E4"/>
<path opacity="0.3" d="M401.769 211.208H366.437V239.829H401.769V211.208Z" fill="#5857E4"/>
<path opacity="0.3" d="M401.769 242.79H366.437V245.751H401.769V242.79Z" fill="#5857E4"/>
<path opacity="0.3" d="M457.29 211.208H421.958V239.829H457.29V211.208Z" fill="#5857E4"/>
<path opacity="0.3" d="M457.29 242.79H422.968V245.751H457.29V242.79Z" fill="#5857E4"/>
<path opacity="0.3" d="M513.82 211.208H478.489V239.829H513.82V211.208Z" fill="#5857E4"/>
<path opacity="0.3" d="M513.82 242.79H479.498V245.751H513.82V242.79Z" fill="#5857E4"/>
<path opacity="0.3" d="M570.35 211.208H534.009V239.829H570.35V211.208Z" fill="#5857E4"/>
<path opacity="0.3" d="M572.034 218.273H538.982V222.756H572.034V218.273Z" fill="#5857E4"/>
<path opacity="0.3" d="M570 118.986C570.003 120.174 569.653 121.337 568.994 122.326C568.335 123.315 567.397 124.086 566.299 124.542C565.202 124.997 563.993 125.117 562.828 124.884C561.662 124.652 560.592 124.079 559.752 123.237C558.913 122.396 558.342 121.324 558.113 120.158C557.883 118.992 558.006 117.784 558.464 116.687C558.922 115.59 559.695 114.655 560.686 113.998C561.677 113.342 562.841 112.994 564.029 113C565.613 113.008 567.129 113.641 568.248 114.763C569.366 115.884 569.996 117.402 570 118.986Z" fill="#7048E7"/>
<path opacity="0.3" d="M554.151 117.448H535.981V119.421H554.151V117.448Z" fill="#7048E7"/>
<path d="M249.356 296.471H143.721V409.848H249.356V296.471Z" fill="#32B6D2"/>
<path d="M185.731 307.686C185.731 308.054 185.613 308.413 185.391 308.718C185.169 309.024 184.854 309.262 184.486 309.403C184.117 309.543 183.711 309.58 183.32 309.508C182.929 309.437 182.569 309.26 182.287 309C182.005 308.74 181.813 308.409 181.735 308.049C181.657 307.688 181.697 307.315 181.85 306.975C182.003 306.636 182.261 306.346 182.593 306.142C182.925 305.938 183.315 305.829 183.714 305.829C184.249 305.829 184.762 306.024 185.14 306.373C185.518 306.721 185.731 307.194 185.731 307.686Z" fill="#3C2D5A"/>
<path d="M211.288 307.686C211.288 308.054 211.17 308.413 210.948 308.718C210.726 309.024 210.411 309.262 210.043 309.403C209.674 309.543 209.269 309.58 208.877 309.508C208.486 309.437 208.127 309.26 207.844 309C207.562 308.74 207.37 308.409 207.292 308.049C207.215 307.688 207.255 307.315 207.407 306.975C207.56 306.636 207.818 306.346 208.15 306.142C208.482 305.938 208.872 305.829 209.271 305.829C209.806 305.829 210.319 306.024 210.697 306.373C211.076 306.721 211.288 307.194 211.288 307.686Z" fill="#3C2D5A"/>
<path d="M197.482 344.024C194.238 343.927 191.11 342.885 188.55 341.047C185.989 339.209 184.127 336.671 183.232 333.797C180.271 324.832 182.326 308.232 182.418 307.516L185.009 307.806C185.009 307.976 182.936 324.611 185.749 333.099C187.711 339.064 194.151 342.728 200.147 341.263C207.55 339.473 213.379 329.775 207.994 307.925L210.548 307.396C216.34 330.917 209.326 341.484 200.814 343.598C199.728 343.874 198.608 344.018 197.482 344.024Z" fill="#3C2D5A"/>
<path d="M262.699 400.643L261.145 290.642L251.595 292.806L249.356 296.471V409.847L255.796 403.013L262.699 400.643Z" fill="#79DCFB"/>
<path d="M143.721 296.471L157.804 290.335L261.145 290.642L252.632 293.352L249.356 296.471H143.721Z" fill="#2CA7C1"/>
<path d="M143.721 296.471L157.804 290.335L157.86 296.471H143.721Z" fill="#57F1FB"/>
<path d="M177.384 340.086H101.156V421.897H177.384V340.086Z" fill="#4980EA"/>
<path d="M131.396 348.182C131.419 348.371 131.399 348.562 131.336 348.742C131.274 348.923 131.17 349.089 131.033 349.231C130.896 349.372 130.728 349.485 130.54 349.563C130.352 349.64 130.149 349.68 129.943 349.68C129.737 349.68 129.534 349.64 129.346 349.563C129.158 349.485 128.99 349.372 128.853 349.231C128.716 349.089 128.612 348.923 128.55 348.742C128.488 348.562 128.467 348.371 128.49 348.182C128.467 347.994 128.488 347.803 128.55 347.623C128.612 347.442 128.716 347.275 128.853 347.134C128.99 346.993 129.158 346.88 129.346 346.802C129.534 346.725 129.737 346.685 129.943 346.685C130.149 346.685 130.352 346.725 130.54 346.802C130.728 346.88 130.896 346.993 131.033 347.134C131.17 347.275 131.274 347.442 131.336 347.623C131.399 347.803 131.419 347.994 131.396 348.182Z" fill="#3C2D5A"/>
<path d="M149.902 348.182C149.902 348.448 149.816 348.709 149.656 348.93C149.495 349.152 149.267 349.324 149 349.426C148.733 349.528 148.439 349.555 148.155 349.503C147.871 349.451 147.611 349.323 147.406 349.134C147.202 348.946 147.063 348.706 147.006 348.445C146.95 348.184 146.979 347.913 147.09 347.667C147.2 347.421 147.388 347.211 147.628 347.063C147.868 346.915 148.151 346.836 148.44 346.836C148.828 346.836 149.2 346.978 149.474 347.23C149.748 347.483 149.902 347.825 149.902 348.182Z" fill="#3C2D5A"/>
<path d="M139.964 374.413C137.623 374.34 135.367 373.586 133.519 372.261C131.671 370.935 130.325 369.105 129.675 367.033C127.528 360.573 129.008 348.591 129.083 348.08L130.933 348.285C130.933 348.404 129.434 360.42 131.47 366.539C132.052 368.559 133.453 370.296 135.384 371.393C137.316 372.491 139.631 372.864 141.852 372.436C147.145 371.141 151.401 364.153 147.515 348.37L149.366 347.995C153.548 365.039 148.477 372.623 142.333 374.123C141.558 374.302 140.763 374.399 139.964 374.413Z" fill="#3C2D5A"/>
<path d="M187.026 415.267L185.897 335.877L178.994 337.445L177.384 340.087V421.897L182.03 416.972L187.026 415.267Z" fill="url(#paint0_linear)"/>
<path d="M101.156 340.086L111.316 335.672L185.897 335.877L179.753 337.837L177.384 340.086H101.156Z" fill="#3B71DA"/>
<path d="M101.156 340.086L111.316 335.672L111.353 340.086H101.156Z" fill="#5A8EF2"/>
<path d="M272.656 367.425H220.763V423.108H272.656V367.425Z" fill="#4C49EA"/>
<path d="M241.398 372.93C241.402 373.114 241.346 373.294 241.238 373.448C241.129 373.602 240.973 373.723 240.79 373.794C240.607 373.866 240.404 373.886 240.209 373.851C240.013 373.816 239.833 373.728 239.692 373.598C239.551 373.468 239.456 373.303 239.418 373.123C239.38 372.943 239.401 372.756 239.479 372.587C239.557 372.418 239.688 372.275 239.855 372.175C240.022 372.075 240.218 372.024 240.417 372.027C240.676 372.031 240.923 372.128 241.106 372.296C241.289 372.465 241.394 372.692 241.398 372.93Z" fill="#3C2D5A"/>
<path d="M253.946 372.93C253.949 373.114 253.893 373.294 253.785 373.448C253.676 373.602 253.521 373.723 253.337 373.794C253.154 373.866 252.951 373.886 252.756 373.851C252.56 373.816 252.38 373.728 252.24 373.598C252.099 373.468 252.003 373.303 251.965 373.123C251.927 372.943 251.949 372.756 252.027 372.587C252.104 372.418 252.235 372.275 252.403 372.175C252.57 372.075 252.765 372.024 252.965 372.027C253.223 372.031 253.47 372.128 253.653 372.296C253.836 372.465 253.941 372.692 253.946 372.93Z" fill="#3C2D5A"/>
<path d="M247.172 390.775C245.582 390.725 244.049 390.214 242.792 389.314C241.536 388.414 240.621 387.172 240.177 385.764C238.715 381.367 239.733 373.203 239.77 372.862L241.047 372.998C241.047 373.083 240.029 381.264 241.417 385.423C241.811 386.8 242.764 387.985 244.08 388.734C245.395 389.482 246.973 389.737 248.486 389.445C252.076 388.559 254.982 383.804 252.336 373.066L253.594 372.811C256.444 384.349 252.983 389.565 248.819 390.587C248.282 390.717 247.728 390.78 247.172 390.775Z" fill="#3C2D5A"/>
<path d="M279.207 418.591L278.448 364.561L273.748 365.618L272.656 367.425V423.107L275.82 419.75L279.207 418.591Z" fill="#6966FF"/>
<path d="M220.763 367.425L227.685 364.408L278.448 364.562L274.266 365.891L272.656 367.425H220.763Z" fill="#3A37DE"/>
<path d="M220.763 367.425L227.685 364.408L227.703 367.425H220.763Z" fill="#6966FF"/>
<path d="M502.376 194.616C500.526 191.207 498.009 187.321 496.362 183.998C494.714 180.674 495.362 175.476 495.122 171.965C494.696 165.795 497.916 168.897 500.526 172.067C503.653 175.851 502.876 178.356 503.801 182.771C504.227 184.816 506.337 187.304 506.059 189.35C505.726 191.923 503.265 192.486 502.376 194.616Z" fill="#FFCDAA"/>
<path d="M541.258 180.759C531.653 184.594 526.138 206.7 540.314 208.03C552.806 209.154 572.553 195.622 565.946 182.464C562.078 174.896 546.532 173.294 541.258 180.759Z" fill="#FFCDAA"/>
<mask id="mask0" mask-type="alpha" maskUnits="userSpaceOnUse" x="531" y="175" width="37" height="34">
<path d="M541.257 180.757C531.653 184.592 526.138 206.698 540.313 208.028C552.805 209.153 572.552 195.62 565.945 182.462C562.077 174.894 546.532 173.292 541.257 180.757Z" fill="#FFCDAA"/>
</mask>
<g mask="url(#mask0)">
<path d="M529.034 195.461C529.033 196.272 529.27 197.082 529.718 197.795C530.166 198.509 530.806 199.096 531.562 199.487C532.334 199.918 533.2 200.133 534.06 200.108C534.488 200.113 534.906 200.027 535.285 199.857C535.664 199.687 535.995 199.436 536.255 199.122C535.571 198.91 534.898 198.653 534.243 198.354C533.734 197.994 533.148 197.825 532.62 197.534C531.545 196.937 530.527 196.299 529.034 195.461Z" fill="white"/>
<path d="M540.924 190.581C541.148 189.906 541.1 189.162 540.789 188.489C540.478 187.816 539.925 187.261 539.236 186.931C538.59 186.574 537.854 186.416 537.133 186.478C536.413 186.54 535.744 186.82 535.224 187.278C535.732 187.675 536.273 188.03 536.841 188.34L538.134 188.971C538.817 189.429 539.613 189.767 540.924 190.581Z" fill="#594DCB"/>
<path d="M537.639 192.953C537.252 193.854 536.437 194.353 535.926 194.084C535.415 193.816 535.304 192.92 535.735 192.038C536.167 191.156 536.95 190.668 537.47 190.915C537.99 191.163 538.092 192.08 537.639 192.953Z" fill="#2C356B"/>
</g>
<path d="M539.833 201.86C546.884 208.456 541.499 228.397 552.251 230.374C568.074 233.306 559.968 207.024 555.083 201.195C551.381 196.781 542.017 195.928 539.833 201.86Z" fill="#FFCDAA"/>
<path d="M542.924 393.076C541.961 395.036 541.832 400.149 541.832 402.808C541.832 405.825 540.703 410.018 543.09 412.523C549.531 419.341 550.345 402.621 550.086 400.047C550.178 398.043 549.719 396.05 548.753 394.252C547.106 392.105 543.497 391.798 542.924 393.076Z" fill="#FFCDAA"/>
<path d="M564.447 393.809C566.297 396.945 567.223 414.262 573.7 412.302C577.642 411.143 575.551 403.047 574.551 400.371C573.793 398.496 572.238 392.872 570.609 391.525C568.37 389.702 565.539 393.23 566.723 396.639" fill="#FFCDAA"/>
<path d="M531.246 286.16C531.471 290.794 531.434 295.436 531.135 300.067C531.135 304.72 531.524 309.407 531.616 314.078C531.82 324.849 531.616 335.689 532.468 346.461C533.319 357.233 534.911 368.107 536.78 378.844C537.892 385.731 538.326 392.696 538.075 399.655C541.887 400.644 547.662 400.218 551.733 399.911C552.825 381.844 549.568 364.391 549.401 346.529C550.641 353.347 551.881 360.471 553.639 367.135C555.712 375.01 557.34 381.384 559.45 388.679C560.19 391.218 562.744 400.388 562.744 400.388L575.939 397.848C575.939 397.848 574.329 391.883 573.126 387.793C571.276 381.452 570.998 375.299 570.091 368.789C568.241 355.494 568.574 342.797 568.019 329.434C567.5 316.6 564.835 303.016 566.871 290.233C567.093 288.784 566.298 286.824 566.538 285.427C560.616 283.842 552.64 285.12 546.57 285.819C541.906 286.245 537.483 288.239 531.246 286.16Z" fill="#7E90EF"/>
<path d="M551.64 297.579C550.023 301.363 550.056 305.577 551.733 309.339C553.361 312.629 555.767 316.037 558.895 312.424C561.19 309.748 560.745 302.914 559.857 299.777C558.599 295.312 551.622 291.256 552.066 298.891" fill="#FFCDAA"/>
<path d="M497.398 190.014C500.849 189.073 504.171 187.769 507.299 186.128C513.314 195.042 524.232 222.653 540.407 217.779C544.904 216.415 547.587 213.79 552.695 213.381C556.878 213.04 562.448 213.62 565.946 216.006C574.755 222.04 574.644 232.351 573.682 241.572C571.831 259.212 567.889 275.779 568.333 293.692C566.285 293.753 564.236 293.558 562.245 293.113C562.157 296.33 561.817 299.537 561.227 302.709C557.063 303.135 553.176 301.158 548.957 301.857C548.957 298.891 549.198 295.039 549.475 292.005C543.313 292.124 535.04 291.579 528.933 291.306C527.952 280.961 527.915 270.376 527.915 259.962C527.915 253.503 528.914 235.249 528.914 235.249C528.914 235.249 521.29 230.834 518.773 228.056C514.773 223.589 511.212 218.804 508.132 213.756C503.223 206.41 499.601 198.398 497.398 190.014Z" fill="#4F5DB4"/>
<path d="M517.644 418.114C517.015 413.188 530.765 411.296 533.393 410.41C536.521 409.319 537.464 406.66 540.537 406.217C541.999 406.013 546.662 406.592 548.198 406.507C549.734 406.422 550.789 405.944 551.807 407.547C553.343 409.95 552.732 415.131 553.14 417.773C547.032 417.926 540.833 418.029 534.633 418.029H517.57L517.644 418.114Z" fill="#2C356B"/>
<path d="M543.405 417.227C543.794 415.131 547.699 414.381 549.605 413.904C552.512 413.265 555.288 412.194 557.822 410.733C560.116 409.319 562.189 407.631 564.373 406.183C566.557 404.734 567.796 405.262 570.11 405.364C572.396 405.484 574.676 405.043 576.717 404.086C581.01 406.609 581.084 413.818 581.51 417.841C568.999 418.506 556.323 417.534 543.942 417.841C544.386 417.67 544.978 417.381 543.405 417.227Z" fill="#2C356B"/>
<path d="M545.33 187.577C548.55 191.378 547.18 195.775 547.458 200.326C547.921 206.274 552.492 208.524 554.731 213.688C556.748 218.341 555.989 223.915 556.97 228.738C557.84 232.982 559.284 238.538 564.243 239.97C570.498 241.675 575.347 238.181 576.587 232.829C579.307 220.898 573.719 209.547 573.2 198.042C572.775 188.412 572.83 176.277 560.82 173.533C551.437 171.385 547.088 170.789 540.462 176.942C534.836 181.816 544.09 186.026 545.33 187.577Z" fill="#2C356B"/>
<path d="M548.753 344.382C546.891 338.895 545.438 333.297 544.404 327.627C543.886 324.798 543.405 321.952 543.146 319.105C542.816 316.241 542.717 313.359 542.85 310.481C543.664 316.174 544.7 321.781 545.811 327.423C546.921 333.064 547.939 338.604 548.753 344.382Z" fill="#5E72D8"/>
<path d="M530.691 232.845C531.044 231.414 531.559 230.02 532.227 228.687C532.852 227.331 533.621 226.035 534.522 224.818C535.408 223.568 536.459 222.423 537.649 221.409C538.818 220.372 540.23 219.596 541.776 219.142C539.386 220.945 537.335 223.099 535.706 225.517C533.967 227.903 532.431 230.374 530.691 232.845Z" fill="#48549C"/>
<path d="M549.642 288.494C549.142 284.677 548.901 280.859 548.772 277.024C548.642 273.189 548.772 269.337 548.772 265.502C548.96 261.662 549.361 257.833 549.975 254.031C550.544 250.213 551.606 246.471 553.139 242.885C552.137 246.591 551.445 250.364 551.067 254.168C550.641 257.951 550.326 261.752 550.197 265.57C550.067 269.388 549.882 273.189 549.79 277.007L549.642 288.494Z" fill="#48549C"/>
<path d="M562.596 287.829C562.337 284.233 562.3 280.637 562.337 277.023C562.374 273.41 562.596 269.831 562.818 266.235C563.04 262.638 563.54 259.042 564.169 255.48C564.686 251.887 565.719 248.374 567.241 245.032C566.252 248.502 565.584 252.043 565.242 255.616C564.854 259.178 564.465 262.741 564.243 266.32C563.521 273.478 563.188 280.654 562.596 287.829Z" fill="#48549C"/>
<path d="M359.932 402.416C359.932 402.007 359.932 401.581 359.932 401.172C357.508 406.575 355.157 412.08 353.251 417.5C353.159 417.78 353.139 418.076 353.193 418.364C353.247 418.653 353.373 418.925 353.562 419.16C353.751 419.396 353.997 419.587 354.28 419.719C354.564 419.851 354.877 419.92 355.194 419.921C360.95 419.921 366.428 420.125 371.85 419.921C372.235 419.906 372.613 419.816 372.958 419.657C373.303 419.498 373.607 419.273 373.85 418.998C374.093 418.722 374.27 418.402 374.369 418.059C374.468 417.715 374.486 417.356 374.423 417.006C373.773 413.428 372.687 409.929 371.184 406.575C370.388 404.598 363.744 395.513 359.932 402.416Z" fill="#666FA4"/>
<path d="M406.346 399.945C405.532 405.621 403.552 411.211 403.422 416.989C403.427 417.821 403.787 418.618 404.424 419.207C405.061 419.797 405.924 420.133 406.827 420.142C412.379 420.142 417.654 420.142 423.113 420.142C423.482 420.14 423.845 420.058 424.175 419.905C424.504 419.751 424.79 419.53 425.011 419.257C425.231 418.985 425.38 418.669 425.446 418.334C425.512 418 425.492 417.656 425.389 417.33C423.131 410.853 417.802 395.514 406.346 399.945Z" fill="#666FA4"/>
<path d="M353.473 288C355.657 291.75 353.991 302.658 354.454 307.89C355.139 315.645 356.416 323.23 356.416 331.155C356.416 348.199 357.434 365.67 356.416 382.424C355.972 389.77 354.824 397.951 355.527 405.28C360.931 405.535 368.112 405.399 373.386 405.91C375.126 392.667 376.699 381.81 378.272 368.414C379.29 359.755 380.4 349.035 381.325 340.376C382.127 333.346 383.363 326.364 385.027 319.463C388.71 328.933 391.726 338.611 394.058 348.438C397 361.289 397.556 374.566 400.11 387.486C400.887 391.491 403.2 404.888 403.2 404.888C403.2 404.888 418.301 404.632 422.132 404.785C421.151 390.281 419.819 383.787 418.579 374.771C417.006 363.266 416.617 351.693 415.322 340.206C413.231 321.849 411.621 303.749 410.584 285.358C399.48 286.977 387.895 287.489 376.588 289.244C370.37 290.182 360.876 292.329 353.473 288Z" fill="#2C356B"/>
<path d="M360.746 179.208C353.122 180.725 351.678 188.974 354.047 194.838C357.008 202.149 366.65 206.615 374.182 209.103C379.641 210.91 387.766 212.342 390.579 206.41C393.281 200.769 387.211 192.162 383.805 187.662C379.105 181.594 369.407 174.675 360.746 179.208Z" fill="#DDB39D"/>
<mask id="mask1" mask-type="alpha" maskUnits="userSpaceOnUse" x="353" y="177" width="39" height="34">
<path d="M360.742 179.122C353.118 180.639 351.674 188.888 354.043 194.752C357.004 202.064 366.646 206.529 374.178 209.017C379.637 210.824 387.762 212.256 390.575 206.325C393.277 200.683 387.206 192.076 383.801 187.576C379.101 181.508 369.403 174.589 360.742 179.122Z" fill="#FFCDAA"/>
</mask>
<g mask="url(#mask1)">
<path d="M385.119 201.068C385.827 201.463 386.651 201.649 387.492 201.604C388.333 201.559 389.157 201.285 389.866 200.815C390.618 200.35 391.227 199.697 391.623 198.933C391.835 198.561 391.963 198.154 391.999 197.74C392.034 197.326 391.976 196.915 391.827 196.535C391.309 197.03 390.758 197.493 390.178 197.92C389.616 198.19 389.185 198.621 388.673 198.94C387.629 199.591 386.577 200.17 385.119 201.068Z" fill="white"/>
<path d="M384.504 188.791C383.891 188.21 383.065 187.888 382.184 187.884C381.303 187.881 380.428 188.198 379.726 188.774C379.017 189.291 378.477 190.004 378.182 190.811C377.887 191.618 377.853 192.479 378.084 193.269C378.767 192.922 379.421 192.518 380.04 192.062L381.369 190.987C382.206 190.48 382.97 189.794 384.504 188.791Z" fill="#1C2559"/>
<path d="M384.313 194.065C384.803 194.914 384.715 195.866 384.194 196.115C383.673 196.364 382.889 195.916 382.44 195.042C381.992 194.169 382.07 193.249 382.58 192.981C383.089 192.712 383.885 193.18 384.313 194.065Z" fill="#2C356B"/>
</g>
<path d="M368.075 201.212C368.186 203.922 370.758 234.806 381.566 225.739C384.527 223.25 382.917 212.512 382.343 209.206C381.77 205.899 380.493 202.388 377.735 200.309C374.978 198.229 369.537 197.207 368.075 201.212Z" fill="#DDB39D"/>
<path d="M343.424 292.38C347.366 295.107 354.676 310.276 361.505 308.146C370.666 305.282 355.953 291.852 352.696 289.789C351.253 288.903 347.477 286.091 345.608 286.517C341.703 287.403 344.035 291.545 343.424 292.38Z" fill="#DDB39D"/>
<path d="M403.219 292.38C400.231 295.822 398.067 299.806 396.871 304.073C395.798 309.05 397.704 313.532 403.441 309.663C406.587 307.533 409.566 301.652 410.547 298.227C411.102 296.215 411.695 293.71 409.936 292.04C408.178 290.369 403.441 290.301 403.219 292.38Z" fill="#DDB39D"/>
<path d="M358.303 293.403C355.601 296.624 351.845 298.277 347.588 300.578C341.925 295.465 336.688 289.244 330.932 283.926C326.33 279.261 323.777 273.185 323.77 266.882C324.788 253.588 329.933 245.117 337.743 234.311C341.444 229.198 345.978 221.136 351.049 218.119C359.58 213.006 373.257 214.506 383.028 214.523C390.856 214.523 401.072 213.944 406.587 219.636C415.951 229.368 423.372 244.912 426.481 257.457C429.59 270.001 416.858 282.904 413.656 294.493C412.85 296.868 411.764 299.154 410.418 301.311L398.092 296.965C398.092 296.965 401.794 290.147 402.978 287.932C399.277 285.358 406.309 270.24 407.549 266.354C410.418 257.491 406.624 252.105 400.48 246.02C404.384 259.741 403.422 279.137 408.03 292.823C389.949 293.079 370.888 298.499 353.455 292.823C352.844 285.204 353.159 255.769 354.047 248.355C348.791 248.799 339.852 263.15 340.26 267.393C340.722 272.507 350.031 281.029 352.881 285.222C354.907 287.82 356.72 290.555 358.303 293.403Z" fill="#BA2F48"/>
<path d="M367.409 190.985C370.629 186.043 381.973 186.98 383.805 183.333C387.969 175.101 376.292 173.822 370.018 172.425C361.394 170.516 353.159 171.726 347.958 178.731C342.573 186.009 346.348 193.661 351.475 200.206C353.455 202.746 355.768 206.155 358.877 207.399C362.745 208.95 364.873 206.461 368.741 207.654C368.43 206.221 368.233 204.768 368.149 203.308C365.058 203.308 360.876 201.519 361.801 198.689C362.541 196.474 365.502 197.155 367.483 198.365C366.902 197.211 366.596 195.955 366.583 194.683C366.57 193.41 366.852 192.15 367.409 190.985Z" fill="#232046"/>
<path d="M394.188 293.147C394.188 293.147 397.889 304.942 411.028 305.845V312.816H392.522L394.188 293.147Z" fill="#2C356B"/>
<path d="M354.399 307.89C354.399 307.89 362.597 305.657 365.502 295.806L367.649 313.957L357.156 314.759L354.399 307.89Z" fill="#2C356B"/>
<path d="M353.473 286.432C354.418 287.219 355.229 288.133 355.879 289.142C356.573 290.137 357.022 291.26 357.193 292.431C355.953 290.42 354.547 288.58 353.473 286.432Z" fill="#CA455D"/>
<path d="M400.72 292.21C400.889 289.407 401.329 286.624 402.034 283.893C402.696 281.15 403.664 278.477 404.921 275.916C403.441 281.319 402.071 286.739 400.72 292.21Z" fill="#CA455D"/>
<path d="M355.324 417.057C358.266 417.057 361.116 417.057 363.985 417.057C365.41 417.057 366.835 417.057 368.278 417.057L372.609 416.972C369.867 417.997 366.925 418.49 363.966 418.421C361.022 418.429 358.098 417.968 355.324 417.057Z" fill="#545C8D"/>
<path d="M405.661 417.398C408.604 417.398 411.454 417.398 414.322 417.398C415.747 417.398 417.172 417.398 418.616 417.398H422.965C420.22 418.412 417.28 418.905 414.322 418.847C411.366 418.828 408.436 418.338 405.661 417.398Z" fill="#545C8D"/>
<path d="M355.009 307.549C357.304 306.215 359.358 304.559 361.098 302.641C361.952 301.699 362.714 300.69 363.374 299.624C364.077 298.567 364.577 297.408 365.225 296.215C365.161 298.888 364.11 301.461 362.245 303.51C360.42 305.594 357.86 307.023 355.009 307.549Z" fill="#475297"/>
<path d="M409.585 305.691C406.544 305.916 403.514 305.156 401.016 303.544C398.471 301.977 396.583 299.656 395.668 296.965C396.686 298.005 397.518 299.044 398.61 299.93C399.619 300.827 400.708 301.643 401.867 302.368C404.24 303.834 406.842 304.955 409.585 305.691Z" fill="#475297"/>
<path d="M356.416 216.944C357.221 221.971 357.573 227.05 357.471 232.13C357.472 237.24 356.687 242.324 355.139 247.231C356.182 242.266 356.721 237.222 356.749 232.164C356.749 229.625 356.749 227.051 356.749 224.562C356.749 222.074 356.564 219.466 356.416 216.944Z" fill="#CA455D"/>
<path d="M402.46 217.813C402.053 220.028 401.701 222.261 401.368 224.477C401.035 226.693 400.702 228.925 400.498 231.141C399.928 235.592 399.81 240.083 400.147 244.554C399.314 240.107 399.183 235.572 399.758 231.09C400.249 226.602 401.152 222.16 402.46 217.813Z" fill="#CA455D"/>
<defs>
<linearGradient id="paint0_linear" x1="1545.47" y1="18190.3" x2="692.724" y2="18267.3" gradientUnits="userSpaceOnUse">
<stop stop-color="#5D8EEE"/>
<stop offset="1" stop-color="#275EC9"/>
</linearGradient>
</defs>
</svg>
