<svg width="47" height="14" viewBox="0 0 47 14" fill="none" xmlns="http://www.w3.org/2000/svg">
<path d="M17.2333 13.6335L19.6206 0.439941H23.3508L21.0381 13.6335H17.2333Z" fill="#3C58BF"/>
<path d="M17.2333 13.6335L20.2921 0.439941H23.3508L21.0381 13.6335H17.2333Z" fill="#293688"/>
<path d="M34.5412 0.586379C33.7952 0.293189 32.6016 0 31.1095 0C27.3793 0 24.6936 1.83244 24.6936 4.47115C24.6936 6.45018 26.5587 7.47634 28.0508 8.13602C29.5428 8.7957 29.9904 9.23548 29.9904 9.82186C29.9904 10.7014 28.7968 11.1412 27.7523 11.1412C26.2603 11.1412 25.4397 10.9213 24.1714 10.4082L23.6492 10.1883L23.127 13.1935C24.0222 13.56 25.6635 13.9265 27.3793 13.9265C31.3333 13.9265 33.9444 12.0941 33.9444 9.30878C33.9444 7.76953 32.9746 6.59677 30.7365 5.64391C29.3936 4.98423 28.573 4.61774 28.573 3.95806C28.573 3.37168 29.2444 2.7853 30.7365 2.7853C32.0047 2.7853 32.9 3.0052 33.5714 3.29839L33.9444 3.44498L34.5412 0.586379Z" fill="#3C58BF"/>
<path d="M34.5412 0.586379C33.7952 0.293189 32.6016 0 31.1095 0C27.3793 0 25.365 1.83244 25.365 4.47115C25.365 6.45018 26.5587 7.47634 28.0508 8.13602C29.5428 8.7957 29.9904 9.23548 29.9904 9.82186C29.9904 10.7014 28.7968 11.1412 27.7523 11.1412C26.2603 11.1412 25.4397 10.9213 24.1714 10.4082L23.6492 10.1883L23.127 13.1935C24.0222 13.56 25.6635 13.9265 27.3793 13.9265C31.3333 13.9265 33.9444 12.0941 33.9444 9.30878C33.9444 7.76953 32.9746 6.59677 30.7365 5.64391C29.3936 4.98423 28.573 4.61774 28.573 3.95806C28.573 3.37168 29.2444 2.7853 30.7365 2.7853C32.0047 2.7853 32.9 3.0052 33.5714 3.29839L33.9444 3.44498L34.5412 0.586379Z" fill="#293688"/>
<path d="M40.9572 0.439941C40.0619 0.439941 39.3905 0.51324 39.0175 1.39281L33.4222 13.6335H37.4508L38.1968 11.4346H42.9714L43.4191 13.6335H47L43.8667 0.439941H40.9572ZM39.2413 9.23564C39.4651 8.57596 40.7334 5.35087 40.7334 5.35087C40.7334 5.35087 41.0318 4.5446 41.2556 4.03152L41.4794 5.27758C41.4794 5.27758 42.2254 8.57596 42.3746 9.30894H39.2413V9.23564Z" fill="#3C58BF"/>
<path d="M41.8524 0.439941C40.9572 0.439941 40.2857 0.51324 39.9127 1.39281L33.4222 13.6335H37.4508L38.1968 11.4346H42.9714L43.4191 13.6335H47L43.8667 0.439941H41.8524ZM39.2413 9.23564C39.5397 8.50266 40.7334 5.35087 40.7334 5.35087C40.7334 5.35087 41.0318 4.5446 41.2556 4.03152L41.4794 5.27758C41.4794 5.27758 42.2254 8.57596 42.3746 9.30894H39.2413V9.23564Z" fill="#293688"/>
<path d="M10.3698 9.67537L9.99682 7.76963C9.32539 5.57071 7.1619 3.15189 4.7746 1.97913L8.13174 13.7067H12.1603L18.2032 0.513184H14.1746L10.3698 9.67537Z" fill="#3C58BF"/>
<path d="M10.3698 9.67537L9.99682 7.76963C9.32539 5.57071 7.1619 3.15189 4.7746 1.97913L8.13174 13.7067H12.1603L18.2032 0.513184H14.9206L10.3698 9.67537Z" fill="#293688"/>
<path d="M0 0.439941L0.671429 0.586537C5.44603 1.686 8.72857 4.4713 9.99682 7.76969L8.65397 1.5394C8.43016 0.659834 7.75873 0.439941 6.9381 0.439941H0Z" fill="#FFBC00"/>
<path d="M0 0.439941C4.7746 1.5394 8.72857 4.39801 9.99682 7.69639L8.72857 2.49227C8.50476 1.6127 7.75873 1.09962 6.9381 1.09962L0 0.439941Z" fill="#F7981D"/>
<path d="M0 0.439941C4.7746 1.5394 8.72857 4.39801 9.99682 7.69639L9.10159 4.83779C8.87778 3.95822 8.57936 3.07865 7.53492 2.71216L0 0.439941Z" fill="#ED7C00"/>
<path d="M14.0999 9.23551L11.5634 6.7434L10.3698 9.5287L10.0713 7.69626C9.39991 5.49734 7.23642 3.07852 4.84912 1.90576L8.20626 13.6334H12.2348L14.0999 9.23551Z" fill="#051244"/>
<path d="M21.038 13.6343L17.8301 10.4092L17.2333 13.6343H21.038Z" fill="#051244"/>
<path d="M29.6174 9.08887C29.9158 9.38206 30.065 9.60195 29.9904 9.89514C29.9904 10.7747 28.7968 11.2145 27.7524 11.2145C26.2603 11.2145 25.4397 10.9946 24.1714 10.4815L23.6492 10.2616L23.127 13.2668C24.0222 13.6333 25.6635 13.9998 27.3793 13.9998C29.7666 13.9998 31.7063 13.3401 32.8254 12.1674L29.6174 9.08887Z" fill="#051244"/>
<path d="M33.9445 13.6337H37.4508L38.1968 11.4348H42.9714L43.4191 13.6337H47L45.7318 8.28299L41.2556 4.03174L41.4794 5.2045C41.4794 5.2045 42.2254 8.50288 42.3746 9.23586H39.2413C39.5397 8.50288 40.7333 5.35109 40.7333 5.35109C40.7333 5.35109 41.0318 4.54482 41.2556 4.03174" fill="#051244"/>
</svg>
